<svg width="88" height="154" viewBox="0 0 88 154" fill="none" xmlns="http://www.w3.org/2000/svg">
<path d="M22.1609 28.0271C21.5609 27.5871 21.5309 27.9771 21.4509 27.9371C20.4909 27.5471 18.1809 26.1271 17.7609 25.1971C17.1909 23.9371 17.2409 22.8071 17.4309 21.5871C18.0009 20.0571 18.9809 18.9371 20.0409 18.5771C19.7309 17.4971 19.2409 14.9471 22.1809 13.6571C21.6109 12.0071 22.7509 8.77709 25.1209 8.18709C25.3009 6.08709 26.5209 4.91709 28.6709 4.89709C29.5709 3.53709 31.0009 3.17709 32.4009 3.98709C32.9809 3.33709 34.6209 2.38709 36.3109 2.67709C38.5309 1.88709 40.3609 2.31709 42.1609 3.67709C44.0909 5.13709 43.6809 7.49709 43.4909 9.74709C43.2709 12.3371 42.3408 14.8171 41.0108 17.0071C38.1808 21.6571 33.6408 24.7671 29.0708 27.3971C27.2408 28.4471 25.5609 29.6371 23.6809 30.5771C23.5209 29.6171 22.9409 28.5871 22.1609 28.0271Z" fill="#AAC4F4"/>
<path d="M17.9517 29.187C16.5917 28.647 16.5017 26.437 17.0017 25.457C16.8317 24.027 17.0217 22.697 17.4317 21.577C17.2417 22.797 17.1817 23.917 17.7617 25.187C18.1817 26.107 20.4917 27.527 21.4517 27.927C21.5317 27.957 21.5617 27.577 22.1617 28.017C22.9417 28.587 23.5317 29.607 23.6817 30.577C23.2417 30.797 22.7917 31.007 22.3217 31.197C20.6317 31.887 18.3117 31.197 17.9517 29.187Z" fill="#0038FF"/>
<path d="M41.5122 4.52713C41.5122 4.52713 39.8923 3.02713 38.3023 2.93713C36.7123 2.84713 36.4423 2.97713 36.4723 3.72713C36.5023 4.47713 35.9322 4.77713 35.7022 4.21713C35.4722 3.65713 35.5923 2.92713 34.6523 3.18713C33.7123 3.44713 32.2922 4.04713 32.5122 4.51713C32.7222 4.98713 33.2522 4.61713 33.8322 4.91713C34.3522 5.18713 34.8923 5.77713 33.7122 6.86714C33.2522 7.29713 32.1323 7.53713 31.6723 7.83713C30.9623 8.29713 30.4723 8.71713 29.8023 8.98713C28.6923 9.41713 27.9822 9.33713 28.1422 8.86714C28.3022 8.39714 29.1323 7.93713 29.3623 7.43713C29.5923 6.93713 29.0722 6.24713 28.7722 5.96713C28.3122 5.53713 27.9723 5.26713 27.2823 5.77713C26.5823 6.28714 25.6723 7.21713 25.9423 7.88713C26.4123 9.05713 25.5823 8.91713 24.8323 9.06713C23.8823 9.25713 23.4523 9.55713 23.2423 10.9071C23.0323 12.2571 23.0123 13.3671 23.7023 13.7771C24.3823 14.1971 25.3923 13.3471 25.6523 13.0371C25.9123 12.7271 25.5523 14.1771 25.8123 14.5271C26.0723 14.8771 26.3823 15.6271 25.8623 15.4871C25.3523 15.3471 24.7523 15.1771 24.4023 15.4871C23.8623 15.9671 24.0122 16.6871 23.4622 17.0871C22.9022 17.4871 22.1323 17.0871 22.1323 15.9471C22.1323 15.4571 22.4823 14.6871 21.6623 14.8471C20.8423 15.0071 20.0222 16.1671 20.2122 16.8271C20.4122 17.4871 20.8823 17.8671 21.2223 18.2971C21.5623 18.7271 21.3923 19.6071 21.0023 19.9171C20.6123 20.2271 20.3623 20.9671 20.4023 22.1471C20.4423 23.3171 19.6322 22.8171 19.4622 22.2971C19.2922 21.7771 19.2223 20.8671 18.7923 20.8671C18.3623 20.8671 17.5723 21.2471 17.5723 21.2471C17.5723 21.2471 17.8423 20.3771 18.5623 19.6371C19.4123 18.7571 20.0423 18.5771 20.0423 18.5771C20.0423 18.5771 19.5523 17.0271 20.0423 15.7171C20.5323 14.3971 22.1823 13.6571 22.1823 13.6571C22.1823 13.6571 21.3223 12.3571 22.5123 10.1971C23.7023 8.04713 25.1223 8.18713 25.1223 8.18713C25.1223 8.18713 24.8223 6.52713 26.2323 5.35713C27.6523 4.18713 28.6523 4.79713 28.6523 4.79713C28.6523 4.79713 28.9822 4.06713 30.2722 3.65713C31.5622 3.24713 32.4123 3.99713 32.4123 3.99713C32.4123 3.99713 32.7822 3.28713 34.2622 2.75713C35.2922 2.38713 36.3222 2.68713 36.3222 2.68713C36.3222 2.68713 38.7523 1.53713 41.3123 2.96713C43.0723 3.95713 43.3922 5.23713 43.3922 5.23713L41.5122 4.52713Z" fill="#0038FF"/>
<path d="M51.1321 12.0971C51.0421 12.1771 51.0421 12.3571 51.1321 12.4271C51.9721 13.0971 52.5921 13.9771 52.6821 15.0671C52.7421 15.7371 52.5821 16.2571 52.3021 16.7371C52.3121 16.7471 52.322 16.7571 52.332 16.7771C52.542 17.1471 52.502 17.5971 52.392 17.9871C52.272 18.3971 52.0221 18.8471 51.6821 19.2171C51.7321 19.3671 51.772 19.5171 51.782 19.6771C51.862 20.3871 51.7421 21.0971 51.3821 21.7171C50.9221 22.5071 50.262 22.8871 49.512 23.1171C49.662 23.6971 49.512 24.3871 49.162 24.8071C48.852 25.1771 48.292 25.4671 47.772 25.4571C47.572 25.8371 47.322 26.1871 47.042 26.5171C46.392 27.2671 45.702 27.6271 44.792 27.7171C44.552 28.2871 44.032 28.7971 43.572 29.0171C42.982 29.2971 42.3321 29.2971 41.7521 29.0871C41.2121 29.9871 40.342 30.5971 39.402 31.0671C38.142 31.6971 37.1721 31.7171 36.0621 31.0471C35.7321 31.3971 35.2121 31.5371 34.7421 31.5771C34.0121 31.6371 33.142 31.4571 32.512 31.0171C32.002 31.6671 31.062 32.0071 30.212 31.9171C29.782 31.8671 29.372 31.7271 29.012 31.5071C28.802 32.0171 28.042 32.4571 27.572 32.5671C26.792 32.7471 25.862 32.5071 25.262 31.9571C24.712 32.4871 23.6821 32.4671 22.9921 32.2771C22.6221 32.1771 22.232 32.0071 21.872 31.8071C21.782 31.3371 21.782 30.8571 21.882 30.4271C20.792 29.6271 20.392 27.9671 20.812 26.6471C21.042 25.9171 21.512 25.2871 22.102 24.8271C22.252 21.4171 23.952 17.5871 27.312 17.1571C27.512 15.3871 27.9421 13.4971 29.0521 12.2771C29.8921 11.3471 31.922 10.2371 33.282 10.2471C33.472 9.15712 34.3321 8.04712 35.9421 7.57712C36.2321 6.10712 38.9221 4.16712 41.6321 5.34712C42.6821 4.80712 44.152 4.80712 44.982 5.35712C45.982 5.06712 47.3121 5.17712 47.9921 5.85712C48.9421 6.80712 49.3621 7.84712 49.5521 9.25712C50.3021 9.45712 51.072 10.0371 51.532 10.4971C51.652 10.6171 51.782 10.7671 51.912 10.9171C51.792 11.3371 51.5421 11.7471 51.1321 12.0971Z" fill="#0038FF"/>
<path d="M52.8816 13.2971C54.6016 14.1971 55.4316 16.5771 54.6116 18.5771C55.6116 20.2971 55.1016 22.4671 53.8616 23.9471C54.3916 25.2871 53.4216 27.6871 52.3116 27.9771C52.5316 29.5171 50.6216 30.5271 49.4416 30.3771C49.1916 31.5271 47.8615 32.3871 46.1415 32.3171C44.9615 34.3971 41.9116 34.0071 41.0616 33.8571C40.2616 34.7771 38.8915 35.2771 37.8215 35.4871C34.7115 36.0971 32.4316 33.9571 32.4216 33.9371C31.2316 35.4071 28.5916 35.4671 27.7916 34.0171C26.3616 35.2871 23.7916 34.7671 22.5916 33.4071C22.2216 32.9871 21.9616 32.4071 21.8516 31.7871C22.2116 31.9971 22.5916 32.1571 22.9716 32.2571C23.6616 32.4471 24.6916 32.4771 25.2416 31.9371C25.8516 32.4871 26.7816 32.7171 27.5516 32.5471C28.0216 32.4371 28.7816 31.9971 28.9916 31.4871C29.3616 31.7071 29.7716 31.8571 30.1916 31.8971C31.0416 31.9871 31.9916 31.6571 32.4916 30.9971C33.1216 31.4471 33.9816 31.6171 34.7216 31.5571C35.1916 31.5171 35.7116 31.3871 36.0416 31.0271C37.1616 31.6971 38.1316 31.6771 39.3816 31.0471C40.3216 30.5771 41.1916 29.9671 41.7316 29.0671C42.3116 29.2771 42.9616 29.2771 43.5516 28.9971C44.0116 28.7771 44.5315 28.2671 44.7715 27.6971C45.6915 27.6071 46.3715 27.2471 47.0215 26.4971C47.3015 26.1671 47.5616 25.8171 47.7516 25.4371C48.2716 25.4471 48.8315 25.1571 49.1415 24.7871C49.5015 24.3671 49.6516 23.6771 49.4916 23.0971C50.2416 22.8671 50.9016 22.4871 51.3616 21.6971C51.7216 21.0771 51.8415 20.3671 51.7615 19.6571C51.7415 19.4971 51.7016 19.3471 51.6616 19.1971C51.9916 18.8371 52.2516 18.3871 52.3716 17.9671C52.4816 17.5771 52.5316 17.1171 52.3116 16.7571C52.3016 16.7471 52.2916 16.7271 52.2816 16.7171C52.5616 16.2371 52.7216 15.7171 52.6616 15.0471C52.5716 13.9471 51.9516 13.0771 51.1116 12.4071C51.0216 12.3371 51.0216 12.1471 51.1116 12.0771C51.5216 11.7271 51.7716 11.3171 51.8816 10.8871C52.4416 11.5671 52.9816 12.4971 52.8816 13.2971Z" fill="#0038FF"/>
<path d="M52.8816 13.2971C54.6016 14.1971 55.4316 16.5771 54.6116 18.5771C55.6116 20.2971 55.1016 22.4671 53.8616 23.9471C54.3916 25.2871 53.4216 27.6871 52.3116 27.9771C52.5316 29.5171 50.6216 30.5271 49.4416 30.3771C49.1916 31.5271 47.8615 32.3871 46.1415 32.3171C44.9615 34.3971 41.9116 34.0071 41.0616 33.8571C40.2616 34.7771 38.8915 35.2771 37.8215 35.4871C34.7115 36.0971 32.4316 33.9571 32.4216 33.9371C31.2316 35.4071 28.5916 35.4671 27.7916 34.0171C26.3616 35.2871 23.7916 34.7671 22.5916 33.4071C22.2216 32.9871 21.9616 32.4071 21.8516 31.7871C22.2116 31.9971 22.5916 32.1571 22.9716 32.2571C23.6616 32.4471 24.6916 32.4771 25.2416 31.9371C25.8516 32.4871 26.7816 32.7171 27.5516 32.5471C28.0216 32.4371 28.7816 31.9971 28.9916 31.4871C29.3616 31.7071 29.7716 31.8571 30.1916 31.8971C31.0416 31.9871 31.9916 31.6571 32.4916 30.9971C33.1216 31.4471 33.9816 31.6171 34.7216 31.5571C35.1916 31.5171 35.7116 31.3871 36.0416 31.0271C37.1616 31.6971 38.1316 31.6771 39.3816 31.0471C40.3216 30.5771 41.1916 29.9671 41.7316 29.0671C42.3116 29.2771 42.9616 29.2771 43.5516 28.9971C44.0116 28.7771 44.5315 28.2671 44.7715 27.6971C45.6915 27.6071 46.3715 27.2471 47.0215 26.4971C47.3015 26.1671 47.5616 25.8171 47.7516 25.4371C48.2716 25.4471 48.8315 25.1571 49.1415 24.7871C49.5015 24.3671 49.6516 23.6771 49.4916 23.0971C50.2416 22.8671 50.9016 22.4871 51.3616 21.6971C51.7216 21.0771 51.8415 20.3671 51.7615 19.6571C51.7415 19.4971 51.7016 19.3471 51.6616 19.1971C51.9916 18.8371 52.2516 18.3871 52.3716 17.9671C52.4816 17.5771 52.5316 17.1171 52.3116 16.7571C52.3016 16.7471 52.2916 16.7271 52.2816 16.7171C52.5616 16.2371 52.7216 15.7171 52.6616 15.0471C52.5716 13.9471 51.9516 13.0771 51.1116 12.4071C51.0216 12.3371 51.0216 12.1471 51.1116 12.0771C51.5216 11.7271 51.7716 11.3171 51.8816 10.8871C52.4416 11.5671 52.9816 12.4971 52.8816 13.2971Z" fill="#0038FF"/>
<path d="M39.6909 9.01711C40.0009 8.91711 40.2608 9.05711 40.4808 9.24711C40.5908 9.33711 41.1308 10.2471 41.6608 10.4471C42.2708 10.6671 43.1408 10.5171 43.4608 10.7271C43.6708 10.8671 44.1109 11.3771 44.2509 11.4971C44.8409 11.9871 45.1408 11.9871 45.8508 12.1071C46.1308 12.1571 46.4008 12.2071 46.6708 12.3371C47.8208 12.9071 48.5608 13.9871 48.2108 14.4971C47.5808 15.4271 46.9908 14.8471 46.7608 14.1171C46.3808 12.9071 45.5308 13.4171 45.2808 13.4471C44.4908 13.5571 43.9808 14.5171 42.5708 13.7871C41.4608 13.2071 42.1108 12.1171 41.1608 11.5071C40.4208 11.0271 40.7409 10.5971 39.8809 10.0571C39.2709 9.68711 39.1109 9.19711 39.6909 9.01711Z" fill="#AAC4F4"/>
<path d="M35.7723 10.9072C36.2423 10.4272 39.2623 12.4572 39.6023 12.8872C39.8823 13.2472 40.0123 13.6572 40.0323 14.0872C40.1923 14.5172 40.7823 14.3172 41.3123 14.5272C41.6823 14.6772 42.5523 15.2472 43.0023 16.0872C43.2423 16.5372 43.2623 17.1672 42.0423 17.2072C41.6123 17.2172 40.5223 17.1472 40.7123 18.0472C40.7323 18.1172 41.6723 18.7972 41.7323 19.2572C41.8323 20.1272 40.7223 21.5572 40.4323 21.6872C39.6523 22.0272 39.1523 22.3972 38.5123 22.0972C36.6723 21.2472 38.3923 19.9672 38.5123 18.7672C38.6323 17.5872 37.8923 16.7572 38.1823 16.1772C38.6923 15.1672 38.3123 14.5372 38.0923 14.0972C37.8223 13.5872 35.2023 11.4872 35.7723 10.9072Z" fill="#AAC4F4"/>
<path d="M38.3616 20.2071C38.6616 19.8671 39.0316 19.5671 39.3616 19.2571C39.6916 18.9471 40.2616 18.2671 40.7416 18.7471C41.1316 19.1371 40.7816 19.9071 40.5216 20.2671C40.4116 20.4271 39.5916 21.1671 39.2916 21.2671C38.8816 21.4071 38.2316 21.3871 38.1216 20.8671C38.0616 20.6171 38.2016 20.3971 38.3616 20.2071Z" fill="#AAC4F4"/>
<path d="M48.6918 16.4371C48.9218 15.8971 49.3317 15.7571 49.7217 15.3071C50.1917 14.7671 50.2318 14.5071 50.6918 14.7671C50.9718 14.9271 51.2118 15.1271 51.5518 16.1971C51.8018 16.9971 51.7617 17.5171 51.4017 18.5871C51.1017 19.4671 50.6617 19.4071 50.2617 19.2471C49.7517 19.0371 50.4017 18.5871 49.6017 17.6671C49.3417 17.3671 48.5018 16.8771 48.6918 16.4371Z" fill="#AAC4F4"/>
<path d="M38.671 25.1171C38.941 24.7571 39.191 24.3871 39.411 23.9971C39.701 23.4971 40.141 22.8971 40.821 23.0371C41.291 23.1371 41.541 23.4471 41.621 23.8371C41.671 24.0671 41.721 24.8571 40.971 25.8571C40.481 26.5071 38.621 27.3071 38.371 26.0071C38.291 25.6571 38.471 25.3771 38.671 25.1171Z" fill="#AAC4F4"/>
<path d="M30.8411 19.5271C31.3111 18.7371 31.8611 17.9071 32.7811 17.6071C33.0111 17.5271 33.8411 16.9471 34.6511 16.6071C35.6911 16.1671 35.8612 16.3671 36.3512 17.1171C36.7112 17.6771 36.3712 18.1471 35.5512 18.4271C35.0212 18.6071 33.4812 18.2771 32.6912 18.6571C31.5212 19.2271 32.3611 20.6071 32.2611 21.1671C32.2111 21.4671 32.0211 21.7071 31.7811 21.8871C31.2611 22.2871 30.3912 22.4471 29.9812 21.8171C29.4912 21.0871 30.4811 20.1171 30.8411 19.5271Z" fill="#AAC4F4"/>
<path d="M25.7519 27.7472C26.0319 27.9272 26.3019 28.1072 26.5819 28.2972C27.1919 28.7172 27.7619 29.4872 27.0119 30.0972C26.3619 30.6372 25.3219 30.3972 24.7619 29.8372C24.2819 29.3672 24.1319 28.6972 24.3119 28.1072C24.3719 27.9172 24.8619 27.1572 25.7519 27.7472Z" fill="#AAC4F4"/>
<path d="M25.0319 19.2272C25.1419 18.8872 25.3619 18.6672 25.6319 18.5272C25.8519 18.4172 26.9819 17.7372 27.5019 18.0572C28.5019 18.6672 28.1218 18.9872 27.9618 19.0572C27.7018 19.1772 27.1218 19.2272 26.9018 19.4172C26.4518 19.7972 26.3519 20.3372 26.6319 20.7972C27.0319 21.4572 27.9919 22.9172 27.5919 23.7272C27.3519 24.1972 26.4418 24.5772 25.4618 23.7272C24.9118 23.2572 24.2919 23.1672 24.0719 23.7072C23.6819 24.6572 24.3719 24.9172 24.0719 25.6272C23.8119 26.2472 22.4119 26.4272 22.5219 27.2572C22.6819 28.5172 22.2219 29.4072 21.4819 28.7272C21.4019 28.6572 20.9618 27.4672 21.4618 26.6472C21.6918 26.2772 21.8819 25.8772 22.1619 25.5972C22.6119 25.1672 22.6119 24.8272 22.6119 24.4472C22.6119 23.3072 22.6119 22.7072 23.0219 22.3572C23.4119 22.0272 24.1319 22.1372 24.6719 22.0272C25.4719 21.8672 25.4319 21.3872 25.2819 20.9572C25.1819 20.6872 25.0819 20.4272 25.0319 20.1372C24.9619 19.8372 24.9319 19.5172 25.0319 19.2272Z" fill="#AAC4F4"/>
<path d="M29.3413 13.1771C29.6313 13.0771 29.8413 13.1571 30.1113 13.2571C30.5013 13.3971 31.4013 13.4671 31.5913 13.4071C31.8413 13.3171 32.6113 12.9271 33.4113 13.0271C34.7013 13.1971 35.6313 14.1371 35.7513 14.5971C35.8513 14.9671 35.1713 15.1871 34.0813 14.5271C33.5713 14.2171 32.6613 14.4071 32.1313 15.1571C31.8213 15.5871 32.3013 15.8171 30.9813 16.5771C30.1613 17.0571 29.5213 17.5371 29.0413 17.3771C28.1813 17.0971 28.5713 16.7671 28.9813 16.2671C29.6613 15.4571 28.8013 14.6271 28.7513 14.3071C28.7013 13.8571 28.8713 13.3471 29.3413 13.1771Z" fill="#AAC4F4"/>
<path d="M37.5024 6.34709C37.6224 6.18709 38.3624 5.79709 38.6124 5.70709C39.1024 5.51709 39.6824 5.47709 40.0624 5.60709C40.3024 5.68709 40.4723 5.87709 40.4123 6.13709C40.3723 6.32709 40.1923 6.48709 40.0823 6.62709C39.9323 6.82709 39.7823 7.07709 39.5723 7.23709C39.3023 7.43709 38.9723 7.45709 38.6523 7.40709C38.3123 7.35709 37.8423 7.29709 37.5823 7.04709C37.3923 6.86709 37.3324 6.56709 37.5024 6.34709Z" fill="#AAC4F4"/>
<path d="M30.1826 28.1872C30.8226 27.3672 30.0725 26.8072 29.8425 26.1972C29.5525 25.4372 29.3725 24.4772 30.1425 23.6972C30.6625 23.1772 32.3426 23.4672 33.4926 24.8672C33.9226 25.3972 34.4726 26.1172 35.1126 25.7972C35.7526 25.4772 35.9925 24.6072 35.7625 23.9672C35.5425 23.3272 35.6926 22.6372 36.1326 22.5972C36.9326 22.5272 37.6125 23.1672 37.5925 23.9672C37.5825 24.3572 36.4626 24.8672 36.4926 25.4272C36.5226 25.9872 36.9525 26.7872 36.6525 27.6272C36.3525 28.4772 35.6625 28.7572 35.1525 28.1872C34.6425 27.6172 34.6425 26.5372 34.2125 26.1372C33.7825 25.7372 32.4526 25.2672 32.3026 25.8972C32.0826 26.8172 32.8525 28.5672 32.0825 29.2672C31.6225 29.6772 31.0525 30.4072 30.2725 29.8672C29.6525 29.4272 29.6326 28.8872 30.1826 28.1872Z" fill="#AAC4F4"/>
<path d="M40.0421 14.8471C40.9821 15.2171 41.0021 14.7371 41.6421 15.2971C42.2821 15.8571 42.3621 16.4071 41.2621 16.5871C40.5121 16.7071 40.4221 17.5571 39.7121 17.6671C39.3221 17.7271 38.8321 16.8871 38.9121 16.2571C39.0621 15.0971 38.6121 13.9371 38.1021 13.3071C37.5921 12.6771 37.1321 11.9371 37.8221 12.0271C38.0921 12.0671 39.3221 13.1171 39.4221 13.4571C39.5821 14.0071 39.6621 14.6971 40.0421 14.8471Z" fill="#AAC4F4"/>
<path d="M42.3513 11.0571C43.0913 11.1571 43.2913 11.3171 43.9813 11.8271C44.6813 12.3371 45.4313 12.3471 45.7213 12.3871C46.0113 12.4271 46.6214 12.4471 47.3014 13.0371C47.9814 13.6271 47.6914 13.7971 47.3014 13.7971C46.9114 13.7971 46.4613 12.7571 45.7213 12.9171C44.9813 13.0771 43.5613 13.5771 42.7313 13.3271C41.9113 13.0671 42.3813 12.1471 41.9813 11.6871C41.5913 11.2271 41.6813 10.9571 42.3513 11.0571Z" fill="#AAC4F4"/>
<path d="M30.0915 13.7772C30.9815 14.0172 31.2315 13.9272 31.6515 13.7772C32.0715 13.6272 32.9715 13.0672 33.5315 13.3072C34.0915 13.5472 33.8415 13.8872 32.9715 14.0572C32.1115 14.2272 31.3215 15.1072 30.9815 15.6572C30.6515 16.2072 29.2015 17.2672 29.3415 16.4072C29.4815 15.5572 29.9115 15.1072 29.5715 14.6072C29.2315 14.1072 29.4615 13.6072 30.0915 13.7772Z" fill="#AAC4F4"/>
<path d="M31.3827 23.8471C32.0927 24.0171 32.6327 24.1871 32.6727 24.6471C32.7227 25.1671 31.8726 24.6471 31.5926 25.4271C31.4826 25.7271 31.8127 26.5271 31.8827 27.6271C31.9527 28.7271 31.0827 28.9971 30.7427 28.8371C30.4027 28.6871 31.1727 27.9071 30.7427 26.8371C30.3127 25.7671 29.9227 24.9071 30.2327 24.2971C30.5327 23.6971 30.7927 23.7071 31.3827 23.8471Z" fill="#AAC4F4"/>
<path d="M26.3626 18.7671C26.7426 18.8071 26.1126 19.6071 26.0626 20.1971C26.0126 20.7871 26.8526 22.1471 26.8826 22.7971C26.9126 23.4471 26.1026 23.5171 25.5826 23.1571C25.0726 22.7971 24.5526 22.6171 24.0626 23.1571C23.5726 23.6971 23.0626 23.9671 22.9226 23.3071C22.7826 22.6371 23.5726 22.3771 24.0626 22.3571C24.5526 22.3371 25.4326 22.4971 25.6726 22.2971C26.1826 21.8671 25.5426 20.9671 25.4126 20.1071C25.2926 19.2471 25.7226 18.6971 26.3626 18.7671Z" fill="#AAC4F4"/>
<path d="M36.102 25.8971C36.552 26.2871 36.632 26.8271 36.062 27.6371C35.492 28.4371 35.1219 27.1271 35.0719 26.7071C35.0319 26.2871 35.742 25.5771 36.102 25.8971Z" fill="#AAC4F4"/>
<path d="M40.5923 23.6071C41.1823 24.0371 41.4123 24.7371 40.5923 25.4571C39.7723 26.1771 39.0723 26.3671 39.0723 25.8571C39.0723 25.4471 40.2023 23.3171 40.5923 23.6071Z" fill="#AAC4F4"/>
<path d="M35.0713 16.7371C35.7813 16.6771 36.0613 16.9971 36.2313 17.3871C36.4013 17.7771 35.4613 17.7371 34.8613 17.5371C34.2613 17.3471 34.1213 16.8171 35.0713 16.7371Z" fill="#AAC4F4"/>
<path d="M31.3923 19.6871C31.9523 20.1371 31.8723 21.4371 31.5823 21.5271C31.1023 21.6771 30.5224 22.0071 30.4824 21.3271C30.4424 20.6471 31.0423 19.3971 31.3923 19.6871Z" fill="#AAC4F4"/>
<path d="M44.1716 19.9672C44.7016 19.9772 45.3516 20.0272 45.5416 19.6872C45.7816 19.2672 45.4116 18.8072 45.2816 18.3472C45.1516 17.8872 45.2116 16.1772 45.9716 15.7672C46.4816 15.4972 47.4216 16.4472 47.6616 16.9072C47.9416 17.4472 48.2816 18.1872 47.1216 18.9072C46.7716 19.1272 45.9716 19.9472 47.3016 20.3872C47.9116 20.5872 49.1516 20.5072 49.7916 20.8172C50.4316 21.1372 49.6416 22.0072 49.0616 22.5272C48.5616 22.9672 47.7116 23.9172 46.9516 22.4572C46.6016 21.7972 46.0816 20.8672 45.5516 21.0472C44.7416 21.3272 45.4916 23.8572 45.3516 24.7972C45.3216 25.0072 44.8816 25.2672 44.6116 24.8972C44.4116 24.6272 44.3916 23.8372 44.2116 23.4072C44.1116 23.1672 43.5316 21.8172 43.4416 20.8772C43.3716 20.3372 43.2516 19.9572 44.1716 19.9672Z" fill="#AAC4F4"/>
<path d="M46.6826 16.4072C47.3826 16.6472 47.7126 17.8372 47.0726 18.3372C46.5326 18.7572 46.0426 18.8572 45.9026 18.1472C45.7426 17.4472 45.8226 16.1172 46.6826 16.4072Z" fill="#AAC4F4"/>
<path d="M47.8618 21.0471C48.5718 21.1271 49.1417 21.0571 49.3217 21.4971C49.4617 21.8471 48.8818 22.2771 48.5618 22.4571C48.3018 22.6171 47.9017 22.8971 47.4117 22.0971C46.9217 21.3071 46.8318 20.9171 47.8618 21.0471Z" fill="#AAC4F4"/>
<path d="M44.5425 20.3871C45.1425 20.3871 45.0825 20.6571 44.8825 21.1371C44.6825 21.6171 44.8525 22.0271 44.9725 23.0271C45.0925 24.0271 44.6125 24.2271 44.5025 23.3971C44.3525 22.3371 43.9425 21.6271 43.9925 21.0171C44.0425 20.4071 44.0625 20.3871 44.5425 20.3871Z" fill="#AAC4F4"/>
<path d="M50.5808 15.4772C50.8308 15.5472 51.1808 16.3872 51.2108 17.0072C51.2408 17.6272 51.0808 18.7772 50.5508 18.5972C50.0308 18.4172 50.1209 17.5872 49.7409 17.1272C49.2409 16.5272 49.8308 16.4272 50.0408 16.0872C50.2208 15.7872 50.2308 15.3672 50.5808 15.4772Z" fill="#AAC4F4"/>
<path d="M43.9818 7.05709C44.4718 6.58709 44.7117 6.32709 45.8217 6.20709C46.9417 6.08709 47.6417 6.92709 48.2017 7.62709C48.7717 8.32709 48.7418 9.25709 49.3618 9.58709C49.9718 9.92709 50.2417 10.3171 50.5117 10.8271C50.7917 11.3371 50.1217 11.6671 49.5317 11.0571C48.9417 10.4371 48.8718 9.20709 48.1918 9.36709C47.5118 9.52709 47.2418 10.3071 46.2318 10.2071C45.2218 10.1071 45.1018 9.56709 45.5618 8.91709C46.0218 8.26709 45.8417 7.57709 45.0117 7.89709C44.2017 8.20709 43.3118 7.68709 43.9818 7.05709Z" fill="#AAC4F4"/>
<path d="M46.2414 6.78718C47.2314 6.83718 47.5014 7.36718 47.9814 7.97718C48.2214 8.28718 48.3914 8.88718 48.1014 8.98718C47.8114 9.08718 47.1314 9.55718 46.7814 8.77718C46.5414 8.23718 45.8414 7.47718 45.5314 7.29718C45.2014 7.11718 45.4914 6.74718 46.2414 6.78718Z" fill="#AAC4F4"/>
<path d="M42.7024 11.6072C43.0424 11.7272 43.4624 12.4372 43.0724 12.7072C43.0224 12.7372 42.9424 12.7372 42.9024 12.7072C42.7424 12.5872 42.7724 12.4572 42.7324 12.2772C42.6924 12.0972 42.5924 11.9572 42.5324 11.7872C42.5024 11.6772 42.6124 11.5672 42.7024 11.6072Z" fill="#AAC4F4"/>
<path d="M43.9115 12.5472C44.0015 12.5472 44.0615 12.5772 44.1515 12.5672C44.2515 12.5472 44.3415 12.4972 44.4415 12.4772C44.5915 12.4472 44.7715 12.4772 44.8015 12.6472C44.8115 12.6872 44.8015 12.7172 44.7615 12.7372C44.6615 12.7972 44.5615 12.8272 44.4715 12.8872C44.3815 12.9472 44.2915 13.0072 44.1815 13.0272C43.9815 13.0672 43.7115 12.9772 43.7315 12.7372C43.7315 12.6372 43.8015 12.5472 43.9115 12.5472Z" fill="#AAC4F4"/>
<path d="M40.7812 15.3071C41.1712 15.2571 41.5212 15.8171 41.1712 16.0871C41.0912 16.1471 40.9612 16.0871 40.9412 15.9971C40.9112 15.8771 40.9012 15.7771 40.8212 15.6771C40.7612 15.5971 40.7112 15.5571 40.6712 15.4571C40.6412 15.3771 40.7112 15.3171 40.7812 15.3071Z" fill="#AAC4F4"/>
<path d="M38.3813 12.7871C38.8113 12.8271 39.1013 13.4771 38.9213 13.8471C38.8813 13.9171 38.7913 13.8971 38.7513 13.8471C38.6413 13.6971 38.5912 13.5271 38.5112 13.3671C38.4412 13.2171 38.3112 13.0771 38.2812 12.9171C38.2812 12.8571 38.3213 12.7871 38.3813 12.7871Z" fill="#AAC4F4"/>
<path d="M32.0325 14.0772C32.1925 13.8072 32.6725 13.6272 32.9725 13.6772C33.0025 13.6872 33.0326 13.7372 33.0026 13.7572C32.9026 13.8872 32.8025 13.9572 32.6625 14.0472C32.5125 14.1372 32.3726 14.2772 32.1926 14.2972C32.0826 14.3272 31.9625 14.2072 32.0325 14.0772Z" fill="#AAC4F4"/>
<path d="M29.9011 15.5271C29.9611 15.3971 30.0012 15.2771 30.0312 15.1371C30.0512 15.0471 30.0712 14.7171 30.2512 14.7771C30.4712 14.8471 30.4411 15.1671 30.4011 15.3571C30.3511 15.5971 30.2611 15.8871 30.0111 15.9771C29.9111 16.0171 29.8012 15.9171 29.8112 15.8171C29.8112 15.7071 29.8511 15.6271 29.9011 15.5271Z" fill="#AAC4F4"/>
<path d="M30.9109 20.4371C30.9709 20.3271 31.1208 20.1671 31.2608 20.2771C31.3908 20.3771 31.2609 20.5771 31.2209 20.6871C31.1709 20.8371 31.1708 20.9571 31.0808 21.0871C31.0208 21.1771 30.8908 21.1871 30.8308 21.0871C30.7108 20.8671 30.7909 20.6371 30.9109 20.4371Z" fill="#AAC4F4"/>
<path d="M46.782 7.2771C47.122 7.2771 47.642 7.6971 47.512 8.0771C47.472 8.1871 47.342 8.2271 47.262 8.1471C47.152 8.0371 47.132 7.8871 47.042 7.7671C46.952 7.6471 46.832 7.5471 46.712 7.4471C46.652 7.3871 46.702 7.2771 46.782 7.2771Z" fill="#AAC4F4"/>
<path d="M34.8227 17.1372C34.9627 17.0072 35.1327 17.0372 35.3127 17.0472C35.4927 17.0572 35.6827 17.0672 35.8527 17.1472C35.9127 17.1772 35.9127 17.2772 35.8527 17.2972C35.6827 17.3772 35.5027 17.3872 35.3127 17.3972C35.1327 17.4072 34.9627 17.4372 34.8227 17.3072C34.7727 17.2672 34.7727 17.1772 34.8227 17.1372Z" fill="#AAC4F4"/>
<path d="M38.3316 20.5471C38.5116 20.5071 38.6716 20.6071 38.8516 20.5971C39.0216 20.5871 39.1716 20.5071 39.3516 20.5071C39.4016 20.5071 39.4616 20.5571 39.4516 20.6071C39.4116 21.1371 38.3516 21.2771 38.2016 20.7571C38.1816 20.6771 38.2316 20.5671 38.3316 20.5471Z" fill="#AAC4F4"/>
<path d="M40.2512 19.0672C40.3412 18.9972 40.4812 19.0372 40.4812 19.1672C40.4912 19.4072 40.3412 19.7672 40.1712 19.9372C40.0712 20.0372 39.8712 19.9672 39.8812 19.8172C39.9012 19.5672 40.0612 19.2172 40.2512 19.0672Z" fill="#AAC4F4"/>
<path d="M46.4516 17.7671C46.6916 17.7071 46.7016 17.4371 46.8216 17.2571C46.8716 17.1771 46.9916 17.1971 47.0216 17.2871C47.1516 17.6471 46.9517 18.0971 46.5617 18.1771C46.3017 18.2271 46.1816 17.8371 46.4516 17.7671Z" fill="#AAC4F4"/>
<path d="M50.4116 16.2371C50.3916 16.1571 50.4617 16.0671 50.5517 16.0971C50.7717 16.1771 50.8917 16.4071 50.9417 16.6271C50.9917 16.8071 51.0216 17.1671 50.8216 17.2871C50.6116 17.4071 50.5716 17.1571 50.5716 17.0071C50.5716 16.8771 50.5817 16.7571 50.5517 16.6271C50.5217 16.4871 50.4416 16.3671 50.4116 16.2371Z" fill="#AAC4F4"/>
<path d="M48.1814 21.9971C48.2614 21.8671 48.3913 21.8171 48.5113 21.7171C48.6113 21.6271 48.6914 21.5071 48.8114 21.4471C48.8714 21.4171 48.9313 21.4371 48.9513 21.5071C49.0413 21.8171 48.6413 22.2671 48.3313 22.2571C48.2113 22.2471 48.1114 22.1071 48.1814 21.9971Z" fill="#AAC4F4"/>
<path d="M39.7814 25.0971C39.8814 24.9271 40.0414 24.7871 40.1514 24.6271C40.2514 24.4771 40.2914 24.2471 40.4314 24.1271C40.4914 24.0771 40.5714 24.0871 40.6214 24.1471C40.7514 24.3571 40.6114 24.6671 40.4914 24.8571C40.3514 25.0771 40.1614 25.2671 39.8914 25.2871C39.7914 25.3071 39.7414 25.1771 39.7814 25.0971Z" fill="#AAC4F4"/>
<path d="M31.0811 24.2371C31.1711 24.2471 31.2312 24.3371 31.1812 24.4171C31.1012 24.5771 30.9612 24.6871 30.9112 24.8671C30.8612 25.0271 30.8512 25.2071 30.8112 25.3771C30.7912 25.4771 30.6712 25.4971 30.6012 25.4371C30.2312 25.0871 30.5611 24.2071 31.0811 24.2371Z" fill="#AAC4F4"/>
<path d="M31.1726 27.6571C31.1826 27.4671 31.1226 27.2571 31.1726 27.0771C31.1926 27.0171 31.2725 26.9771 31.3325 27.0171C31.6725 27.2271 31.7225 28.0871 31.3225 28.2471C31.2725 28.2671 31.2126 28.2371 31.1826 28.1871C31.0826 28.0171 31.1626 27.8471 31.1726 27.6571Z" fill="#AAC4F4"/>
<path d="M35.9217 26.1771C36.0017 26.1671 36.0817 26.2671 36.0517 26.3471C36.0017 26.4771 35.9017 26.5771 35.8417 26.7071C35.7817 26.8371 35.7617 26.9771 35.6617 27.0871C35.5917 27.1671 35.4417 27.1471 35.3917 27.0571C35.2117 26.7271 35.5717 26.2071 35.9217 26.1771Z" fill="#AAC4F4"/>
<path d="M25.9323 19.2171C25.9923 19.1971 26.0423 19.2471 26.0523 19.3071C26.0623 19.4571 25.9723 19.5971 25.9623 19.7471C25.9423 19.8971 25.9723 20.0571 25.9223 20.1971C25.8923 20.2871 25.7623 20.3371 25.6923 20.2571C25.4323 19.9971 25.5723 19.3171 25.9323 19.2171Z" fill="#AAC4F4"/>
<path d="M25.9321 22.7772C25.9521 22.7472 25.9821 22.7172 26.0121 22.6872C26.0621 22.5472 26.1921 22.4272 26.1421 22.2572C26.1121 22.1572 26.2321 22.0472 26.3321 22.1172C26.5321 22.2672 26.5921 22.4872 26.4821 22.7272C26.3821 22.9472 26.1621 23.0372 25.9721 22.9372C25.9221 22.8972 25.9021 22.8272 25.9321 22.7772Z" fill="#AAC4F4"/>
<path d="M39.0223 5.93715C39.1223 5.93715 39.1824 6.04715 39.1324 6.13715C39.0524 6.29715 38.9024 6.41715 38.8024 6.56715C38.7024 6.70715 38.6423 6.88715 38.4523 6.91715C38.3823 6.93715 38.3023 6.90715 38.2623 6.83715C38.0423 6.46715 38.6723 5.92715 39.0223 5.93715Z" fill="#AAC4F4"/>
<path d="M28.6813 7.23718C28.5713 7.51718 28.1313 7.96718 27.6013 8.58718C27.3013 8.93718 26.7113 8.87718 26.5413 8.07718C26.3713 7.27718 26.7913 6.45718 27.6013 6.38718C28.4113 6.31718 28.9913 6.47718 28.6813 7.23718Z" fill="#AAC4F4"/>
<path d="M34.3821 3.75708C34.9021 3.77708 34.8721 3.75708 35.3321 4.65708C35.8021 5.55708 35.7121 5.75708 35.0621 5.35708C34.4221 4.95708 34.3721 4.48708 33.5221 4.39708C33.1121 4.35708 33.9721 3.74708 34.3821 3.75708Z" fill="#AAC4F4"/>
<path d="M27.5924 9.58709C28.1224 9.55709 29.4924 9.39709 30.1124 9.10709C30.7324 8.81709 31.5224 8.17709 32.0024 8.49709C32.4924 8.81709 31.9124 9.08709 31.3624 9.20709C30.8124 9.32709 29.1724 9.85709 28.7524 10.1771C28.1224 10.6671 27.0924 10.6471 26.7024 10.6571C26.3124 10.6671 25.5924 9.99709 26.0324 9.57709C26.4924 9.16709 26.8624 9.62709 27.5924 9.58709Z" fill="#AAC4F4"/>
<path d="M24.1912 9.75708C24.6112 9.67708 24.9712 11.1871 24.8512 12.0871C24.7312 12.9871 23.9112 13.2471 23.6812 12.0871C23.4412 10.9271 23.4812 9.89708 24.1912 9.75708Z" fill="#AAC4F4"/>
<path d="M25.1019 15.7171C25.6619 15.8671 25.9719 16.2171 25.5119 16.7271C25.0519 17.2371 24.6119 17.0571 24.4619 16.9171C24.0019 16.4471 24.7319 15.6171 25.1019 15.7171Z" fill="#AAC4F4"/>
<path d="M34.7815 6.20713C35.1315 5.65713 35.9015 6.59713 35.3215 6.78713C34.7315 6.97713 33.3815 8.25713 33.3215 7.74713C33.2515 7.27713 34.3815 6.82713 34.7815 6.20713Z" fill="#AAC4F4"/>
<path d="M21.2119 15.4872C21.6619 15.5072 21.7719 15.9372 21.6419 16.5472C21.5119 17.1472 20.9619 16.9372 20.6219 16.5172C20.2919 16.0872 20.9719 15.4772 21.2119 15.4872Z" fill="#AAC4F4"/>
<path d="M18.3808 21.5871C18.8108 21.6371 19.0208 22.7871 19.5808 23.2871C20.1408 23.7971 19.4908 24.7071 18.9808 24.8471C18.4708 24.9971 18.0408 24.1571 17.9508 23.1571C17.8608 22.1671 17.7808 21.5271 18.3808 21.5871Z" fill="#AAC4F4"/>
<path d="M25.2007 15.9471C25.2207 15.9571 25.2307 15.9671 25.2207 15.9871C25.2007 16.1071 25.1107 16.1871 25.0607 16.2871C24.9907 16.4071 24.9807 16.4571 24.8607 16.5371C24.8307 16.5571 24.7907 16.5471 24.7707 16.5171C24.6307 16.2671 24.9207 15.8571 25.2007 15.9471Z" fill="#AAC4F4"/>
<path d="M26.3816 9.73712C26.4016 9.69712 26.4416 9.66712 26.4816 9.69712C26.5916 9.76712 26.6616 9.86712 26.7816 9.93712C26.9016 10.0071 27.0116 10.0371 27.0916 10.1571C27.1616 10.2571 27.0616 10.3771 26.9616 10.3771C26.7016 10.3771 26.2616 10.0171 26.3816 9.73712Z" fill="#AAC4F4"/>
<path d="M24.0315 10.1271C24.0415 10.0971 24.0615 10.0871 24.0915 10.0771C24.4015 10.0471 24.5916 10.6071 24.5416 10.8471C24.5216 10.9671 24.3616 10.9571 24.3016 10.8771C24.2116 10.7471 24.1716 10.5771 24.1016 10.4371C24.0616 10.3271 24.0015 10.2471 24.0315 10.1271Z" fill="#AAC4F4"/>
<path d="M21.1916 16.0971C21.1916 15.9971 21.1716 15.9471 21.2116 15.8571C21.2316 15.8171 21.2816 15.8071 21.3216 15.8171C21.5916 15.8671 21.6516 16.4571 21.3516 16.5071C21.2416 16.5271 21.1916 16.4471 21.1716 16.3571C21.1516 16.2771 21.1916 16.1871 21.1916 16.0971Z" fill="#AAC4F4"/>
<path d="M18.1719 22.1371C18.2319 22.0371 18.3919 22.0571 18.4219 22.1671C18.4619 22.2971 18.4619 22.4271 18.4919 22.5471C18.5219 22.6771 18.5719 22.7671 18.5719 22.9071C18.5719 23.0171 18.4419 23.1071 18.3419 23.0371C18.0619 22.8771 18.0219 22.4071 18.1719 22.1371Z" fill="#AAC4F4"/>
<path d="M28.0912 7.21716C28.1312 7.08716 28.0913 6.97716 28.0613 6.84716C28.0213 6.69716 28.2013 6.61716 28.3013 6.70716C28.5413 6.90716 28.5712 7.62716 28.1412 7.60716C28.0912 7.60716 28.0412 7.57716 28.0312 7.52716C28.0212 7.39716 28.0512 7.32716 28.0912 7.21716Z" fill="#AAC4F4"/>
<path d="M34.512 4.02713C34.772 3.97713 35.142 4.19713 35.132 4.48713C35.122 4.58713 35.012 4.67713 34.922 4.60713C34.832 4.54713 34.792 4.46713 34.722 4.38713C34.652 4.30713 34.552 4.24713 34.472 4.16713C34.432 4.12713 34.452 4.03713 34.512 4.02713Z" fill="#AAC4F4"/>
<path d="M35.891 32.2672C36.531 32.1972 37.711 32.4772 38.821 32.2672C39.931 32.0572 39.971 33.2672 38.821 34.0072C37.671 34.7472 35.6711 34.3072 35.1211 33.6372C34.5911 32.9772 34.511 32.4072 35.891 32.2672Z" fill="#0038FF"/>
<path d="M31.8109 32.2671C32.4709 32.5771 31.8509 33.1071 30.9909 33.6471C30.1309 34.1871 28.7208 33.9371 28.7708 33.2871C28.8108 32.6371 29.5409 32.6971 30.1209 32.6071C30.7009 32.5271 31.2609 32.0071 31.8109 32.2671Z" fill="#0038FF"/>
<path d="M44.2613 32.0471C44.5413 32.4471 43.7513 32.9271 42.7913 33.0671C41.8313 33.2071 41.9913 32.6671 42.1013 32.2471C42.2713 31.6271 43.8213 31.4071 44.2613 32.0471Z" fill="#0038FF"/>
<path d="M52.6925 25.1772C53.1325 25.7572 52.6625 26.4572 52.1525 26.5972C51.6325 26.7472 50.6725 26.2972 51.2125 25.8972C51.7525 25.4872 52.2925 24.6472 52.6925 25.1772Z" fill="#0038FF"/>
<path d="M47.2608 11.7772L47.5708 11.4172C46.7608 10.7372 45.6408 10.3672 44.5508 10.0072C44.1008 9.85716 43.6408 9.70716 43.2208 9.53716C42.6208 9.29716 42.2708 9.00716 42.1808 8.67716C42.0808 8.31716 42.2608 7.86716 42.7208 7.27716C43.6208 6.12716 45.4808 5.27716 45.4908 5.26716L45.2908 4.83716C45.2108 4.87716 43.3108 5.74716 42.3408 6.98716C41.7808 7.69716 41.5808 8.28716 41.7208 8.79716C41.8508 9.28716 42.2808 9.66716 43.0408 9.97716C43.4808 10.1572 43.9508 10.3072 44.4008 10.4572C45.4408 10.7972 46.5108 11.1572 47.2608 11.7772Z" fill="white"/>
<path d="M44.7512 27.2971C45.6512 27.2971 46.6112 26.9672 47.3312 26.3172C47.6712 26.0072 47.9812 25.7171 48.2812 25.4371C49.5612 24.2371 50.4812 23.3671 51.3112 23.5271C53.1012 23.8771 53.7612 24.1572 53.7712 24.1572L54.0712 24.2871L54.1012 23.9671C54.1112 23.8971 54.2712 22.3171 53.7312 21.0571C53.2012 19.7971 52.7012 19.3471 52.6812 19.3271L52.3612 19.6871C52.3612 19.6871 52.8112 20.1072 53.2912 21.2472C53.6412 22.0872 53.6612 23.1071 53.6412 23.6171C53.2812 23.4971 52.5712 23.2972 51.3912 23.0672C50.3212 22.8572 49.3212 23.7971 47.9412 25.0971C47.6412 25.3771 47.3312 25.6672 47.0012 25.9771C45.8512 27.0171 43.9312 27.1271 43.0412 26.2071L42.7012 26.5371C43.2112 27.0371 43.9512 27.2971 44.7512 27.2971Z" fill="white"/>
<path d="M51.3525 23.5271C51.4825 23.5271 51.5825 23.4271 51.5925 23.2971C51.5925 23.2071 51.6325 20.9871 49.5325 19.0371C48.4825 18.0671 48.3825 16.9671 48.3325 16.4971C48.2725 15.8371 48.7925 15.3271 49.2025 14.9271C49.2825 14.8571 49.3525 14.7871 49.4125 14.7171C49.5925 14.5271 49.7625 14.3771 49.9325 14.2371C50.4325 13.8071 50.8625 13.4271 51.2125 12.2771C51.6325 10.8671 51.1125 9.85714 51.0925 9.81714C51.0325 9.69714 50.8925 9.65714 50.7725 9.71714C50.6525 9.77714 50.6125 9.91714 50.6725 10.0371C50.6725 10.0471 51.1126 10.9271 50.7526 12.1471C50.4526 13.1571 50.1026 13.4671 49.6226 13.8771C49.4526 14.0171 49.2725 14.1871 49.0725 14.3871C49.0125 14.4471 48.9426 14.5171 48.8726 14.5871C48.4126 15.0371 47.7725 15.6571 47.8525 16.5471C47.8925 17.0271 48.0125 18.3071 49.2025 19.3971C51.1525 21.1971 51.1125 23.2771 51.1125 23.2971C51.1125 23.4171 51.2125 23.5271 51.3525 23.5271Z" fill="white"/>
<path d="M48.1115 16.4072C48.1715 16.4072 48.2315 16.3872 48.2815 16.3372C48.3715 16.2472 48.3715 16.0972 48.2815 15.9972C47.5615 15.2972 46.4714 14.5272 44.4014 14.7472C43.0814 14.8872 42.1814 13.9972 41.3914 13.2072L41.3515 13.1772C40.5615 12.3872 39.0214 10.6872 39.0114 10.6672C38.9214 10.5672 38.7715 10.5672 38.6715 10.6472C38.5715 10.7372 38.5714 10.8872 38.6514 10.9872C38.6714 11.0072 40.2114 12.7072 41.0114 13.5072L41.0515 13.5472C41.8715 14.3672 42.9014 15.3872 44.4514 15.2272C46.3214 15.0172 47.2714 15.6772 47.9514 16.3372C47.9914 16.3872 48.0515 16.4072 48.1115 16.4072Z" fill="white"/>
<path d="M40.7109 8.51723C40.8209 8.51723 40.9209 8.44723 40.9409 8.33723C41.4009 6.39723 42.9509 5.75723 42.9709 5.74723C43.0909 5.69723 43.1509 5.55723 43.1009 5.43723C43.0509 5.31723 42.9109 5.25723 42.7909 5.30723C42.7209 5.33723 41.0009 6.04723 40.4809 8.22723C40.4509 8.35723 40.5309 8.48723 40.6609 8.51723C40.6709 8.51723 40.6909 8.51723 40.7109 8.51723Z" fill="white"/>
<path d="M42.3516 21.6672C42.4816 21.6672 42.5916 21.5572 42.5916 21.4272C42.5916 21.4172 42.5816 20.6772 42.8516 19.7472C43.0116 19.2172 43.2916 18.9072 43.6516 18.5072C43.9016 18.2272 44.1816 17.9172 44.4616 17.4872C45.1416 16.4072 44.9716 15.0172 44.9616 14.9572C44.9416 14.8272 44.8216 14.7372 44.6916 14.7472C44.5616 14.7672 44.4716 14.8872 44.4816 15.0172C44.4816 15.0272 44.6316 16.2972 44.0516 17.2272C43.8016 17.6272 43.5416 17.9072 43.2916 18.1772C42.9216 18.5872 42.5716 18.9672 42.3816 19.6072C42.0916 20.6072 42.1016 21.3972 42.1016 21.4272C42.1216 21.5672 42.2216 21.6672 42.3516 21.6672Z" fill="white"/>
<path d="M52.4123 15.2072L52.8823 15.1672C52.8723 15.0672 52.6523 12.8372 50.9823 12.2472L50.8223 12.6972C52.2023 13.1772 52.4023 15.1872 52.4123 15.2072Z" fill="white"/>
<path d="M44.321 26.2472C44.331 26.2472 44.331 26.2472 44.341 26.2472C44.401 26.2472 45.741 26.1172 46.771 25.2672C47.751 24.4472 48.8111 23.5872 48.8111 23.5872C48.9111 23.5072 48.931 23.3572 48.841 23.2572C48.761 23.1572 48.611 23.1372 48.511 23.2272C48.511 23.2272 47.451 24.0972 46.461 24.9072C45.551 25.6672 44.301 25.7772 44.291 25.7772C44.161 25.7872 44.061 25.9072 44.071 26.0372C44.091 26.1572 44.201 26.2472 44.321 26.2472Z" fill="white"/>
<path d="M34.3821 11.5971C34.4721 11.5971 34.5521 11.5471 34.5821 11.4571C34.8521 10.6771 35.5321 10.2071 36.5021 10.1371C37.3021 10.0771 37.9221 9.73714 38.1221 9.23714C38.2621 8.88714 38.1721 8.51714 37.8721 8.18714C37.1721 7.42714 36.1521 7.08714 36.1021 7.06714C36.0721 7.13714 35.9821 7.33714 35.9521 7.45714C35.9621 7.45714 36.9421 7.79714 37.5721 8.46714C37.7621 8.67714 37.8221 8.87714 37.7421 9.07714C37.6121 9.41714 37.1021 9.67714 36.4721 9.71714C34.9321 9.82714 34.3821 10.7671 34.1921 11.3171C34.1521 11.4271 34.2121 11.5471 34.3221 11.5771C34.3421 11.5971 34.3621 11.5971 34.3821 11.5971Z" fill="white"/>
<path d="M45.3919 33.3072C45.4219 33.3072 45.452 33.2972 45.482 33.2872C45.602 33.2372 45.662 33.0972 45.612 32.9772C45.182 31.8872 45.3419 31.7672 47.5319 30.5372C47.7719 30.4072 48.032 30.2572 48.312 30.0972C49.852 29.2172 49.9519 27.4572 49.9519 27.3772C49.9619 27.2472 49.852 27.1372 49.722 27.1272C49.582 27.1172 49.482 27.2272 49.472 27.3572C49.472 27.3772 49.3819 28.9372 48.0719 29.6772C47.7919 29.8372 47.532 29.9872 47.292 30.1172C45.142 31.3172 44.572 31.6372 45.162 33.1472C45.202 33.2472 45.2919 33.3072 45.3919 33.3072Z" fill="white"/>
<path d="M44.322 31.0772C44.392 31.0772 44.452 31.0472 44.502 30.9972C44.822 30.6272 45.542 30.1172 46.422 29.6172C47.422 29.0472 48.342 28.0972 48.372 28.0572C48.462 27.9672 48.462 27.8072 48.362 27.7172C48.272 27.6272 48.112 27.6272 48.022 27.7272C48.012 27.7372 47.112 28.6672 46.172 29.2072C45.232 29.7372 44.492 30.2772 44.132 30.6872C44.042 30.7872 44.052 30.9372 44.152 31.0272C44.212 31.0572 44.262 31.0772 44.322 31.0772Z" fill="white"/>
<path d="M41.0726 34.0872C41.0826 34.0872 41.0926 34.0872 41.1026 34.0872C41.2326 34.0672 41.3226 33.9572 41.3126 33.8172C41.3126 33.8072 41.1626 32.5472 41.8426 31.5872C42.6326 30.4572 42.1726 28.4772 42.1526 28.3972C42.1226 28.2672 41.9926 28.1872 41.8626 28.2172C41.7326 28.2472 41.6526 28.3772 41.6826 28.5072C41.6826 28.5272 42.1126 30.3672 41.4426 31.3172C40.6626 32.4272 40.8226 33.8172 40.8326 33.8772C40.8526 33.9972 40.9526 34.0872 41.0726 34.0872Z" fill="white"/>
<path d="M29.261 18.2872C30.041 18.2872 30.901 17.7172 31.871 17.0572C32.111 16.8972 32.361 16.7272 32.621 16.5672C33.921 15.7372 36.631 15.6672 36.661 15.6672C36.771 15.6672 36.871 15.5672 36.861 15.4572C36.861 15.3472 36.771 15.2572 36.651 15.2572C36.531 15.2572 33.801 15.3272 32.401 16.2272C32.141 16.3972 31.891 16.5572 31.641 16.7272C30.631 17.3972 29.761 17.9872 29.081 17.8672C28.531 17.7772 27.801 17.2472 27.321 16.8772C27.201 16.9772 27.141 17.0572 27.041 17.1872C27.551 17.5972 28.361 18.1672 29.001 18.2772C29.101 18.2772 29.181 18.2872 29.261 18.2872Z" fill="white"/>
<path d="M28.682 22.4471C28.692 22.4471 28.6919 22.4471 28.7019 22.4471C28.8319 22.4371 28.932 22.3271 28.922 22.1971C28.922 22.1871 28.852 21.2271 28.932 20.1071C28.992 19.1771 29.412 18.1871 29.422 18.1771C29.472 18.0571 29.422 17.9171 29.302 17.8671C29.182 17.8171 29.042 17.8671 28.992 17.9871C28.972 18.0271 28.5319 19.0671 28.4719 20.0771C28.3919 21.2271 28.4619 22.1871 28.4619 22.2271C28.4619 22.3471 28.562 22.4471 28.682 22.4471Z" fill="white"/>
<path d="M33.2516 22.8772C33.3316 22.8772 33.4115 22.8372 33.4515 22.7672C33.4615 22.7572 34.1516 21.6672 35.1216 20.8772C36.1416 20.0572 37.4716 18.9572 37.4716 18.9572L37.1716 18.5872C37.1716 18.5872 35.8415 19.6872 34.8215 20.5072C33.7815 21.3372 33.0716 22.4672 33.0416 22.5072C32.9716 22.6172 33.0016 22.7672 33.1116 22.8372C33.1616 22.8572 33.2116 22.8772 33.2516 22.8772Z" fill="white"/>
<path d="M51.5209 18.7972C51.2809 19.2272 51.5309 19.8272 52.0809 20.1372C52.6309 20.4472 53.2709 20.3372 53.5209 19.9072C53.7609 19.4772 53.5109 18.8772 52.9609 18.5672C52.4109 18.2572 51.7609 18.3572 51.5209 18.7972Z" fill="white"/>
<path d="M51.9705 19.0472C51.8405 19.2872 51.9805 19.6172 52.2805 19.7772C52.5805 19.9472 52.9305 19.8872 53.0705 19.6472C53.2005 19.4072 53.0605 19.0772 52.7605 18.9172C52.4605 18.7472 52.1105 18.8072 51.9705 19.0472Z" fill="#0038FF"/>
<path d="M51.9705 19.0472C51.8405 19.2872 51.9805 19.6172 52.2805 19.7772C52.5805 19.9472 52.9305 19.8872 53.0705 19.6472C53.2005 19.4072 53.0605 19.0772 52.7605 18.9172C52.4605 18.7472 52.1105 18.8072 51.9705 19.0472Z" fill="#0038FF"/>
<path d="M49.6109 25.6973C49.1209 25.7473 48.7709 26.2972 48.8309 26.9272C48.8909 27.5572 49.3409 28.0273 49.8409 27.9773C50.3309 27.9273 50.681 27.3773 50.621 26.7473C50.561 26.1173 50.1009 25.6473 49.6109 25.6973Z" fill="white"/>
<path d="M49.6616 26.2072C49.3916 26.2372 49.2016 26.5372 49.2316 26.8772C49.2616 27.2172 49.5116 27.4772 49.7816 27.4572C50.0516 27.4272 50.2416 27.1272 50.2116 26.7872C50.1816 26.4372 49.9316 26.1772 49.6616 26.2072Z" fill="#0038FF"/>
<path d="M49.6616 26.2072C49.3916 26.2372 49.2016 26.5372 49.2316 26.8772C49.2616 27.2172 49.5116 27.4772 49.7816 27.4572C50.0516 27.4272 50.2416 27.1272 50.2116 26.7872C50.1816 26.4372 49.9316 26.1772 49.6616 26.2072Z" fill="#0038FF"/>
<path d="M42.1023 25.0772C41.6623 25.2972 41.5123 25.8972 41.7723 26.4172C42.0323 26.9372 42.6023 27.1672 43.0423 26.9472C43.4823 26.7272 43.6323 26.1272 43.3723 25.6072C43.1123 25.0872 42.5423 24.8572 42.1023 25.0772Z" fill="white"/>
<path d="M42.3114 25.4972C42.0714 25.6172 41.9914 25.9472 42.1314 26.2272C42.2714 26.5072 42.5913 26.6372 42.8313 26.5172C43.0713 26.3972 43.1513 26.0672 43.0113 25.7872C42.8713 25.5072 42.5514 25.3772 42.3114 25.4972Z" fill="#0038FF"/>
<path d="M37.9115 10.5172C37.6715 10.9472 37.9215 11.5472 38.4715 11.8572C39.0215 12.1672 39.6615 12.0572 39.9115 11.6272C40.1515 11.1972 39.9015 10.5972 39.3515 10.2872C38.7915 9.97723 38.1515 10.0872 37.9115 10.5172Z" fill="white"/>
<path d="M38.3611 10.7672C38.2311 11.0072 38.3711 11.3372 38.6711 11.4972C38.9711 11.6672 39.3211 11.6072 39.4611 11.3672C39.5911 11.1272 39.4511 10.7972 39.1511 10.6372C38.8411 10.4772 38.4911 10.5272 38.3611 10.7672Z" fill="#0038FF"/>
<path d="M33.2924 11.1072C33.0324 11.5672 33.2223 12.1672 33.7123 12.4372C34.2023 12.7072 34.8024 12.5472 35.0624 12.0872C35.3224 11.6272 35.1323 11.0272 34.6423 10.7572C34.1523 10.4872 33.5524 10.6472 33.2924 11.1072Z" fill="white"/>
<path d="M33.692 11.3272C33.552 11.5772 33.652 11.9072 33.922 12.0572C34.192 12.2072 34.522 12.1172 34.662 11.8672C34.802 11.6172 34.702 11.2872 34.432 11.1372C34.162 10.9872 33.832 11.0772 33.692 11.3272Z" fill="#0038FF"/>
<path d="M42.4026 20.5971C41.9026 20.5771 41.4826 21.0771 41.4626 21.7071C41.4326 22.3371 41.8226 22.8671 42.3126 22.8871C42.8126 22.9071 43.2326 22.4071 43.2526 21.7771C43.2826 21.1471 42.8926 20.6171 42.4026 20.5971Z" fill="white"/>
<path d="M42.3817 21.1171C42.1117 21.1071 41.8817 21.3771 41.8617 21.7271C41.8517 22.0771 42.0517 22.3571 42.3317 22.3771C42.6017 22.3871 42.8317 22.1171 42.8517 21.7671C42.8617 21.4171 42.6517 21.1271 42.3817 21.1171Z" fill="#0038FF"/>
<path d="M47.0723 11.9172C47.0723 12.4172 47.5823 12.8172 48.2123 12.8172C48.8423 12.8172 49.3523 12.4172 49.3523 11.9172C49.3523 11.4172 48.8423 11.0172 48.2123 11.0172C47.5823 11.0272 47.0723 11.4272 47.0723 11.9172Z" fill="white"/>
<path d="M47.582 11.9172C47.582 12.1872 47.862 12.4072 48.212 12.4072C48.562 12.4072 48.842 12.1872 48.842 11.9172C48.842 11.6472 48.562 11.4272 48.212 11.4272C47.862 11.4272 47.582 11.6472 47.582 11.9172Z" fill="#0038FF"/>
<path d="M35.8926 15.3772C35.8926 15.8772 36.3426 16.2772 36.9026 16.2772C37.4626 16.2772 37.9126 15.8772 37.9126 15.3772C37.9126 14.8772 37.4626 14.4772 36.9026 14.4772C36.3426 14.4772 35.8926 14.8772 35.8926 15.3772Z" fill="white"/>
<path d="M36.9035 15.8672C37.2073 15.8672 37.4535 15.6478 37.4535 15.3772C37.4535 15.1066 37.2073 14.8872 36.9035 14.8872C36.5997 14.8872 36.3535 15.1066 36.3535 15.3772C36.3535 15.6478 36.5997 15.8672 36.9035 15.8672Z" fill="#0038FF"/>
<path d="M36.9615 17.8272C36.5015 18.0072 36.2916 18.5772 36.5016 19.0972C36.7116 19.6172 37.2515 19.8872 37.7115 19.7072C38.1715 19.5272 38.3815 18.9572 38.1715 18.4372C37.9615 17.9172 37.4215 17.6472 36.9615 17.8272Z" fill="white"/>
<path d="M37.1211 18.2572C36.8711 18.3572 36.7511 18.6672 36.8711 18.9572C36.9811 19.2372 37.2811 19.3872 37.5311 19.2872C37.7811 19.1872 37.9011 18.8772 37.7811 18.5872C37.6711 18.3072 37.3811 18.1572 37.1211 18.2572Z" fill="#0038FF"/>
<path d="M28.3823 22.1572C27.9623 22.4172 27.8523 23.0172 28.1523 23.4872C28.4423 23.9572 29.0223 24.1372 29.4423 23.8772C29.8623 23.6172 29.9723 23.0172 29.6723 22.5472C29.3823 22.0672 28.8123 21.8972 28.3823 22.1572Z" fill="white"/>
<path d="M28.6222 22.5372C28.3922 22.6772 28.3322 23.0072 28.4922 23.2672C28.6522 23.5272 28.9721 23.6172 29.2021 23.4772C29.4321 23.3372 29.4921 23.0072 29.3321 22.7472C29.1721 22.4972 28.8522 22.3972 28.6222 22.5372Z" fill="#0038FF"/>
<path d="M22.521 29.0072C22.101 29.2672 21.991 29.8672 22.291 30.3372C22.581 30.8072 23.161 30.9872 23.581 30.7272C24.001 30.4672 24.111 29.8672 23.811 29.3972C23.521 28.9172 22.941 28.7472 22.521 29.0072Z" fill="white"/>
<path d="M22.7609 29.3972C22.5309 29.5372 22.4709 29.8672 22.6309 30.1272C22.7909 30.3872 23.1108 30.4772 23.3408 30.3372C23.5708 30.1972 23.6308 29.8672 23.4708 29.6072C23.3109 29.3472 22.9909 29.2472 22.7609 29.3972Z" fill="#0038FF"/>
<path d="M24.5718 25.3173C24.1518 25.5773 24.0418 26.1773 24.3418 26.6473C24.6318 27.1173 25.2118 27.2973 25.6318 27.0373C26.0518 26.7773 26.1618 26.1773 25.8618 25.7073C25.5718 25.2273 24.9918 25.0573 24.5718 25.3173Z" fill="white"/>
<path d="M24.8116 25.7072C24.5816 25.8472 24.5216 26.1772 24.6816 26.4372C24.8416 26.6972 25.1617 26.7872 25.3917 26.6472C25.6217 26.5072 25.6817 26.1772 25.5217 25.9172C25.3517 25.6572 25.0416 25.5672 24.8116 25.7072Z" fill="#0038FF"/>
<path d="M32.4917 22.0072C32.0717 22.2672 31.9617 22.8672 32.2617 23.3372C32.5517 23.8072 33.1317 23.9872 33.5517 23.7272C33.9717 23.4672 34.0817 22.8672 33.7817 22.3972C33.4917 21.9172 32.9117 21.7472 32.4917 22.0072Z" fill="white"/>
<path d="M32.7316 22.3971C32.5016 22.5371 32.4416 22.8671 32.6016 23.1271C32.7616 23.3871 33.0816 23.4771 33.3116 23.3371C33.5416 23.1971 33.6016 22.8671 33.4416 22.6071C33.2816 22.3471 32.9616 22.2571 32.7316 22.3971Z" fill="#0038FF"/>
<path d="M27.6421 25.3172C27.2221 25.5772 27.1121 26.1772 27.4121 26.6472C27.7021 27.1172 28.2821 27.2972 28.7021 27.0372C29.1221 26.7772 29.2321 26.1772 28.9321 25.7072C28.6321 25.2372 28.0621 25.0572 27.6421 25.3172Z" fill="white"/>
<path d="M27.882 25.7072C27.652 25.8472 27.5919 26.1772 27.7519 26.4372C27.9119 26.6972 28.2319 26.7872 28.4619 26.6472C28.6919 26.5072 28.7519 26.1772 28.5919 25.9172C28.4219 25.6572 28.112 25.5672 27.882 25.7072Z" fill="#0038FF"/>
<path d="M52.9827 14.8372C52.4827 14.8272 52.0727 15.3272 52.0627 15.9572C52.0527 16.5872 52.4427 17.1072 52.9327 17.1172C53.4327 17.1272 53.8427 16.6272 53.8527 15.9972C53.8727 15.3672 53.4827 14.8472 52.9827 14.8372Z" fill="white"/>
<path d="M52.9732 15.3572C52.7032 15.3472 52.4732 15.6272 52.4632 15.9772C52.4532 16.3272 52.6733 16.6072 52.9433 16.6172C53.2133 16.6272 53.4432 16.3472 53.4532 15.9972C53.4632 15.6472 53.2432 15.3572 52.9732 15.3572Z" fill="#0038FF"/>
<path d="M52.9732 15.3572C52.7032 15.3472 52.4732 15.6272 52.4632 15.9772C52.4532 16.3272 52.6733 16.6072 52.9433 16.6172C53.2133 16.6272 53.4432 16.3472 53.4532 15.9972C53.4632 15.6472 53.2432 15.3572 52.9732 15.3572Z" fill="#0038FF"/>
<path d="M41.7809 27.8471C41.2909 27.9071 40.9509 28.4271 41.0209 28.9971C41.0909 29.5671 41.5509 29.9871 42.0409 29.9271C42.5309 29.8671 42.8709 29.3471 42.8009 28.7771C42.7309 28.1971 42.2709 27.7871 41.7809 27.8471Z" fill="white"/>
<path d="M41.8413 28.3171C41.5713 28.3471 41.3813 28.6371 41.4213 28.9471C41.4613 29.2571 41.7113 29.4871 41.9813 29.4571C42.2513 29.4271 42.4413 29.1371 42.4013 28.8271C42.3613 28.5071 42.1113 28.2771 41.8413 28.3171Z" fill="#0038FF"/>
<path d="M39.2007 27.0172C38.7107 27.0772 38.3708 27.5972 38.4408 28.1672C38.5108 28.7372 38.9707 29.1572 39.4607 29.0972C39.9507 29.0372 40.2907 28.5172 40.2207 27.9472C40.1507 27.3772 39.6907 26.9572 39.2007 27.0172Z" fill="white"/>
<path d="M39.2612 27.4871C38.9912 27.5171 38.8013 27.8071 38.8413 28.1171C38.8813 28.4271 39.1313 28.6571 39.4013 28.6271C39.6713 28.5971 39.8612 28.3071 39.8212 27.9971C39.7812 27.6871 39.5312 27.4571 39.2612 27.4871Z" fill="#0038FF"/>
<path d="M32.4314 34.1773C32.5614 34.1773 32.6714 34.0773 32.6714 33.9473C32.6714 33.9373 32.7014 32.8573 33.2414 31.7773C33.7514 30.7573 34.4714 30.4773 36.5414 30.1373C37.7114 29.9473 38.9414 28.8173 39.0014 28.7673C39.1014 28.6773 39.1014 28.5273 39.0114 28.4273C38.9214 28.3273 38.7714 28.3273 38.6714 28.4173C38.6614 28.4273 37.4914 29.4973 36.4614 29.6673C34.4114 30.0073 33.4514 30.2873 32.8114 31.5673C32.2214 32.7573 32.1914 33.8973 32.1914 33.9473C32.1914 34.0673 32.2914 34.1673 32.4314 34.1773Z" fill="white"/>
<path d="M31.7721 31.8472C31.8921 31.8472 31.9921 31.7672 32.0021 31.6472C32.0021 31.6372 32.1421 30.7672 32.6221 30.0272C33.0921 29.2872 33.7821 28.7972 34.3221 28.4572C34.4321 28.3872 34.4621 28.2372 34.3921 28.1272C34.3221 28.0172 34.1721 27.9872 34.0621 28.0572C33.4821 28.4272 32.7421 28.9472 32.2221 29.7672C31.6921 30.5972 31.5421 31.5372 31.5321 31.5772C31.5121 31.7072 31.6021 31.8272 31.7321 31.8472C31.7521 31.8472 31.7621 31.8472 31.7721 31.8472Z" fill="white"/>
<path d="M27.7919 34.2472C27.9019 34.2472 28.0019 34.1672 28.0219 34.0572C28.0219 34.0372 28.3419 32.3372 28.3619 30.4072C28.3819 28.4772 28.4019 26.9972 28.4019 26.9972C28.4019 26.8672 28.3019 26.7572 28.1619 26.7572C28.0219 26.7672 27.9219 26.8572 27.9219 26.9972C27.9219 26.9972 27.9119 28.4772 27.8819 30.3972C27.8619 32.2772 27.5519 33.9472 27.5519 33.9672C27.5319 34.0972 27.6119 34.2172 27.7419 34.2472C27.7719 34.2472 27.7819 34.2472 27.7919 34.2472Z" fill="white"/>
<path d="M28.0226 32.2272C28.1526 32.2272 28.2726 32.1172 28.2826 31.9872C28.2826 31.8572 28.1926 31.7472 28.0626 31.7472H28.0226C27.5726 31.7472 26.5226 31.7372 25.6426 31.3872C24.8126 31.0472 23.6726 30.3172 23.6626 30.3072C23.5526 30.2372 23.4026 30.2672 23.3326 30.3772C23.2626 30.4872 23.2926 30.6372 23.4026 30.7072C23.4526 30.7372 24.5926 31.4772 25.4626 31.8272C26.4226 32.2172 27.5426 32.2272 28.0226 32.2272Z" fill="white"/>
<path d="M29.0609 32.3472C29.1709 32.3472 29.2609 32.2772 29.2909 32.1672C29.3009 32.1272 29.5509 31.1672 29.5709 30.1772C29.5809 28.9772 29.6009 28.2672 29.6009 28.2572C29.6009 28.1272 29.5009 28.0172 29.3709 28.0172C29.2309 28.0172 29.1309 28.1172 29.1309 28.2472C29.1309 28.2472 29.1209 28.9572 29.1009 30.1672C29.0909 31.0972 28.8409 32.0272 28.8409 32.0372C28.8109 32.1672 28.8809 32.2972 29.0109 32.3272C29.0209 32.3372 29.0409 32.3472 29.0609 32.3472Z" fill="white"/>
<path d="M28.1618 28.2972C28.2518 28.2972 28.3419 28.2472 28.3819 28.1472C28.4319 28.0272 28.3719 27.8872 28.2519 27.8372C28.2319 27.8272 26.6518 27.1572 25.8818 26.5072C25.7818 26.4172 25.6319 26.4372 25.5419 26.5372C25.4519 26.6372 25.4718 26.7872 25.5718 26.8772C26.3918 27.5772 27.9919 28.2472 28.0619 28.2772C28.0919 28.2872 28.1318 28.2972 28.1618 28.2972Z" fill="white"/>
<path d="M37.8119 3.99719C37.9019 3.99719 37.9919 3.9372 38.0319 3.8472C38.4519 2.8372 38.6519 2.32719 38.6519 2.32719C38.7019 2.20719 38.6419 2.0672 38.5219 2.0172C38.4019 1.9672 38.2619 2.02719 38.2119 2.14719C38.2119 2.14719 38.0019 2.65719 37.5919 3.65719C37.5419 3.77719 37.6019 3.91719 37.7219 3.96719C37.7519 3.98719 37.7819 3.99719 37.8119 3.99719Z" fill="white"/>
<path d="M36.8008 3.57725C36.8008 4.07725 37.2508 4.47725 37.8108 4.47725C38.3708 4.47725 38.8207 4.07725 38.8207 3.57725C38.8207 3.07725 38.3708 2.67725 37.8108 2.67725C37.2508 2.67725 36.8008 3.08725 36.8008 3.57725Z" fill="white"/>
<path d="M37.2617 3.57728C37.2617 3.84728 37.5118 4.06728 37.8118 4.06728C38.1118 4.06728 38.3618 3.84728 38.3618 3.57728C38.3618 3.30728 38.1118 3.08728 37.8118 3.08728C37.5118 3.08728 37.2617 3.30728 37.2617 3.57728Z" fill="#0038FF"/>
<path d="M32.0118 6.19721C32.7518 6.19721 33.5818 5.94721 33.7118 5.90721C33.8418 5.86721 33.9119 5.73721 33.8719 5.60721C33.8319 5.47721 33.7018 5.40721 33.5718 5.44721C33.1518 5.57721 31.9418 5.86721 31.4618 5.61721C31.0318 5.39721 30.4618 4.30721 30.2018 3.66721C30.1518 3.54721 30.0118 3.48721 29.8918 3.53721C29.7718 3.58721 29.7118 3.72721 29.7618 3.84721C29.8318 4.03721 30.5119 5.67721 31.2419 6.04721C31.4519 6.15721 31.7218 6.19721 32.0118 6.19721Z" fill="white"/>
<path d="M29.7126 8.23725C29.7726 8.23725 29.8327 8.21725 29.8827 8.16725C29.9127 8.13725 30.5526 7.46725 30.4626 6.64725C30.3826 5.88725 29.8426 4.80725 29.8226 4.75725C29.7626 4.63725 29.6226 4.58725 29.5026 4.64725C29.3826 4.70725 29.3326 4.84725 29.3926 4.96725C29.4026 4.97725 29.9126 6.01725 29.9826 6.69725C30.0526 7.29725 29.5326 7.82725 29.5326 7.83725C29.4426 7.92725 29.4426 8.07725 29.5326 8.17725C29.5926 8.21725 29.6526 8.23725 29.7126 8.23725Z" fill="white"/>
<path d="M32.7513 5.13725C32.4913 5.59725 32.6813 6.19725 33.1713 6.46725C33.6613 6.73725 34.2613 6.57725 34.5213 6.11725C34.7813 5.65725 34.5913 5.05725 34.1013 4.78725C33.6113 4.51725 33.0113 4.67725 32.7513 5.13725Z" fill="white"/>
<path d="M33.151 5.35721C33.011 5.60721 33.111 5.93721 33.381 6.08721C33.651 6.23721 33.981 6.1472 34.121 5.8972C34.261 5.6472 34.161 5.31721 33.891 5.16721C33.621 5.01721 33.291 5.10721 33.151 5.35721Z" fill="#0038FF"/>
<path d="M23.741 14.8272C24.411 14.8272 25.111 14.3972 25.581 13.6472C26.101 12.8172 26.811 11.7172 26.811 11.7172L26.411 11.4572C26.411 11.4572 25.691 12.5572 25.171 13.3872C24.751 14.0572 23.991 14.5672 23.321 14.2472C22.371 13.7972 22.041 13.3772 22.041 13.3672C21.961 13.2672 21.811 13.2372 21.711 13.3172C21.611 13.3972 21.581 13.5372 21.661 13.6472C21.681 13.6672 22.041 14.1672 23.121 14.6772C23.321 14.7872 23.531 14.8272 23.741 14.8272Z" fill="white"/>
<path d="M25.7318 11.3072C25.4718 11.7672 25.6618 12.3672 26.1518 12.6372C26.6418 12.9072 27.2418 12.7472 27.5018 12.2872C27.7618 11.8272 27.5718 11.2272 27.0818 10.9572C26.5918 10.6872 25.9818 10.8472 25.7318 11.3072Z" fill="white"/>
<path d="M26.1217 11.5372C25.9817 11.7872 26.0817 12.1172 26.3517 12.2672C26.6217 12.4172 26.9517 12.3272 27.0917 12.0772C27.2317 11.8272 27.1317 11.4972 26.8617 11.3472C26.6017 11.1972 26.2717 11.2772 26.1217 11.5372Z" fill="#0038FF"/>
<path d="M22.0519 18.3172C22.0519 18.3172 22.7819 17.3072 23.2819 16.6672C24.0319 15.6872 23.9319 14.6172 23.9219 14.5772C23.9119 14.4472 23.7919 14.3472 23.6619 14.3672C23.5319 14.3772 23.4319 14.4972 23.4519 14.6272C23.4519 14.6372 23.5319 15.5572 22.9019 16.3872C22.4019 17.0372 21.6719 18.0472 21.6719 18.0472L22.0519 18.3172Z" fill="white"/>
<path d="M20.4325 22.4472C20.4525 22.4472 20.4825 22.4472 20.5025 22.4372C20.6325 22.3972 20.7025 22.2672 20.6625 22.1372C20.6625 22.1272 20.3625 21.1672 20.2425 20.5772C20.0525 19.6272 20.0425 18.5872 20.0425 18.5772C20.0425 18.4472 19.9325 18.3372 19.8025 18.3372C19.6725 18.3372 19.5625 18.4472 19.5625 18.5772C19.5625 18.6172 19.5625 19.6772 19.7625 20.6672C19.8825 21.2872 20.1825 22.2372 20.2025 22.2772C20.2325 22.3772 20.3225 22.4472 20.4325 22.4472Z" fill="white"/>
<path d="M17.7308 29.5972C17.8508 29.5972 17.9508 29.5072 17.9708 29.3872C17.9708 29.3772 18.1108 28.2372 18.3908 27.2072C18.5708 26.5472 19.1308 25.9872 19.1308 25.9772C19.2208 25.8872 19.2208 25.7372 19.1308 25.6372C19.0408 25.5472 18.8908 25.5472 18.7908 25.6372C18.7608 25.6672 18.1408 26.2972 17.9308 27.0672C17.6308 28.1372 17.5008 29.2672 17.4908 29.3172C17.4708 29.4472 17.5708 29.5672 17.7008 29.5772C17.7108 29.5972 17.7208 29.5972 17.7308 29.5972Z" fill="white"/>
<path d="M21.1714 17.4272C20.7514 17.6872 20.6414 18.2872 20.9414 18.7572C21.2314 19.2272 21.8114 19.4072 22.2314 19.1472C22.6514 18.8872 22.7614 18.2872 22.4614 17.8172C22.1714 17.3372 21.5914 17.1672 21.1714 17.4272Z" fill="white"/>
<path d="M21.4112 17.8172C21.1812 17.9572 21.1212 18.2872 21.2812 18.5472C21.4412 18.8072 21.7613 18.8972 21.9913 18.7572C22.2213 18.6172 22.2812 18.2872 22.1212 18.0272C21.9512 17.7672 21.6412 17.6672 21.4112 17.8172Z" fill="#0038FF"/>
<path d="M19.8921 21.2172C19.4721 21.4772 19.3621 22.0772 19.6621 22.5472C19.9521 23.0172 20.5321 23.1972 20.9521 22.9372C21.3721 22.6772 21.4821 22.0772 21.1821 21.6072C20.8821 21.1372 20.3221 20.9572 19.8921 21.2172Z" fill="white"/>
<path d="M20.132 21.5973C19.902 21.7373 19.8419 22.0673 20.0019 22.3273C20.1619 22.5873 20.4819 22.6873 20.7119 22.5373C20.9419 22.3973 21.0019 22.0673 20.8419 21.8073C20.6819 21.5573 20.372 21.4573 20.132 21.5973Z" fill="#0038FF"/>
<path d="M18.9813 25.1173C18.4913 25.0673 18.0413 25.4673 17.9813 26.0273C17.9213 26.5773 18.2713 27.0773 18.7613 27.1273C19.2513 27.1773 19.7013 26.7773 19.7613 26.2173C19.8213 25.6673 19.4713 25.1673 18.9813 25.1173Z" fill="white"/>
<path d="M18.932 25.5673C18.662 25.5373 18.412 25.7573 18.382 26.0673C18.352 26.3673 18.542 26.6373 18.812 26.6673C19.082 26.6973 19.332 26.4773 19.362 26.1673C19.392 25.8673 19.202 25.5973 18.932 25.5673Z" fill="#0038FF"/>
<path d="M36.8513 35.7672C36.9113 35.7672 36.9613 35.7672 37.0213 35.7672C39.2913 35.6972 40.7514 34.4172 41.1114 34.0672C41.4814 34.2172 42.6613 34.5672 44.4813 33.8672C45.4813 33.4772 46.0514 32.7572 46.2414 32.5072C46.5314 32.5272 47.3614 32.5472 48.2514 32.0672C49.1114 31.6072 49.4613 30.8772 49.5813 30.5672C49.9513 30.6072 50.9213 30.6072 51.7913 29.7372C52.3713 29.1472 52.4814 28.3572 52.5014 28.0772C52.7614 27.9172 53.5313 27.3572 53.8913 26.3972C54.3013 25.3072 54.1313 24.3072 54.0713 23.9972C54.3013 23.7272 55.1213 22.6872 55.2313 21.3772C55.3813 19.6372 54.9614 18.7872 54.8114 18.5472C54.8914 18.1972 55.1713 16.6872 54.7713 15.4172C54.1913 13.5572 52.8313 12.9672 52.7713 12.9372C52.6913 12.8972 52.5914 12.9372 52.5514 13.0272C52.5114 13.1172 52.5513 13.2172 52.6413 13.2472C52.6513 13.2572 53.9114 13.8072 54.4414 15.5172C54.8614 16.8372 54.4613 18.5272 54.4513 18.5472L54.4314 18.6272L54.4813 18.6872C54.4813 18.6972 55.0414 19.4472 54.8714 21.3472C54.7514 22.7372 53.7514 23.8272 53.7414 23.8372L53.6814 23.9072L53.7113 23.9972C53.7113 24.0072 54.0113 25.1072 53.5713 26.2772C53.1913 27.2972 52.2514 27.8272 52.2514 27.8372L52.1613 27.8872V27.9872C52.1613 27.9972 52.1413 28.8972 51.5413 29.5072C50.6113 30.4572 49.5414 30.2372 49.4914 30.2272L49.3313 30.1972L49.2913 30.3572C49.2913 30.3672 49.0513 31.2672 48.0913 31.7872C47.1013 32.3172 46.1914 32.1772 46.1814 32.1772L46.0713 32.1572L46.0113 32.2572C46.0013 32.2672 45.4514 33.1472 44.3614 33.5672C42.3514 34.3472 41.1713 33.7372 41.1613 33.7272L41.0413 33.6672L40.9513 33.7672C40.9313 33.7872 39.4513 35.3772 37.0213 35.4472C36.9713 35.4472 36.9214 35.4472 36.8714 35.4472C34.4914 35.4472 32.5714 33.8472 32.5514 33.8272L32.4013 33.6972L32.3014 33.8672C32.2814 33.9072 31.7014 34.8272 30.1214 34.9172C28.7514 34.9872 27.9513 33.9472 27.9513 33.9372L27.8614 33.8172L27.7313 33.8972C27.7213 33.9072 26.2513 34.7572 25.1513 34.5572C21.7713 33.9072 21.8413 30.4772 21.8413 30.4372V30.3572L21.7913 30.3072C21.7813 30.2972 20.7013 29.2372 20.7313 27.6572C20.7613 26.0772 22.2013 24.9872 22.2113 24.9672L22.2913 24.9072L22.2714 24.8072C22.2714 24.7872 21.8913 22.5572 23.6913 19.6172C24.7513 17.8972 27.3713 17.0572 27.4013 17.0472L27.5213 17.0072V16.8772C27.5213 16.8472 27.4713 14.2872 29.4113 12.1572C30.9613 10.4572 33.2613 10.4172 33.2813 10.4172H33.4013L33.4414 10.3072C33.4414 10.2972 33.7713 9.38722 34.3313 8.65722C34.8713 7.95722 36.0013 7.63722 36.0113 7.62722L36.0813 7.60722L36.1114 7.53722C36.1214 7.52722 36.8213 6.07722 38.5113 5.37722C39.3413 5.03722 40.3613 5.07722 41.5713 5.49722L41.6613 5.52722L41.7313 5.46722C42.5713 4.82722 43.7914 5.02722 43.8014 5.02722C43.8914 5.03722 43.9814 4.97722 44.0014 4.88722C44.0214 4.79722 43.9614 4.70722 43.8614 4.68722C43.8014 4.67722 42.5513 4.46722 41.6013 5.13722C40.3513 4.71722 39.2713 4.68722 38.3913 5.04722C36.7713 5.71722 36.0113 6.98722 35.8513 7.30722C35.5713 7.39722 34.6014 7.73722 34.0614 8.42722C33.5814 9.04722 33.2713 9.78722 33.1613 10.0572C32.6513 10.0872 30.6213 10.2972 29.1613 11.9072C27.3513 13.8872 27.1913 16.1672 27.1813 16.7372C26.6413 16.9272 24.4113 17.7772 23.4113 19.4172C21.7313 22.1472 21.8713 24.2572 21.9313 24.7372C21.6013 25.0072 20.4213 26.0872 20.3913 27.6272C20.3613 29.1772 21.2713 30.2372 21.5013 30.4772C21.5113 31.0072 21.7213 34.2172 25.0913 34.8672C26.1213 35.0672 27.3813 34.4572 27.7813 34.2372C28.0513 34.5372 28.8813 35.3072 30.1513 35.2372C31.5313 35.1572 32.2314 34.4872 32.4914 34.1772C32.9614 34.5572 34.7013 35.7572 36.8513 35.7672Z" fill="#262E8A"/>
<path d="M34.7824 22.7672C34.8424 22.7672 34.9124 22.7372 34.9624 22.6872C35.6624 21.9272 36.8025 20.9872 36.8125 20.9772C36.9125 20.8972 36.9324 20.7472 36.8424 20.6472C36.7624 20.5472 36.6124 20.5272 36.5124 20.6172C36.4624 20.6572 35.3325 21.5872 34.6125 22.3772C34.5225 22.4772 34.5325 22.6272 34.6325 22.7172C34.6725 22.7472 34.7224 22.7672 34.7824 22.7672Z" fill="white"/>
<path d="M4.51172 115.277L37.6817 134.427L70.7817 115.437L37.6117 96.2871L4.51172 115.277Z" fill="#FDE5A8"/>
<path d="M4.51172 115.277V121.947L37.6817 141.087V134.427L4.51172 115.277Z" fill="#FDE5A8"/>
<path d="M70.7816 115.437V122.097L37.6816 141.087V134.427L70.7816 115.437Z" fill="#FDE5A8"/>
<path d="M48.6821 88.1771V115.067C48.6821 118.287 43.7521 120.897 37.6721 120.897C31.5921 120.897 26.6621 118.287 26.6621 115.067V88.1771H48.6821Z" fill="#45474C"/>
<path d="M52.3616 88.6372C52.3616 88.6372 41.6615 99.5772 33.4515 104.537C25.2416 109.497 5.72157 97.9172 1.75157 86.1772C-2.21843 74.4372 1.80159 59.1172 1.80159 59.1172L52.3616 88.6372Z" fill="#EDF3FE"/>
<path d="M59.8425 56.7871C59.8425 56.7871 55.6825 50.0071 44.7225 44.7771C33.7625 39.5471 34.9925 47.0571 34.9925 47.0571L56.5925 60.4071L59.8425 56.7871Z" fill="#EDF3FE"/>
<path d="M56.4212 53.8972C56.4212 53.8972 52.3612 50.3672 49.6712 48.5872C46.9812 46.8072 51.0012 48.3372 51.0012 48.3372C51.0012 48.3372 55.7812 51.7572 57.5212 53.8972C59.2612 56.0372 56.4212 53.8972 56.4212 53.8972Z" fill="#EDF3FE"/>
<path d="M30.3616 38.2072C32.1616 33.4272 51.6716 27.8472 51.6716 27.8472C51.6716 27.8472 51.5416 30.2472 51.3816 33.7872L47.2316 36.9372C47.2316 36.9372 47.1116 50.2172 47.8016 57.8972C48.1116 61.4272 50.8616 61.9972 53.7416 61.5872C53.9016 61.8972 54.0616 62.2072 54.2316 62.5372C56.3216 66.5472 62.2115 71.8672 62.2115 71.8672C62.2115 71.8672 47.9316 81.2772 41.3416 81.7872C36.3116 82.1772 30.7016 81.3572 23.3716 75.9172C16.0416 70.4772 14.3516 57.8972 14.3516 57.8972C14.3516 57.8972 28.5716 42.9872 30.3616 38.2072Z" fill="#45474C"/>
<path d="M47.7914 57.8971C47.1114 50.2171 47.2214 36.9371 47.2214 36.9371L51.3714 33.7871C51.2214 37.1671 51.0314 41.5971 50.9114 45.9571C50.6814 54.2771 51.1814 56.5771 53.7214 61.5871C50.8614 61.9971 48.1114 61.4371 47.7914 57.8971Z" fill="#91969F"/>
<path d="M46.0517 44.7672C46.0517 44.7672 46.0317 48.4472 43.9417 50.3872C41.8517 52.3272 36.5317 59.4772 35.1617 62.2072C33.0617 66.3872 32.6617 70.8772 32.4417 71.5072C32.2217 72.1372 15.8317 65.0272 16.2217 57.8372C16.6117 50.6472 21.4817 40.0772 22.5817 38.9172C23.6817 37.7472 36.8617 32.7472 46.0517 44.7672Z" fill="#45474C"/>
<path d="M13.0624 58.8772C14.3224 57.0172 18.3624 57.4272 20.6424 57.8272C18.6124 63.6272 16.0024 65.3372 24.9324 70.4072C26.6424 71.3772 28.3023 71.8672 29.8923 72.0372C30.0623 71.8672 30.2224 71.7072 30.3824 71.5172C31.0324 70.7572 31.8623 69.8372 32.7623 68.8672C35.1023 68.3972 37.4424 67.0672 39.5624 64.7172C45.0924 58.5572 51.1324 54.5172 51.1324 54.5172L54.8124 57.5472C54.8124 57.5472 44.6724 76.0172 39.1624 79.3572C33.6524 82.6972 19.1024 76.2072 13.0724 70.9372C7.04237 65.6772 11.2724 61.5172 13.0624 58.8772Z" fill="#EDF3FE"/>
<path d="M29.8922 72.0472C28.3022 71.8872 26.6422 71.3872 24.9322 70.4172C16.0022 65.3472 18.6122 63.6372 20.6422 57.8372C21.5922 58.0072 22.2322 58.1772 22.2322 58.1772C22.2322 58.1772 20.1022 64.0572 24.5922 67.1072C27.0522 68.7772 29.9122 69.4672 32.7622 68.8872C31.8722 69.8572 31.0322 70.7772 30.3822 71.5372C30.2222 71.7172 30.0622 71.8772 29.8922 72.0472Z" fill="#EDF3FE"/>
<path d="M29.8922 72.0472C28.3022 71.8872 26.6422 71.3872 24.9322 70.4172C16.0022 65.3472 18.6122 63.6372 20.6422 57.8372C21.5922 58.0072 22.2322 58.1772 22.2322 58.1772C22.2322 58.1772 20.1022 64.0572 24.5922 67.1072C27.0522 68.7772 29.9122 69.4672 32.7622 68.8872C31.8722 69.8572 31.0322 70.7772 30.3822 71.5372C30.2222 71.7172 30.0622 71.8772 29.8922 72.0472Z" fill="#EDF3FE"/>
<path d="M8.03195 40.8872C9.87195 38.9772 13.242 37.9672 16.262 37.0972L27.102 48.5972C24.732 50.9172 21.912 54.2272 20.642 57.8472C18.612 63.6472 16.0019 65.3572 24.9319 70.4272C26.6419 71.3972 28.3019 71.8872 29.8919 72.0572C35.0219 72.5872 39.3219 69.5272 41.3419 66.8072C43.9819 63.2372 54.802 52.7272 56.302 52.6572C58.512 54.1972 61.882 57.8872 65.632 62.4272C68.702 66.1372 72.442 71.2672 73.752 74.7372C71.942 75.5272 67.2519 79.3972 62.2019 82.7372C53.4419 88.5372 45.852 94.1672 45.852 94.1672L0.251953 67.6172C0.251953 67.6172 3.56195 45.5072 8.03195 40.8872Z" fill="#EDF3FE"/>
<path d="M8.03217 40.8872C10.0822 39.2072 13.2422 37.9672 16.2622 37.0972L27.1022 48.5972C24.7322 50.9172 21.9122 54.2272 20.6422 57.8472C18.6122 63.6472 16.0022 65.3572 24.9322 70.4272C26.6422 71.3972 28.3022 71.8872 29.8922 72.0572C26.3022 75.6772 20.9422 75.4172 18.4822 74.9372C13.4322 73.9572 3.35219 68.0772 0.492188 66.1272C1.65219 59.9272 3.84217 44.3072 8.03217 40.8872Z" fill="#EDF3FE"/>
<path d="M30.5424 72.7172C33.0824 72.7172 35.0924 71.9972 35.9824 71.6072C38.2824 70.6072 42.4124 66.2372 45.7324 62.7272C46.5024 61.9172 47.2023 61.1672 47.7823 60.5772C50.6824 57.6172 55.7323 53.5072 55.7823 53.4672L55.1124 52.6472C55.0624 52.6872 49.9623 56.8272 47.0223 59.8372C46.4323 60.4372 45.7323 61.1872 44.9523 62.0072C41.8723 65.2672 37.6524 69.7272 35.5524 70.6372C33.9024 71.3472 28.1024 73.3172 22.5724 68.6272C18.3424 65.0472 18.5624 62.2672 20.1924 59.1972L19.2523 58.6972C17.6423 61.7372 16.8424 65.1472 21.8924 69.4272C24.9024 71.9872 27.9924 72.7172 30.5424 72.7172Z" fill="white"/>
<path d="M73.7514 74.7272C74.8614 76.2172 62.2014 88.0672 62.2014 88.0672L33.4414 104.537C33.4414 104.537 71.5114 71.7072 73.7514 74.7272Z" fill="#EDF3FE"/>
<path opacity="0.5" d="M58.0119 23.3672C58.4119 20.4072 57.1019 18.8272 49.4819 14.7072C41.8619 10.5872 37.8719 26.0771 41.5619 29.6971C45.2519 33.3172 51.6819 33.7671 53.8419 31.7671C56.0219 29.7671 58.0119 23.3672 58.0119 23.3672Z" fill="#EDF3FE"/>
<path opacity="0.5" d="M16.2207 12.3272C16.8607 12.0172 31.6607 -8.28284 48.9507 3.87716C66.2407 16.0372 54.8007 33.2872 54.8007 33.2872C54.8007 33.2872 52.5907 39.8172 38.2507 31.8372C23.9107 23.8572 16.2207 12.3272 16.2207 12.3272Z" fill="#EDF3FE"/>
<path d="M58.3118 22.6671C58.3118 22.6671 56.8318 34.0971 49.8818 39.4871C42.9318 44.8671 38.5117 44.0071 38.5117 44.0071L38.9617 35.5171C38.9617 35.5171 47.2118 34.4171 51.5618 30.8971C55.1818 27.9471 58.3118 22.6671 58.3118 22.6671Z" fill="#EDF3FE"/>
<path d="M12.7816 48.0171C11.0416 39.9371 9.46162 35.9771 11.8316 30.6071C13.4516 26.9271 10.4116 24.0671 13.0216 18.6071C15.6316 13.1571 16.7016 8.39712 24.5016 13.0671C30.1016 16.4171 33.8816 17.9471 36.6716 21.8071C35.2516 22.7571 35.2916 25.0371 34.4016 28.9371C32.6016 36.8571 36.7016 37.1871 34.9516 41.4471C34.1616 43.3671 29.6816 46.1971 29.1216 51.4771C28.7116 55.2371 27.7216 58.0671 26.7416 60.3971C24.7816 61.1471 22.9716 61.8171 21.8216 62.2671C19.9016 63.0171 14.0416 60.7271 13.0216 57.7171C12.1016 55.0371 13.6616 52.1171 12.7816 48.0171Z" fill="#EDF3FE"/>
<path d="M32.7422 42.2471C34.4022 40.4671 34.7022 38.7171 33.6722 35.7971C33.1322 34.2671 32.1022 31.4071 32.7422 28.5871C33.6322 24.6871 35.2522 22.7671 36.6722 21.8171C37.5822 23.0671 38.6722 25.1371 39.6622 27.1271C43.0822 33.9771 45.0122 34.7871 42.3122 42.9171C39.7422 50.6471 38.6522 53.1671 36.5222 55.6871C35.0422 57.4171 30.9522 58.7871 26.7422 60.4071C27.7222 58.0771 28.7122 55.2471 29.1222 51.4871C29.6922 46.1971 31.3222 43.7671 32.7422 42.2471Z" fill="#EDF3FE"/>
<path d="M19.492 42.4172C19.492 42.4172 19.752 43.4572 19.492 44.0672C19.212 44.7172 17.562 44.8772 16.772 44.6872C15.982 44.4972 14.842 44.8272 13.912 44.6872C12.082 44.4172 12.092 42.5072 12.192 42.1372C12.392 41.3972 13.012 40.3972 13.352 39.8872C13.422 39.7772 13.502 39.6772 13.582 39.5472V39.5372C14.252 38.4972 15.322 36.6872 16.262 34.8172C16.152 34.6872 16.0319 34.5672 15.9019 34.4572C15.4219 34.0472 14.902 33.7872 14.322 33.6372C13.872 34.9172 13.452 35.9772 13.032 36.7772C11.732 39.2472 11.252 41.0872 11.252 41.0872C11.252 41.0872 11.832 43.7172 12.012 44.5272C12.032 44.6172 12.042 44.6672 12.042 44.6672C12.312 45.8372 15.752 45.2172 16.782 45.4172C18.622 45.7672 20.212 45.0572 20.292 44.1472C20.352 43.2572 19.492 42.4172 19.492 42.4172Z" fill="#EDF3FE"/>
<path opacity="0.5" d="M23.1617 13.5772C28.2917 16.0672 30.1517 17.9172 31.5617 19.3272C33.6817 21.4272 33.1917 23.2072 31.6517 25.5272C30.1117 27.8572 29.3517 28.7772 24.2217 25.3472C19.2817 22.0372 17.8217 20.9572 15.8317 20.2072C13.4417 19.3072 14.5517 16.6872 16.2317 14.0772C17.9117 11.4672 20.2817 12.1772 23.1617 13.5772Z" fill="white"/>
<path d="M20.6419 52.9472C20.6419 52.9472 19.9019 53.5672 17.9019 54.3472C16.7819 54.7872 15.9119 54.3872 14.7819 53.7072C13.9019 53.1872 13.5019 53.3372 13.2319 52.6972C13.0419 52.2472 12.4219 51.2672 12.4219 51.2672C12.4219 51.2672 13.8819 51.5272 15.0819 52.0872C16.2919 52.6372 20.6419 52.9472 20.6419 52.9472Z" fill="#EDF3FE"/>
<path d="M45.2823 34.2072C45.5223 34.0972 51.2823 31.3672 53.8023 29.2072C56.8823 26.5672 58.2823 24.3872 58.3523 22.1272C58.4323 19.4372 56.5423 18.4672 55.7323 17.8972C55.7323 17.8972 55.6923 18.6472 55.7423 19.2072C56.3723 19.7072 57.3323 20.6972 57.2923 22.0872C57.2323 23.9972 55.9023 25.9972 53.1123 28.3872C50.7023 30.4572 44.8823 33.2072 44.8223 33.2372L45.2823 34.2072Z" fill="#EDF3FE"/>
<path d="M11.9706 23.5272C11.9706 23.5272 14.2706 22.5172 16.0606 23.5172C17.8506 24.5272 18.0406 25.8672 18.2906 27.7472C18.5506 29.6272 17.6506 31.6072 17.0806 33.1072C16.5106 34.6072 14.4006 38.1972 13.2506 39.7472C12.1006 41.3072 11.9706 42.3872 11.9706 42.3872H11.5206L11.1406 40.4472C11.1406 40.4472 13.3206 35.6072 14.1306 33.4672C11.4606 31.6672 12.1006 29.3072 12.1006 29.3072L11.9706 23.5272Z" fill="#AAC4F4"/>
<path d="M21.9198 52.8572C21.9198 52.8572 20.0099 53.6872 18.8599 53.8172C17.7099 53.9472 16.5598 53.2972 15.3498 52.8572C14.1398 52.4172 13.5398 52.2072 12.8198 51.5172C12.0998 50.8272 11.9698 50.3872 12.2898 49.6772C12.6098 48.9672 13.1798 48.2672 13.1798 48.2672L14.7298 50.1172C14.7298 50.1172 15.5599 49.6172 17.0199 50.3472C18.4799 51.0772 21.9198 52.8572 21.9198 52.8572Z" fill="#FAFBFE"/>
<path d="M21.9209 52.8572C21.9209 52.8572 21.3109 53.2172 20.7809 53.3072C20.3309 53.3872 19.4309 52.8072 18.8609 52.3572C17.8309 51.5572 16.2909 50.8872 15.3809 50.6472C15.3809 50.6472 15.8309 49.5772 18.9209 51.3172C19.8809 51.8472 21.9209 52.8572 21.9209 52.8572Z" fill="white"/>
<path d="M22.3709 52.8572C22.3709 52.8572 20.781 52.2072 19.271 51.0572C17.761 49.9172 16.921 49.2372 16.331 49.0372C15.741 48.8372 14.741 49.3472 14.741 49.3472C14.741 49.3472 14.381 48.2572 13.701 47.9472C12.801 47.5272 12.7109 48.0672 12.7109 48.0672L12.821 48.7572C12.821 48.7572 13.311 48.7672 13.831 49.4072C14.341 50.0472 14.7509 50.7472 14.7509 50.7472C14.7509 50.7472 16.0009 50.4272 17.0309 50.7472C18.0509 51.0672 19.691 52.2072 20.351 52.4972C20.981 52.7972 22.3709 52.8572 22.3709 52.8572Z" fill="#AAC4F4"/>
<path d="M27.6707 31.0072C28.9307 31.8972 30.7308 34.7572 31.5608 36.7272C32.3908 38.6972 31.6207 38.8972 30.6707 39.5672C29.7107 40.2272 26.9707 40.7572 24.8607 39.5672C22.7507 38.3772 22.0508 37.0172 22.2408 35.2072C22.4308 33.3972 23.3307 31.1672 24.2807 30.5972C25.2407 30.0172 26.6507 30.2872 27.6707 31.0072Z" fill="#AAC4F4"/>
<path d="M26.2499 33.2973C26.2499 33.2973 25.2499 33.2573 24.9199 33.5773C24.5899 33.8973 24.6799 33.9073 24.5499 34.2673C24.4199 34.6373 24.1399 35.0173 23.9199 35.2873C23.6899 35.5673 23.7399 35.6373 23.9199 35.8473C24.0999 36.0473 24.2099 36.7173 24.2099 36.7173C24.2099 36.7173 24.7799 37.4573 26.0099 37.8873C27.2399 38.3173 30.1999 38.4273 30.1999 38.4273C30.1999 38.4273 28.6799 35.2173 28.2099 34.5773C27.7399 33.9473 26.2499 33.2973 26.2499 33.2973Z" fill="white"/>
<path d="M24.5613 36.2672C24.7313 37.2472 25.4613 37.9372 26.1913 37.8072C26.9213 37.6772 27.3713 36.7772 27.2013 35.7972C27.0313 34.8172 26.3013 34.1272 25.5713 34.2572C24.8413 34.3872 24.3913 35.2772 24.5613 36.2672Z" fill="#AAC4F4"/>
<path d="M24.7416 36.1672C24.8316 36.6872 25.2216 37.0572 25.6116 36.9872C26.0016 36.9172 26.2416 36.4372 26.1416 35.9172C26.0416 35.3972 25.6616 35.0272 25.2716 35.0972C24.8916 35.1672 24.6516 35.6472 24.7416 36.1672Z" fill="#45474C"/>
<path d="M24.8315 34.7972C24.9015 35.1972 25.2015 35.4772 25.5015 35.4272C25.8015 35.3772 25.9815 35.0072 25.9115 34.6072C25.8415 34.2072 25.5415 33.9272 25.2415 33.9772C24.9415 34.0272 24.7615 34.3972 24.8315 34.7972Z" fill="white"/>
<path d="M23.7715 35.6772C23.7715 35.6772 23.8315 35.6372 24.0915 35.9172C24.2515 36.0972 24.1615 36.5872 24.6515 37.0872C25.1115 37.5572 25.8915 37.8072 26.9615 37.9972C28.1915 38.2172 29.8815 38.3072 29.8815 38.2972C29.0615 37.4872 27.9415 36.8872 26.8315 35.8472C25.8115 34.9072 25.0315 34.3172 24.6115 34.7772C24.1715 35.2572 23.9515 35.2672 23.9515 35.2672C24.0015 34.5372 24.7315 32.5172 26.3615 32.6272C27.2515 32.6872 28.1815 33.4272 29.2515 35.1072C30.4315 36.9672 30.6115 38.6772 30.6115 38.6772C30.6115 38.6772 29.2415 38.9772 27.0315 38.6972C25.7015 38.5272 24.8915 37.9972 24.3815 37.3472C23.8515 36.7072 23.7715 35.6772 23.7715 35.6772Z" fill="#EDF3FE"/>
<path d="M17.0793 32.0871C17.0793 32.0871 16.8193 30.9471 16.4793 29.6571C16.0293 27.9471 15.4593 27.2271 14.1893 27.9271C12.9193 28.6271 12.7793 29.4371 12.7793 29.5171C12.7893 29.5971 13.0193 31.3571 14.0293 32.1171C14.5493 32.5071 15.4293 32.4871 16.1593 32.4471C16.5193 32.4271 16.6893 32.5671 16.8793 32.5071C17.0693 32.4471 17.0793 32.0871 17.0793 32.0871Z" fill="white"/>
<path d="M13.3894 30.5971C13.5594 31.5771 14.2894 32.2671 15.0194 32.1371C15.7494 32.0071 16.1994 31.1071 16.0294 30.1271C15.8594 29.1471 15.1294 28.4571 14.3994 28.5871C13.6694 28.7171 13.2194 29.6171 13.3894 30.5971Z" fill="#AAC4F4"/>
<path d="M13.5697 30.4972C13.6597 31.0172 14.0497 31.3872 14.4397 31.3172C14.8297 31.2472 15.0697 30.7672 14.9697 30.2472C14.8697 29.7272 14.4897 29.3572 14.0997 29.4272C13.7197 29.4972 13.4797 29.9772 13.5697 30.4972Z" fill="#45474C"/>
<path d="M13.6596 29.1272C13.7296 29.5272 14.0296 29.8072 14.3296 29.7572C14.6296 29.7072 14.8096 29.3372 14.7396 28.9372C14.6696 28.5372 14.3696 28.2572 14.0696 28.3072C13.7696 28.3572 13.5896 28.7272 13.6596 29.1272Z" fill="white"/>
<path d="M12.5398 29.4072C12.5698 29.0372 12.6597 28.8772 12.9997 28.3972C13.3397 27.9072 13.6997 27.6672 14.3697 27.3972C15.1297 27.0872 16.4997 28.0372 16.7797 29.2772C16.8897 29.7472 16.8698 30.1872 16.9198 30.6272C16.9998 31.4172 17.0998 32.0972 17.0998 32.0972C16.9098 31.9072 16.7597 31.8272 16.6197 31.3772C16.4497 30.8172 15.5598 29.8872 15.2398 29.6172C14.5398 29.0172 13.9998 28.7972 13.6698 28.8772C13.2598 28.9872 13.3698 28.9272 13.0398 29.3572C13.1198 29.8472 13.4198 31.3072 14.3298 31.8172C14.8798 32.1172 15.7098 32.0772 16.0498 32.1672C16.3898 32.2572 16.5897 32.5072 16.5897 32.5072C16.5897 32.5072 15.5698 32.6272 14.9498 32.5372C14.3298 32.4472 13.7998 32.4672 13.1298 31.2872C12.7298 30.6172 12.4898 29.8172 12.5398 29.4072Z" fill="#EDF3FE"/>
<path d="M31.3215 58.6372C34.3215 54.0872 36.3416 42.4672 36.6016 41.0472L44.4416 36.4172L44.1716 35.9572L36.1216 40.7072L36.1016 40.8272C36.0816 40.9572 33.6616 54.2971 30.6016 58.9371L31.3215 58.6372Z" fill="#45474C"/>
<path d="M40.1602 40.0871C40.1602 35.8471 42.7402 30.9171 45.9202 29.0771C47.4202 28.2071 48.7702 28.2171 49.8002 28.8671L49.8102 28.8471L50.9001 29.6871L51.5502 35.1371C51.1302 37.9871 49.7202 40.8871 47.8702 42.8371L43.5002 45.5071L42.0602 44.6771L42.0701 44.6571C40.9101 43.9271 40.1602 42.3471 40.1602 40.0871Z" fill="#45474C"/>
<path d="M51.5778 39.2143C53.4918 34.7166 52.9835 30.1938 50.4425 29.1125C47.9014 28.0311 44.2898 30.8006 42.3758 35.2983C40.4618 39.7959 40.9701 44.3186 43.5112 45.4C46.0522 46.4814 49.6638 43.7119 51.5778 39.2143Z" fill="white"/>
<path d="M51.797 39.2718C53.3283 35.6736 52.9175 32.0537 50.8796 31.1864C48.8416 30.3192 45.9483 32.533 44.417 36.1311C42.8858 39.7293 43.2966 43.3492 45.3345 44.2164C47.3725 45.0837 50.2658 42.8699 51.797 39.2718Z" fill="#45474C"/>
<path d="M52.471 36.3371C52.471 38.7971 50.981 41.6471 49.131 42.7171C47.291 43.7771 45.791 42.6471 45.791 40.1971C45.791 37.7371 47.281 34.8871 49.131 33.8171C50.981 32.7471 52.471 33.8771 52.471 36.3371Z" fill="#EDF3FE"/>
<path d="M48.1213 42.3672C47.8513 42.3672 47.5913 42.2972 47.3613 42.1672C46.7213 41.7972 46.3613 40.9572 46.3613 39.8572C46.3613 37.8172 47.6113 35.4372 49.1413 34.5572C49.8413 34.1572 50.5113 34.1072 51.0413 34.4172C51.6813 34.7872 52.0413 35.6272 52.0413 36.7272C52.0413 38.7672 50.7913 41.1472 49.2613 42.0272C48.8713 42.2572 48.4813 42.3672 48.1213 42.3672ZM50.2813 34.4672C49.9613 34.4672 49.6213 34.5672 49.2613 34.7772C47.8013 35.6272 46.6013 37.9072 46.6013 39.8672C46.6013 40.8772 46.9213 41.6372 47.4813 41.9572C47.9313 42.2172 48.5213 42.1672 49.1313 41.8172C50.5913 40.9672 51.7913 38.6872 51.7913 36.7372C51.7913 35.7272 51.4713 34.9672 50.9113 34.6472C50.7313 34.5272 50.5213 34.4672 50.2813 34.4672Z" fill="white"/>
<path d="M50.7618 35.7072C50.7618 36.4172 50.3318 37.2372 49.8018 37.5472C49.2718 37.8572 48.8418 37.5272 48.8418 36.8172C48.8418 36.1072 49.2718 35.2872 49.8018 34.9772C50.3318 34.6772 50.7618 35.0072 50.7618 35.7072Z" fill="#45474C"/>
<path d="M38.252 39.7071L38.772 39.5871C38.762 39.5271 37.402 33.9071 36.172 30.4771C35.642 28.9871 35.122 27.8471 34.702 26.9271C33.432 24.1471 33.092 23.3971 35.662 20.5271L35.262 20.1771C32.462 23.3071 32.942 24.3471 34.212 27.1471C34.622 28.0571 35.142 29.1871 35.662 30.6571C36.882 34.0471 38.242 39.6471 38.252 39.7071Z" fill="#45474C"/>
<path d="M40.7423 44.9771C40.7423 45.6871 40.3123 46.5071 39.7823 46.8171C39.2523 47.1271 38.8223 46.7971 38.8223 46.0871C38.8223 45.3771 39.2523 44.5571 39.7823 44.2471C40.3123 43.9471 40.7423 44.2671 40.7423 44.9771Z" fill="#45474C"/>
<path d="M40.8419 31.9771C40.8419 32.6871 40.4119 33.5071 39.8819 33.8171C39.3519 34.1271 38.9219 33.7971 38.9219 33.0871C38.9219 32.3771 39.3519 31.5571 39.8819 31.2471C40.4019 30.9471 40.8419 31.2671 40.8419 31.9771Z" fill="#45474C"/>
<path d="M86.4816 142.327L85.2516 144.267L84.1116 143.687L57.8516 41.4472L60.2115 40.0872L86.4816 142.327Z" fill="#0038FF"/>
<path d="M87.6222 142.897L85.2522 144.267L58.9922 42.0271L61.3522 40.6571L87.6222 142.897Z" fill="#0038FF"/>
<path d="M65.1116 65.6872L50.9615 74.0572L50.6016 72.9972L64.8215 64.5972L65.1116 65.6872Z" fill="#0038FF"/>
<path d="M64.8317 64.5972L50.6818 72.9672L49.5117 72.7372L63.7318 64.3372L64.8317 64.5972Z" fill="#262E8A"/>
<path d="M62.092 54.0071L47.9421 62.3771L47.582 61.3271L61.8021 52.9171L62.092 54.0071Z" fill="#0038FF"/>
<path d="M61.812 52.9171L47.6619 61.2871L46.502 61.0671L60.7119 52.6571L61.812 52.9171Z" fill="#262E8A"/>
<path d="M71.1526 89.0371L57.0026 97.4071L56.6426 96.3571L70.8526 87.9471L71.1526 89.0371Z" fill="#0038FF"/>
<path d="M70.8727 87.9471L56.7127 96.3171L55.5527 96.0971L69.7727 87.6871L70.8727 87.9471Z" fill="#262E8A"/>
<path d="M68.1311 77.3672L53.9811 85.7272L53.6211 84.6772L67.8311 76.2672L68.1311 77.3672Z" fill="#0038FF"/>
<path d="M67.8513 76.2672L53.7012 84.6372L52.5312 84.4172L66.7513 76.0172L67.8513 76.2672Z" fill="#262E8A"/>
<path d="M74.1724 100.717L60.0223 109.087L59.6523 108.037L73.8724 99.6272L74.1724 100.717Z" fill="#0038FF"/>
<path d="M73.8923 99.6272L59.7323 107.997L58.5723 107.777L72.7923 99.3672L73.8923 99.6272Z" fill="#262E8A"/>
<path d="M77.1919 112.397L63.0419 120.767L62.6719 119.707L76.8918 111.307L77.1919 112.397Z" fill="#0038FF"/>
<path d="M76.9118 111.307L62.7518 119.667L61.5918 119.447L75.8118 111.047L76.9118 111.307Z" fill="#262E8A"/>
<path d="M80.2114 124.067L66.0514 132.437L65.6914 131.387L79.9114 122.977L80.2114 124.067Z" fill="#0038FF"/>
<path d="M79.9313 122.977L65.7713 131.347L64.6113 131.127L78.8313 122.717L79.9313 122.977Z" fill="#262E8A"/>
<path d="M83.2016 135.747L69.0416 144.117L68.6816 143.067L82.9016 134.657L83.2016 135.747Z" fill="#0038FF"/>
<path d="M82.9116 134.657L68.7615 143.027L67.6016 142.807L81.8215 134.397L82.9116 134.657Z" fill="#262E8A"/>
<path d="M70.0519 151.947L68.8218 153.897L67.6919 153.317L41.4219 51.0772L43.7919 49.7072L70.0519 151.947Z" fill="#0038FF"/>
<path d="M71.1925 152.527L68.8224 153.897L42.5625 51.6571L44.9325 50.2871L71.1925 152.527Z" fill="#0038FF"/>
<path d="M44.9319 50.2872L43.7919 49.7072L41.4219 51.0772L42.5619 51.6572L44.9319 50.2872Z" fill="#262E8A"/>
<path d="M58.9916 42.0272L57.8516 41.4472L60.2115 40.0872L61.3516 40.6572L58.9916 42.0272Z" fill="#262E8A"/>
<path d="M57.4411 13.4971C58.1711 14.5771 58.8911 15.7171 58.9811 16.6871C59.2111 17.0671 60.9211 20.9971 61.6111 22.4871C62.3811 22.7771 63.811 23.9871 64.711 24.3171C65.501 24.6071 66.6511 24.9771 67.2911 25.5071C68.0111 26.1171 68.2711 28.8571 66.3811 28.4571C64.6611 28.0971 63.8911 27.6971 62.4311 26.8571C61.2011 26.1571 60.4811 25.3471 59.9311 24.8271C59.4511 24.3771 59.191 24.2471 59.081 23.7871C59.021 23.4971 58.0611 21.3871 57.9911 21.1171C57.8211 20.4571 57.7311 18.4071 57.2511 17.4371C56.8511 17.2471 56.6911 16.3871 56.4311 16.1071C56.0511 15.6871 55.391 15.4171 55.641 15.1471C55.911 14.8571 56.4311 15.1771 56.9311 15.5171C57.1211 15.6571 57.2511 15.1371 57.2511 15.1371C57.2511 15.1371 56.751 14.1571 56.711 13.4571C56.681 12.6571 56.7111 12.4171 57.4411 13.4971Z" fill="#EDF3FE"/>
<path d="M67.0811 24.7971C68.0511 25.6571 68.4311 26.7671 68.1611 28.5371C67.8911 30.3071 66.5811 32.0571 65.5811 32.1271C64.5811 32.1871 63.9911 30.4471 63.9911 30.4471C63.9911 30.4471 61.7211 29.4271 60.8111 28.6971C59.9011 27.9671 60.6911 27.5671 60.6911 27.5671C60.6911 27.5671 60.7311 25.3571 61.8111 24.2271C62.6411 23.3571 63.2011 22.1871 63.2011 22.1871L65.3811 23.8571C65.3811 23.8471 66.2311 24.0471 67.0811 24.7971Z" fill="#E07E7E"/>
<path d="M64.8827 75.4471C66.7527 76.1671 67.4327 76.2271 67.3327 75.2871C67.3027 75.0271 67.0427 73.1771 66.9027 72.3371C65.9827 66.7571 64.3527 53.3371 64.3527 53.3371L70.0127 48.0371C70.0127 48.0371 70.1627 58.1471 70.0127 62.6771C70.8727 66.8871 70.3527 70.6571 70.1527 73.3671C70.1127 73.8871 70.2527 75.8871 70.2927 76.3471C70.3527 76.9771 71.1327 78.6971 71.0327 79.1671C70.7927 80.2271 69.7427 80.5171 67.1027 79.7771C65.6127 79.3571 63.7327 77.8471 63.4127 77.4471C62.0927 75.7371 63.2827 74.8271 64.8827 75.4471Z" fill="#F8E7DB"/>
<path d="M70.612 77.6471C70.612 77.6471 69.682 78.1171 69.222 78.7071C68.762 79.3071 66.882 78.6971 66.122 78.3371C64.912 77.7671 64.552 77.257 64.302 76.867C63.972 76.347 65.272 75.727 65.272 75.727L66.352 75.9171C66.352 75.9171 65.1519 75.187 64.0719 75.227C62.9919 75.267 61.852 76.0171 62.642 76.9971C64.012 78.6971 66.722 79.707 67.522 80.007C68.622 80.417 69.882 80.7371 70.832 79.8871C71.562 79.2571 70.612 77.6471 70.612 77.6471Z" fill="#E07E7E"/>
<path d="M58.5819 79.3971C60.4519 80.1171 61.1319 80.1771 61.0319 79.2371C61.0019 78.9771 60.7419 77.1271 60.6019 76.2871C59.6819 70.7071 58.0519 57.2871 58.0519 57.2871L63.7119 51.9871C63.7119 51.9871 63.8619 62.0971 63.7119 66.6271C64.5719 70.8371 64.0519 74.6071 63.8519 77.3171C63.8119 77.8371 63.9519 79.8371 63.9919 80.2971C64.0519 80.9271 64.8319 82.6471 64.7319 83.1171C64.4919 84.1771 63.4419 84.4671 60.8019 83.7271C59.3119 83.3071 57.4319 81.7971 57.1119 81.3971C55.7919 79.6971 56.9819 78.7871 58.5819 79.3971Z" fill="#F8E7DB"/>
<path d="M64.3112 81.5971C64.3112 81.5971 63.3812 82.0671 62.9212 82.6571C62.4612 83.2571 60.5812 82.6471 59.8212 82.2871C58.6112 81.7171 58.2512 81.2071 58.0012 80.8171C57.6712 80.2971 58.9712 79.6771 58.9712 79.6771L60.0512 79.8571C60.0512 79.8571 58.8512 79.1271 57.7712 79.1671C56.6912 79.2071 55.5512 79.9571 56.3412 80.9371C57.7112 82.6371 60.4212 83.6471 61.2212 83.9471C62.3212 84.3571 63.5812 84.6771 64.5312 83.8271C65.2612 83.2171 64.3112 81.5971 64.3112 81.5971Z" fill="#E07E7E"/>
<path d="M69.7114 41.8472C69.7114 41.8472 70.9814 45.6772 71.5814 49.3672C72.1814 53.0572 72.3914 61.1172 72.3914 61.1172C72.3914 61.1172 71.3414 63.9872 66.7414 65.0872C61.3814 66.3772 56.9414 64.0972 56.9414 64.0972C56.9414 64.0972 58.0714 48.8272 59.0014 45.3672C59.9314 41.9172 69.7114 41.8472 69.7114 41.8472Z" fill="#AAC4F4"/>
<path d="M61.9821 28.7472C60.6521 29.1372 59.4421 28.8172 58.1621 28.6172C58.9621 27.7772 59.9721 26.9572 59.1921 24.6472C60.2021 24.3672 61.1221 23.9672 62.0121 23.4172C62.1921 23.3072 62.4721 23.4072 62.5221 23.6272C62.7221 24.6772 62.9821 25.8972 63.6621 26.4172C63.6521 26.7972 63.6821 26.7172 63.6821 27.0872C63.6821 27.3572 63.6821 27.6272 63.6821 27.8972C63.2421 28.3472 62.5921 28.5772 61.9821 28.7472Z" fill="#F8E7DB"/>
<path d="M62.9115 20.9272C62.7515 19.4772 61.5616 17.5372 59.9316 17.6572C58.2716 17.7872 57.1415 20.2472 57.0115 21.3972C56.7915 23.3472 56.9615 27.0272 60.0415 25.8472C62.4415 24.9272 63.1415 23.0972 62.9115 20.9272Z" fill="#F8E7DB"/>
<path d="M56.1712 19.3571C56.0112 19.1571 55.9012 18.9471 55.8812 18.7471C55.8012 18.1371 56.7811 17.9771 57.3911 18.1271C58.2611 16.7371 60.4812 16.2371 61.7312 17.5171C63.0212 17.6971 63.8211 18.3371 64.0711 19.6171C64.5811 22.2271 63.8911 22.4871 63.0711 25.6471C61.9311 26.0171 60.8712 24.8771 60.0612 23.8971C59.5912 23.3371 59.0112 22.3271 58.5412 21.0271C56.9012 21.6471 55.5512 21.1971 55.3112 20.3971C55.1212 19.7871 55.6112 19.4471 56.1712 19.3571Z" fill="#45474C"/>
<path d="M59.0117 22.3071C59.0117 22.3071 60.2418 21.4671 60.4418 22.6671C60.6318 23.8671 59.4617 24.2771 59.4617 24.2771L59.0117 22.3071Z" fill="#F8E7DB"/>
<path d="M63.4712 26.9871C63.4712 26.9871 65.6713 28.8771 67.6813 33.5571C69.7013 38.2371 70.6313 44.9871 70.6313 44.9871C70.6313 44.9871 69.8912 46.4571 66.2712 47.1071C62.6612 47.7471 60.1812 47.3471 58.4812 45.9071C58.6712 43.4271 59.6012 40.5771 59.6012 40.5771C59.6012 40.5771 57.8612 33.3071 57.7712 31.2171C57.6812 29.1171 61.2012 27.1471 63.4712 26.9871Z" fill="#45474C"/>
<path d="M64.4314 26.1571C64.4314 26.1571 67.3214 27.8071 68.7914 33.2571C69.4714 35.7871 70.6314 39.9071 70.6314 39.9071C70.6314 39.9071 68.2614 41.9971 64.4714 42.6471C60.6814 43.2971 57.7314 42.8771 57.7314 42.8771C57.7314 42.8771 57.1914 37.6371 56.8714 35.9471C55.9814 31.2471 56.1614 29.2371 56.1614 29.2371C56.1614 29.2371 57.4514 27.8371 59.0014 27.2871C62.5114 27.7771 64.4314 26.1571 64.4314 26.1571Z" fill="#E07E7E"/>
<path d="M45.1916 21.8671C46.2116 22.6771 47.0716 23.4071 47.4516 24.3071C47.7916 24.6071 50.6016 27.8171 51.7116 29.0371C52.5316 29.0871 54.8416 28.9671 55.8016 29.0071C56.6416 29.0371 57.6416 29.3871 58.4116 29.6971C59.2816 30.0571 60.0016 33.0771 58.0816 33.2771C56.3316 33.4571 55.4816 33.3071 53.8316 32.9571C52.4516 32.6571 51.5216 32.1071 50.8416 31.7871C50.2416 31.5071 49.9516 31.4571 49.7216 31.0571C49.5716 30.8071 48.0216 29.0871 47.8716 28.8471C47.5116 28.2771 46.4316 26.5771 45.9716 25.3971C45.0816 24.8071 44.6916 24.2771 44.4916 23.6871C44.2516 22.9871 44.4916 22.5771 44.4916 22.5771C44.4916 22.5771 44.1216 21.9571 44.6016 21.6771C44.2316 21.2171 44.5116 20.5471 45.2016 20.9671C45.1916 21.1871 45.1116 21.5471 45.1916 21.8671Z" fill="#F8E7DB"/>
<path d="M62.5611 16.5772C63.0311 16.5472 63.511 16.7472 63.771 17.1572C64.241 17.8872 63.811 18.5972 63.641 18.8272C63.011 19.6972 61.811 19.4872 61.241 18.6672C60.581 17.7172 61.5711 16.6472 62.5611 16.5772Z" fill="#E07E7E"/>
<path d="M62.6118 16.8872C63.3518 16.3772 64.5518 15.7472 66.1818 16.6172C67.8118 17.4872 67.8118 20.0872 67.5518 21.4172C67.2918 22.7472 66.4318 23.7972 66.2518 24.9572C65.9918 26.6272 67.2817 27.2272 67.2817 27.2272C67.2817 27.2272 66.1117 28.3272 64.7717 26.6272C63.4317 24.9272 63.8418 23.0572 63.8818 21.1972C63.9218 19.3472 62.4917 18.8072 62.1517 18.3472C61.8317 17.8672 62.0618 17.2672 62.6118 16.8872Z" fill="#45474C"/>
<path d="M63.0708 25.6371C63.0708 25.6371 63.9909 25.7871 64.2509 26.4771C64.4509 27.0071 64.7408 27.8071 62.9508 28.2071C61.1708 28.6071 58.3809 27.5571 58.3809 27.5571C58.3809 27.5571 58.5708 27.1571 59.0108 26.8471C59.4508 26.5371 61.1109 26.6771 62.3809 26.4771C62.8509 26.4071 63.0708 25.6371 63.0708 25.6371Z" fill="#E07E7E"/>
<path d="M57.9921 27.9871C59.1921 28.4671 59.732 29.3071 60.082 31.0671C60.432 32.8171 59.7821 34.9171 58.8621 35.3171C57.9421 35.7171 56.7921 34.2771 56.7921 34.2771C56.7921 34.2771 54.312 34.0771 53.212 33.7071C52.112 33.3271 50.642 32.5971 50.642 32.5971C50.642 32.5971 50.192 31.7871 50.822 30.3471C51.302 29.2471 52.0621 28.7271 52.0621 28.7271L55.762 28.4771C55.782 28.4671 56.9421 27.5671 57.9921 27.9871Z" fill="#E07E7E"/>
<path d="M46.2508 22.0172C46.5308 21.4072 46.4907 21.0672 46.6407 20.9472C46.9307 20.7172 47.0908 21.0272 47.0408 21.5972C47.0008 22.0372 47.1908 23.8772 46.8108 24.1472C46.4208 24.4172 45.9707 23.4472 45.9707 23.4472C45.9707 23.4472 45.9608 22.6272 46.2508 22.0172Z" fill="#F8E7DB"/>
</svg>
