<svg width="143" height="137" viewBox="0 0 143 137" fill="none" xmlns="http://www.w3.org/2000/svg">
<path d="M85.5934 52.53L66.5834 63.5L47.9434 52.7L66.9534 41.73L85.5934 52.53Z" fill="url(#paint0_linear_254_1484)"/>
<path d="M66.5834 63.5L47.9434 52.7V76.81L66.5834 87.61V63.5Z" fill="url(#paint1_linear_254_1484)"/>
<path d="M85.594 52.53V76.64L66.584 87.61V63.5L85.594 52.53Z" fill="url(#paint2_linear_254_1484)"/>
<path d="M107.523 16.4799L94.1933 24.1799L81.1133 16.5999L94.4532 8.8999L107.523 16.4799Z" fill="url(#paint3_linear_254_1484)"/>
<path d="M94.1933 24.1799L81.1133 16.5999V33.5199L94.1933 41.0999V24.1799Z" fill="url(#paint4_linear_254_1484)"/>
<path d="M107.523 16.48V33.4L94.1934 41.1V24.18L107.523 16.48Z" fill="url(#paint5_linear_254_1484)"/>
<path d="M85.5934 21.9101L66.5834 32.8801L47.9434 22.0801L66.9534 11.1001L85.5934 21.9101Z" fill="#E07E7E"/>
<path d="M66.5834 32.8801L47.9434 22.0801V46.1901L66.5834 56.9901V32.8801Z" fill="#E07E7E"/>
<path d="M85.594 21.9102V46.0201L66.584 56.9901V32.8801L85.594 21.9102Z" fill="#E07E7E"/>
<path d="M99.0228 72.2201L89.6128 77.6501L80.3828 72.3001L89.7928 66.8701L99.0228 72.2201Z" fill="#E07E7E"/>
<path d="M89.6128 77.6501L80.3828 72.3V84.24L89.6128 89.5901V77.6501Z" fill="#E07E7E"/>
<path d="M99.0233 72.2202V84.1602L89.6133 89.5902V77.6502L99.0233 72.2202Z" fill="#E07E7E"/>
<path d="M79.0134 5.41L69.5134 10.89L60.1934 5.48999L69.6934 0L79.0134 5.41Z" fill="#0038FF"/>
<path d="M69.5134 10.89L60.1934 5.48999V17.55L69.5134 22.95V10.89Z" fill="#262E8A"/>
<path d="M79.0137 5.40991V17.4599L69.5137 22.9499V10.8899L79.0137 5.40991Z" fill="#0038FF"/>
<path d="M56.6844 45.09L43.2445 52.8499L30.0645 45.21L43.5045 37.45L56.6844 45.09Z" fill="#0038FF"/>
<path d="M43.2445 52.8499L30.0645 45.21V62.2599L43.2445 69.9V52.8499Z" fill="#262E8A"/>
<path d="M56.6841 45.0898V62.1398L43.2441 69.8998V52.8498L56.6841 45.0898Z" fill="#0038FF"/>
<path d="M60.1934 101.3L61.0334 101.9V74.3199L60.1934 73.97V101.3Z" fill="#262E8A"/>
<path d="M58.5137 72.41C58.5137 73.96 59.4537 75.76 60.6137 76.43C61.7737 77.1 62.7137 76.39 62.7137 74.84C62.7137 73.29 61.7737 71.4899 60.6137 70.8199C59.4537 70.1499 58.5137 70.87 58.5137 72.41Z" fill="#262E8A"/>
<path d="M59.0234 72.82C59.0234 73.82 59.6334 74.99 60.3834 75.42C61.1334 75.85 61.7434 75.3901 61.7434 74.3901C61.7434 73.3901 61.1334 72.22 60.3834 71.79C59.6334 71.36 59.0234 71.82 59.0234 72.82Z" fill="white"/>
<path d="M80.0041 49.2599L79.1641 49.7799V35.2999L80.0041 34.9399V49.2599Z" fill="#262E8A"/>
<path d="M81.6844 33.3899C81.6844 34.9399 80.7444 36.7399 79.5844 37.4099C78.4244 38.0799 77.4844 37.3699 77.4844 35.8199C77.4844 34.2699 78.4244 32.4699 79.5844 31.7999C80.7444 31.1299 81.6844 31.8399 81.6844 33.3899Z" fill="#262E8A"/>
<path d="M81.1653 33.7999C81.1653 34.7999 80.5553 35.9699 79.8053 36.3999C79.0553 36.8299 78.4453 36.3699 78.4453 35.3699C78.4453 34.3699 79.0553 33.1999 79.8053 32.7699C80.5553 32.3299 81.1653 32.7899 81.1653 33.7999Z" fill="white"/>
<path d="M72.9533 53.1401L72.1133 53.6701V43.2001L72.9533 42.8501V53.1401Z" fill="#262E8A"/>
<path d="M74.6336 41.2901C74.6336 42.8401 73.6936 44.6401 72.5336 45.3101C71.3736 45.9801 70.4336 45.2701 70.4336 43.7201C70.4336 42.1701 71.3736 40.3701 72.5336 39.7001C73.6936 39.0301 74.6336 39.7401 74.6336 41.2901Z" fill="#262E8A"/>
<path d="M74.1145 41.7C74.1145 42.7 73.5045 43.87 72.7545 44.3C72.0045 44.73 71.3945 44.27 71.3945 43.27C71.3945 42.27 72.0045 41.1 72.7545 40.67C73.5045 40.23 74.1145 40.69 74.1145 41.7Z" fill="white"/>
<path d="M72.7941 77.26V94.22L39.7441 113.14L40.1541 113.86L73.4141 94.82L73.6241 94.7V77.26H72.7941Z" fill="#262E8A"/>
<path d="M93.6533 81.45V98.4L60.6133 117.33L61.0233 118.05L94.2733 98.9999L94.4833 98.8799V81.45H93.6533Z" fill="#262E8A"/>
<path d="M78.1846 64.4099V86.9499L73.2246 89.7899V90.7399L78.8046 87.5499L79.0146 87.4299V64.4099H78.1846Z" fill="#262E8A"/>
<path d="M80.5438 64.5701C80.5438 66.1201 79.6038 67.9201 78.4438 68.5901C77.2838 69.2601 76.3438 68.5501 76.3438 67.0001C76.3438 65.4501 77.2838 63.6501 78.4438 62.9801C79.6038 62.3101 80.5438 63.0201 80.5438 64.5701Z" fill="#262E8A"/>
<path d="M80.0247 64.9702C80.0247 65.9702 79.4147 67.1402 78.6647 67.5702C77.9147 68.0002 77.3047 67.5402 77.3047 66.5402C77.3047 65.5402 77.9147 64.3702 78.6647 63.9402C79.4147 63.5102 80.0247 63.9702 80.0247 64.9702Z" fill="white"/>
<path d="M75.3231 76.3599C75.3231 77.9099 74.3831 79.7099 73.2231 80.3799C72.0631 81.0499 71.123 80.3399 71.123 78.7899C71.123 77.2399 72.0631 75.4399 73.2231 74.7699C74.3831 74.0999 75.3231 74.8199 75.3231 76.3599Z" fill="#262E8A"/>
<path d="M74.804 76.77C74.804 77.77 74.194 78.94 73.444 79.37C72.694 79.8 72.084 79.34 72.084 78.34C72.084 77.34 72.694 76.17 73.444 75.74C74.194 75.31 74.804 75.77 74.804 76.77Z" fill="white"/>
<path d="M126.003 39.12C125.763 38.73 125.373 38.65 124.973 38.71C123.483 38.92 122.423 39.18 121.273 40.59C120.243 41.85 119.453 44.04 118.933 44.82C118.343 45.69 116.163 49.53 115.623 50.39C116.813 51.55 118.683 51.66 119.063 53.25C120.893 51.75 122.243 48.15 122.723 47.64C123.123 47.22 125.313 44.87 125.513 43.76C125.683 42.84 125.853 41.92 126.013 40.99C126.103 40.44 126.323 39.65 126.003 39.12Z" fill="#45474C"/>
<path d="M116.342 49.4299C115.242 50.4999 110.513 53.0699 109.312 54.6799C109.812 55.6399 110.423 57.2899 111.193 56.7599C113.303 55.7199 118.612 53.6099 119.052 53.2499C119.462 52.9199 119.832 52.4999 120.152 52.0799C119.142 50.8499 117.912 49.8799 116.342 49.4299Z" fill="#45474C"/>
<path d="M123.722 96.1299C123.722 96.1299 123.942 96.9199 124.322 97.7199C124.702 98.5199 124.572 99.7399 124.572 99.7399C124.572 99.7399 124.472 100.29 123.712 100.56C123.012 100.81 122.392 100.73 122.392 100.73C122.392 100.73 121.812 101.7 120.972 102.51C120.142 103.31 118.162 104.14 117.582 104.14C116.662 104.14 116.062 103.51 116.062 103.04C116.062 102.57 116.932 101.15 117.722 100.48C118.232 100.04 119.342 98.6399 119.662 98.1699C120.202 97.3799 120.152 96.5999 120.152 96.5999L123.722 96.1299Z" fill="#45474C"/>
<path d="M142.102 85.97C142.102 85.97 142.792 87.72 142.842 88.77C142.902 89.82 142.672 90.1 142.402 90.48C142.122 90.87 141.742 90.7599 141.742 90.7599C141.742 90.7599 141.832 92.93 140.912 93.91C139.992 94.89 138.152 95.18 137.262 94.96C136.382 94.74 136.762 93.14 137.432 91.53C138.092 89.93 138.972 88.18 139.092 86.79C141.082 86.28 142.102 85.97 142.102 85.97Z" fill="#45474C"/>
<path d="M123.162 58.77C123.162 58.77 120.922 65.67 120.672 68.42C120.422 71.17 119.852 75.35 119.562 78.82C119.272 82.29 119.732 86.71 119.662 89.34C119.622 90.68 120.332 94.69 120.182 96.59C120.542 97.8 123.472 97.57 123.732 96.12C123.892 95.22 126.052 86.53 126.122 84.05C126.202 81.57 125.512 79.83 125.512 79.83C125.512 79.83 128.652 71.91 129.742 68.8C130.822 65.69 129.742 61.98 129.742 61.98L123.162 58.77Z" fill="url(#paint6_linear_254_1484)"/>
<path d="M133.122 60.3798C133.362 60.8898 134.582 62.8199 135.382 66.0899C136.182 69.3499 135.992 75.4999 135.992 75.4999C135.992 75.4999 138.332 76.0698 139.452 79.2598C140.342 81.7999 141.332 83.5399 142.172 86.1399C142.172 88.9699 138.892 87.8599 138.892 87.8599C138.892 87.8599 136.262 84.8399 134.412 82.8899C133.042 81.4399 131.692 80.4099 131.162 79.4399C129.922 77.1499 128.522 69.3798 128.522 69.3798C128.522 69.3798 124.842 68.9399 125.412 63.2799C125.792 59.4299 133.122 60.3798 133.122 60.3798Z" fill="url(#paint7_linear_254_1484)"/>
<path d="M129.392 41.3599C128.692 41.1399 125.952 40.2499 125.672 40.3899C123.712 41.3599 122.472 45.0399 122.182 47.6199C122.062 48.6899 122.212 51.6299 122.842 53.3399C122.182 54.4099 122.582 55.2099 122.622 55.5199C122.692 56.0499 121.742 56.7499 121.542 57.2499C121.152 58.2099 121.162 59.1598 121.832 59.8798C122.812 60.9298 123.772 62.7099 127.012 63.0499C130.262 63.3899 132.742 62.2699 133.742 60.9299C133.982 60.6099 133.742 58.2599 133.032 57.8099C133.572 56.1699 134.122 54.1199 134.652 52.1599C135.442 49.1999 136.162 46.3499 134.452 44.1199C133.712 43.1299 130.912 41.8599 129.392 41.3599Z" fill="#EDF3FE"/>
<path d="M129.722 37.8198C129.722 37.8198 127.092 39.7998 126.242 41.1398C125.392 42.4798 126.152 43.4098 126.602 46.4998C129.002 45.6598 130.892 43.8398 131.462 42.1698C130.632 41.7098 129.722 37.8198 129.722 37.8198Z" fill="#EDF3FE"/>
<path d="M125.682 50.2199C125.882 49.1499 126.192 48.1399 126.412 47.4999C126.462 47.3599 126.052 46.1199 126.052 46.1199L127.222 45.6599L127.902 46.4799C127.902 46.4799 127.512 47.3899 127.062 47.6299C127.082 48.8199 127.132 50.9999 127.152 52.9799C127.192 56.1399 127.152 58.4099 127.152 58.4099C127.152 58.4099 126.412 59.4599 125.652 59.9599C125.132 59.0199 124.922 57.8299 124.922 57.8299C124.922 57.8299 125.342 52.0199 125.682 50.2199Z" fill="#E07E7E"/>
<path d="M132.282 42.3198C132.282 42.3198 130.332 43.1598 129.512 43.8398C128.422 44.7498 127.892 44.9898 127.352 45.5098C127.302 45.3798 127.152 42.9198 127.152 42.9198C127.152 42.9198 126.242 43.0298 126.252 43.0498C126.262 43.0698 125.732 43.5498 125.522 44.5298C125.312 45.5098 125.682 46.6898 125.682 46.6898L127.202 45.7598L128.242 47.6098C128.242 47.6098 130.272 45.8798 131.192 44.8198C132.112 43.7698 132.282 42.3198 132.282 42.3198Z" fill="white"/>
<path d="M126.413 40.9499C126.413 40.9499 125.763 39.3599 124.283 40.8399C122.793 42.3199 121.163 46.1799 121.643 49.6499C121.933 51.7999 121.463 54.9699 121.143 57.4199C120.803 60.0499 119.143 65.8399 119.143 65.8399C119.143 65.8399 119.543 67.6899 120.493 68.6099C121.443 69.5299 123.223 69.7099 123.223 69.7099C123.223 69.7099 123.953 60.5899 124.063 59.6299C124.173 58.6699 124.533 53.6299 124.433 52.1299C124.333 50.6299 125.193 45.6399 125.533 44.5299C125.873 43.4199 127.913 41.1499 127.913 41.1499L126.413 40.9499Z" fill="#45474C"/>
<path d="M126.763 42.5299C126.763 42.5299 126.163 43.2999 125.683 44.4599C125.203 45.6199 125.043 48.1599 124.913 49.6499C124.773 51.1399 124.453 52.6299 124.453 52.6299C124.453 52.6299 123.893 51.0099 123.793 49.9199C123.693 48.8199 123.553 47.9799 123.553 47.9799L124.323 47.3799L123.613 45.6599C123.613 45.6599 125.483 41.5799 126.283 41.3399C127.083 41.0999 126.763 42.5299 126.763 42.5299Z" fill="#45474C"/>
<path d="M131.453 41.8101C131.453 41.8101 129.223 44.7501 128.563 48.8101C127.903 52.8701 128.323 57.0601 128.563 59.9601C128.873 63.6201 127.893 70.2501 127.893 70.2501C127.893 70.2501 131.123 71.5001 134.743 70.4901C136.893 69.8901 138.493 67.4901 138.493 67.4901C138.493 67.4901 137.763 61.95 135.913 56.55C135.303 54.78 135.693 50.9301 136.413 48.7101C136.843 47.3901 136.273 44.87 135.073 43.7701C133.753 42.5501 132.513 42.3901 131.453 41.8101Z" fill="#45474C"/>
<path d="M130.683 40.9299C130.683 40.9299 132.043 41.2999 132.533 42.2799C132.303 42.7799 131.773 43.4499 131.533 44.6999C131.293 45.9499 131.373 47.3499 131.373 47.3499L129.933 47.9899L130.773 49.4699L128.283 52.6999C128.283 52.6999 127.913 48.4499 128.893 45.3799C129.873 42.2999 130.683 40.9299 130.683 40.9299Z" fill="#45474C"/>
<path d="M123.303 37.4399C123.353 36.2999 123.593 34.8599 124.473 34.0499C125.343 33.2399 126.833 33.1699 127.953 33.2399C129.703 33.3599 130.933 35.2899 130.623 37.5299C130.333 39.5899 128.963 42.7699 126.663 43.1999C125.493 43.4199 124.583 42.5399 124.043 41.4199C123.413 40.0899 123.263 38.3799 123.303 37.4399Z" fill="#F8E7DB"/>
<path d="M123.793 34.78C123.793 34.78 123.793 34.77 123.783 34.77C123.793 34.79 123.793 34.79 123.793 34.78Z" fill="#45474C"/>
<path d="M128.873 38.23C128.873 38.23 129.293 37.3199 130.013 37.8199C130.733 38.3199 129.443 39.83 129.443 39.83L128.873 38.23Z" fill="#F8E7DB"/>
<path d="M132.052 33.7999C131.822 32.2799 129.702 30.9999 127.902 31.8799C127.332 30.5799 125.632 29.5 124.262 29.97C123.632 30.19 122.992 30.7299 122.932 31.4299C122.912 31.6599 122.962 31.87 123.052 32.06C122.652 32.13 122.242 32.2799 121.912 32.4299C120.602 33.0399 120.412 34.0899 121.172 35.3199C122.252 37.0899 125.692 38.3299 127.442 36.9499C127.412 38.5599 128.852 40.62 130.472 40.37C130.362 39.04 132.662 37.7999 132.052 33.7999Z" fill="#45474C"/>
<path d="M127.592 39.2599C127.592 39.2599 128.662 37.35 129.552 38.43C130.442 39.5 128.872 40.4 128.872 40.4L127.592 39.2599Z" fill="#F8E7DB"/>
<path d="M135.192 43.9399C133.852 43.7899 130.762 48.0499 130.572 50.1499C130.462 51.4099 128.822 55.5199 128.662 56.3499C130.252 57.7099 131.212 57.5399 131.562 59.5599C131.882 59.4099 133.222 58.3799 133.562 57.6099C134.142 56.2799 134.562 56.0199 134.962 54.1899C135.362 52.3599 136.702 51.8099 137.012 48.9399C137.342 45.8599 136.572 45.0599 135.192 43.9399Z" fill="#45474C"/>
<path d="M121.853 55.87L112.443 61.31L103.213 55.96L112.623 50.52L121.853 55.87Z" fill="#E07E7E"/>
<path d="M112.443 61.31L103.213 55.96V67.9L112.443 73.25V61.31Z" fill="#E07E7E"/>
<path d="M121.853 55.8701V67.8101L112.443 73.2501V61.3101L121.853 55.8701Z" fill="#E07E7E"/>
<path d="M128.873 55.4399C128.473 55.6199 125.613 57.3799 124.443 58.8199C123.093 60.4699 123.533 60.3899 123.533 60.3899L125.113 63.0299C125.113 63.0299 126.643 63.1099 128.693 61.7899C131.713 59.8499 132.613 58.8899 132.883 58.4999C131.563 57.2999 130.653 55.6199 128.873 55.4399Z" fill="#45474C"/>
<path d="M123.533 60.4001C123.533 60.4001 124.383 60.0001 125.023 61.0801C125.493 61.8801 125.373 62.6601 125.103 63.0301C124.633 63.1001 123.953 63.3501 123.513 63.7701C122.543 64.7101 121.463 66.4201 120.583 67.0201C119.293 67.8901 118.803 67.0501 118.573 66.2501C118.343 65.4501 118.943 64.7101 119.493 64.1401C120.093 63.5201 120.433 63.0301 120.183 62.9201C120.013 62.8501 119.283 63.2901 118.723 63.1301C118.133 62.9601 118.313 62.5301 119.213 62.3301C119.673 62.2301 119.843 61.8801 120.703 61.6401C121.383 61.4501 121.633 61.7701 121.833 61.6301C122.493 61.1601 123.173 60.7401 123.533 60.4001Z" fill="#F8E7DB"/>
<path d="M108.064 52.4899C106.874 52.9499 107.034 53.5299 106.384 54.3499C105.564 55.3799 106.384 55.2599 107.234 54.5799C107.524 54.3499 107.754 53.8099 108.044 53.5299C108.604 52.9999 109.324 52.4499 109.324 52.4499C109.324 52.4499 108.484 52.3299 108.064 52.4899Z" fill="#F8E7DB"/>
<path d="M54.1342 124.27C55.1142 123.56 55.1642 124.18 55.3042 124.12C56.8742 123.47 60.6442 121.15 61.3342 119.64C62.2742 117.57 62.1841 115.72 61.8741 113.73C60.9441 111.23 59.3342 109.4 57.6042 108.81C58.1042 107.04 58.9142 102.87 54.1042 100.76C55.0442 98.06 53.1642 92.78 49.2942 91.82C48.9942 88.39 47.0042 86.48 43.4842 86.44C42.0242 84.22 39.6741 83.63 37.3741 84.96C36.4241 83.9 33.7442 82.34 30.9842 82.81C27.3442 81.52 24.3542 82.23 21.4142 84.45C18.2642 86.84 18.9242 90.7 19.2342 94.39C19.5942 98.62 21.1142 102.68 23.2942 106.26C27.9242 113.87 35.3542 118.96 42.8342 123.26C45.8342 124.98 48.5841 126.92 51.6541 128.46C51.8941 126.88 52.8642 125.2 54.1342 124.27Z" fill="#AAC4F4"/>
<path d="M61.0248 126.18C63.2548 125.3 63.3948 121.68 62.5748 120.08C62.8548 117.75 62.5448 115.56 61.8648 113.74C62.1748 115.73 62.2648 117.58 61.3248 119.65C60.6348 121.16 56.8648 123.48 55.2948 124.13C55.1548 124.19 55.1148 123.56 54.1248 124.28C52.8448 125.21 51.8848 126.89 51.6348 128.46C52.3548 128.82 53.0848 129.17 53.8548 129.47C56.6348 130.58 60.4348 129.47 61.0248 126.18Z" fill="#0038FF"/>
<path d="M22.4743 85.83C22.4743 85.83 25.1343 83.37 27.7343 83.23C30.3343 83.09 30.7743 83.3 30.7343 84.53C30.6943 85.76 31.6243 86.25 32.0043 85.34C32.3743 84.43 32.1743 83.23 33.7143 83.66C35.2543 84.08 37.5743 85.06 37.2243 85.84C36.8743 86.61 36.0043 85.9999 35.0643 86.4899C34.2143 86.9299 33.3243 87.89 35.2643 89.68C36.0243 90.38 37.8543 90.78 38.5943 91.26C39.7543 92.01 40.5543 92.71 41.6643 93.14C43.4743 93.85 44.6343 93.71 44.3743 92.94C44.1143 92.17 42.7543 91.41 42.3843 90.6C42.0043 89.78 42.8643 88.65 43.3443 88.2C44.0943 87.49 44.6443 87.05 45.7843 87.89C46.9243 88.73 48.4143 90.25 47.9743 91.35C47.2043 93.26 48.5743 93.04 49.7943 93.28C51.3443 93.58 52.0543 94.07 52.4043 96.29C52.7443 98.5 52.7743 100.31 51.6543 100.99C50.5343 101.67 48.8843 100.28 48.4643 99.78C48.0443 99.28 48.6243 101.65 48.1943 102.22C47.7643 102.79 47.2743 104.02 48.1143 103.79C48.9543 103.56 49.9343 103.28 50.5043 103.79C51.3843 104.58 51.1343 105.76 52.0443 106.42C52.9543 107.08 54.2243 106.42 54.2243 104.55C54.2243 103.75 53.6443 102.5 54.9843 102.75C56.3243 103 57.6743 104.92 57.3543 106C57.0343 107.08 56.2543 107.7 55.6943 108.41C55.1343 109.12 55.4143 110.56 56.0443 111.07C56.6743 111.58 57.0943 112.8 57.0243 114.71C56.9543 116.63 58.2843 115.8 58.5643 114.95C58.8443 114.1 58.9543 112.61 59.6543 112.61C60.3543 112.61 61.6543 113.23 61.6543 113.23C61.6543 113.23 61.2143 111.81 60.0343 110.6C58.6343 109.16 57.6143 108.86 57.6143 108.86C57.6143 108.86 58.4043 106.33 57.6143 104.18C56.8243 102.03 54.1143 100.81 54.1143 100.81C54.1143 100.81 55.5143 98.68 53.5743 95.15C51.6343 91.63 49.3043 91.86 49.3043 91.86C49.3043 91.86 49.8043 89.14 47.4843 87.22C45.1643 85.3 43.5343 86.3 43.5343 86.3C43.5343 86.3 42.9943 85.11 40.8943 84.44C38.7843 83.77 37.3843 84.9899 37.3843 84.9899C37.3843 84.9899 36.7843 83.83 34.3543 82.95C32.6643 82.34 30.9843 82.84 30.9843 82.84C30.9843 82.84 27.0143 80.95 22.8143 83.3C19.9443 84.91 19.4043 87.02 19.4043 87.02L22.4743 85.83Z" fill="#0038FF"/>
<path d="M6.7335 98.21C6.8835 98.33 6.8835 98.6299 6.7335 98.7499C5.3635 99.8499 4.34349 101.28 4.19349 103.08C4.10349 104.18 4.36349 105.03 4.81349 105.81C4.79349 105.83 4.7835 105.85 4.7635 105.87C4.4135 106.47 4.48351 107.22 4.67351 107.86C4.87351 108.54 5.2835 109.27 5.8235 109.87C5.7435 110.11 5.68349 110.36 5.65349 110.62C5.53349 111.77 5.72349 112.94 6.31349 113.96C7.06349 115.26 8.14349 115.87 9.37349 116.25C9.12349 117.19 9.3635 118.32 9.9535 119.01C10.4635 119.61 11.3835 120.09 12.2235 120.08C12.5435 120.69 12.9635 121.28 13.4235 121.81C14.4935 123.04 15.6135 123.63 17.1135 123.78C17.5035 124.7 18.3635 125.55 19.1035 125.91C20.0735 126.37 21.1335 126.36 22.0835 126.03C22.9635 127.51 24.3835 128.51 25.9235 129.27C27.9835 130.3 29.5635 130.34 31.3935 129.24C31.9435 129.81 32.7935 130.04 33.5535 130.1C34.7535 130.19 36.1735 129.91 37.1935 129.18C38.0235 130.25 39.5635 130.8 40.9635 130.65C41.6635 130.57 42.3335 130.33 42.9335 129.97C43.2735 130.8 44.5135 131.52 45.2935 131.7C46.5635 131.99 48.0835 131.61 49.0835 130.71C49.9835 131.58 51.6635 131.54 52.7935 131.23C53.4035 131.06 54.0335 130.79 54.6235 130.45C54.7635 129.69 54.7835 128.9 54.6135 128.19C56.3935 126.88 57.0435 124.16 56.3635 122C55.9835 120.81 55.2235 119.78 54.2435 119.02C53.9935 113.44 51.2235 107.18 45.7135 106.48C45.3835 103.59 44.6835 100.49 42.8735 98.4899C41.4935 96.9699 38.1735 95.16 35.9535 95.17C35.6535 93.38 34.2435 91.56 31.6035 90.8C31.1335 88.39 26.7335 85.22 22.2835 87.15C20.5635 86.27 18.1535 86.27 16.8035 87.16C15.1635 86.68 12.9935 86.87 11.8735 87.98C10.3135 89.54 9.63349 91.24 9.31349 93.55C8.09349 93.87 6.8235 94.82 6.0735 95.58C5.8735 95.78 5.6635 96.02 5.4535 96.28C5.6435 96.96 6.0535 97.64 6.7335 98.21Z" fill="#0038FF"/>
<path d="M3.87359 100.18C1.06359 101.65 -0.306395 105.54 1.04361 108.81C-0.596395 111.62 0.243606 115.18 2.26361 117.59C1.39361 119.78 2.9836 123.71 4.7936 124.18C4.4436 126.7 7.55361 128.35 9.48361 128.11C9.89361 129.99 12.0636 131.4 14.8836 131.29C16.8236 134.69 21.7936 134.05 23.1936 133.81C24.4936 135.31 26.7436 136.13 28.5036 136.48C33.6036 137.47 37.3236 133.97 37.3336 133.95C39.2736 136.35 43.5936 136.46 44.9136 134.08C47.2536 136.16 51.4536 135.31 53.4236 133.08C54.0236 132.4 54.4436 131.44 54.6336 130.43C54.0436 130.77 53.4136 131.04 52.8036 131.21C51.6736 131.52 49.9936 131.56 49.0936 130.69C48.1036 131.59 46.5736 131.97 45.3036 131.68C44.5336 131.5 43.2836 130.78 42.9436 129.95C42.3436 130.31 41.6736 130.55 40.9736 130.63C39.5736 130.78 38.0336 130.23 37.2036 129.16C36.1736 129.89 34.7636 130.18 33.5636 130.08C32.7936 130.02 31.9436 129.79 31.4036 129.22C29.5736 130.32 27.9936 130.28 25.9336 129.25C24.3936 128.48 22.9736 127.48 22.0936 126.01C21.1436 126.35 20.0836 126.35 19.1136 125.89C18.3636 125.54 17.5136 124.69 17.1236 123.76C15.6236 123.62 14.5036 123.02 13.4336 121.79C12.9736 121.26 12.5536 120.68 12.2336 120.06C11.3936 120.08 10.4636 119.6 9.96359 118.99C9.37359 118.3 9.1336 117.17 9.3836 116.23C8.1536 115.85 7.0836 115.24 6.3236 113.94C5.7336 112.93 5.5436 111.76 5.6636 110.6C5.6936 110.34 5.76361 110.09 5.83361 109.85C5.29361 109.26 4.87359 108.52 4.68359 107.84C4.49359 107.2 4.42362 106.46 4.77362 105.85C4.78362 105.83 4.8036 105.81 4.8236 105.79C4.3736 105.01 4.11361 104.16 4.20361 103.06C4.35361 101.26 5.36362 99.83 6.74362 98.73C6.89362 98.61 6.89362 98.31 6.74362 98.19C6.06362 97.62 5.66362 96.94 5.49362 96.24C4.58362 97.34 3.70359 98.87 3.87359 100.18Z" fill="#0038FF"/>
<path d="M3.87359 100.18C1.06359 101.65 -0.306395 105.54 1.04361 108.81C-0.596395 111.62 0.243606 115.18 2.26361 117.59C1.39361 119.78 2.9836 123.71 4.7936 124.18C4.4436 126.7 7.55361 128.35 9.48361 128.11C9.89361 129.99 12.0636 131.4 14.8836 131.29C16.8236 134.69 21.7936 134.05 23.1936 133.81C24.4936 135.31 26.7436 136.13 28.5036 136.48C33.6036 137.47 37.3236 133.97 37.3336 133.95C39.2736 136.35 43.5936 136.46 44.9136 134.08C47.2536 136.16 51.4536 135.31 53.4236 133.08C54.0236 132.4 54.4436 131.44 54.6336 130.43C54.0436 130.77 53.4136 131.04 52.8036 131.21C51.6736 131.52 49.9936 131.56 49.0936 130.69C48.1036 131.59 46.5736 131.97 45.3036 131.68C44.5336 131.5 43.2836 130.78 42.9436 129.95C42.3436 130.31 41.6736 130.55 40.9736 130.63C39.5736 130.78 38.0336 130.23 37.2036 129.16C36.1736 129.89 34.7636 130.18 33.5636 130.08C32.7936 130.02 31.9436 129.79 31.4036 129.22C29.5736 130.32 27.9936 130.28 25.9336 129.25C24.3936 128.48 22.9736 127.48 22.0936 126.01C21.1436 126.35 20.0836 126.35 19.1136 125.89C18.3636 125.54 17.5136 124.69 17.1236 123.76C15.6236 123.62 14.5036 123.02 13.4336 121.79C12.9736 121.26 12.5536 120.68 12.2336 120.06C11.3936 120.08 10.4636 119.6 9.96359 118.99C9.37359 118.3 9.1336 117.17 9.3836 116.23C8.1536 115.85 7.0836 115.24 6.3236 113.94C5.7336 112.93 5.5436 111.76 5.6636 110.6C5.6936 110.34 5.76361 110.09 5.83361 109.85C5.29361 109.26 4.87359 108.52 4.68359 107.84C4.49359 107.2 4.42362 106.46 4.77362 105.85C4.78362 105.83 4.8036 105.81 4.8236 105.79C4.3736 105.01 4.11361 104.16 4.20361 103.06C4.35361 101.26 5.36362 99.83 6.74362 98.73C6.89362 98.61 6.89362 98.31 6.74362 98.19C6.06362 97.62 5.66362 96.94 5.49362 96.24C4.58362 97.34 3.70359 98.87 3.87359 100.18Z" fill="#0038FF"/>
<path d="M25.4531 93.17C24.9531 93.01 24.523 93.24 24.153 93.55C23.973 93.7 23.0931 95.1899 22.2231 95.5099C21.2231 95.8699 19.8031 95.62 19.2831 95.97C18.943 96.2 18.2231 97.04 17.9931 97.23C17.0331 98.03 16.533 98.0299 15.373 98.2399C14.923 98.3199 14.4631 98.3999 14.0331 98.6199C12.1531 99.5599 10.9431 101.32 11.5231 102.16C12.5531 103.67 13.5131 102.73 13.8931 101.54C14.5131 99.56 15.903 100.39 16.313 100.45C17.603 100.64 18.4331 102.2 20.7431 101C22.5631 100.06 21.5031 98.27 23.0531 97.27C24.2731 96.49 23.7431 95.77 25.1431 94.9C26.1431 94.26 26.3931 93.47 25.4531 93.17Z" fill="#AAC4F4"/>
<path d="M31.8636 96.2598C31.0936 95.4698 26.1536 98.7898 25.6036 99.5098C25.1536 100.1 24.9336 100.78 24.9036 101.47C24.6436 102.18 23.6836 101.84 22.8036 102.2C22.2036 102.44 20.7636 103.37 20.0436 104.75C19.6536 105.49 19.6136 106.51 21.6136 106.57C22.3136 106.59 24.1036 106.47 23.7836 107.95C23.7536 108.07 22.2036 109.17 22.1236 109.93C21.9636 111.36 23.7736 113.7 24.2536 113.91C25.5236 114.47 26.3436 115.07 27.3936 114.59C30.4036 113.2 27.5936 111.1 27.3936 109.14C27.1936 107.21 28.4136 105.85 27.9336 104.9C27.0936 103.25 27.7236 102.22 28.0836 101.5C28.5136 100.65 32.8036 97.2198 31.8636 96.2598Z" fill="#AAC4F4"/>
<path d="M27.6235 111.49C27.1235 110.94 26.5335 110.45 25.9835 109.94C25.4435 109.44 24.5035 108.32 23.7335 109.1C23.1035 109.74 23.6735 111 24.0935 111.59C24.2835 111.85 25.6135 113.06 26.1035 113.23C26.7635 113.45 27.8435 113.43 28.0235 112.57C28.1235 112.15 27.8935 111.79 27.6235 111.49Z" fill="#AAC4F4"/>
<path d="M10.7245 105.31C10.3445 104.43 9.67447 104.19 9.04447 103.47C8.28447 102.59 8.21448 102.16 7.45448 102.59C7.00448 102.85 6.60448 103.19 6.05448 104.93C5.64448 106.23 5.70447 107.09 6.29447 108.83C6.77447 110.27 7.51446 110.18 8.15446 109.92C8.99446 109.58 7.92448 108.83 9.23448 107.33C9.66448 106.83 11.0245 106.03 10.7245 105.31Z" fill="#AAC4F4"/>
<path d="M27.1229 119.51C26.6829 118.91 26.2829 118.32 25.9029 117.68C25.4229 116.86 24.7029 115.88 23.6029 116.11C22.8329 116.27 22.4329 116.79 22.2929 117.41C22.2129 117.79 22.1229 119.08 23.3629 120.71C24.1629 121.77 27.2129 123.09 27.6229 120.96C27.7329 120.4 27.4429 119.94 27.1229 119.51Z" fill="#AAC4F4"/>
<path d="M39.9334 110.36C39.1634 109.08 38.2534 107.72 36.7534 107.22C36.3734 107.1 35.0134 106.15 33.6934 105.59C31.9934 104.87 31.7134 105.2 30.9134 106.43C30.3234 107.34 30.8834 108.12 32.2234 108.58C33.0834 108.88 35.6034 108.33 36.9034 108.95C38.8134 109.88 37.4434 112.14 37.6034 113.06C37.6934 113.55 38.0034 113.94 38.3934 114.24C39.2434 114.89 40.6734 115.16 41.3434 114.13C42.1334 112.92 40.5134 111.33 39.9334 110.36Z" fill="#AAC4F4"/>
<path d="M48.2543 123.82C47.8043 124.12 47.3443 124.41 46.9043 124.72C45.9043 125.4 44.9843 126.66 46.2043 127.67C47.2743 128.55 48.9643 128.15 49.8843 127.25C50.6743 126.48 50.9243 125.39 50.6143 124.42C50.5143 124.09 49.7143 122.85 48.2543 123.82Z" fill="#AAC4F4"/>
<path d="M49.4334 109.87C49.2434 109.32 48.8934 108.95 48.4534 108.72C48.0934 108.53 46.2434 107.43 45.3834 107.96C43.7534 108.96 44.3734 109.47 44.6334 109.6C45.0634 109.8 46.0134 109.88 46.3634 110.18C47.0934 110.8 47.2534 111.68 46.8034 112.43C46.1534 113.51 44.5734 115.9 45.2334 117.22C45.6234 117.99 47.1134 118.6 48.7234 117.22C49.6234 116.45 50.6434 116.31 51.0034 117.19C51.6334 118.74 50.5034 119.17 51.0034 120.34C51.4334 121.36 53.7134 121.65 53.5434 123.01C53.2834 125.07 54.0334 126.53 55.2534 125.42C55.3834 125.3 56.1134 123.35 55.2834 122.01C54.9134 121.41 54.6034 120.75 54.1334 120.3C53.4034 119.59 53.4034 119.03 53.4034 118.42C53.4034 116.56 53.4034 115.58 52.7234 115C52.0934 114.45 50.9134 114.63 50.0334 114.45C48.7234 114.18 48.7834 113.4 49.0434 112.7C49.2034 112.26 49.3734 111.83 49.4534 111.37C49.5534 110.88 49.6034 110.36 49.4334 109.87Z" fill="#AAC4F4"/>
<path d="M42.3842 99.9801C41.9142 99.8101 41.5642 99.9501 41.1242 100.11C40.4842 100.34 39.0042 100.46 38.7142 100.36C38.3142 100.22 37.0442 99.5701 35.7242 99.7401C33.6142 100.02 32.0942 101.56 31.8942 102.32C31.7342 102.92 32.8442 103.28 34.6242 102.2C35.4542 101.7 36.9442 102 37.8242 103.24C38.3242 103.95 37.5542 104.32 39.7042 105.57C41.0542 106.35 42.0842 107.13 42.8742 106.87C44.2842 106.4 43.6442 105.87 42.9742 105.06C41.8642 103.73 43.2742 102.38 43.3442 101.86C43.4342 101.1 43.1542 100.26 42.3842 99.9801Z" fill="#AAC4F4"/>
<path d="M29.0229 88.8C28.8229 88.55 27.6128 87.9099 27.2128 87.7499C26.4228 87.4399 25.4628 87.37 24.8428 87.59C24.4428 87.73 24.1729 88.03 24.2729 88.46C24.3429 88.76 24.6328 89.03 24.8128 89.27C25.0628 89.6 25.3129 90.01 25.6429 90.26C26.0729 90.59 26.6229 90.61 27.1429 90.53C27.6929 90.44 28.4729 90.35 28.8929 89.95C29.2129 89.65 29.3129 89.17 29.0229 88.8Z" fill="#AAC4F4"/>
<path d="M41.0041 124.54C39.9641 123.21 41.1741 122.28 41.5541 121.29C42.0341 120.05 42.3241 118.47 41.0541 117.2C40.2041 116.35 37.4541 116.82 35.5741 119.12C34.8641 119.99 33.9741 121.16 32.9241 120.63C31.8741 120.1 31.4841 118.68 31.8541 117.64C32.2241 116.59 31.9741 115.46 31.2441 115.4C29.9341 115.28 28.8241 116.33 28.8541 117.64C28.8641 118.27 30.7041 119.12 30.6541 120.03C30.6141 120.94 29.9041 122.25 30.3941 123.63C30.8841 125.01 32.0141 125.47 32.8541 124.54C33.6941 123.61 33.6941 121.84 34.3941 121.18C35.0941 120.52 37.2841 119.75 37.5241 120.79C37.8841 122.29 36.6241 125.16 37.8941 126.3C38.6441 126.97 39.5841 128.17 40.8441 127.29C41.8841 126.57 41.9041 125.68 41.0041 124.54Z" fill="#AAC4F4"/>
<path d="M24.8833 102.71C23.3533 103.31 23.3133 102.53 22.2633 103.45C21.2133 104.37 21.0933 105.27 22.8833 105.57C24.1033 105.77 24.2533 107.15 25.4233 107.33C26.0533 107.43 26.8633 106.06 26.7333 105.02C26.4833 103.12 27.2233 101.22 28.0533 100.2C28.8833 99.17 29.6333 97.9701 28.5133 98.1101C28.0733 98.1701 26.0633 99.89 25.8933 100.46C25.6333 101.34 25.4933 102.47 24.8833 102.71Z" fill="#AAC4F4"/>
<path d="M21.0943 96.5099C19.8843 96.6799 19.5643 96.9399 18.4243 97.7699C17.2843 98.6099 16.0543 98.6299 15.5843 98.6899C15.1143 98.7499 14.1143 98.7799 13.0043 99.7499C11.8943 100.71 12.3743 100.99 13.0043 101C13.6343 101.01 14.3743 99.2999 15.5843 99.5599C16.7943 99.8199 19.1243 100.65 20.4643 100.23C21.8143 99.8099 21.0343 98.3099 21.6843 97.5499C22.3343 96.7899 22.1843 96.3599 21.0943 96.5099Z" fill="#AAC4F4"/>
<path d="M41.1436 100.96C39.6836 101.35 39.2836 101.2 38.5936 100.96C37.9136 100.72 36.4336 99.81 35.5236 100.19C34.6136 100.58 35.0236 101.14 36.4336 101.42C37.8436 101.7 39.1336 103.15 39.6836 104.04C40.2336 104.93 42.5936 106.67 42.3636 105.27C42.1236 103.88 41.4236 103.15 41.9836 102.32C42.5436 101.49 42.1936 100.68 41.1436 100.96Z" fill="#AAC4F4"/>
<path d="M39.043 117.44C37.883 117.72 37.003 118 36.933 118.75C36.853 119.6 38.233 118.75 38.703 120.02C38.883 120.51 38.343 121.82 38.233 123.62C38.123 125.42 39.543 125.86 40.093 125.61C40.653 125.36 39.393 124.1 40.093 122.34C40.793 120.58 41.423 119.18 40.933 118.19C40.443 117.19 40.003 117.21 39.043 117.44Z" fill="#AAC4F4"/>
<path d="M47.2537 109.13C46.6237 109.2 47.6637 110.51 47.7437 111.48C47.8237 112.45 46.4537 114.67 46.4037 115.73C46.3537 116.79 47.6837 116.91 48.5237 116.33C49.3637 115.75 50.2037 115.44 51.0137 116.33C51.8237 117.22 52.6537 117.66 52.8737 116.57C53.0937 115.48 51.8137 115.05 51.0137 115.01C50.2037 114.97 48.7737 115.24 48.3837 114.91C47.5437 114.2 48.5937 112.74 48.8037 111.33C49.0137 109.91 48.3037 109.01 47.2537 109.13Z" fill="#AAC4F4"/>
<path d="M31.324 120.79C30.594 121.43 30.464 122.32 31.394 123.63C32.324 124.94 32.934 122.79 33.004 122.11C33.074 121.43 31.914 120.26 31.324 120.79Z" fill="#AAC4F4"/>
<path d="M23.9737 117.04C23.0137 117.75 22.6437 118.88 23.9737 120.06C25.3037 121.24 26.4537 121.56 26.4537 120.71C26.4637 120.05 24.6237 116.57 23.9737 117.04Z" fill="#AAC4F4"/>
<path d="M33.0038 105.81C31.8438 105.72 31.3838 106.23 31.1038 106.87C30.8238 107.51 32.3638 107.44 33.3538 107.12C34.3338 106.8 34.5538 105.93 33.0038 105.81Z" fill="#AAC4F4"/>
<path d="M39.0239 110.62C38.1039 111.35 38.2439 113.48 38.7139 113.64C39.5039 113.89 40.4539 114.42 40.5239 113.31C40.5839 112.2 39.6039 110.16 39.0239 110.62Z" fill="#AAC4F4"/>
<path d="M18.1229 111.09C17.2529 111.1 16.1929 111.19 15.8729 110.62C15.4829 109.93 16.0929 109.18 16.2929 108.42C16.5029 107.66 16.4129 104.86 15.1629 104.2C14.3329 103.76 12.783 105.31 12.393 106.07C11.933 106.96 11.3729 108.16 13.2829 109.35C13.8529 109.7 15.163 111.06 12.983 111.77C11.973 112.1 9.96294 111.96 8.91294 112.48C7.86294 113 9.15296 114.43 10.113 115.27C10.933 115.99 12.3229 117.54 13.5729 115.15C14.1429 114.07 15.003 112.54 15.863 112.84C17.193 113.3 15.9529 117.43 16.1929 118.98C16.2429 119.33 16.9529 119.75 17.4029 119.14C17.7229 118.7 17.7629 117.4 18.0629 116.71C18.2329 116.31 19.1729 114.11 19.3229 112.57C19.4229 111.69 19.6229 111.07 18.1229 111.09Z" fill="#AAC4F4"/>
<path d="M14.0239 105.27C12.8739 105.66 12.3339 107.61 13.3939 108.43C14.2739 109.11 15.0839 109.28 15.3139 108.13C15.5439 106.97 15.4239 104.79 14.0239 105.27Z" fill="#AAC4F4"/>
<path d="M12.0832 112.85C10.9132 112.99 9.9832 112.86 9.6932 113.58C9.4632 114.16 10.4232 114.85 10.9332 115.16C11.3632 115.42 12.0032 115.87 12.8132 114.58C13.6232 113.28 13.7732 112.65 12.0832 112.85Z" fill="#AAC4F4"/>
<path d="M17.5133 111.78C16.5233 111.79 16.6233 112.23 16.9533 113.01C17.2833 113.8 17.0033 114.46 16.8133 116.1C16.6233 117.73 17.3933 118.06 17.5833 116.71C17.8233 114.97 18.5033 113.82 18.4233 112.81C18.3333 111.81 18.2933 111.78 17.5133 111.78Z" fill="#AAC4F4"/>
<path d="M7.63339 103.74C7.23339 103.86 6.65339 105.23 6.60339 106.24C6.55339 107.25 6.82338 109.13 7.68338 108.84C8.54338 108.55 8.3834 107.19 9.0134 106.44C9.8334 105.46 8.86341 105.29 8.52341 104.74C8.22341 104.25 8.20339 103.56 7.63339 103.74Z" fill="#AAC4F4"/>
<path d="M18.4244 89.96C17.6144 89.2 17.2344 88.77 15.4043 88.57C13.5743 88.38 12.4344 89.75 11.5044 90.89C10.5744 92.03 10.6144 93.5501 9.61437 94.1001C8.61437 94.6501 8.17436 95.3 7.72436 96.13C7.27436 96.96 8.35436 97.51 9.32436 96.5C10.2944 95.49 10.3944 93.48 11.5144 93.74C12.6344 94 13.0744 95.2801 14.7244 95.1101C16.3744 94.9301 16.5644 94.06 15.8144 93C15.0644 91.94 15.3544 90.8 16.7044 91.33C18.0744 91.85 19.5244 91 18.4244 89.96Z" fill="#AAC4F4"/>
<path d="M14.7343 89.5198C13.1043 89.5998 12.6743 90.4698 11.8943 91.4698C11.5043 91.9698 11.2343 92.9598 11.7043 93.1198C12.1743 93.2798 13.2943 94.0498 13.8643 92.7698C14.2643 91.8798 15.4043 90.6398 15.9143 90.3498C16.4343 90.0598 15.9643 89.4598 14.7343 89.5198Z" fill="#AAC4F4"/>
<path d="M20.5132 97.41C19.9632 97.61 19.2731 98.77 19.9031 99.2C19.9731 99.25 20.1131 99.25 20.1831 99.2C20.4431 99.01 20.4031 98.79 20.4631 98.5C20.5331 98.21 20.6932 97.97 20.7932 97.69C20.8532 97.53 20.6832 97.35 20.5132 97.41Z" fill="#AAC4F4"/>
<path d="M18.5543 98.9599C18.4143 98.9599 18.3043 99.0199 18.1643 98.9899C17.9943 98.9599 17.8443 98.8699 17.6843 98.8399C17.4443 98.7899 17.1443 98.8299 17.0943 99.1099C17.0843 99.1699 17.1043 99.2199 17.1543 99.2599C17.3143 99.3599 17.4843 99.4099 17.6343 99.5099C17.7843 99.6099 17.9243 99.6999 18.1143 99.7399C18.4443 99.8099 18.8743 99.6599 18.8543 99.2599C18.8343 99.0999 18.7243 98.9499 18.5543 98.9599Z" fill="#AAC4F4"/>
<path d="M23.6735 103.47C23.0335 103.39 22.4635 104.31 23.0435 104.74C23.1735 104.84 23.3835 104.74 23.4135 104.59C23.4535 104.39 23.4835 104.22 23.6135 104.06C23.7135 103.94 23.8035 103.86 23.8535 103.71C23.8935 103.58 23.7835 103.49 23.6735 103.47Z" fill="#AAC4F4"/>
<path d="M27.5843 99.35C26.8843 99.42 26.4043 100.49 26.7043 101.08C26.7643 101.2 26.9143 101.17 26.9843 101.08C27.1643 100.84 27.2443 100.56 27.3743 100.29C27.4843 100.04 27.6943 99.82 27.7443 99.55C27.7543 99.46 27.7043 99.34 27.5843 99.35Z" fill="#AAC4F4"/>
<path d="M37.9831 101.46C37.7231 101.02 36.9331 100.72 36.4331 100.8C36.3731 100.81 36.3431 100.89 36.3731 100.94C36.5331 101.15 36.7031 101.27 36.9231 101.41C37.1631 101.56 37.4031 101.78 37.6931 101.83C37.9031 101.86 38.1031 101.66 37.9831 101.46Z" fill="#AAC4F4"/>
<path d="M41.4736 103.83C41.3736 103.62 41.3136 103.42 41.2636 103.19C41.2336 103.04 41.2036 102.5 40.9036 102.6C40.5436 102.72 40.5936 103.24 40.6536 103.54C40.7336 103.94 40.8836 104.4 41.2836 104.55C41.4436 104.61 41.6236 104.46 41.6136 104.3C41.6136 104.12 41.5536 103.99 41.4736 103.83Z" fill="#AAC4F4"/>
<path d="M39.8135 111.86C39.7035 111.69 39.4635 111.42 39.2435 111.59C39.0335 111.76 39.2535 112.08 39.3035 112.26C39.3835 112.5 39.3835 112.7 39.5335 112.91C39.6335 113.05 39.8435 113.07 39.9435 112.91C40.1435 112.56 40.0135 112.19 39.8135 111.86Z" fill="#AAC4F4"/>
<path d="M13.8428 90.3301C13.2828 90.3301 12.4328 91.0201 12.6528 91.6501C12.7128 91.8201 12.9228 91.8901 13.0628 91.7601C13.2428 91.5901 13.2828 91.3301 13.4228 91.1301C13.5728 90.9301 13.7728 90.7701 13.9528 90.6001C14.0628 90.5101 13.9828 90.3301 13.8428 90.3301Z" fill="#AAC4F4"/>
<path d="M33.4232 106.46C33.1932 106.25 32.9132 106.3 32.6132 106.31C32.3132 106.33 32.0132 106.34 31.7332 106.47C31.6332 106.52 31.6332 106.68 31.7332 106.72C32.0132 106.85 32.3132 106.86 32.6132 106.88C32.9132 106.89 33.1832 106.94 33.4232 106.73C33.4932 106.67 33.4932 106.52 33.4232 106.46Z" fill="#AAC4F4"/>
<path d="M27.6845 112.04C27.3845 111.97 27.1245 112.15 26.8345 112.12C26.5545 112.1 26.3045 111.97 26.0145 111.97C25.9245 111.97 25.8345 112.05 25.8445 112.14C25.9145 113.01 27.6445 113.24 27.8845 112.39C27.9245 112.24 27.8345 112.07 27.6845 112.04Z" fill="#AAC4F4"/>
<path d="M24.5327 109.61C24.3827 109.49 24.1626 109.56 24.1526 109.77C24.1426 110.16 24.3827 110.75 24.6627 111.03C24.8227 111.19 25.1527 111.08 25.1327 110.83C25.1027 110.43 24.8427 109.87 24.5327 109.61Z" fill="#AAC4F4"/>
<path d="M14.3936 107.49C14.0036 107.39 13.9835 106.95 13.7935 106.66C13.7035 106.52 13.5135 106.56 13.4635 106.7C13.2535 107.28 13.5835 108.02 14.2135 108.15C14.6435 108.24 14.8236 107.6 14.3936 107.49Z" fill="#AAC4F4"/>
<path d="M7.91422 104.98C7.94422 104.85 7.82421 104.7 7.68421 104.75C7.32421 104.88 7.13423 105.26 7.04423 105.61C6.96423 105.91 6.91423 106.5 7.23423 106.69C7.57423 106.89 7.65423 106.47 7.64423 106.24C7.64423 106.03 7.63421 105.83 7.68421 105.62C7.73421 105.4 7.86422 105.21 7.91422 104.98Z" fill="#AAC4F4"/>
<path d="M11.5529 114.4C11.4229 114.19 11.2029 114.11 11.0229 113.95C10.8529 113.81 10.7329 113.6 10.5329 113.51C10.4429 113.47 10.3329 113.5 10.3029 113.6C10.1529 114.1 10.8129 114.85 11.3129 114.83C11.5129 114.82 11.6729 114.59 11.5529 114.4Z" fill="#AAC4F4"/>
<path d="M25.3031 119.48C25.1431 119.2 24.8831 118.98 24.7031 118.71C24.5331 118.46 24.4631 118.09 24.2431 117.9C24.1431 117.82 24.0031 117.83 23.9331 117.94C23.7231 118.29 23.9431 118.79 24.1331 119.11C24.3531 119.47 24.6731 119.78 25.1131 119.81C25.2831 119.82 25.3731 119.61 25.3031 119.48Z" fill="#AAC4F4"/>
<path d="M39.5242 118.08C39.3742 118.09 39.2842 118.24 39.3542 118.38C39.4942 118.64 39.7042 118.82 39.8042 119.11C39.8942 119.38 39.9042 119.67 39.9642 119.94C40.0042 120.1 40.1942 120.13 40.3042 120.03C40.9342 119.47 40.3942 118.03 39.5242 118.08Z" fill="#AAC4F4"/>
<path d="M39.384 123.67C39.364 123.36 39.474 123.02 39.374 122.73C39.344 122.62 39.2141 122.56 39.1141 122.62C38.5641 122.96 38.474 124.37 39.134 124.64C39.214 124.67 39.3141 124.62 39.3641 124.55C39.5341 124.26 39.404 123.98 39.384 123.67Z" fill="#AAC4F4"/>
<path d="M31.6137 121.25C31.4737 121.24 31.3437 121.4 31.3937 121.53C31.4737 121.74 31.6337 121.91 31.7337 122.12C31.8337 122.34 31.8637 122.57 32.0237 122.75C32.1437 122.88 32.3837 122.84 32.4637 122.69C32.7837 122.15 32.1937 121.3 31.6137 121.25Z" fill="#AAC4F4"/>
<path d="M47.9634 109.86C47.8634 109.83 47.7734 109.91 47.7734 110.01C47.7534 110.25 47.8934 110.49 47.9234 110.73C47.9534 110.97 47.9034 111.23 47.9934 111.46C48.0534 111.61 48.2534 111.7 48.3734 111.56C48.7834 111.14 48.5634 110.03 47.9634 109.86Z" fill="#AAC4F4"/>
<path d="M47.9645 115.69C47.9245 115.63 47.8746 115.59 47.8346 115.54C47.7446 115.31 47.5445 115.12 47.6245 114.83C47.6645 114.67 47.4745 114.48 47.3145 114.59C46.9845 114.83 46.8945 115.2 47.0645 115.58C47.2245 115.94 47.5945 116.08 47.9045 115.92C47.9745 115.88 48.0145 115.76 47.9645 115.69Z" fill="#AAC4F4"/>
<path d="M26.544 88.14C26.374 88.15 26.284 88.32 26.354 88.47C26.484 88.73 26.724 88.93 26.884 89.17C27.044 89.4 27.154 89.69 27.454 89.75C27.574 89.78 27.694 89.73 27.764 89.62C28.154 89.01 27.124 88.12 26.544 88.14Z" fill="#AAC4F4"/>
<path d="M43.4642 90.2599C43.6542 90.7099 44.3642 91.4599 45.2342 92.4799C45.7342 93.0499 46.6942 92.9599 46.9742 91.6499C47.2542 90.3399 46.5742 88.9899 45.2342 88.8799C43.9042 88.7599 42.9542 89.0299 43.4642 90.2599Z" fill="#AAC4F4"/>
<path d="M34.1343 84.5699C33.2743 84.5999 33.3343 84.5699 32.5743 86.0399C31.8143 87.5099 31.9543 87.8299 33.0043 87.1799C34.0543 86.5299 34.1243 85.7599 35.5243 85.6199C36.2243 85.5499 34.8043 84.5499 34.1343 84.5699Z" fill="#AAC4F4"/>
<path d="M45.2437 94.1101C44.3837 94.0701 42.1436 93.8001 41.1236 93.3301C40.1036 92.8601 38.8237 91.8101 38.0237 92.3301C37.2237 92.8501 38.1736 93.2901 39.0636 93.5001C39.9536 93.7001 42.6536 94.5601 43.3236 95.0801C44.3636 95.8801 46.0437 95.8601 46.6737 95.8701C47.3037 95.8801 48.4937 94.8001 47.7637 94.1101C47.0437 93.4201 46.4337 94.1701 45.2437 94.1101Z" fill="#AAC4F4"/>
<path d="M50.8031 94.39C50.1131 94.26 49.5231 96.72 49.7231 98.2C49.9231 99.67 51.2531 100.1 51.6431 98.2C52.0331 96.29 51.9631 94.61 50.8031 94.39Z" fill="#AAC4F4"/>
<path d="M49.3229 104.13C48.4129 104.38 47.9029 104.95 48.6529 105.79C49.4029 106.63 50.1229 106.34 50.3629 106.09C51.1229 105.33 49.9229 103.97 49.3229 104.13Z" fill="#AAC4F4"/>
<path d="M33.4835 88.58C32.9035 87.67 31.6435 89.21 32.6035 89.52C33.5635 89.83 35.7735 91.92 35.8835 91.1C35.9835 90.33 34.1335 89.6 33.4835 88.58Z" fill="#AAC4F4"/>
<path d="M55.6843 103.75C54.9443 103.78 54.7643 104.49 54.9743 105.48C55.1943 106.47 56.0843 106.12 56.6343 105.43C57.1843 104.74 56.0843 103.74 55.6843 103.75Z" fill="#AAC4F4"/>
<path d="M60.3134 113.74C59.6134 113.81 59.2634 115.7 58.3434 116.53C57.4334 117.36 58.4834 118.85 59.3234 119.09C60.1634 119.33 60.8634 117.96 61.0034 116.33C61.1534 114.69 61.2934 113.64 60.3134 113.74Z" fill="#AAC4F4"/>
<path d="M49.1435 104.51C49.1135 104.52 49.1035 104.55 49.1035 104.57C49.1435 104.76 49.2735 104.89 49.3735 105.06C49.4835 105.26 49.5035 105.34 49.6935 105.47C49.7435 105.5 49.8135 105.48 49.8435 105.43C50.0935 105.04 49.6035 104.37 49.1435 104.51Z" fill="#AAC4F4"/>
<path d="M47.2345 94.35C47.2145 94.29 47.1345 94.24 47.0745 94.28C46.9045 94.4 46.7744 94.56 46.5944 94.67C46.4044 94.79 46.2145 94.84 46.0845 95.03C45.9745 95.19 46.1245 95.39 46.2945 95.39C46.7045 95.41 47.4245 94.82 47.2345 94.35Z" fill="#AAC4F4"/>
<path d="M51.0627 94.99C51.0427 94.94 51.0127 94.92 50.9627 94.91C50.4627 94.85 50.1527 95.78 50.2227 96.17C50.2627 96.37 50.5227 96.36 50.6127 96.22C50.7627 96 50.8227 95.73 50.9327 95.5C51.0127 95.32 51.1227 95.18 51.0627 94.99Z" fill="#AAC4F4"/>
<path d="M55.7242 104.77C55.7242 104.61 55.7542 104.53 55.6842 104.39C55.6542 104.32 55.5742 104.31 55.5142 104.32C55.0642 104.4 54.9742 105.37 55.4642 105.45C55.6342 105.48 55.7242 105.36 55.7542 105.2C55.7742 105.05 55.7142 104.91 55.7242 104.77Z" fill="#AAC4F4"/>
<path d="M60.6628 114.64C60.5628 114.47 60.3028 114.51 60.2528 114.69C60.1928 114.89 60.1828 115.11 60.1328 115.31C60.0728 115.51 59.9928 115.68 60.0028 115.89C60.0128 116.08 60.2128 116.21 60.3828 116.11C60.8328 115.84 60.9028 115.09 60.6628 114.64Z" fill="#AAC4F4"/>
<path d="M44.4328 90.2299C44.3728 90.0099 44.4228 89.8298 44.4828 89.6198C44.5428 89.3798 44.2628 89.2399 44.0828 89.3899C43.6928 89.7199 43.6328 90.8999 44.3428 90.8599C44.4128 90.8599 44.5128 90.8099 44.5228 90.7199C44.5528 90.5299 44.4828 90.4099 44.4328 90.2299Z" fill="#AAC4F4"/>
<path d="M33.9232 84.9999C33.4932 84.9199 32.8832 85.2699 32.9132 85.7599C32.9232 85.9199 33.1032 86.07 33.2532 85.96C33.3932 85.86 33.4632 85.73 33.5732 85.6C33.6932 85.46 33.8432 85.3599 33.9832 85.2499C34.0632 85.1799 34.0232 85.0199 33.9232 84.9999Z" fill="#AAC4F4"/>
<path d="M31.6643 131.21C30.6143 131.1 28.6743 131.56 26.8643 131.21C25.0543 130.86 24.9843 132.85 26.8643 134.06C28.7443 135.28 32.0243 134.55 32.9143 133.46C33.8043 132.38 33.9343 131.45 31.6643 131.21Z" fill="#0038FF"/>
<path d="M38.3439 131.21C37.2639 131.72 38.2739 132.58 39.6939 133.46C41.1039 134.34 43.4039 133.94 43.3339 132.88C43.2639 131.82 42.0739 131.92 41.1239 131.77C40.1639 131.63 39.2339 130.79 38.3439 131.21Z" fill="#0038FF"/>
<path d="M17.9638 130.85C17.5138 131.5 18.8038 132.29 20.3738 132.52C21.9438 132.75 21.6838 131.87 21.4938 131.17C21.2338 130.16 18.6938 129.81 17.9638 130.85Z" fill="#0038FF"/>
<path d="M4.17439 119.61C3.44439 120.56 4.21437 121.7 5.06437 121.94C5.90437 122.18 7.48438 121.46 6.60438 120.79C5.71438 120.12 4.83439 118.75 4.17439 119.61Z" fill="#0038FF"/>
<path d="M13.0742 97.7001L12.5742 97.1001C13.9042 95.9801 15.7442 95.3801 17.5142 94.7901C18.2442 94.5501 19.0042 94.3001 19.6942 94.0201C20.6742 93.6201 21.2442 93.1501 21.3842 92.6101C21.5442 92.0301 21.2542 91.2801 20.5042 90.3301C19.0242 88.4501 15.9942 87.0601 15.9642 87.0401L16.2842 86.3301C16.4142 86.3901 19.5142 87.8101 21.1142 89.8501C22.0242 91.0101 22.3542 91.9801 22.1342 92.8101C21.9242 93.6101 21.2142 94.2401 19.9742 94.7401C19.2642 95.0301 18.4942 95.2801 17.7442 95.5301C16.0442 96.0901 14.2842 96.6801 13.0742 97.7001Z" fill="white"/>
<path d="M17.1743 123.08C15.7043 123.08 14.1343 122.54 12.9543 121.48C12.4043 120.98 11.8843 120.5 11.4043 120.04C9.31428 118.07 7.81428 116.65 6.44428 116.92C3.51428 117.49 2.42429 117.95 2.41429 117.96L1.9243 118.17L1.8643 117.64C1.8543 117.53 1.59427 114.95 2.46427 112.88C3.32427 110.82 4.15428 110.08 4.18428 110.04L4.70429 110.62C4.69429 110.63 3.96428 111.31 3.18428 113.18C2.60428 114.55 2.5843 116.23 2.6143 117.05C3.2043 116.85 4.36429 116.52 6.29429 116.15C8.04429 115.81 9.67428 117.35 11.9343 119.47C12.4143 119.92 12.9343 120.41 13.4743 120.9C15.3543 122.6 18.4943 122.78 19.9443 121.27L20.5043 121.81C19.6943 122.66 18.4743 123.08 17.1743 123.08Z" fill="white"/>
<path d="M6.37447 116.92C6.16447 116.92 5.99448 116.75 5.98448 116.54C5.98448 116.39 5.91449 112.75 9.36449 109.57C11.0845 107.98 11.2445 106.18 11.3245 105.42C11.4245 104.33 10.5745 103.51 9.89448 102.84C9.77449 102.72 9.65449 102.61 9.55449 102.5C9.25449 102.19 8.98448 101.95 8.70448 101.72C7.88448 101.01 7.17449 100.4 6.61449 98.5199C5.93449 96.2199 6.77449 94.5599 6.80449 94.4899C6.90449 94.2999 7.13448 94.2299 7.32448 94.3199C7.51448 94.4199 7.59449 94.6499 7.49449 94.8399C7.48449 94.8499 6.76448 96.3 7.35448 98.29C7.84448 99.95 8.41448 100.44 9.20448 101.12C9.47448 101.35 9.78448 101.62 10.1045 101.95C10.2045 102.05 10.3145 102.16 10.4245 102.27C11.1845 103.01 12.2245 104.02 12.0845 105.47C12.0145 106.26 11.8145 108.34 9.88448 110.13C6.69448 113.07 6.75447 116.47 6.75447 116.5C6.76447 116.71 6.59447 116.89 6.37447 116.9C6.37447 116.92 6.37447 116.92 6.37447 116.92Z" fill="white"/>
<path d="M11.6842 105.27C11.5842 105.27 11.4842 105.23 11.4042 105.15C11.2542 105 11.2543 104.75 11.4143 104.6C12.5943 103.46 14.3843 102.19 17.7643 102.56C19.9343 102.8 21.3942 101.33 22.6842 100.04L22.7443 99.98C24.0443 98.68 26.5543 95.9099 26.5843 95.8799C26.7243 95.7199 26.9743 95.71 27.1343 95.85C27.2943 95.99 27.3043 96.24 27.1643 96.4C27.1343 96.43 24.6143 99.22 23.3043 100.53L23.2443 100.59C21.9043 101.94 20.2143 103.61 17.6943 103.33C14.6443 102.99 13.0842 104.06 11.9642 105.15C11.8742 105.23 11.7742 105.27 11.6842 105.27Z" fill="white"/>
<path d="M23.7835 92.3599C23.6035 92.3599 23.4435 92.2398 23.4035 92.0598C22.6435 88.8798 20.1136 87.8399 20.0836 87.8299C19.8836 87.7499 19.7836 87.5199 19.8636 87.3199C19.9436 87.1199 20.1735 87.0199 20.3735 87.0999C20.4935 87.1499 23.3035 88.2998 24.1635 91.8698C24.2135 92.0798 24.0835 92.2899 23.8735 92.3399C23.8435 92.3599 23.8135 92.3599 23.7835 92.3599Z" fill="white"/>
<path d="M21.0936 113.88C20.8736 113.88 20.7036 113.7 20.7036 113.49C20.7036 113.48 20.7136 112.26 20.2736 110.74C20.0236 109.87 19.5536 109.36 18.9636 108.71C18.5536 108.26 18.0936 107.75 17.6436 107.04C16.5236 105.28 16.8036 103 16.8136 102.9C16.8436 102.69 17.0436 102.53 17.2536 102.56C17.4636 102.59 17.6136 102.78 17.5936 103C17.5936 103.02 17.3436 105.1 18.3036 106.62C18.7136 107.27 19.1336 107.73 19.5436 108.18C20.1536 108.85 20.7236 109.48 21.0236 110.52C21.5036 112.16 21.4836 113.45 21.4836 113.5C21.4736 113.71 21.3036 113.88 21.0936 113.88Z" fill="white"/>
<path d="M4.64328 103.3L3.86328 103.23C3.87328 103.07 4.24327 99.41 6.97327 98.45L7.23328 99.1799C4.97328 99.9799 4.65328 103.27 4.64328 103.3Z" fill="white"/>
<path d="M17.8734 121.36C17.8634 121.36 17.8534 121.36 17.8434 121.36C17.7534 121.35 15.5434 121.15 13.8634 119.76C12.2534 118.43 10.5234 117.01 10.5234 117.01C10.3534 116.87 10.3334 116.63 10.4634 116.46C10.6034 116.29 10.8434 116.27 11.0134 116.4C11.0134 116.4 12.7534 117.82 14.3634 119.15C15.8534 120.39 17.8934 120.58 17.9134 120.58C18.1234 120.6 18.2834 120.79 18.2634 121C18.2434 121.21 18.0734 121.36 17.8734 121.36Z" fill="white"/>
<path d="M34.1333 97.4C33.9933 97.4 33.8633 97.31 33.8133 97.17C33.3733 95.89 32.2633 95.12 30.6833 95.01C29.3733 94.91 28.3533 94.35 28.0333 93.53C27.8033 92.96 27.9533 92.35 28.4433 91.82C29.5833 90.58 31.2533 90.01 31.3433 89.99C31.4033 90.1 31.5433 90.43 31.5933 90.62C31.5733 90.63 29.9633 91.17 28.9533 92.28C28.6433 92.62 28.5433 92.96 28.6733 93.28C28.8933 93.84 29.7233 94.26 30.7433 94.33C33.2733 94.51 34.1633 96.05 34.4733 96.95C34.5333 97.13 34.4433 97.32 34.2633 97.38C34.2033 97.39 34.1633 97.4 34.1333 97.4Z" fill="white"/>
<path d="M16.123 132.91C16.073 132.91 16.023 132.9 15.983 132.88C15.783 132.8 15.683 132.58 15.763 132.38C16.463 130.59 16.203 130.4 12.613 128.39C12.223 128.17 11.793 127.93 11.333 127.67C8.803 126.23 8.653 123.35 8.643 123.22C8.633 123.01 8.80299 122.82 9.01299 122.81C9.23299 122.8 9.413 122.97 9.423 123.18C9.423 123.21 9.57297 125.76 11.713 126.98C12.173 127.24 12.593 127.48 12.983 127.7C16.493 129.67 17.433 130.19 16.473 132.66C16.423 132.82 16.283 132.91 16.123 132.91Z" fill="white"/>
<path d="M17.8743 129.26C17.7643 129.26 17.6543 129.22 17.5843 129.13C17.0543 128.53 15.8843 127.68 14.4443 126.87C12.8143 125.94 11.3144 124.38 11.2444 124.32C11.0944 124.16 11.1043 123.92 11.2543 123.77C11.4043 123.62 11.6544 123.63 11.8044 123.78C11.8144 123.8 13.2943 125.32 14.8243 126.2C16.3543 127.07 17.5743 127.96 18.1643 128.63C18.3043 128.79 18.2943 129.04 18.1243 129.18C18.0643 129.23 17.9643 129.26 17.8743 129.26Z" fill="white"/>
<path d="M23.2033 134.19C23.1833 134.19 23.1733 134.19 23.1533 134.19C22.9433 134.16 22.7933 133.97 22.8133 133.76C22.8133 133.74 23.0533 131.68 21.9433 130.11C20.6533 128.27 21.4033 125.02 21.4333 124.88C21.4833 124.67 21.6933 124.54 21.9033 124.59C22.1133 124.64 22.2433 124.85 22.1933 125.06C22.1833 125.09 21.4933 128.1 22.5833 129.66C23.8633 131.48 23.5933 133.75 23.5833 133.85C23.5633 134.05 23.3933 134.19 23.2033 134.19Z" fill="white"/>
<path d="M42.503 108.34C41.223 108.34 39.823 107.4 38.233 106.33C37.833 106.06 37.433 105.79 37.003 105.52C34.873 104.16 30.443 104.05 30.393 104.05C30.203 104.05 30.053 103.89 30.063 103.7C30.063 103.51 30.203 103.38 30.413 103.37C30.603 103.37 35.083 103.49 37.373 104.95C37.803 105.22 38.213 105.5 38.613 105.76C40.263 106.86 41.693 107.81 42.803 107.63C43.703 107.48 44.903 106.62 45.673 106C45.873 106.16 45.963 106.29 46.123 106.51C45.293 107.17 43.963 108.12 42.913 108.3C42.783 108.32 42.643 108.34 42.503 108.34Z" fill="white"/>
<path d="M43.4538 115.15C43.4438 115.15 43.4338 115.15 43.4238 115.15C43.2138 115.14 43.0438 114.95 43.0638 114.73C43.0638 114.71 43.1738 113.14 43.0538 111.31C42.9538 109.79 42.2638 108.16 42.2538 108.15C42.1738 107.95 42.2638 107.72 42.4538 107.64C42.6538 107.56 42.8838 107.65 42.9638 107.84C42.9938 107.91 43.7138 109.6 43.8238 111.26C43.9438 113.14 43.8438 114.72 43.8338 114.78C43.8338 114.99 43.6638 115.15 43.4538 115.15Z" fill="white"/>
<path d="M35.9845 115.84C35.8545 115.84 35.7244 115.78 35.6544 115.66C35.6444 115.64 34.5145 113.86 32.9145 112.58C31.2445 111.24 29.0645 109.43 29.0645 109.43L29.5645 108.83C29.5645 108.83 31.7444 110.63 33.4044 111.97C35.1044 113.34 36.2645 115.17 36.3145 115.25C36.4245 115.43 36.3745 115.67 36.1945 115.79C36.1245 115.82 36.0545 115.84 35.9845 115.84Z" fill="white"/>
<path d="M6.0932 109.17C6.4832 109.88 6.07322 110.86 5.17322 111.36C4.27322 111.86 3.22321 111.69 2.82321 110.98C2.43321 110.27 2.84323 109.29 3.74323 108.79C4.64323 108.29 5.6932 108.46 6.0932 109.17Z" fill="white"/>
<path d="M5.35225 109.58C5.57225 109.97 5.34224 110.51 4.84224 110.78C4.34224 111.05 3.77226 110.96 3.55226 110.57C3.33226 110.18 3.56224 109.64 4.06224 109.37C4.56224 109.1 5.13225 109.19 5.35225 109.58Z" fill="#0038FF"/>
<path d="M5.35225 109.58C5.57225 109.97 5.34224 110.51 4.84224 110.78C4.34224 111.05 3.77226 110.96 3.55226 110.57C3.33226 110.18 3.56224 109.64 4.06224 109.37C4.56224 109.1 5.13225 109.19 5.35225 109.58Z" fill="#0038FF"/>
<path d="M9.22387 120.46C10.0339 120.54 10.6039 121.44 10.5039 122.47C10.4039 123.5 9.66388 124.27 8.85388 124.19C8.04388 124.11 7.47388 123.21 7.57388 122.18C7.68388 121.15 8.41387 120.38 9.22387 120.46Z" fill="white"/>
<path d="M9.14356 121.3C9.58356 121.34 9.90354 121.84 9.84354 122.4C9.78354 122.96 9.38355 123.38 8.94355 123.34C8.50355 123.3 8.18357 122.8 8.24357 122.24C8.29357 121.68 8.70356 121.26 9.14356 121.3Z" fill="#0038FF"/>
<path d="M9.14356 121.3C9.58356 121.34 9.90354 121.84 9.84354 122.4C9.78354 122.96 9.38355 123.38 8.94355 123.34C8.50355 123.3 8.18357 122.8 8.24357 122.24C8.29357 121.68 8.70356 121.26 9.14356 121.3Z" fill="#0038FF"/>
<path d="M21.5132 119.45C22.2332 119.82 22.4733 120.8 22.0533 121.64C21.6233 122.48 20.6932 122.87 19.9732 122.5C19.2532 122.13 19.0132 121.15 19.4332 120.31C19.8532 119.47 20.7832 119.08 21.5132 119.45Z" fill="white"/>
<path d="M21.1627 120.14C21.5627 120.34 21.6928 120.88 21.4528 121.34C21.2228 121.8 20.7027 122.01 20.3127 121.81C19.9127 121.61 19.7828 121.07 20.0228 120.61C20.2528 120.15 20.7627 119.94 21.1627 120.14Z" fill="#0038FF"/>
<path d="M28.3628 95.6299C28.7528 96.3399 28.3428 97.3199 27.4428 97.8199C26.5428 98.3199 25.4927 98.1499 25.0927 97.4399C24.7027 96.7299 25.1128 95.7499 26.0128 95.2499C26.9228 94.7499 27.9728 94.9199 28.3628 95.6299Z" fill="white"/>
<path d="M27.6218 96.04C27.8418 96.43 27.6118 96.97 27.1118 97.24C26.6118 97.51 26.0418 97.42 25.8218 97.03C25.6018 96.64 25.8318 96.1 26.3318 95.83C26.8318 95.56 27.4018 95.65 27.6218 96.04Z" fill="#0038FF"/>
<path d="M35.9136 96.6C36.3336 97.36 36.0236 98.3299 35.2336 98.7699C34.4336 99.2099 33.4436 98.9599 33.0236 98.1999C32.6036 97.4399 32.9136 96.4699 33.7036 96.0299C34.5036 95.5799 35.4936 95.84 35.9136 96.6Z" fill="white"/>
<path d="M35.2629 96.96C35.4929 97.38 35.3229 97.91 34.8929 98.15C34.4529 98.39 33.9129 98.25 33.6829 97.84C33.4529 97.42 33.6229 96.89 34.0529 96.65C34.4929 96.4 35.0329 96.54 35.2629 96.96Z" fill="#0038FF"/>
<path d="M21.0129 112.12C21.8229 112.09 22.5129 112.9 22.5529 113.93C22.5929 114.96 21.9729 115.83 21.1629 115.86C20.3529 115.89 19.6629 115.08 19.6229 114.05C19.5829 113.02 20.2029 112.15 21.0129 112.12Z" fill="white"/>
<path d="M21.0529 112.97C21.4929 112.95 21.8728 113.4 21.9028 113.96C21.9228 114.53 21.5829 115 21.1429 115.02C20.7029 115.04 20.3229 114.59 20.2929 114.03C20.2629 113.46 20.6029 112.98 21.0529 112.97Z" fill="#0038FF"/>
<path d="M13.3845 97.9299C13.3845 98.7399 12.5445 99.4 11.5145 99.4C10.4845 99.4 9.64453 98.7399 9.64453 97.9299C9.64453 97.1199 10.4845 96.46 11.5145 96.46C12.5445 96.46 13.3845 97.1099 13.3845 97.9299Z" fill="white"/>
<path d="M12.5346 97.9301C12.5346 98.3701 12.0746 98.7401 11.5046 98.7401C10.9346 98.7401 10.4746 98.3801 10.4746 97.9301C10.4746 97.4901 10.9346 97.1301 11.5046 97.1301C12.0746 97.1201 12.5346 97.4801 12.5346 97.9301Z" fill="#0038FF"/>
<path d="M31.6633 103.58C31.6633 104.39 30.9233 105.05 30.0133 105.05C29.1033 105.05 28.3633 104.39 28.3633 103.58C28.3633 102.77 29.1033 102.11 30.0133 102.11C30.9233 102.11 31.6633 102.77 31.6633 103.58Z" fill="white"/>
<path d="M30.9235 103.58C30.9235 104.02 30.5135 104.38 30.0135 104.38C29.5135 104.38 29.1035 104.02 29.1035 103.58C29.1035 103.14 29.5135 102.78 30.0135 102.78C30.5135 102.77 30.9235 103.13 30.9235 103.58Z" fill="#0038FF"/>
<path d="M29.9246 107.59C30.6746 107.89 31.0146 108.82 30.6746 109.67C30.3346 110.52 29.4546 110.96 28.6946 110.66C27.9446 110.36 27.6046 109.43 27.9446 108.58C28.2846 107.74 29.1746 107.29 29.9246 107.59Z" fill="white"/>
<path d="M29.6442 108.29C30.0542 108.45 30.2442 108.96 30.0542 109.43C29.8742 109.89 29.3842 110.14 28.9742 109.97C28.5642 109.81 28.3742 109.3 28.5642 108.83C28.7442 108.37 29.2342 108.12 29.6442 108.29Z" fill="#0038FF"/>
<path d="M43.9436 114.67C44.6336 115.1 44.8036 116.07 44.3236 116.85C43.8436 117.63 42.8936 117.91 42.2036 117.48C41.5136 117.05 41.3436 116.08 41.8236 115.3C42.3136 114.52 43.2536 114.24 43.9436 114.67Z" fill="white"/>
<path d="M43.5542 115.3C43.9342 115.53 44.0242 116.07 43.7642 116.49C43.5042 116.92 42.9842 117.07 42.6042 116.84C42.2242 116.61 42.1342 116.07 42.3942 115.65C42.6542 115.22 43.1742 115.07 43.5542 115.3Z" fill="#0038FF"/>
<path d="M53.5334 125.88C54.2234 126.31 54.3934 127.28 53.9134 128.06C53.4334 128.84 52.4834 129.12 51.7934 128.69C51.1034 128.26 50.9334 127.29 51.4134 126.51C51.9034 125.73 52.8434 125.45 53.5334 125.88Z" fill="white"/>
<path d="M53.144 126.51C53.524 126.74 53.614 127.28 53.354 127.7C53.094 128.13 52.574 128.28 52.194 128.05C51.814 127.82 51.724 127.28 51.984 126.86C52.244 126.43 52.764 126.28 53.144 126.51Z" fill="#0038FF"/>
<path d="M50.1936 119.85C50.8836 120.28 51.0536 121.25 50.5736 122.03C50.0936 122.81 49.1436 123.09 48.4536 122.66C47.7636 122.23 47.5936 121.26 48.0736 120.48C48.5536 119.7 49.5036 119.42 50.1936 119.85Z" fill="white"/>
<path d="M49.8042 120.48C50.1842 120.71 50.2742 121.25 50.0142 121.67C49.7542 122.1 49.2342 122.25 48.8542 122.02C48.4742 121.79 48.3842 121.25 48.6442 120.83C48.9042 120.4 49.4242 120.25 49.8042 120.48Z" fill="#0038FF"/>
<path d="M37.2346 114.43C37.9246 114.86 38.0946 115.83 37.6146 116.61C37.1346 117.39 36.1846 117.67 35.4946 117.24C34.8046 116.81 34.6346 115.84 35.1146 115.06C35.5946 114.29 36.5446 114 37.2346 114.43Z" fill="white"/>
<path d="M36.8452 115.06C37.2252 115.29 37.3152 115.83 37.0552 116.25C36.7952 116.68 36.2752 116.83 35.8952 116.6C35.5152 116.37 35.4252 115.83 35.6852 115.41C35.9452 114.99 36.4652 114.83 36.8452 115.06Z" fill="#0038FF"/>
<path d="M45.174 119.85C45.864 120.28 46.034 121.25 45.554 122.03C45.074 122.81 44.124 123.09 43.434 122.66C42.744 122.23 42.574 121.26 43.054 120.48C43.534 119.7 44.484 119.42 45.174 119.85Z" fill="white"/>
<path d="M44.7749 120.48C45.1549 120.71 45.2449 121.25 44.9849 121.67C44.7249 122.1 44.2049 122.25 43.8249 122.02C43.4449 121.79 43.3549 121.25 43.6149 120.83C43.8849 120.4 44.4049 120.25 44.7749 120.48Z" fill="#0038FF"/>
<path d="M3.70389 102.7C4.51389 102.68 5.19387 103.5 5.21387 104.54C5.23387 105.57 4.60387 106.43 3.78387 106.44C2.97387 106.46 2.29389 105.64 2.27389 104.6C2.25389 103.57 2.89389 102.72 3.70389 102.7Z" fill="white"/>
<path d="M3.72417 103.54C4.16417 103.53 4.54419 103.98 4.55419 104.55C4.56419 105.12 4.21419 105.58 3.77419 105.59C3.33419 105.6 2.95418 105.15 2.94418 104.58C2.92418 104.02 3.27417 103.55 3.72417 103.54Z" fill="#0038FF"/>
<path d="M3.72417 103.54C4.16417 103.53 4.54419 103.98 4.55419 104.55C4.56419 105.12 4.21419 105.58 3.77419 105.59C3.33419 105.6 2.95418 105.15 2.94418 104.58C2.92418 104.02 3.27417 103.55 3.72417 103.54Z" fill="#0038FF"/>
<path d="M22.0236 123.98C22.8236 124.08 23.3836 124.92 23.2736 125.86C23.1536 126.8 22.4136 127.48 21.6036 127.38C20.8036 127.28 20.2436 126.44 20.3536 125.5C20.4736 124.56 21.2236 123.88 22.0236 123.98Z" fill="white"/>
<path d="M21.9335 124.75C22.3735 124.8 22.6835 125.27 22.6135 125.78C22.5535 126.29 22.1435 126.67 21.7035 126.61C21.2635 126.55 20.9535 126.09 21.0235 125.58C21.0835 125.06 21.4935 124.69 21.9335 124.75Z" fill="#0038FF"/>
<path d="M26.2543 122.63C27.0643 122.73 27.6143 123.57 27.5043 124.51C27.3843 125.45 26.6443 126.13 25.8343 126.03C25.0243 125.93 24.4743 125.09 24.5843 124.15C24.7043 123.21 25.4443 122.53 26.2543 122.63Z" fill="white"/>
<path d="M26.1542 123.4C26.5942 123.46 26.9042 123.92 26.8342 124.43C26.7742 124.94 26.3642 125.32 25.9242 125.26C25.4842 125.2 25.1743 124.74 25.2443 124.23C25.3043 123.72 25.7142 123.34 26.1542 123.4Z" fill="#0038FF"/>
<path d="M37.3331 134.33C37.1231 134.33 36.9431 134.16 36.9431 133.95C36.9431 133.93 36.9031 132.17 36.0131 130.39C35.1831 128.71 33.9931 128.27 30.6231 127.71C28.7131 127.39 26.6931 125.55 26.6031 125.47C26.4431 125.32 26.4331 125.08 26.5831 124.92C26.7331 124.76 26.9731 124.75 27.1331 124.9C27.1531 124.92 29.0631 126.66 30.7531 126.94C34.1031 127.5 35.6831 127.96 36.7131 130.04C37.6731 131.98 37.7231 133.85 37.7231 133.93C37.7231 134.15 37.5531 134.33 37.3331 134.33Z" fill="white"/>
<path d="M38.4032 130.53C38.2132 130.53 38.0532 130.39 38.0232 130.2C38.0232 130.19 37.7932 128.76 37.0132 127.54C36.2332 126.33 35.1232 125.54 34.2332 124.98C34.0532 124.87 33.9932 124.63 34.1132 124.44C34.2232 124.26 34.4632 124.2 34.6532 124.32C35.6032 124.92 36.8132 125.78 37.6732 127.12C38.5432 128.48 38.7932 130.01 38.8032 130.08C38.8332 130.29 38.6932 130.49 38.4832 130.52C38.4432 130.53 38.4232 130.53 38.4032 130.53Z" fill="white"/>
<path d="M44.9141 134.46C44.7341 134.46 44.5641 134.33 44.5341 134.14C44.5341 134.11 44.0141 131.32 43.9741 128.17C43.9341 125.01 43.9141 122.6 43.9141 122.6C43.9141 122.39 44.0841 122.21 44.3041 122.21C44.5241 122.22 44.6941 122.38 44.6941 122.6C44.6941 122.6 44.7141 125.02 44.7541 128.17C44.7941 131.25 45.2941 133.98 45.2941 134.01C45.3341 134.22 45.1941 134.42 44.9841 134.46C44.9541 134.46 44.9341 134.46 44.9141 134.46Z" fill="white"/>
<path d="M44.5431 131.15C44.3331 131.15 44.123 130.98 44.123 130.76C44.123 130.54 44.2631 130.37 44.4831 130.37H44.5431C45.2731 130.37 46.993 130.36 48.433 129.78C49.793 129.23 51.6531 128.02 51.6731 128.01C51.8531 127.89 52.093 127.94 52.213 128.12C52.333 128.3 52.2831 128.54 52.1031 128.66C52.0231 128.71 50.1531 129.92 48.7331 130.5C47.1531 131.14 45.3331 131.14 44.5431 131.15Z" fill="white"/>
<path d="M42.8429 131.34C42.6729 131.34 42.5129 131.23 42.4629 131.05C42.4429 130.98 42.0329 129.41 42.0129 127.79C41.9929 125.82 41.9629 124.66 41.9629 124.66C41.9629 124.45 42.1329 124.27 42.3429 124.26C42.5729 124.27 42.7329 124.43 42.7429 124.64C42.7429 124.64 42.7629 125.8 42.7929 127.78C42.8129 129.3 43.2129 130.83 43.2229 130.85C43.2829 131.06 43.1529 131.27 42.9429 131.33C42.9129 131.33 42.8829 131.34 42.8429 131.34Z" fill="white"/>
<path d="M44.3246 124.72C44.1746 124.72 44.0246 124.63 43.9646 124.48C43.8846 124.28 43.9746 124.05 44.1746 123.97C44.2046 123.96 46.7946 122.86 48.0446 121.8C48.2046 121.66 48.4546 121.68 48.5946 121.85C48.7346 122.01 48.7146 122.26 48.5446 122.4C47.1946 123.54 44.5746 124.65 44.4646 124.69C44.4246 124.71 44.3746 124.72 44.3246 124.72Z" fill="white"/>
<path d="M28.5229 84.96C28.3729 84.96 28.2228 84.87 28.1628 84.72C27.4828 83.07 27.1429 82.24 27.1429 82.24C27.0629 82.04 27.1629 81.81 27.3629 81.73C27.5629 81.65 27.7928 81.75 27.8728 81.95C27.8728 81.95 28.2129 82.78 28.8929 84.42C28.9729 84.62 28.8828 84.85 28.6828 84.93C28.6228 84.95 28.5729 84.96 28.5229 84.96Z" fill="white"/>
<path d="M30.1731 84.2801C30.1731 85.0901 29.4331 85.7501 28.5231 85.7501C27.6131 85.7501 26.873 85.0901 26.873 84.2801C26.873 83.4701 27.6131 82.8101 28.5231 82.8101C29.4331 82.8101 30.1731 83.4701 30.1731 84.2801Z" fill="white"/>
<path d="M29.4235 84.2802C29.4235 84.7202 29.0135 85.0802 28.5135 85.0802C28.0135 85.0802 27.6035 84.7202 27.6035 84.2802C27.6035 83.8402 28.0135 83.4702 28.5135 83.4702C29.0235 83.4702 29.4235 83.8302 29.4235 84.2802Z" fill="#0038FF"/>
<path d="M38.0131 88.55C36.8131 88.55 35.4431 88.14 35.2431 88.08C35.0331 88.02 34.9231 87.8 34.9831 87.59C35.0431 87.38 35.2631 87.27 35.4731 87.33C36.1631 87.54 38.1331 88.01 38.9331 87.61C39.6431 87.26 40.5731 85.46 40.9831 84.42C41.0631 84.22 41.2931 84.12 41.4931 84.2C41.6931 84.28 41.7931 84.51 41.7131 84.71C41.5931 85.01 40.4931 87.71 39.2831 88.31C38.9331 88.49 38.4831 88.55 38.0131 88.55Z" fill="white"/>
<path d="M41.7743 91.9001C41.6743 91.9001 41.5743 91.8601 41.4943 91.7801C41.4443 91.7301 40.3943 90.6401 40.5343 89.2901C40.6743 88.0501 41.5443 86.2801 41.5843 86.2001C41.6843 86.0101 41.9143 85.9301 42.1043 86.0201C42.2943 86.1201 42.3743 86.3501 42.2843 86.5401C42.2743 86.5601 41.4343 88.2701 41.3143 89.3701C41.2043 90.3601 42.0443 91.2301 42.0543 91.2301C42.2043 91.3801 42.2043 91.6301 42.0443 91.7801C41.9743 91.8601 41.8743 91.9001 41.7743 91.9001Z" fill="white"/>
<path d="M36.8043 86.8299C37.2243 87.5899 36.9142 88.5599 36.1242 88.9999C35.3242 89.4399 34.3342 89.1899 33.9142 88.4299C33.4942 87.6699 33.8042 86.6999 34.5942 86.2599C35.3942 85.8099 36.3843 86.0699 36.8043 86.8299Z" fill="white"/>
<path d="M36.1535 87.1899C36.3835 87.6099 36.2135 88.1399 35.7835 88.3799C35.3435 88.6199 34.8035 88.4799 34.5735 88.0699C34.3435 87.6499 34.5135 87.1199 34.9435 86.8799C35.3735 86.6399 35.9235 86.7699 36.1535 87.1899Z" fill="#0038FF"/>
<path d="M51.5434 102.68C50.4534 102.68 49.3034 101.97 48.5434 100.76C47.6934 99.4099 46.5234 97.61 46.5234 97.61L47.1734 97.1899C47.1734 97.1899 48.3434 98.99 49.1934 100.35C49.8734 101.44 51.1334 102.27 52.2134 101.76C53.7734 101.02 54.3034 100.33 54.3034 100.33C54.4334 100.16 54.6734 100.12 54.8434 100.25C55.0134 100.38 55.0534 100.62 54.9234 100.79C54.9034 100.82 54.2934 101.64 52.5334 102.47C52.2334 102.61 51.8934 102.68 51.5434 102.68Z" fill="white"/>
<path d="M48.2945 96.93C48.7145 97.69 48.4045 98.66 47.6145 99.1C46.8145 99.54 45.8245 99.29 45.4045 98.53C44.9845 97.77 45.2945 96.8 46.0845 96.36C46.8945 95.91 47.8745 96.17 48.2945 96.93Z" fill="white"/>
<path d="M47.6437 97.29C47.8737 97.71 47.7038 98.24 47.2738 98.48C46.8338 98.72 46.2937 98.58 46.0637 98.17C45.8337 97.75 46.0037 97.22 46.4337 96.98C46.8737 96.73 47.4137 96.87 47.6437 97.29Z" fill="#0038FF"/>
<path d="M54.3143 108.39C54.3143 108.39 53.1143 106.74 52.3043 105.68C51.0843 104.08 51.2443 102.33 51.2543 102.26C51.2743 102.05 51.4643 101.89 51.6843 101.91C51.8943 101.93 52.0543 102.12 52.0343 102.34C52.0343 102.35 51.8943 103.87 52.9243 105.21C53.7343 106.27 54.9443 107.93 54.9443 107.93L54.3143 108.39Z" fill="white"/>
<path d="M56.9633 115.15C56.9233 115.15 56.8833 115.14 56.8433 115.13C56.6333 115.07 56.5233 114.85 56.5933 114.64C56.5933 114.62 57.0933 113.06 57.2833 112.09C57.6033 110.54 57.6033 108.84 57.6033 108.82C57.6033 108.6 57.7733 108.43 57.9933 108.43C58.2133 108.43 58.3833 108.6 58.3833 108.82C58.3833 108.89 58.3833 110.62 58.0533 112.25C57.8533 113.26 57.3633 114.81 57.3433 114.88C57.2833 115.04 57.1333 115.15 56.9633 115.15Z" fill="white"/>
<path d="M61.3734 126.85C61.1734 126.85 61.0134 126.7 60.9834 126.51C60.9834 126.49 60.7634 124.63 60.2934 122.94C59.9934 121.87 59.0834 120.94 59.0734 120.93C58.9234 120.78 58.9234 120.53 59.0734 120.38C59.2234 120.23 59.4734 120.23 59.6234 120.38C59.6634 120.42 60.6834 121.46 61.0334 122.73C61.5234 124.47 61.7434 126.34 61.7534 126.41C61.7834 126.62 61.6234 126.82 61.4134 126.84C61.4034 126.84 61.3934 126.85 61.3734 126.85Z" fill="white"/>
<path d="M55.7541 106.93C56.4441 107.36 56.6141 108.33 56.1341 109.11C55.6541 109.89 54.7041 110.17 54.0141 109.74C53.3241 109.31 53.1541 108.34 53.6341 107.56C54.1141 106.79 55.0641 106.5 55.7541 106.93Z" fill="white"/>
<path d="M55.3647 107.57C55.7447 107.8 55.8347 108.34 55.5747 108.76C55.3147 109.19 54.7947 109.34 54.4147 109.11C54.0347 108.88 53.9447 108.34 54.2047 107.92C54.4647 107.49 54.9847 107.33 55.3647 107.57Z" fill="#0038FF"/>
<path d="M57.8342 113.13C58.5242 113.56 58.6942 114.53 58.2142 115.31C57.7342 116.09 56.7842 116.37 56.0942 115.94C55.4042 115.51 55.2342 114.54 55.7142 113.76C56.1942 112.99 57.1442 112.7 57.8342 113.13Z" fill="white"/>
<path d="M57.4448 113.76C57.8248 113.99 57.9148 114.53 57.6548 114.95C57.3948 115.38 56.8748 115.53 56.4948 115.3C56.1148 115.07 56.0248 114.53 56.2848 114.11C56.5448 113.69 57.0648 113.53 57.4448 113.76Z" fill="#0038FF"/>
<path d="M59.3441 119.51C60.1541 119.42 60.8841 120.09 60.9841 120.99C61.0841 121.9 60.5141 122.7 59.7041 122.79C58.8941 122.88 58.1641 122.21 58.0641 121.31C57.9641 120.41 58.5341 119.6 59.3441 119.51Z" fill="white"/>
<path d="M59.4242 120.26C59.8642 120.21 60.2642 120.58 60.3242 121.07C60.3742 121.57 60.0642 122.01 59.6242 122.06C59.1842 122.11 58.7842 121.74 58.7242 121.25C58.6642 120.75 58.9742 120.31 59.4242 120.26Z" fill="#0038FF"/>
<path d="M30.0937 136.93C30.0037 136.93 29.9137 136.93 29.8237 136.93C26.1037 136.82 23.7237 134.73 23.1337 134.14C22.5337 134.39 20.5937 134.97 17.6237 133.81C15.9937 133.18 15.0537 132 14.7537 131.58C14.2837 131.62 12.9237 131.65 11.4637 130.86C10.0537 130.1 9.48373 128.92 9.29373 128.41C8.69373 128.47 7.09372 128.48 5.68372 127.05C4.73372 126.09 4.55374 124.79 4.52374 124.34C4.10374 124.07 2.83374 123.16 2.24374 121.59C1.57374 119.81 1.84374 118.16 1.95374 117.67C1.57374 117.22 0.243742 115.53 0.0537422 113.38C-0.196258 110.54 0.493735 109.14 0.733735 108.75C0.613735 108.17 0.143732 105.7 0.793732 103.62C1.75373 100.57 3.96374 99.61 4.05374 99.57C4.19374 99.51 4.35373 99.5801 4.41373 99.7201C4.47373 99.8601 4.40373 100.02 4.26373 100.08C4.24373 100.09 2.19372 100.99 1.31372 103.79C0.633722 105.96 1.28373 108.71 1.29373 108.74L1.32373 108.87L1.24374 108.98C1.23374 108.99 0.33372 110.23 0.59372 113.33C0.79372 115.61 2.42373 117.38 2.44373 117.4L2.55374 117.51L2.51373 117.66C2.50373 117.68 2.03372 119.48 2.75372 121.39C3.38372 123.06 4.90374 123.93 4.92374 123.94L5.06372 124.02V124.18C5.06372 124.2 5.09373 125.67 6.07373 126.66C7.60373 128.21 9.35374 127.85 9.42374 127.83L9.68372 127.77L9.75372 128.03C9.75372 128.04 10.1437 129.52 11.7237 130.36C13.3337 131.22 14.8237 131 14.8437 131L15.0237 130.97L15.1237 131.13C15.1337 131.15 16.0437 132.59 17.8237 133.28C21.1137 134.56 23.0437 133.56 23.0637 133.55L23.2537 133.45L23.4037 133.61C23.4237 133.64 25.8537 136.25 29.8437 136.36C29.9237 136.36 30.0137 136.36 30.0937 136.36C33.9837 136.36 37.1237 133.74 37.1537 133.72L37.4037 133.51L37.5737 133.79C37.6137 133.86 38.5537 135.36 41.1337 135.5C43.3737 135.62 44.6737 133.91 44.6937 133.89L44.8437 133.69L45.0637 133.82C45.0837 133.83 47.4937 135.23 49.2837 134.9C54.8037 133.84 54.7037 128.22 54.7037 128.16V128.04L54.7937 127.96C54.8137 127.94 56.5737 126.21 56.5237 123.62C56.4737 121.04 54.1237 119.24 54.1037 119.23L53.9637 119.13L53.9937 118.96C54.0037 118.92 54.6237 115.28 51.6637 110.47C49.9337 107.65 45.6437 106.28 45.6037 106.26L45.4037 106.2L45.4137 105.99C45.4137 105.95 45.4937 101.76 42.3137 98.27C39.7837 95.49 36.0237 95.43 35.9837 95.43H35.7937L35.7237 95.25C35.7137 95.24 35.1837 93.74 34.2637 92.56C33.3837 91.41 31.5337 90.89 31.5137 90.88L31.3937 90.8501L31.3437 90.74C31.3337 90.72 30.1737 88.35 27.4137 87.21C26.0637 86.65 24.3837 86.7201 22.4137 87.4101L22.2737 87.46L22.1537 87.37C20.7837 86.32 18.7937 86.6501 18.7737 86.6501C18.6237 86.6701 18.4837 86.58 18.4537 86.43C18.4237 86.28 18.5237 86.1401 18.6737 86.1101C18.7637 86.0901 20.8137 85.7501 22.3637 86.8401C24.4037 86.1501 26.1737 86.1 27.6237 86.7C30.2737 87.79 31.5137 89.88 31.7837 90.39C32.2337 90.53 33.8337 91.1001 34.7037 92.2301C35.4937 93.2501 36.0037 94.4501 36.1737 94.9001C37.0137 94.9501 40.3237 95.3001 42.7137 97.9201C45.6737 101.17 45.9437 104.9 45.9537 105.82C46.8437 106.13 50.4837 107.52 52.1237 110.2C54.8737 114.67 54.6537 118.11 54.5537 118.91C55.0837 119.35 57.0237 121.12 57.0637 123.63C57.1137 126.16 55.6237 127.89 55.2437 128.29C55.2237 129.16 54.8837 134.41 49.3737 135.47C47.6837 135.79 45.6337 134.79 44.9737 134.44C44.5337 134.94 43.1837 136.18 41.0937 136.08C38.8337 135.95 37.6837 134.86 37.2737 134.35C36.4637 134.97 33.6137 136.93 30.0937 136.93Z" fill="#262E8A"/>
<path d="M33.484 115.67C33.374 115.67 33.274 115.63 33.194 115.54C32.054 114.29 30.184 112.76 30.164 112.75C29.994 112.61 29.974 112.37 30.104 112.2C30.244 112.03 30.484 112.01 30.654 112.14C30.734 112.2 32.594 113.72 33.774 115.01C33.914 115.17 33.904 115.41 33.744 115.56C33.664 115.63 33.574 115.67 33.484 115.67Z" fill="white"/>
<defs>
<linearGradient id="paint0_linear_254_1484" x1="66.7689" y1="41.7296" x2="66.7689" y2="63.5007" gradientUnits="userSpaceOnUse">
<stop stop-color="#97B2E3"/>
<stop offset="1" stop-color="#E2F1FF"/>
</linearGradient>
<linearGradient id="paint1_linear_254_1484" x1="57.2636" y1="52.6994" x2="57.2636" y2="87.6111" gradientUnits="userSpaceOnUse">
<stop stop-color="#97B2E3"/>
<stop offset="1" stop-color="#E2F1FF"/>
</linearGradient>
<linearGradient id="paint2_linear_254_1484" x1="76.0892" y1="52.5295" x2="76.0892" y2="87.6111" gradientUnits="userSpaceOnUse">
<stop stop-color="#97B2E3"/>
<stop offset="1" stop-color="#E2F1FF"/>
</linearGradient>
<linearGradient id="paint3_linear_254_1484" x1="94.3186" y1="8.89966" x2="94.3186" y2="24.1804" gradientUnits="userSpaceOnUse">
<stop stop-color="#97B2E3"/>
<stop offset="1" stop-color="#E2F1FF"/>
</linearGradient>
<linearGradient id="paint4_linear_254_1484" x1="87.6535" y1="16.5995" x2="87.6535" y2="41.1006" gradientUnits="userSpaceOnUse">
<stop stop-color="#97B2E3"/>
<stop offset="1" stop-color="#E2F1FF"/>
</linearGradient>
<linearGradient id="paint5_linear_254_1484" x1="100.859" y1="16.4796" x2="100.859" y2="41.1007" gradientUnits="userSpaceOnUse">
<stop stop-color="#97B2E3"/>
<stop offset="1" stop-color="#E2F1FF"/>
</linearGradient>
<linearGradient id="paint6_linear_254_1484" x1="124.843" y1="58.7694" x2="124.843" y2="97.3709" gradientUnits="userSpaceOnUse">
<stop stop-color="#97B2E3"/>
<stop offset="1" stop-color="#E2F1FF"/>
</linearGradient>
<linearGradient id="paint7_linear_254_1484" x1="133.762" y1="60.2757" x2="133.762" y2="88.0752" gradientUnits="userSpaceOnUse">
<stop stop-color="#97B2E3"/>
<stop offset="1" stop-color="#E2F1FF"/>
</linearGradient>
</defs>
</svg>
