<svg width="44" height="44" viewBox="0 0 44 44" fill="none" xmlns="http://www.w3.org/2000/svg">
<rect width="44" height="44" rx="10" fill="#EDF3FE"/>
<path d="M26.5308 18.78C26.6633 18.6378 26.7354 18.4497 26.732 18.2554C26.7286 18.0611 26.6499 17.8758 26.5124 17.7383C26.375 17.6009 26.1896 17.5222 25.9953 17.5188C25.801 17.5154 25.613 17.5875 25.4708 17.72L21.0008 22.19L19.0308 20.22C18.8886 20.0875 18.7006 20.0154 18.5063 20.0188C18.312 20.0222 18.1266 20.1009 17.9892 20.2383C17.8518 20.3758 17.7731 20.5611 17.7696 20.7554C17.7662 20.9497 17.8383 21.1378 17.9708 21.28L20.4708 23.78C20.6114 23.9204 20.8021 23.9993 21.0008 23.9993C21.1996 23.9993 21.3902 23.9204 21.5308 23.78L26.5308 18.78Z" fill="#AAC4F4"/>
<path d="M22.8869 11.0802L30.6257 13.5894C30.9554 13.6964 31.2429 13.9051 31.4468 14.1855C31.6507 14.4659 31.7606 14.8036 31.7607 15.1503V19.863C31.7607 25.6694 28.2233 29.9037 22.9422 31.898C22.58 32.034 22.1807 32.034 21.8185 31.898C16.5364 29.9047 13 25.6694 13 19.863V15.1503C13 14.4393 13.4587 13.8089 14.135 13.5894L21.8738 11.0802C22.203 10.9733 22.5576 10.9733 22.8869 11.0802ZM22.3081 12.4178L14.5693 14.928C14.5222 14.9431 14.4811 14.9728 14.452 15.0127C14.4228 15.0527 14.4071 15.1009 14.4071 15.1503V19.863C14.4071 24.9847 17.4838 28.7584 22.3147 30.581C22.357 30.5969 22.4037 30.5969 22.446 30.581C27.2769 28.7584 30.3536 24.9856 30.3536 19.863V15.1503C30.3535 15.1009 30.3377 15.0528 30.3085 15.0129C30.2794 14.9729 30.2384 14.9432 30.1913 14.928L22.4526 12.4178C22.4056 12.4028 22.3551 12.4028 22.3081 12.4178Z" fill="#AAC4F4"/>
</svg>
