<svg width="36" height="42" viewBox="0 0 36 42" fill="none" xmlns="http://www.w3.org/2000/svg">
<path d="M21.2099 13.48L21.1799 24.48L10.6699 30.61L10.6999 19.61L21.2099 13.48Z" fill="#D5900E"/>
<path d="M10.6998 19.61L10.6698 30.61L0.0898438 24.48L0.119843 13.48L10.6998 19.61Z" fill="#FFC400"/>
<path d="M21.2092 13.48L10.6991 19.61L0.119141 13.48L10.6292 7.33997L21.2092 13.48Z" fill="#FFDE38"/>
<path d="M28.3791 4.63L28.3491 12.02L21.2891 16.14L21.3091 8.75L28.3791 4.63Z" fill="#133AA5"/>
<path d="M21.3094 8.75L21.2894 16.14L14.1895 12.02L14.2095 4.63L21.3094 8.75Z" fill="#185BCC"/>
<path d="M28.379 4.63L21.309 8.75L14.209 4.63L21.269 0.51001L28.379 4.63Z" fill="#4281EE"/>
<path d="M35.258 24.09L35.218 35.57L24.248 41.97L24.288 30.49L35.258 24.09Z" fill="#CFCDE2"/>
<path d="M24.289 30.49L24.249 41.97L13.209 35.57L13.249 24.09L24.289 30.49Z" fill="#E7E6F1"/>
<path d="M35.258 24.0899L24.288 30.4899L13.248 24.0899L24.218 17.6899L35.258 24.0899Z" fill="#F4F4FB"/>
</svg>
