<svg width="48" height="48" viewBox="0 0 48 48" fill="none" xmlns="http://www.w3.org/2000/svg">
<path d="M30.6999 9.68994L30.6498 25.4599L15.5898 34.2499L15.6299 18.4799L30.6999 9.68994Z" fill="#E7E6F1"/>
<path d="M15.6297 18.4799L15.5897 34.2499L0.429688 25.4599L0.469696 9.68994L15.6297 18.4799Z" fill="#CFCDE2"/>
<path d="M30.6988 9.6899L15.6288 18.4799L0.46875 9.6899L15.5287 0.899902L30.6988 9.6899Z" fill="#F4F4FB"/>
<path d="M37.7409 29.1799L37.7109 40.6799L26.7109 47.0999L26.7509 35.5899L37.7409 29.1799Z" fill="#185BCC"/>
<path d="M26.7504 35.5899L26.7104 47.0999L15.6504 40.6799L15.6804 29.1799L26.7504 35.5899Z" fill="#133AA5"/>
<path d="M37.7397 29.18L26.7497 35.59L15.6797 29.18L26.6697 22.76L37.7397 29.18Z" fill="#4281EE"/>
<path d="M47.3307 9.50977L47.3107 19.2798L37.9707 24.7298L38.0007 14.9598L47.3307 9.50977Z" fill="#185BCC"/>
<path d="M38.0003 14.9598L37.9703 24.7298L28.5703 19.2798L28.6003 9.50977L38.0003 14.9598Z" fill="#133AA5"/>
<path d="M47.3296 9.50981L37.9996 14.9598L28.5996 9.50981L37.9396 4.05981L47.3296 9.50981Z" fill="#4281EE"/>
</svg>
