<svg width="24" height="25" viewBox="0 0 24 25" fill="none" xmlns="http://www.w3.org/2000/svg">
<path fill-rule="evenodd" clip-rule="evenodd" d="M0.0373597 13.2159C1.3772 12.3969 2.84454 11.9189 4.33986 12.1246C6.75921 12.4574 8.14676 13.9569 9.4484 15.3636C11.0239 17.0662 12.4735 18.6328 15.4744 17.8299C18.2691 17.0822 19.2741 14.359 20.3216 11.5204C20.9631 9.78199 21.6207 8.00028 22.7151 6.60265C23.5362 8.22809 23.9988 10.0655 23.9988 12.011C23.9988 18.6443 18.6215 24.0216 11.9882 24.0216C5.76165 24.0216 0.641738 19.2834 0.0373597 13.2159ZM-0.000976562 11.289C0.372391 4.99194 5.5974 0.000488281 11.9882 0.000488281C14.3219 0.000488281 16.5001 0.666064 18.3435 1.81774C17.4822 3.36649 16.8557 5.51697 16.2638 7.54819C15.2202 11.1298 14.2847 14.3407 12.3613 13.228C11.9838 13.0096 11.606 12.6516 11.1737 12.242C9.79993 10.9406 7.87635 9.11816 3.66586 9.59722C2.35057 9.74687 1.11613 10.3863 -0.000976562 11.289Z" fill="white"/>
</svg>
