<svg width="86" height="25" viewBox="0 0 86 25" fill="none" xmlns="http://www.w3.org/2000/svg">
<path fill-rule="evenodd" clip-rule="evenodd" d="M0.0373597 13.2159C1.3772 12.3969 2.84454 11.9189 4.33986 12.1246C6.75921 12.4574 8.14676 13.9569 9.4484 15.3636C11.0239 17.0662 12.4735 18.6328 15.4744 17.8299C18.2691 17.0822 19.2741 14.359 20.3216 11.5204C20.9631 9.78199 21.6207 8.00028 22.7151 6.60265C23.5362 8.22809 23.9988 10.0655 23.9988 12.011C23.9988 18.6443 18.6215 24.0216 11.9882 24.0216C5.76165 24.0216 0.641738 19.2834 0.0373597 13.2159ZM-0.000976562 11.289C0.372391 4.99194 5.5974 0.000488281 11.9882 0.000488281C14.3219 0.000488281 16.5001 0.666064 18.3435 1.81774C17.4822 3.36649 16.8557 5.51697 16.2638 7.54819C15.2202 11.1298 14.2847 14.3407 12.3613 13.228C11.9838 13.0096 11.606 12.6516 11.1737 12.242C9.79993 10.9406 7.87635 9.11816 3.66586 9.59722C2.35057 9.74687 1.11613 10.3863 -0.000976562 11.289Z" fill="white"/>
<path d="M28.528 20L34.432 3.488H37.984L43.888 20H41.08L39.64 15.92H32.68L31.264 20H28.528ZM33.448 13.616H38.848L36.208 6.104H36.088L33.448 13.616ZM53.1434 20.192C52.5514 20.192 51.8954 20.176 51.1754 20.144C50.4714 20.112 49.7754 20.064 49.0874 20C48.4154 19.952 47.7994 19.896 47.2394 19.832V17.6C47.8154 17.648 48.4154 17.696 49.0394 17.744C49.6794 17.792 50.2874 17.832 50.8634 17.864C51.4394 17.88 51.9354 17.888 52.3514 17.888C53.1994 17.888 53.8634 17.848 54.3434 17.768C54.8234 17.688 55.2074 17.56 55.4954 17.384C55.6874 17.256 55.8234 17.096 55.9034 16.904C55.9994 16.712 56.0554 16.488 56.0714 16.232C56.1034 15.96 56.1194 15.664 56.1194 15.344C56.1194 14.912 56.1034 14.552 56.0714 14.264C56.0394 13.976 55.9674 13.752 55.8554 13.592C55.7434 13.432 55.5674 13.32 55.3274 13.256C55.0874 13.176 54.7754 13.112 54.3914 13.064L50.4554 12.608C49.6874 12.512 49.0554 12.352 48.5594 12.128C48.0794 11.888 47.7034 11.576 47.4314 11.192C47.1754 10.808 46.9994 10.352 46.9034 9.824C46.8074 9.296 46.7594 8.712 46.7594 8.072C46.7594 7 46.9034 6.152 47.1914 5.528C47.4794 4.904 47.8874 4.432 48.4154 4.112C48.9594 3.776 49.5994 3.56 50.3354 3.464C51.0714 3.352 51.8874 3.296 52.7834 3.296C53.4074 3.296 54.0474 3.32 54.7034 3.368C55.3594 3.4 55.9754 3.448 56.5514 3.512C57.1434 3.56 57.6314 3.632 58.0154 3.728V5.912C57.6154 5.848 57.1434 5.792 56.5994 5.744C56.0714 5.696 55.5194 5.664 54.9434 5.648C54.3674 5.616 53.8314 5.6 53.3354 5.6C52.5034 5.6 51.8314 5.64 51.3194 5.72C50.8234 5.784 50.4394 5.896 50.1674 6.056C49.8474 6.232 49.6554 6.48 49.5914 6.8C49.5274 7.104 49.4954 7.488 49.4954 7.952C49.4954 8.496 49.5274 8.92 49.5914 9.224C49.6714 9.512 49.8394 9.712 50.0954 9.824C50.3674 9.936 50.7754 10.024 51.3194 10.088L55.2554 10.544C55.7514 10.592 56.1994 10.672 56.5994 10.784C56.9994 10.88 57.3514 11.048 57.6554 11.288C57.9754 11.528 58.2234 11.872 58.3994 12.32C58.5114 12.544 58.5914 12.8 58.6394 13.088C58.7034 13.376 58.7514 13.696 58.7834 14.048C58.8314 14.384 58.8554 14.768 58.8554 15.2C58.8554 16.112 58.7594 16.872 58.5674 17.48C58.3914 18.088 58.1354 18.576 57.7994 18.944C57.4794 19.296 57.0794 19.568 56.5994 19.76C56.1194 19.936 55.5914 20.048 55.0154 20.096C54.4394 20.16 53.8154 20.192 53.1434 20.192ZM63.4639 20V3.488H66.1759V20H63.4639ZM69.8455 20L75.7495 3.488H79.3015L85.2055 20H82.3975L80.9575 15.92H73.9975L72.5815 20H69.8455ZM74.7655 13.616H80.1655L77.5255 6.104H77.4055L74.7655 13.616Z" fill="white"/>
</svg>
