<svg width="85" height="25" viewBox="0 0 85 25" fill="none" xmlns="http://www.w3.org/2000/svg">
<path d="M0.0383362 14.1945C1.37818 13.3755 2.84551 12.8974 4.34084 13.1031C6.76019 13.4359 8.14774 14.9354 9.44938 16.3421C11.0248 18.0448 12.4744 19.6114 15.4754 18.8084C18.2701 18.0607 19.275 15.3375 20.3226 12.499C20.9641 10.7605 21.6216 8.97879 22.716 7.58117C23.5372 9.20661 23.9998 11.0441 23.9998 12.9896C23.9998 19.6228 18.6225 25.0001 11.9892 25.0001C5.76263 25.0001 0.642715 20.2619 0.0383362 14.1945Z" fill="black"/>
<path d="M0 12.2675C0.373367 5.97046 5.59838 0.979004 11.9892 0.979004C14.3229 0.979004 16.5011 1.64458 18.3444 2.79626C17.4832 4.34501 16.8566 6.49548 16.2648 8.52671C15.2212 12.1084 14.2857 15.3192 12.3623 14.2065C11.9848 13.9881 11.6069 13.6301 11.1746 13.2205C9.8009 11.9191 7.87733 10.0967 3.66684 10.5757C2.35155 10.7254 1.1171 11.3648 0 12.2675Z" fill="black"/>
<path d="M28 21.2455L33.904 4.7335H37.456L43.36 21.2455H40.552L39.112 17.1655H32.152L30.736 21.2455H28ZM32.92 14.8615H38.32L35.68 7.3495H35.56L32.92 14.8615Z" fill="black"/>
<path d="M52.6154 21.4375C52.0234 21.4375 51.3674 21.4215 50.6474 21.3895C49.9434 21.3575 49.2474 21.3095 48.5594 21.2455C47.8874 21.1975 47.2714 21.1415 46.7114 21.0775V18.8455C47.2874 18.8935 47.8874 18.9415 48.5114 18.9895C49.1514 19.0375 49.7594 19.0775 50.3354 19.1095C50.9114 19.1255 51.4074 19.1335 51.8234 19.1335C52.6714 19.1335 53.3354 19.0935 53.8154 19.0135C54.2954 18.9335 54.6794 18.8055 54.9674 18.6295C55.1594 18.5015 55.2954 18.3415 55.3754 18.1495C55.4714 17.9575 55.5274 17.7335 55.5434 17.4775C55.5754 17.2055 55.5914 16.9095 55.5914 16.5895C55.5914 16.1575 55.5754 15.7975 55.5434 15.5095C55.5114 15.2215 55.4394 14.9975 55.3274 14.8375C55.2154 14.6775 55.0394 14.5655 54.7994 14.5015C54.5594 14.4215 54.2474 14.3575 53.8634 14.3095L49.9274 13.8535C49.1594 13.7575 48.5274 13.5975 48.0314 13.3735C47.5514 13.1335 47.1754 12.8215 46.9034 12.4375C46.6474 12.0535 46.4714 11.5975 46.3754 11.0695C46.2794 10.5415 46.2314 9.9575 46.2314 9.3175C46.2314 8.2455 46.3754 7.3975 46.6634 6.7735C46.9514 6.1495 47.3594 5.6775 47.8874 5.3575C48.4314 5.0215 49.0714 4.8055 49.8074 4.7095C50.5434 4.5975 51.3594 4.5415 52.2554 4.5415C52.8794 4.5415 53.5194 4.5655 54.1754 4.6135C54.8314 4.6455 55.4474 4.6935 56.0234 4.7575C56.6154 4.8055 57.1034 4.8775 57.4874 4.9735V7.1575C57.0874 7.0935 56.6154 7.0375 56.0714 6.9895C55.5434 6.9415 54.9914 6.9095 54.4154 6.8935C53.8394 6.8615 53.3034 6.8455 52.8074 6.8455C51.9754 6.8455 51.3034 6.8855 50.7914 6.9655C50.2954 7.0295 49.9114 7.1415 49.6394 7.3015C49.3194 7.4775 49.1274 7.7255 49.0634 8.0455C48.9994 8.3495 48.9674 8.7335 48.9674 9.1975C48.9674 9.7415 48.9994 10.1655 49.0634 10.4695C49.1434 10.7575 49.3114 10.9575 49.5674 11.0695C49.8394 11.1815 50.2474 11.2695 50.7914 11.3335L54.7274 11.7895C55.2234 11.8375 55.6714 11.9175 56.0714 12.0295C56.4714 12.1255 56.8234 12.2935 57.1274 12.5335C57.4474 12.7735 57.6954 13.1175 57.8714 13.5655C57.9834 13.7895 58.0634 14.0455 58.1114 14.3335C58.1754 14.6215 58.2234 14.9415 58.2554 15.2935C58.3034 15.6295 58.3274 16.0135 58.3274 16.4455C58.3274 17.3575 58.2314 18.1175 58.0394 18.7255C57.8634 19.3335 57.6074 19.8215 57.2714 20.1895C56.9514 20.5415 56.5514 20.8135 56.0714 21.0055C55.5914 21.1815 55.0634 21.2935 54.4874 21.3415C53.9114 21.4055 53.2874 21.4375 52.6154 21.4375Z" fill="black"/>
<path d="M62.9359 21.2455V4.7335H65.6479V21.2455H62.9359Z" fill="black"/>
<path d="M69.3175 21.2455L75.2215 4.7335H78.7735L84.6775 21.2455H81.8695L80.4295 17.1655H73.4695L72.0535 21.2455H69.3175ZM74.2375 14.8615H79.6375L76.9975 7.3495H76.8775L74.2375 14.8615Z" fill="black"/>
</svg>
