<svg width="24" height="25" viewBox="0 0 24 25" fill="none" xmlns="http://www.w3.org/2000/svg">
<path fill-rule="evenodd" clip-rule="evenodd" d="M0.0373597 13.2157C1.3772 12.3967 2.84454 11.9187 4.33986 12.1244C6.75921 12.4571 8.14676 13.9567 9.4484 15.3634C11.0239 17.066 12.4735 18.6326 15.4744 17.8297C18.2691 17.0819 19.2741 14.3587 20.3216 11.5202C20.9631 9.78174 21.6207 8.00003 22.7151 6.60241C23.5362 8.22785 23.9988 10.0653 23.9988 12.0108C23.9988 18.644 18.6215 24.0214 11.9882 24.0214C5.76165 24.0214 0.641738 19.2832 0.0373597 13.2157ZM-0.000976562 11.2888C0.372391 4.9917 5.5974 0.000244141 11.9882 0.000244141C14.3219 0.000244141 16.5001 0.66582 18.3435 1.8175C17.4822 3.36625 16.8557 5.51672 16.2638 7.54795C15.2202 11.1296 14.2847 14.3404 12.3613 13.2277C11.9838 13.0093 11.606 12.6513 11.1737 12.2418C9.79993 10.9403 7.87635 9.11791 3.66586 9.59697C2.35057 9.74662 1.11613 10.386 -0.000976562 11.2888Z" fill="black"/>
</svg>
