<svg width="16" height="16" viewBox="0 0 16 16" fill="none" xmlns="http://www.w3.org/2000/svg">
<g clip-path="url(#clip0_219_424)">
<path d="M7.99398 1.33325C4.31398 1.33325 1.33398 4.31992 1.33398 7.99992C1.33398 11.6799 4.31398 14.6666 7.99398 14.6666C11.6807 14.6666 14.6673 11.6799 14.6673 7.99992C14.6673 4.31992 11.6807 1.33325 7.99398 1.33325ZM12.614 5.33325H10.6473C10.4387 4.50756 10.1297 3.71052 9.72732 2.95992C10.9434 3.37859 11.9681 4.22107 12.614 5.33325ZM8.00065 2.69325C8.55398 3.49325 8.98732 4.37992 9.27398 5.33325H6.72732C7.01398 4.37992 7.44732 3.49325 8.00065 2.69325ZM2.84065 9.33325C2.73398 8.90658 2.66732 8.45992 2.66732 7.99992C2.66732 7.53992 2.73398 7.09325 2.84065 6.66658H5.09398C5.04065 7.10659 5.00065 7.54659 5.00065 7.99992C5.00065 8.45325 5.04065 8.89325 5.09398 9.33325H2.84065ZM3.38732 10.6666H5.35398C5.56732 11.4999 5.87398 12.2999 6.27398 13.0399C5.05663 12.6235 4.03121 11.7805 3.38732 10.6666ZM5.35398 5.33325H3.38732C4.03121 4.21937 5.05663 3.3763 6.27398 2.95992C5.8716 3.71052 5.56264 4.50756 5.35398 5.33325ZM8.00065 13.3066C7.44732 12.5066 7.01398 11.6199 6.72732 10.6666H9.27398C8.98732 11.6199 8.55398 12.5066 8.00065 13.3066ZM9.56065 9.33325H6.44065C6.38065 8.89325 6.33398 8.45325 6.33398 7.99992C6.33398 7.54659 6.38065 7.09992 6.44065 6.66658H9.56065C9.62065 7.09992 9.66732 7.54659 9.66732 7.99992C9.66732 8.45325 9.62065 8.89325 9.56065 9.33325ZM9.72732 13.0399C10.1273 12.2999 10.434 11.4999 10.6473 10.6666H12.614C11.9681 11.7788 10.9434 12.6212 9.72732 13.0399ZM10.9073 9.33325C10.9607 8.89325 11.0007 8.45325 11.0007 7.99992C11.0007 7.54659 10.9607 7.10659 10.9073 6.66658H13.1607C13.2673 7.09325 13.334 7.53992 13.334 7.99992C13.334 8.45992 13.2673 8.90658 13.1607 9.33325H10.9073Z" fill="black"/>
</g>
<defs>
<clipPath id="clip0_219_424">
<rect width="16" height="16" fill="white"/>
</clipPath>
</defs>
</svg>
