<svg width="166" height="170" viewBox="0 0 166 170" fill="none" xmlns="http://www.w3.org/2000/svg">
<g clip-path="url(#clip0_122_5577)">
<path d="M25.6729 58.0155C23.6939 45.2608 29.0045 31.6654 39.1844 23.4141L39.5404 23.8558C29.5028 31.9932 24.2776 45.3748 26.2282 57.93L25.6729 58.0155Z" fill="white" fill-opacity="0.5"/>
<path d="M40.4083 26.4353L42.6721 21.2622L37.0625 21.875L40.4083 26.4353Z" fill="white" fill-opacity="0.5"/>
<mask id="mask0_122_5577" style="mask-type:luminance" maskUnits="userSpaceOnUse" x="102" y="59" width="13" height="3">
<path d="M104.207 61.2365L102.441 61.1795C105.887 59.1843 111.539 59.1843 114.999 61.1795L113.248 61.2365C110.756 59.7971 106.67 59.7971 104.207 61.2365Z" fill="white"/>
</mask>
<g mask="url(#mask0_122_5577)">
<path d="M104.207 61.2365L102.441 61.1795C105.887 59.1843 111.539 59.1843 114.999 61.1795L113.248 61.2365C110.756 59.7971 106.67 59.7971 104.207 61.2365Z" fill="#FAFBFE"/>
</g>
<path d="M113.248 61.2363L114.999 61.165L159.221 86.7313L157.47 86.7883L113.248 61.2363Z" fill="#FAFBFE"/>
<path d="M161.827 90.394L161.813 94.5696C161.813 95.8807 160.959 97.1918 159.25 98.1893L159.264 94.0138C160.973 93.0162 161.827 91.7051 161.827 90.394Z" fill="url(#paint0_linear_122_5577)"/>
<mask id="mask1_122_5577" style="mask-type:luminance" maskUnits="userSpaceOnUse" x="159" y="90" width="3" height="9">
<path d="M161.827 90.394L161.813 94.5696C161.813 95.8807 160.959 97.1918 159.25 98.1893L159.264 94.0138C160.973 93.0162 161.827 91.7051 161.827 90.394Z" fill="white"/>
</mask>
<g mask="url(#mask1_122_5577)">
<path d="M161.827 90.394L161.813 94.5696C161.813 95.8807 160.959 97.1918 159.25 98.1893L159.264 94.0138C160.973 93.0162 161.827 91.7051 161.827 90.394Z" fill="url(#paint1_linear_122_5577)"/>
</g>
<mask id="mask2_122_5577" style="mask-type:luminance" maskUnits="userSpaceOnUse" x="157" y="86" width="5" height="9">
<path d="M157.471 86.7885L159.222 86.7314C162.682 88.7266 162.71 92.0043 159.265 94.0137L157.499 92.0328C159.977 90.5935 159.962 88.2278 157.471 86.7885Z" fill="white"/>
</mask>
<g mask="url(#mask2_122_5577)">
<path d="M157.471 86.7885L159.222 86.7314C160.945 87.729 161.813 89.0401 161.827 90.3512L159.35 89.3964C159.336 88.4558 158.709 87.501 157.471 86.7885Z" fill="#FAFBFE"/>
<path d="M159.351 89.3965L161.828 90.3513C161.842 91.6766 160.988 93.0162 159.265 94.0138L157.5 92.0329C158.753 91.3061 159.365 90.3513 159.351 89.3965Z" fill="#FAFBFE"/>
</g>
<path d="M4.84164 119.024L3.07617 118.967L102.441 61.165L104.206 61.2363L4.84164 119.024Z" fill="#FAFBFE"/>
<mask id="mask3_122_5577" style="mask-type:luminance" maskUnits="userSpaceOnUse" x="0" y="118" width="5" height="9">
<path d="M4.87189 124.269L3.12066 126.25C-0.339085 124.254 -0.36756 120.977 3.07795 118.967L4.84342 119.024C2.3803 120.464 2.3803 122.829 4.87189 124.269Z" fill="white"/>
</mask>
<g mask="url(#mask3_122_5577)">
<path d="M4.87185 124.269L3.12062 126.25C0.814124 124.924 0.0452915 123.029 0.785649 121.319L3.19181 120.72C2.66502 121.946 3.22028 123.314 4.87185 124.269Z" fill="#FAFBFE"/>
<path d="M3.19132 120.72L0.785156 121.319C1.15533 120.449 1.92417 119.637 3.07742 118.967L4.84288 119.024C4.0171 119.509 3.46183 120.093 3.19132 120.72Z" fill="#FAFBFE"/>
</g>
<path d="M0.5 126.748L0.514238 122.573C0.514238 123.898 1.38273 125.238 3.11973 126.235L3.10549 130.411C1.3685 129.413 0.5 128.074 0.5 126.748Z" fill="#FAFBFE"/>
<mask id="mask4_122_5577" style="mask-type:luminance" maskUnits="userSpaceOnUse" x="0" y="122" width="4" height="9">
<path d="M0.5 126.748L0.514238 122.573C0.514238 123.898 1.38273 125.238 3.11973 126.235L3.10549 130.411C1.3685 129.413 0.5 128.074 0.5 126.748Z" fill="white"/>
</mask>
<g mask="url(#mask4_122_5577)">
<path d="M3.11973 126.249L3.10549 130.425C1.3685 129.413 0.5 128.074 0.5 126.748L0.514238 122.573C0.514238 123.912 1.38273 125.238 3.11973 126.249Z" fill="#FAFBFE"/>
</g>
<path d="M157.499 92.0327L159.264 94.0136L59.8997 151.801L58.1484 149.82L157.499 92.0327Z" fill="#FAFBFE"/>
<path d="M159.265 94.0137L159.251 98.175L59.9004 155.977V151.801L159.265 94.0137Z" fill="url(#paint2_linear_122_5577)"/>
<path d="M47.3418 151.802V155.977L3.10547 130.411L3.11971 126.25L47.3418 151.802Z" fill="#FAFBFE"/>
<path d="M49.1067 149.821L47.3412 151.801L3.11914 126.249L4.87037 124.269L49.1067 149.821Z" fill="#FAFBFE"/>
<path d="M59.9 151.801L59.8857 155.977C56.4402 157.972 50.7879 157.972 47.3281 155.977L47.3424 151.801C50.8163 153.811 56.4687 153.811 59.9 151.801Z" fill="url(#paint3_linear_122_5577)"/>
<mask id="mask5_122_5577" style="mask-type:luminance" maskUnits="userSpaceOnUse" x="47" y="151" width="13" height="7">
<path d="M59.9 151.801L59.8857 155.977C56.4402 157.972 50.7879 157.972 47.3281 155.977L47.3424 151.801C50.8163 153.811 56.4687 153.811 59.9 151.801Z" fill="white"/>
</mask>
<g mask="url(#mask5_122_5577)">
<path d="M59.9 151.801L59.8857 155.977C56.4402 157.972 50.7879 157.972 47.3281 155.977L47.3424 151.801C50.8163 153.811 56.4687 153.811 59.9 151.801Z" fill="url(#paint4_linear_122_5577)"/>
</g>
<mask id="mask6_122_5577" style="mask-type:luminance" maskUnits="userSpaceOnUse" x="47" y="149" width="13" height="5">
<path d="M58.1476 149.821L59.9131 151.802C56.4676 153.797 50.8152 153.797 47.3555 151.802L49.1067 149.821C51.584 151.26 55.6703 151.26 58.1476 149.821Z" fill="white"/>
</mask>
<g mask="url(#mask6_122_5577)">
<path d="M58.1469 149.821L59.9123 151.802C59.0153 152.329 57.9618 152.714 56.8228 152.97L55.9258 150.662C56.7373 150.476 57.4919 150.206 58.1469 149.821Z" fill="#FAFBFE"/>
<path d="M55.9269 150.662L56.8239 152.97C54.3466 153.526 51.499 153.398 49.1641 152.614L50.4027 150.405C52.097 150.975 54.133 151.061 55.9269 150.662Z" fill="#FAFBFE"/>
<path d="M50.4023 150.405L49.1636 152.614C48.5087 152.4 47.9107 152.129 47.3555 151.802L49.1067 149.821C49.5054 150.063 49.9325 150.248 50.4023 150.405Z" fill="#FAFBFE"/>
</g>
<path d="M157.471 86.7883L113.249 61.2363C110.771 59.7969 106.671 59.7969 104.208 61.2363L102.101 62.4618L4.84329 119.024C2.36594 120.463 2.38018 122.829 4.87176 124.268L49.0939 149.82C51.5712 151.26 55.6717 151.26 58.1348 149.82L155.392 93.2582L157.499 92.0326C159.977 90.5933 159.962 88.2276 157.471 86.7883Z" fill="#484853"/>
<path d="M157.499 92.0326C159.976 90.5933 159.962 88.2276 157.471 86.7883L113.248 61.2363C110.771 59.7969 106.671 59.7969 104.208 61.2363H104.193L157.499 92.0326Z" fill="#FAFBFE"/>
<path d="M102.2 40.401L93.8848 45.2321C97.4299 43.1657 102.342 43.4649 107.752 46.5859L116.067 41.7548C110.657 38.6338 105.745 38.3346 102.2 40.401Z" fill="url(#paint5_linear_122_5577)"/>
<mask id="mask7_122_5577" style="mask-type:luminance" maskUnits="userSpaceOnUse" x="93" y="39" width="24" height="8">
<path d="M102.2 40.401L93.8848 45.2321C97.4299 43.1657 102.342 43.4649 107.752 46.5859L116.067 41.7548C110.657 38.6338 105.745 38.3346 102.2 40.401Z" fill="white"/>
</mask>
<g mask="url(#mask7_122_5577)">
<path d="M107.766 46.6L116.081 41.769C110.656 38.6337 105.758 38.3487 102.213 40.4151L93.8984 45.2462C97.4294 43.1655 102.341 43.4648 107.766 46.6Z" fill="url(#paint6_linear_122_5577)"/>
</g>
<path d="M121.506 92.8303L129.82 87.9992C133.323 85.9614 135.501 81.6291 135.515 75.4869C135.544 63.0885 126.845 47.9967 116.067 41.769L107.752 46.6001C118.53 52.8278 127.229 67.9196 127.201 80.318C127.186 86.4601 125.008 90.7924 121.506 92.8303Z" fill="url(#paint7_linear_122_5577)"/>
<mask id="mask8_122_5577" style="mask-type:luminance" maskUnits="userSpaceOnUse" x="107" y="41" width="29" height="52">
<path d="M121.506 92.8303L129.82 87.9992C133.323 85.9614 135.501 81.6291 135.515 75.4869C135.544 63.0885 126.845 47.9967 116.067 41.769L107.752 46.6001C118.53 52.8278 127.229 67.9196 127.201 80.318C127.186 86.4601 125.008 90.7924 121.506 92.8303Z" fill="white"/>
</mask>
<g mask="url(#mask8_122_5577)">
<path d="M121.506 92.8303L129.82 87.9992C133.323 85.9614 135.501 81.6291 135.515 75.4869C135.544 63.0885 126.845 47.9967 116.067 41.769L107.752 46.6001C118.53 52.8278 127.229 67.9196 127.201 80.318C127.186 86.4601 125.008 90.7924 121.506 92.8303Z" fill="url(#paint8_linear_122_5577)"/>
</g>
<path d="M107.766 46.6001C96.9878 40.3725 88.2317 45.3888 88.2032 57.7729C88.1747 70.157 96.8739 85.2488 107.652 91.4765C118.43 97.7042 127.186 92.6878 127.214 80.318C127.243 67.9196 118.529 52.8136 107.766 46.6001Z" fill="url(#paint9_linear_122_5577)"/>
<path d="M107.738 53.5548C100.306 49.2653 94.2546 52.714 94.2403 61.2646C94.2119 69.801 100.22 80.2327 107.652 84.5222C115.084 88.8118 121.135 85.363 121.149 76.8267C121.178 68.2618 115.17 57.8444 107.738 53.5548Z" fill="#15151A"/>
<path d="M32.2777 81.9L23.9629 86.7311C27.5081 84.6647 32.42 84.9639 37.8304 88.0849L46.1451 83.2538C40.7206 80.1186 35.8228 79.8336 32.2777 81.9Z" fill="url(#paint10_linear_122_5577)"/>
<mask id="mask9_122_5577" style="mask-type:luminance" maskUnits="userSpaceOnUse" x="23" y="80" width="24" height="9">
<path d="M32.2777 81.9L23.9629 86.7311C27.5081 84.6647 32.42 84.9639 37.8304 88.0849L46.1451 83.2538C40.7206 80.1186 35.8228 79.8336 32.2777 81.9Z" fill="white"/>
</mask>
<g mask="url(#mask9_122_5577)">
<path d="M37.8304 88.0849L46.1451 83.2538C40.7206 80.1186 35.8228 79.8336 32.2777 81.9L23.9629 86.7311C27.5081 84.6647 32.42 84.9497 37.8304 88.0849Z" fill="url(#paint11_linear_122_5577)"/>
</g>
<path d="M51.5836 134.329L59.8984 129.498C63.4009 127.46 65.5792 123.128 65.5935 116.972C65.622 104.573 56.9228 89.4816 46.1449 83.2539L37.8301 88.085C48.608 94.3127 57.3072 109.419 57.2787 121.803C57.2645 127.959 55.0861 132.292 51.5836 134.329Z" fill="url(#paint12_linear_122_5577)"/>
<mask id="mask10_122_5577" style="mask-type:luminance" maskUnits="userSpaceOnUse" x="37" y="83" width="29" height="52">
<path d="M51.5836 134.329L59.8984 129.498C63.4009 127.46 65.5792 123.128 65.5935 116.972C65.622 104.573 56.9228 89.4816 46.1449 83.2539L37.8301 88.085C48.608 94.3127 57.3072 109.419 57.2787 121.803C57.2645 127.959 55.0861 132.292 51.5836 134.329Z" fill="white"/>
</mask>
<g mask="url(#mask10_122_5577)">
<path d="M51.5836 134.329L59.8984 129.498C63.4009 127.46 65.5792 123.128 65.5935 116.972C65.622 104.573 56.9228 89.4816 46.1449 83.2539L37.8301 88.085C48.608 94.3127 57.3072 109.419 57.2787 121.803C57.2645 127.959 55.0861 132.292 51.5836 134.329Z" fill="url(#paint13_linear_122_5577)"/>
</g>
<path d="M37.8302 88.085C27.0523 81.8573 18.2961 86.8737 18.2676 99.2578C18.2392 111.642 26.9384 126.734 37.7163 132.961C48.4942 139.189 57.2503 134.173 57.2788 121.803C57.3215 109.419 48.6081 94.3127 37.8302 88.085Z" fill="url(#paint14_linear_122_5577)"/>
<path d="M26.6552 92.6735L23.8789 94.2839C26.6837 92.6593 30.5706 92.8873 34.8561 95.3527L37.6325 93.7423C33.3469 91.2627 29.4601 91.0346 26.6552 92.6735Z" fill="#FAFBFE"/>
<mask id="mask11_122_5577" style="mask-type:luminance" maskUnits="userSpaceOnUse" x="23" y="91" width="15" height="5">
<path d="M26.6552 92.6735L23.8789 94.2839C26.6837 92.6593 30.5706 92.8873 34.8561 95.3527L37.6325 93.7423C33.3469 91.2627 29.4601 91.0346 26.6552 92.6735Z" fill="white"/>
</mask>
<g mask="url(#mask11_122_5577)">
<path d="M34.8561 95.3527L37.6325 93.7423C33.3469 91.2627 29.4601 91.0346 26.6552 92.6735L23.8789 94.2839C26.698 92.645 30.5706 92.8873 34.8561 95.3527Z" fill="#FAFBFE"/>
</g>
<path d="M45.7473 131.949L48.5236 130.339C51.2999 128.728 53.0227 125.294 53.0227 120.42C53.0512 110.615 46.1602 98.673 37.6318 93.7422L34.8555 95.3526C43.3838 100.283 50.2748 112.226 50.2464 122.03C50.2321 126.904 48.5236 130.339 45.7473 131.949Z" fill="#FAFBFE"/>
<mask id="mask12_122_5577" style="mask-type:luminance" maskUnits="userSpaceOnUse" x="34" y="93" width="20" height="39">
<path d="M45.7473 131.949L48.5236 130.339C51.2999 128.728 53.0227 125.294 53.0227 120.42C53.0512 110.615 46.1602 98.673 37.6318 93.7422L34.8555 95.3526C43.3838 100.283 50.2748 112.226 50.2464 122.03C50.2321 126.904 48.5236 130.339 45.7473 131.949Z" fill="white"/>
</mask>
<g mask="url(#mask12_122_5577)">
<path d="M45.7473 131.949L48.5236 130.339C51.2999 128.728 53.0227 125.294 53.0227 120.42C53.0512 110.615 46.1602 98.673 37.6318 93.7422L34.8555 95.3526C43.3838 100.283 50.2748 112.226 50.2464 122.03C50.2321 126.904 48.5236 130.339 45.7473 131.949Z" fill="#FAFBFE"/>
</g>
<path d="M34.8553 95.3528C26.3412 90.4363 19.4075 94.3838 19.379 104.203C19.3505 113.993 26.2415 125.964 34.7556 130.881C43.284 135.811 50.2177 131.835 50.2462 122.045C50.2747 112.226 43.3837 100.284 34.8553 95.3528Z" fill="#FAFBFE"/>
<path d="M26.6552 92.6735L23.8789 94.2839C26.6837 92.6593 30.5706 92.8873 34.8561 95.3527L37.6325 93.7423C33.3469 91.2627 29.4601 91.0346 26.6552 92.6735Z" fill="#FAFBFE"/>
<mask id="mask13_122_5577" style="mask-type:luminance" maskUnits="userSpaceOnUse" x="23" y="91" width="15" height="5">
<path d="M26.6552 92.6735L23.8789 94.2839C26.6837 92.6593 30.5706 92.8873 34.8561 95.3527L37.6325 93.7423C33.3469 91.2627 29.4601 91.0346 26.6552 92.6735Z" fill="white"/>
</mask>
<g mask="url(#mask13_122_5577)">
<path d="M34.8561 95.3527L37.6325 93.7423C33.3469 91.2627 29.4601 91.0346 26.6552 92.6735L23.8789 94.2839C26.698 92.645 30.5706 92.8873 34.8561 95.3527Z" fill="#FAFBFE"/>
</g>
<path d="M45.7473 131.949L48.5236 130.339C51.2999 128.728 53.0227 125.294 53.0227 120.42C53.0512 110.615 46.1602 98.673 37.6318 93.7422L34.8555 95.3526C43.3838 100.283 50.2748 112.226 50.2464 122.03C50.2321 126.904 48.5236 130.339 45.7473 131.949Z" fill="#FAFBFE"/>
<mask id="mask14_122_5577" style="mask-type:luminance" maskUnits="userSpaceOnUse" x="34" y="93" width="20" height="39">
<path d="M45.7473 131.949L48.5236 130.339C51.2999 128.728 53.0227 125.294 53.0227 120.42C53.0512 110.615 46.1602 98.673 37.6318 93.7422L34.8555 95.3526C43.3838 100.283 50.2748 112.226 50.2464 122.03C50.2321 126.904 48.5236 130.339 45.7473 131.949Z" fill="white"/>
</mask>
<g mask="url(#mask14_122_5577)">
<path d="M45.7473 131.949L48.5236 130.339C51.2999 128.728 53.0227 125.294 53.0227 120.42C53.0512 110.615 46.1602 98.673 37.6318 93.7422L34.8555 95.3526C43.3838 100.283 50.2748 112.226 50.2464 122.03C50.2321 126.904 48.5236 130.339 45.7473 131.949Z" fill="#FAFBFE"/>
</g>
<path d="M34.8553 95.3528C26.3412 90.4363 19.4075 94.3838 19.379 104.203C19.3505 113.993 26.2415 125.964 34.7556 130.881C43.284 135.811 50.2177 131.835 50.2462 122.045C50.2747 112.226 43.3837 100.284 34.8553 95.3528Z" fill="#FAFBFE"/>
<path d="M34.8409 100.34C28.7045 96.792 23.7213 99.6422 23.7071 106.711C23.6928 113.765 28.6475 122.373 34.7697 125.907C40.9061 129.455 45.9035 126.605 45.9178 119.551C45.9463 112.482 40.9916 103.875 34.8409 100.34Z" fill="url(#paint15_linear_122_5577)"/>
<path d="M97.8984 12.2554L109.872 19.2241C116.322 22.9721 120.337 30.9527 120.365 42.2822C120.365 44.6194 120.209 47.042 119.881 49.4932L107.907 42.5245C108.235 40.0733 108.392 37.6506 108.392 35.3135C108.363 23.9839 104.362 16.0176 97.8984 12.2554Z" fill="#FAFBFE"/>
<path d="M98.7099 10.873L110.684 17.8417C103.935 13.9227 94.6095 14.4642 84.3157 20.4069L72.3418 13.4382C82.6356 7.49551 91.9613 6.95397 98.7099 10.873Z" fill="#FAFBFE"/>
<mask id="mask15_122_5577" style="mask-type:luminance" maskUnits="userSpaceOnUse" x="72" y="8" width="39" height="13">
<path d="M98.7099 10.873L110.684 17.8417C103.935 13.9227 94.6095 14.4642 84.3157 20.4069L72.3418 13.4382C82.6356 7.49551 91.9613 6.95397 98.7099 10.873Z" fill="white"/>
</mask>
<g mask="url(#mask15_122_5577)">
<path d="M84.3157 20.3929L72.3418 13.4241C76.2571 11.1582 80.0444 9.67611 83.5895 8.93506L95.5634 15.9038C92.0182 16.6591 88.231 18.1412 84.3157 20.3929Z" fill="#FAFBFE"/>
</g>
<path d="M47.896 91.3054L35.9221 84.3366C35.5662 82.2132 35.3953 79.9046 35.3811 77.4962C35.3099 53.982 51.8967 25.2378 72.3278 13.438L84.3016 20.4067C63.8564 32.2208 47.2838 60.9508 47.3549 84.4649C47.3692 86.8733 47.5543 89.1677 47.896 91.3054Z" fill="#FAFBFE"/>
<mask id="mask16_122_5577" style="mask-type:luminance" maskUnits="userSpaceOnUse" x="35" y="13" width="50" height="79">
<path d="M47.896 91.3054L35.9221 84.3366C35.5662 82.2132 35.3953 79.9046 35.3811 77.4962C35.3099 53.982 51.8967 25.2378 72.3278 13.438L84.3016 20.4067C63.8564 32.2208 47.2838 60.9508 47.3549 84.4649C47.3692 86.8733 47.5543 89.1677 47.896 91.3054Z" fill="white"/>
</mask>
<g mask="url(#mask16_122_5577)">
<path d="M47.8959 91.3056L35.9221 84.3369C35.5661 82.2135 35.3953 79.9048 35.381 77.4964C35.3383 61.4925 43.0124 43.0518 54.3598 29.1855L66.3337 36.1543C54.9863 50.0205 47.3122 68.447 47.3549 84.4651C47.3691 86.8735 47.5542 89.1679 47.8959 91.3056Z" fill="#FAFBFE"/>
<path d="M66.3332 36.1542L54.3594 29.1854C59.6843 22.687 65.8064 17.2003 72.3415 13.4238L84.3154 20.3926C77.7945 24.1691 71.6581 29.67 66.3332 36.1542Z" fill="#FAFBFE"/>
</g>
<path d="M38.4848 87.1587C38.1004 87.1587 37.7587 86.8737 37.6875 86.4889C37.3316 84.223 37.1465 81.7861 37.1465 79.2351C37.1465 54.4954 54.5591 24.3118 75.9583 11.9562C86.4799 5.87107 96.4035 4.91625 103.921 9.2628C111.438 13.6094 115.567 22.6872 115.567 34.8433C115.567 37.3942 115.382 40.0307 115.026 42.6956C114.969 43.1374 114.557 43.4509 114.129 43.3797C113.688 43.3227 113.389 42.9094 113.446 42.4818C113.802 39.8882 113.973 37.323 113.973 34.8433C113.973 23.2858 110.114 14.6924 103.124 10.6451C96.133 6.59787 86.7647 7.55268 76.7698 13.3386C55.812 25.4519 38.7553 55.0085 38.7553 79.2351C38.7553 81.7006 38.9262 84.052 39.2821 86.2324C39.3533 86.6741 39.0543 87.0874 38.613 87.1587C38.5702 87.1587 38.5275 87.1587 38.4848 87.1587Z" fill="#15151A"/>
<path d="M43.7094 90.0229C43.325 90.0229 42.9833 89.7379 42.9121 89.3531C42.5562 87.0872 42.3711 84.6503 42.3711 82.0994C42.3711 57.3597 59.7837 27.1761 81.1829 14.8205C91.7045 8.73533 101.628 7.78051 109.146 12.1271C116.663 16.4736 120.792 25.5515 120.792 37.7076C120.792 40.2585 120.607 42.8949 120.251 45.5599C120.194 46.0016 119.781 46.3152 119.354 46.2439C118.913 46.1869 118.614 45.7736 118.671 45.3461C119.027 42.7524 119.197 40.1872 119.197 37.7076C119.197 26.15 115.339 17.5567 108.348 13.5094C101.358 9.46213 91.9893 10.4169 81.9944 16.2028C61.0366 28.3162 43.9799 57.8727 43.9799 82.0994C43.9799 84.5648 44.1508 86.9162 44.5067 89.0966C44.5779 89.5384 44.2789 89.9517 43.8376 90.0229C43.7949 90.0087 43.7521 90.0229 43.7094 90.0229Z" fill="#15151A"/>
<path d="M120.366 42.2825C120.366 44.6197 120.209 47.0423 119.882 49.4935L107.908 42.5248C108.235 40.0736 108.392 37.6509 108.378 35.3138C108.349 26.4782 105.915 19.6804 101.771 15.3481C102.327 15.3766 102.868 15.4051 103.395 15.4764L109.858 19.2387C116.322 22.9867 120.337 30.953 120.366 42.2825Z" fill="#FAFBFE"/>
<path d="M84.3165 20.3928C104.762 8.59301 121.434 18.0984 121.505 41.6125C121.505 44.021 121.349 46.5291 121.007 49.0516L119.882 49.4791C120.21 47.0279 120.366 44.6053 120.366 42.2681C120.309 19.4808 104.135 10.2604 84.3165 21.7039C64.4977 33.1617 48.4377 61.0081 48.4946 83.7955C48.4946 86.1326 48.6797 88.3558 49.0214 90.4222L47.8966 91.2915C47.5407 89.1681 47.3699 86.8594 47.3556 84.451C47.2987 60.9511 63.8713 32.2069 84.3165 20.3928Z" fill="#FAFBFE"/>
<path d="M100.179 38.9337L95.9645 36.4825C91.6505 33.9743 85.6565 34.3306 79.0645 38.1356L83.2788 40.5868C89.8851 36.7675 95.8649 36.4112 100.179 38.9337Z" fill="#FDE5A8"/>
<mask id="mask17_122_5577" style="mask-type:luminance" maskUnits="userSpaceOnUse" x="79" y="34" width="22" height="7">
<path d="M100.179 38.9337L95.9645 36.4825C91.6505 33.9743 85.6565 34.3306 79.0645 38.1356L83.2788 40.5868C89.8851 36.7675 95.8649 36.4112 100.179 38.9337Z" fill="white"/>
</mask>
<g mask="url(#mask17_122_5577)">
<path d="M100.179 38.9337L95.9645 36.4825C91.6505 33.9743 85.6565 34.3306 79.0645 38.1356L83.2788 40.5868C89.8851 36.7675 95.8649 36.4112 100.179 38.9337Z" fill="#FDE5A8"/>
</g>
<path d="M62.3206 94.4413L66.5349 96.8925C62.2779 94.4128 59.6297 89.1399 59.6012 81.6439C59.5585 66.5521 70.1655 48.1826 83.2784 40.6011L79.064 38.1499C65.9512 45.7314 55.3441 64.1152 55.3868 79.1927C55.4153 86.6888 58.0493 91.9616 62.3206 94.4413Z" fill="#FDE5A8"/>
<mask id="mask18_122_5577" style="mask-type:luminance" maskUnits="userSpaceOnUse" x="55" y="38" width="29" height="59">
<path d="M62.3206 94.4413L66.5349 96.8925C62.2779 94.4128 59.6297 89.1399 59.6012 81.6439C59.5585 66.5521 70.1655 48.1826 83.2784 40.6011L79.064 38.1499C65.9512 45.7314 55.3441 64.1152 55.3868 79.1927C55.4153 86.6888 58.0493 91.9616 62.3206 94.4413Z" fill="white"/>
</mask>
<g mask="url(#mask18_122_5577)">
<path d="M83.2784 40.5869L79.064 38.1357C65.9512 45.7173 55.3441 64.101 55.3868 79.1786C55.4153 86.6746 58.0493 91.9475 62.3206 94.4271L66.5349 96.8783C62.2779 94.3986 59.6297 89.1258 59.6012 81.6297C59.5585 66.5522 70.1655 48.1684 83.2784 40.5869Z" fill="#FDE5A8"/>
</g>
<path d="M83.2789 40.5868C70.166 48.1683 59.559 66.5521 59.6017 81.6296C59.6444 96.7214 70.3084 102.807 83.4355 95.2251C96.5484 87.6436 107.155 69.2598 107.113 54.1822C107.07 39.0904 96.406 33.0053 83.2789 40.5868Z" fill="#FDE5A8"/>
<path d="M76.4868 65.8394C76.4868 68.2763 74.7783 71.2263 72.6712 72.4519C70.564 73.6632 68.8555 72.6799 68.8555 70.243C68.8555 67.8061 70.564 64.8561 72.6712 63.6305C74.7783 62.4192 76.4868 63.4025 76.4868 65.8394Z" fill="#15151A"/>
<path d="M97.6724 53.5977C97.6724 56.0346 95.9639 58.9846 93.8567 60.2102C91.7495 61.4215 90.041 60.4382 90.041 58.0013C90.041 55.5644 91.7495 52.6144 93.8567 51.3888C95.9639 50.1917 97.6724 51.1751 97.6724 53.5977Z" fill="#15151A"/>
<path d="M78.2816 86.2754C74.95 86.2754 72.373 84.1378 71.476 80.4753C71.3479 79.9765 71.6611 79.4634 72.1594 79.3494C72.6577 79.2212 73.1703 79.5347 73.2842 80.0335C74.0957 83.3825 76.5161 84.9501 79.7481 84.2375C83.2648 83.4537 87.3225 80.0192 90.0704 75.4732C91.5938 72.9507 92.7186 70.1291 93.2026 67.5211C93.3023 67.0081 93.7864 66.6803 94.2989 66.7801C94.8115 66.8798 95.139 67.3644 95.0393 67.8774C94.4983 70.7418 93.3308 73.6918 91.665 76.4422C88.6181 81.4871 84.2045 85.1638 80.1467 86.0759C79.5203 86.2042 78.8938 86.2754 78.2816 86.2754Z" fill="#15151A"/>
<path d="M68.4994 84.5078L65.2817 86.3604C64.2993 86.9304 63.502 86.4602 63.502 85.3343C63.502 84.2085 64.2993 82.8119 65.2817 82.2561L68.4994 80.4035C69.4818 79.8335 70.2791 80.3037 70.2791 81.4296C70.2648 82.5554 69.4675 83.9377 68.4994 84.5078Z" fill="#E07E7E"/>
<path d="M101.275 65.5542L98.057 67.4068C97.0747 67.9768 96.2773 67.5065 96.2773 66.3807C96.2773 65.2549 97.0747 63.8583 98.057 63.3025L101.275 61.4499C102.257 60.8798 103.054 61.3501 103.054 62.4759C103.054 63.6018 102.257 64.9984 101.275 65.5542Z" fill="#E07E7E"/>
<path d="M51.8703 18.6971L51.7137 18.6829C47.1007 18.0843 45.2498 16.0892 44.5094 14.5073C43.3562 12.0276 44.182 9.17745 45.3494 7.35333C46.104 6.15624 47.2146 5.07317 48.2966 4.44612C49.6634 3.66232 50.8452 3.66232 51.6282 4.41762C52.5679 2.23722 54.0202 1.1399 54.8317 0.669613C55.9565 0.0140681 57.1097 -0.171195 57.9355 0.170829C58.6189 0.455849 59.103 1.05439 59.3308 1.93795C60.2278 5.28693 57.4657 11.5146 51.9699 18.5831L51.8703 18.6971ZM50.1902 4.41762C49.6065 4.41762 48.9943 4.68839 48.5814 4.93066C47.5705 5.51495 46.5454 6.52677 45.8335 7.6526C44.7515 9.36271 43.9684 11.9991 45.022 14.2651C45.9759 16.3172 48.2682 17.6283 51.6282 18.0986C59.5159 7.90911 59.103 3.26329 58.7898 2.08046C58.6047 1.38216 58.2345 0.897629 57.722 0.698115C57.067 0.427347 56.0846 0.598358 55.1165 1.1684C53.7497 1.9522 52.6106 3.3773 51.9842 5.07317L51.7849 5.60045L51.4716 5.11592C51.1299 4.58863 50.6601 4.41762 50.1902 4.41762Z" fill="white" fill-opacity="0.5"/>
<path d="M162.253 46.6433L161.114 42.938C161.1 42.881 161.057 42.8098 161.029 42.7528C160.986 42.6958 160.972 42.6673 160.958 42.6673L155.405 39.4608C155.135 39.304 154.878 39.0475 154.707 38.7483C154.537 38.449 154.451 38.0927 154.451 37.7649V34.5015L158.922 37.0809C159.192 37.2377 159.449 37.2804 159.619 37.1806C159.805 37.0809 159.904 36.8101 159.904 36.4396V33.8887L164.56 36.5821C164.83 36.7389 165.087 36.9954 165.258 37.2947C165.428 37.5939 165.514 37.9502 165.514 38.278V43.5793C165.514 44.0069 165.343 44.3631 165.058 44.5342C164.773 44.6909 164.418 44.6767 164.076 44.4772L163.478 44.1209L162.253 46.6433ZM155.006 35.4848V37.7649C155.006 37.993 155.078 38.2495 155.192 38.4632C155.305 38.677 155.491 38.8623 155.676 38.962L161.228 42.1685C161.314 42.2112 161.399 42.311 161.485 42.425C161.556 42.5248 161.613 42.653 161.641 42.7528L162.353 45.0614L163.093 43.5081L163.236 43.4511C163.307 43.4368 163.407 43.4226 163.521 43.4938L164.318 43.9641C164.489 44.0639 164.631 44.0781 164.731 44.0211C164.845 43.9499 164.916 43.7789 164.916 43.5651V38.2637C164.916 38.0357 164.845 37.7792 164.731 37.5654C164.603 37.3517 164.432 37.1664 164.247 37.0666L160.445 34.872V36.4396C160.445 37.0239 160.246 37.4514 159.876 37.6652C159.52 37.8647 159.078 37.8362 158.623 37.5654L155.006 35.4848Z" fill="white" fill-opacity="0.5"/>
<path d="M159.392 37.8079C159.15 37.8079 158.894 37.7366 158.638 37.5799L152.515 34.0456L151.277 36.6678L151.092 36.7106C150.949 36.7248 150.821 36.6678 150.693 36.5253L150.664 36.4968C150.565 36.3685 150.479 36.2118 150.422 36.0693L149.212 32.1502L148.572 31.7797C148.116 31.5232 147.675 31.0387 147.347 30.4401C147.005 29.8416 146.82 29.2003 146.82 28.6587V22.5023C146.82 21.918 147.02 21.4905 147.39 21.2767C147.746 21.0772 148.187 21.1057 148.643 21.3765L158.695 27.1909C159.15 27.4474 159.591 27.9319 159.919 28.5305C160.261 29.129 160.446 29.7703 160.446 30.3119V36.4683C160.446 37.0526 160.246 37.4801 159.876 37.6939C159.734 37.7651 159.577 37.8079 159.392 37.8079ZM152.259 33.2476L158.908 37.0953C159.179 37.2521 159.435 37.2948 159.606 37.1951C159.791 37.0953 159.89 36.8246 159.89 36.454V30.2976C159.89 29.8416 159.734 29.3143 159.435 28.787C159.15 28.274 158.78 27.8749 158.41 27.6612L148.358 21.8468C148.087 21.69 147.831 21.6473 147.66 21.747C147.475 21.8468 147.376 22.1175 147.376 22.4881V28.6445C147.376 29.1005 147.532 29.6278 147.831 30.1551C148.116 30.6681 148.486 31.0672 148.856 31.2809L149.696 31.7655L150.963 35.8982C150.963 35.9125 150.978 35.9267 150.978 35.941L152.259 33.2476ZM150.992 36.226L151.106 36.1548H151.092L150.992 36.226Z" fill="white" fill-opacity="0.5"/>
<path d="M151.191 28.1456C151.191 27.5898 150.793 26.9058 150.309 26.6208C149.824 26.3357 149.426 26.5637 149.426 27.1338C149.426 27.7038 149.824 28.3736 150.309 28.6586C150.793 28.9294 151.191 28.7014 151.191 28.1456Z" fill="white" fill-opacity="0.5"/>
<path d="M154.168 29.8556C154.168 29.2998 153.769 28.6157 153.285 28.3307C152.801 28.0457 152.402 28.2737 152.402 28.8437C152.402 29.4138 152.801 30.0836 153.285 30.3686C153.769 30.6536 154.168 30.4256 154.168 29.8556Z" fill="white" fill-opacity="0.5"/>
<path d="M157.142 31.5802C157.142 31.0244 156.744 30.3403 156.26 30.0553C155.776 29.7703 155.377 29.9983 155.377 30.5684C155.377 31.1241 155.776 31.8082 156.26 32.0932C156.744 32.3782 157.142 32.1502 157.142 31.5802Z" fill="white" fill-opacity="0.5"/>
<path d="M129.166 38.0504C128.654 38.0504 128.156 37.9791 127.672 37.8223L127.842 37.2808C129.665 37.8508 131.886 37.1668 133.367 35.5564C134.961 33.8321 135.474 31.4949 135.63 29.8418C135.716 28.9725 135.73 27.9179 135.559 26.7921C135.346 26.9203 135.132 27.0343 134.904 27.1341C132.569 28.2457 129.992 28.0177 128.241 27.6186C127.23 27.3906 125.806 26.9631 124.981 25.823C124.141 24.6687 124.155 22.9586 125.009 21.6902C125.778 20.5501 127.145 19.7948 128.654 19.6808C130.96 19.5098 133.352 20.8067 134.748 22.9871C135.331 23.8991 135.702 24.8824 135.929 25.8373C137.609 24.5832 138.962 22.5168 140.03 19.5953C140.856 17.3437 141.753 13.9377 141.297 10.5317L141.852 10.4604C142.322 13.9804 141.397 17.4719 140.557 19.7948C139.403 22.9443 137.923 25.139 136.043 26.4501C136.271 27.7041 136.257 28.9155 136.171 29.8845C136.015 31.6232 135.474 34.0886 133.765 35.927C132.541 37.2951 130.818 38.0504 129.166 38.0504ZM129.081 20.2509C128.953 20.2509 128.825 20.2509 128.711 20.2651C127.358 20.3649 126.162 21.0204 125.493 22.018C124.781 23.0868 124.753 24.5547 125.45 25.5095C125.991 26.2648 126.917 26.7636 128.383 27.0913C130.049 27.4619 132.484 27.6899 134.676 26.6496C134.947 26.5213 135.203 26.3788 135.459 26.222C135.246 25.253 134.89 24.2554 134.292 23.3291C133.068 21.4195 131.06 20.2509 129.081 20.2509Z" fill="white" fill-opacity="0.5"/>
<path d="M144.899 11.8426L141.738 11.5149L139.289 13.567L140.058 6.04248L144.899 11.8426Z" fill="white" fill-opacity="0.5"/>
</g>
<defs>
<linearGradient id="paint0_linear_122_5577" x1="160.817" y1="91.5312" x2="163.688" y2="102.044" gradientUnits="userSpaceOnUse">
<stop stop-color="#0038FF"/>
<stop offset="1" stop-color="#6376F2"/>
</linearGradient>
<linearGradient id="paint1_linear_122_5577" x1="160.817" y1="91.5312" x2="163.688" y2="102.044" gradientUnits="userSpaceOnUse">
<stop stop-color="#0038FF"/>
<stop offset="1" stop-color="#6376F2"/>
</linearGradient>
<linearGradient id="paint2_linear_122_5577" x1="120.309" y1="103.053" x2="125.349" y2="192.565" gradientUnits="userSpaceOnUse">
<stop stop-color="#0038FF"/>
<stop offset="1" stop-color="#6376F2"/>
</linearGradient>
<linearGradient id="paint3_linear_122_5577" x1="54.9711" y1="152.629" x2="55.3054" y2="160.835" gradientUnits="userSpaceOnUse">
<stop stop-color="#0038FF"/>
<stop offset="1" stop-color="#6376F2"/>
</linearGradient>
<linearGradient id="paint4_linear_122_5577" x1="54.9711" y1="152.629" x2="55.3054" y2="160.835" gradientUnits="userSpaceOnUse">
<stop stop-color="#0038FF"/>
<stop offset="1" stop-color="#6376F2"/>
</linearGradient>
<linearGradient id="paint5_linear_122_5577" x1="107.37" y1="40.1775" x2="107.702" y2="51.0405" gradientUnits="userSpaceOnUse">
<stop stop-color="#0038FF"/>
<stop offset="1" stop-color="#6376F2"/>
</linearGradient>
<linearGradient id="paint6_linear_122_5577" x1="107.384" y1="40.1879" x2="107.716" y2="51.0572" gradientUnits="userSpaceOnUse">
<stop stop-color="#0038FF"/>
<stop offset="1" stop-color="#6376F2"/>
</linearGradient>
<linearGradient id="paint7_linear_122_5577" x1="124.631" y1="49.2176" x2="136.589" y2="121.23" gradientUnits="userSpaceOnUse">
<stop stop-color="#0038FF"/>
<stop offset="1" stop-color="#6376F2"/>
</linearGradient>
<linearGradient id="paint8_linear_122_5577" x1="124.631" y1="49.2176" x2="136.589" y2="121.23" gradientUnits="userSpaceOnUse">
<stop stop-color="#0038FF"/>
<stop offset="1" stop-color="#6376F2"/>
</linearGradient>
<linearGradient id="paint9_linear_122_5577" x1="111.92" y1="51.2513" x2="120.269" y2="123.071" gradientUnits="userSpaceOnUse">
<stop stop-color="#0038FF"/>
<stop offset="1" stop-color="#6376F2"/>
</linearGradient>
<linearGradient id="paint10_linear_122_5577" x1="37.4485" y1="81.6728" x2="37.7806" y2="92.5421" gradientUnits="userSpaceOnUse">
<stop stop-color="#0038FF"/>
<stop offset="1" stop-color="#6376F2"/>
</linearGradient>
<linearGradient id="paint11_linear_122_5577" x1="37.4485" y1="81.6728" x2="37.7806" y2="92.5421" gradientUnits="userSpaceOnUse">
<stop stop-color="#0038FF"/>
<stop offset="1" stop-color="#6376F2"/>
</linearGradient>
<linearGradient id="paint12_linear_122_5577" x1="54.7088" y1="90.7045" x2="66.6732" y2="162.735" gradientUnits="userSpaceOnUse">
<stop stop-color="#0038FF"/>
<stop offset="1" stop-color="#6376F2"/>
</linearGradient>
<linearGradient id="paint13_linear_122_5577" x1="54.7088" y1="90.7045" x2="66.6732" y2="162.735" gradientUnits="userSpaceOnUse">
<stop stop-color="#0038FF"/>
<stop offset="1" stop-color="#6376F2"/>
</linearGradient>
<linearGradient id="paint14_linear_122_5577" x1="41.9844" y1="92.7362" x2="50.3334" y2="164.556" gradientUnits="userSpaceOnUse">
<stop stop-color="#0038FF"/>
<stop offset="1" stop-color="#6376F2"/>
</linearGradient>
<linearGradient id="paint15_linear_122_5577" x1="37.2101" y1="102.989" x2="41.9706" y2="143.909" gradientUnits="userSpaceOnUse">
<stop stop-color="#0038FF"/>
<stop offset="1" stop-color="#6376F2"/>
</linearGradient>
<clipPath id="clip0_122_5577">
<rect width="165" height="170" fill="white" transform="translate(0.5)"/>
</clipPath>
</defs>
</svg>
