<svg width="126" height="141" viewBox="0 0 126 141" fill="none" xmlns="http://www.w3.org/2000/svg">
<path d="M36.8194 90.55C36.8194 89.29 36.0594 87.84 35.1094 87.29C34.6894 87.05 34.3194 87.04 34.0194 87.2V87.19L8.60938 101.71L10.9694 106.42L36.1694 91.96V91.95C36.5594 91.76 36.8194 91.27 36.8194 90.55Z" fill="#45474C"/>
<path d="M11.5094 105.07C11.5094 106.33 10.7494 106.9 9.80939 106.36C8.86939 105.82 8.10938 104.36 8.10938 103.1C8.10938 101.84 8.86939 101.27 9.80939 101.81C10.7494 102.36 11.5094 103.81 11.5094 105.07Z" fill="url(#paint0_linear_254_2477)"/>
<path d="M68.2801 72.46C68.2801 71.2 67.5201 69.75 66.5801 69.2C66.1601 68.96 65.7901 68.95 65.4901 69.11V69.1L40.0801 83.62L42.4401 88.33L67.6401 73.87V73.86C68.0201 73.68 68.2801 73.19 68.2801 72.46Z" fill="#45474C"/>
<path d="M42.9801 86.99C42.9801 88.25 42.2201 88.82 41.2801 88.28C40.3401 87.74 39.5801 86.28 39.5801 85.02C39.5801 83.76 40.3401 83.19 41.2801 83.73C42.2201 84.27 42.9801 85.73 42.9801 86.99Z" fill="url(#paint1_linear_254_2477)"/>
<path d="M120.339 100.17C120.349 100.22 120.339 97.3001 120.339 97.3001C120.339 97.3001 117.379 96.5501 117.409 96.6601C117.409 96.6801 117.429 96.7901 117.439 96.9501L78.1094 74.2401C75.4394 72.7001 71.3894 72.5301 69.0694 73.8701L12.6294 106.45C11.6994 106.36 10.2094 106.24 10.2094 106.24V109.16C10.1894 110.2 10.9294 111.3 12.4194 112.15L52.4394 135.26C55.1094 136.8 59.1594 136.97 61.4794 135.63L118.769 102.55C119.889 101.93 120.399 101.07 120.339 100.17Z" fill="#45474C"/>
<path d="M61.4996 132.77C59.1896 134.11 55.1296 133.94 52.4596 132.4L12.4396 109.29C9.76958 107.75 9.47958 105.41 11.7896 104.07L69.0796 70.9901C71.3896 69.6501 75.4496 69.82 78.1196 71.36L118.14 94.47C120.81 96.01 121.1 98.35 118.79 99.69L61.4996 132.77Z" fill="#EDF3FE"/>
<path d="M118.25 99.38L60.9599 132.46C58.9099 133.64 55.2899 133.49 52.9199 132.13L12.8999 109.02C10.5299 107.65 10.2699 105.56 12.3199 104.38L69.6099 71.3C71.6599 70.12 75.2799 70.27 77.6499 71.63L117.67 94.74C120.05 96.11 120.31 98.19 118.25 99.38Z" fill="url(#paint2_linear_254_2477)"/>
<path d="M25.5901 109.29L23.8301 110.3C23.2701 110.62 22.2801 110.58 21.6401 110.21L19.6101 109.04C18.9601 108.67 18.8901 108.1 19.4501 107.77L21.2101 106.76C21.7701 106.44 22.7601 106.48 23.4001 106.85L25.4301 108.02C26.0801 108.4 26.1601 108.97 25.5901 109.29Z" fill="#EDF3FE"/>
<path d="M30.5901 106.41L28.8301 107.42C28.2701 107.74 27.2801 107.7 26.6401 107.33L24.6101 106.16C23.9601 105.79 23.8901 105.22 24.4501 104.89L26.2101 103.88C26.7701 103.56 27.7601 103.6 28.4001 103.97L30.4301 105.14C31.0801 105.52 31.1501 106.09 30.5901 106.41Z" fill="#EDF3FE"/>
<path d="M35.5803 103.53L33.8203 104.54C33.2603 104.86 32.2703 104.82 31.6303 104.45L29.6003 103.28C28.9503 102.91 28.8803 102.34 29.4403 102.01L31.2004 101C31.7604 100.68 32.7503 100.72 33.3903 101.09L35.4204 102.26C36.0704 102.63 36.1403 103.2 35.5803 103.53Z" fill="#EDF3FE"/>
<path d="M40.5803 100.64L38.8203 101.65C38.2603 101.97 37.2703 101.93 36.6303 101.56L34.6003 100.39C33.9503 100.02 33.8803 99.4501 34.4403 99.1201L36.2004 98.1101C36.7604 97.7901 37.7503 97.8301 38.3903 98.2001L40.4204 99.3701C41.0604 99.7501 41.1403 100.32 40.5803 100.64Z" fill="#EDF3FE"/>
<path d="M45.5686 97.7601L43.8086 98.7701C43.2486 99.0901 42.2586 99.0501 41.6186 98.6801L39.5886 97.5101C38.9386 97.1401 38.8686 96.5701 39.4286 96.2401L41.1886 95.2301C41.7486 94.9101 42.7386 94.9501 43.3786 95.3201L45.4086 96.4901C46.0586 96.8701 46.1286 97.4401 45.5686 97.7601Z" fill="#EDF3FE"/>
<path d="M50.5589 94.8801L48.7989 95.8901C48.2389 96.2101 47.2489 96.1701 46.6089 95.8001L44.5789 94.6301C43.9289 94.2601 43.8589 93.6901 44.4189 93.3601L46.1789 92.3501C46.7389 92.0301 47.7289 92.0701 48.3789 92.4401L50.4089 93.6101C51.0489 93.9901 51.1189 94.5601 50.5589 94.8801Z" fill="#EDF3FE"/>
<path d="M55.5589 92.0001L53.7989 93.0101C53.2389 93.3301 52.2489 93.2901 51.6089 92.9201L49.5789 91.7501C48.9289 91.3801 48.8589 90.8101 49.4189 90.4801L51.1789 89.4701C51.7389 89.1501 52.7289 89.1901 53.3689 89.5601L55.3989 90.7301C56.0389 91.1001 56.1189 91.6701 55.5589 92.0001Z" fill="#EDF3FE"/>
<path d="M60.5491 89.1101L58.7891 90.1201C58.2291 90.4401 57.2391 90.4001 56.5991 90.0301L54.5691 88.8601C53.9191 88.4901 53.8491 87.9201 54.4091 87.5901L56.1691 86.5801C56.7291 86.2601 57.7191 86.3001 58.3591 86.6701L60.3891 87.8401C61.0391 88.2201 61.1091 88.7901 60.5491 89.1101Z" fill="#EDF3FE"/>
<path d="M31.0999 112.47L29.3399 113.48C28.7799 113.8 27.7899 113.76 27.1499 113.39L25.1199 112.22C24.4699 111.85 24.3999 111.28 24.9599 110.95L26.7199 109.94C27.2799 109.62 28.2699 109.66 28.9099 110.03L30.9399 111.2C31.5899 111.58 31.6599 112.15 31.0999 112.47Z" fill="#EDF3FE"/>
<path d="M36.0999 109.59L34.3399 110.6C33.7799 110.92 32.7899 110.88 32.1499 110.51L30.1199 109.34C29.4699 108.97 29.3999 108.4 29.9599 108.07L31.7199 107.06C32.2799 106.74 33.2699 106.78 33.9099 107.15L35.9399 108.32C36.5899 108.7 36.6599 109.27 36.0999 109.59Z" fill="#EDF3FE"/>
<path d="M41.0904 106.71L39.3303 107.72C38.7703 108.04 37.7803 108 37.1303 107.63L35.1003 106.46C34.4503 106.09 34.3803 105.52 34.9403 105.19L36.7004 104.18C37.2604 103.86 38.2503 103.9 38.8903 104.27L40.9204 105.44C41.5804 105.81 41.6504 106.39 41.0904 106.71Z" fill="#EDF3FE"/>
<path d="M46.0803 103.83L44.3203 104.84C43.7603 105.16 42.7703 105.12 42.1303 104.75L40.1003 103.58C39.4503 103.21 39.3803 102.64 39.9403 102.31L41.7004 101.3C42.2604 100.98 43.2503 101.02 43.8903 101.39L45.9204 102.56C46.5704 102.93 46.6403 103.5 46.0803 103.83Z" fill="#EDF3FE"/>
<path d="M51.0803 100.94L49.3203 101.95C48.7603 102.27 47.7703 102.23 47.1303 101.86L45.1003 100.69C44.4503 100.32 44.3803 99.7501 44.9403 99.4201L46.7004 98.4101C47.2604 98.0901 48.2503 98.1301 48.8903 98.5001L50.9204 99.6701C51.5704 100.05 51.6403 100.62 51.0803 100.94Z" fill="#EDF3FE"/>
<path d="M56.0706 98.0601L54.3106 99.0701C53.7506 99.3901 52.7606 99.3501 52.1206 98.9801L50.0906 97.8101C49.4406 97.4401 49.3706 96.8701 49.9306 96.5401L51.6906 95.5301C52.2506 95.2101 53.2406 95.2501 53.8806 95.6201L55.9106 96.7901C56.5606 97.1701 56.6306 97.7401 56.0706 98.0601Z" fill="#EDF3FE"/>
<path d="M61.0608 95.1801L59.3008 96.1901C58.7408 96.5101 57.7508 96.4701 57.1108 96.1001L55.0808 94.9301C54.4308 94.5601 54.3608 93.9901 54.9208 93.6601L56.6808 92.6501C57.2408 92.3301 58.2308 92.3701 58.8708 92.7401L60.9008 93.9101C61.5508 94.2801 61.6208 94.8501 61.0608 95.1801Z" fill="#EDF3FE"/>
<path d="M66.0608 92.2901L64.3008 93.3001C63.7408 93.6201 62.7508 93.5801 62.1108 93.2101L60.0808 92.0401C59.4308 91.6701 59.3608 91.1001 59.9208 90.7701L61.6808 89.7601C62.2408 89.4401 63.2308 89.4801 63.8708 89.8501L65.9008 91.0201C66.5508 91.4001 66.6208 91.9701 66.0608 92.2901Z" fill="#EDF3FE"/>
<path d="M71.0491 89.4101L69.2891 90.4201C68.7291 90.7401 67.7391 90.7001 67.0991 90.3301L65.0691 89.1601C64.4191 88.7901 64.3491 88.2201 64.9091 87.8901L66.6691 86.8801C67.2291 86.5601 68.2191 86.6001 68.8591 86.9701L70.8891 88.1401C71.5391 88.5201 71.6091 89.0901 71.0491 89.4101Z" fill="#EDF3FE"/>
<path d="M76.0393 86.5301L74.2793 87.5401C73.7193 87.8601 72.7293 87.8201 72.0893 87.4501L70.0593 86.2801C69.4093 85.9101 69.3393 85.3401 69.8993 85.0101L71.6593 84.0001C72.2193 83.6801 73.2093 83.7201 73.8493 84.0901L75.8793 85.2601C76.5293 85.6301 76.6093 86.2001 76.0393 86.5301Z" fill="#EDF3FE"/>
<path d="M81.0393 83.6401L79.2793 84.6501C78.7193 84.9701 77.7293 84.9301 77.0893 84.5601L75.0593 83.3901C74.4093 83.0201 74.3393 82.4501 74.8993 82.1201L76.6593 81.1101C77.2193 80.7901 78.2093 80.8301 78.8593 81.2001L80.8893 82.3701C81.5293 82.7501 81.5993 83.3201 81.0393 83.6401Z" fill="#EDF3FE"/>
<path d="M86.0296 80.7601L84.2696 81.7701C83.7096 82.0901 82.7196 82.0501 82.0796 81.6801L80.0496 80.5101C79.3996 80.1401 79.3296 79.5701 79.8896 79.2401L81.6496 78.2301C82.2096 77.9101 83.1996 77.9501 83.8396 78.3201L85.8696 79.4901C86.5196 79.8701 86.5896 80.4401 86.0296 80.7601Z" fill="#EDF3FE"/>
<path d="M36.6096 115.66L34.8496 116.67C34.2896 116.99 33.2996 116.95 32.6596 116.58L30.6296 115.41C29.9796 115.04 29.9096 114.47 30.4696 114.14L32.2296 113.13C32.7896 112.81 33.7797 112.85 34.4197 113.22L36.4496 114.39C37.0996 114.76 37.1696 115.33 36.6096 115.66Z" fill="#EDF3FE"/>
<path d="M41.6096 112.77L39.8496 113.78C39.2896 114.1 38.2996 114.06 37.6596 113.69L35.6296 112.52C34.9796 112.15 34.9096 111.58 35.4696 111.25L37.2296 110.24C37.7896 109.92 38.7797 109.96 39.4197 110.33L41.4496 111.5C42.0996 111.88 42.1696 112.45 41.6096 112.77Z" fill="#EDF3FE"/>
<path d="M46.5999 109.89L44.8399 110.9C44.2799 111.22 43.2899 111.18 42.6499 110.81L40.6199 109.64C39.9699 109.27 39.8999 108.7 40.4599 108.37L42.2199 107.36C42.7799 107.04 43.7699 107.08 44.4099 107.45L46.4399 108.62C47.0899 109 47.1599 109.57 46.5999 109.89Z" fill="#EDF3FE"/>
<path d="M51.5901 107.01L49.8301 108.02C49.2701 108.34 48.2801 108.3 47.6401 107.93L45.6101 106.76C44.9601 106.39 44.8901 105.82 45.4501 105.49L47.2101 104.48C47.7701 104.16 48.7601 104.2 49.4001 104.57L51.4301 105.74C52.0801 106.11 52.1501 106.68 51.5901 107.01Z" fill="#EDF3FE"/>
<path d="M56.5901 104.12L54.8301 105.13C54.2701 105.45 53.2801 105.41 52.6401 105.04L50.6101 103.87C49.9601 103.5 49.8901 102.93 50.4501 102.6L52.2101 101.59C52.7701 101.27 53.7601 101.31 54.4101 101.68L56.4401 102.85C57.0801 103.23 57.1501 103.8 56.5901 104.12Z" fill="#EDF3FE"/>
<path d="M61.5806 101.24L59.8206 102.25C59.2606 102.57 58.2706 102.53 57.6206 102.16L55.5906 100.99C54.9406 100.62 54.8706 100.05 55.4306 99.7201L57.1906 98.7101C57.7506 98.3901 58.7406 98.4301 59.3806 98.8001L61.4106 99.9701C62.0706 100.35 62.1406 100.92 61.5806 101.24Z" fill="#EDF3FE"/>
<path d="M66.5706 98.3601L64.8106 99.3701C64.2506 99.6901 63.2606 99.6501 62.6206 99.2801L60.5906 98.1101C59.9406 97.7401 59.8706 97.1701 60.4306 96.8401L62.1906 95.8301C62.7506 95.5101 63.7406 95.5501 64.3806 95.9201L66.4106 97.0901C67.0606 97.4601 67.1306 98.0301 66.5706 98.3601Z" fill="#EDF3FE"/>
<path d="M76.5606 92.59L69.8106 96.49C69.2506 96.81 68.2606 96.77 67.6206 96.4L65.5906 95.23C64.9406 94.86 64.8706 94.29 65.4306 93.96L72.1806 90.06C72.7406 89.74 73.7306 89.78 74.3706 90.15L76.4006 91.32C77.0506 91.7 77.1206 92.27 76.5606 92.59Z" fill="#EDF3FE"/>
<path d="M81.5491 89.71L79.7891 90.72C79.2291 91.04 78.2391 91 77.5991 90.63L75.5691 89.46C74.9191 89.09 74.8491 88.52 75.4091 88.19L77.1691 87.18C77.7291 86.86 78.7191 86.9 79.3591 87.27L81.3891 88.44C82.0391 88.81 82.1091 89.39 81.5491 89.71Z" fill="#EDF3FE"/>
<path d="M86.5491 86.83L84.7891 87.84C84.2291 88.16 83.2391 88.12 82.5991 87.75L80.5691 86.58C79.9191 86.21 79.8491 85.64 80.4091 85.31L82.1691 84.3C82.7291 83.98 83.7191 84.02 84.3591 84.39L86.3891 85.56C87.0391 85.93 87.1091 86.5 86.5491 86.83Z" fill="#EDF3FE"/>
<path d="M91.5393 83.94L89.7793 84.95C89.2193 85.27 88.2293 85.23 87.5893 84.86L85.5593 83.69C84.9093 83.32 84.8393 82.75 85.3993 82.42L87.1593 81.41C87.7193 81.09 88.7093 81.13 89.3493 81.5L91.3793 82.67C92.0293 83.05 92.0993 83.62 91.5393 83.94Z" fill="#EDF3FE"/>
<path d="M42.1194 118.84L40.3594 119.85C39.7994 120.17 38.8094 120.13 38.1694 119.76L36.1394 118.59C35.4894 118.22 35.4194 117.65 35.9794 117.32L37.7394 116.31C38.2994 115.99 39.2894 116.03 39.9294 116.4L41.9594 117.57C42.6094 117.94 42.6794 118.51 42.1194 118.84Z" fill="#EDF3FE"/>
<path d="M47.1194 115.95L45.3594 116.96C44.7994 117.28 43.8094 117.24 43.1694 116.87L41.1394 115.7C40.4894 115.33 40.4194 114.76 40.9794 114.43L42.7394 113.42C43.2994 113.1 44.2894 113.14 44.9294 113.51L46.9594 114.68C47.6094 115.06 47.6794 115.63 47.1194 115.95Z" fill="#EDF3FE"/>
<path d="M52.1099 113.07L50.3499 114.08C49.7899 114.4 48.7999 114.36 48.1499 113.99L46.1199 112.82C45.4699 112.45 45.3999 111.88 45.9599 111.55L47.7199 110.54C48.2799 110.22 49.2699 110.26 49.9099 110.63L51.9399 111.8C52.5999 112.18 52.6699 112.75 52.1099 113.07Z" fill="#EDF3FE"/>
<path d="M57.0999 110.19L55.3399 111.2C54.7799 111.52 53.7899 111.48 53.1499 111.11L51.1199 109.94C50.4699 109.57 50.3999 109 50.9599 108.67L52.7199 107.66C53.2799 107.34 54.2699 107.38 54.9099 107.75L56.9399 108.92C57.5899 109.29 57.6599 109.86 57.0999 110.19Z" fill="#EDF3FE"/>
<path d="M62.0999 107.3L60.3399 108.31C59.7799 108.63 58.7899 108.59 58.1499 108.22L56.1199 107.05C55.4699 106.68 55.3999 106.11 55.9599 105.78L57.7199 104.77C58.2799 104.45 59.2699 104.49 59.9099 104.86L61.9399 106.03C62.5899 106.41 62.6599 106.98 62.0999 107.3Z" fill="#EDF3FE"/>
<path d="M67.0901 104.42L65.3301 105.43C64.7701 105.75 63.7801 105.71 63.1401 105.34L61.1101 104.17C60.4601 103.8 60.3901 103.23 60.9501 102.9L62.7101 101.89C63.2701 101.57 64.2601 101.61 64.9001 101.98L66.9301 103.15C67.5801 103.53 67.6501 104.1 67.0901 104.42Z" fill="#EDF3FE"/>
<path d="M72.0803 101.54L70.3203 102.55C69.7603 102.87 68.7703 102.83 68.1303 102.46L66.1003 101.29C65.4503 100.92 65.3803 100.35 65.9403 100.02L67.7004 99.0101C68.2604 98.6901 69.2503 98.7301 69.8903 99.1001L71.9204 100.27C72.5704 100.64 72.6403 101.21 72.0803 101.54Z" fill="#EDF3FE"/>
<path d="M77.0803 98.6601L75.3203 99.6701C74.7603 99.9901 73.7703 99.9501 73.1303 99.5801L71.1003 98.4101C70.4503 98.0401 70.3803 97.4701 70.9403 97.1401L72.7004 96.1301C73.2604 95.8101 74.2503 95.8501 74.8903 96.2201L76.9204 97.3901C77.5704 97.7601 77.6403 98.3301 77.0803 98.6601Z" fill="#EDF3FE"/>
<path d="M82.0686 95.7701L80.3086 96.7801C79.7486 97.1001 78.7586 97.0601 78.1186 96.6901L76.0886 95.5201C75.4386 95.1501 75.3686 94.5801 75.9286 94.2501L77.6886 93.2401C78.2486 92.9201 79.2386 92.9601 79.8786 93.3301L81.9086 94.5001C82.5586 94.8801 82.6286 95.4501 82.0686 95.7701Z" fill="#EDF3FE"/>
<path d="M87.0589 92.8901L85.2989 93.9001C84.7389 94.2201 83.7489 94.1801 83.1089 93.8101L81.0789 92.6401C80.4289 92.2701 80.3589 91.7001 80.9189 91.3701L82.6789 90.3601C83.2389 90.0401 84.2289 90.0801 84.8689 90.4501L86.8989 91.6201C87.5489 92.0001 87.6189 92.5701 87.0589 92.8901Z" fill="#EDF3FE"/>
<path d="M92.0589 90.0101L90.2989 91.0201C89.7389 91.3401 88.7489 91.3001 88.1089 90.9301L86.0789 89.7601C85.4289 89.3901 85.3589 88.8201 85.9189 88.4901L87.6789 87.4801C88.2389 87.1601 89.2289 87.2001 89.8689 87.5701L91.8989 88.7401C92.5489 89.1101 92.6189 89.6801 92.0589 90.0101Z" fill="#EDF3FE"/>
<path d="M97.0493 87.1201L95.2893 88.1301C94.7293 88.4501 93.7393 88.4101 93.0893 88.0401L91.0593 86.8701C90.4093 86.5001 90.3393 85.9301 90.8993 85.6001L92.6593 84.5901C93.2193 84.2701 94.2093 84.3101 94.8493 84.6801L96.8793 85.8501C97.5393 86.2301 97.6093 86.8001 97.0493 87.1201Z" fill="#EDF3FE"/>
<path d="M47.6292 122.02L45.8692 123.03C45.3092 123.35 44.3192 123.31 43.6792 122.94L41.6492 121.77C40.9992 121.4 40.9292 120.83 41.4892 120.5L43.2492 119.49C43.8092 119.17 44.7992 119.21 45.4392 119.58L47.4692 120.75C48.1192 121.12 48.1892 121.69 47.6292 122.02Z" fill="#EDF3FE"/>
<path d="M52.6194 119.13L50.8594 120.14C50.2994 120.46 49.3094 120.42 48.6694 120.05L46.6394 118.88C45.9894 118.51 45.9194 117.94 46.4794 117.61L48.2394 116.6C48.7994 116.28 49.7894 116.32 50.4294 116.69L52.4594 117.86C53.1094 118.24 53.1894 118.81 52.6194 119.13Z" fill="#EDF3FE"/>
<path d="M57.6194 116.25L55.8594 117.26C55.2994 117.58 54.3094 117.54 53.6694 117.17L51.6394 116C50.9894 115.63 50.9194 115.06 51.4794 114.73L53.2394 113.72C53.7994 113.4 54.7894 113.44 55.4294 113.81L57.4594 114.98C58.1094 115.36 58.1794 115.93 57.6194 116.25Z" fill="#EDF3FE"/>
<path d="M77.5896 104.72L60.8496 114.38C60.2896 114.7 59.2996 114.66 58.6596 114.29L56.6296 113.12C55.9796 112.75 55.9096 112.18 56.4696 111.85L73.2096 102.19C73.7696 101.87 74.7596 101.91 75.3996 102.28L77.4296 103.45C78.0796 103.83 78.1496 104.4 77.5896 104.72Z" fill="#EDF3FE"/>
<path d="M82.5901 101.84L80.8301 102.85C80.2701 103.17 79.2801 103.13 78.6401 102.76L76.6101 101.59C75.9601 101.22 75.8901 100.65 76.4501 100.32L78.2101 99.31C78.7701 98.99 79.7601 99.03 80.4101 99.4L82.4401 100.57C83.0701 100.94 83.1501 101.51 82.5901 101.84Z" fill="#EDF3FE"/>
<path d="M87.5784 98.95L85.8184 99.96C85.2584 100.28 84.2684 100.24 83.6284 99.87L81.5984 98.7C80.9484 98.33 80.8784 97.76 81.4384 97.43L83.1984 96.42C83.7584 96.1 84.7484 96.14 85.3884 96.51L87.4184 97.68C88.0684 98.06 88.1384 98.63 87.5784 98.95Z" fill="#EDF3FE"/>
<path d="M92.5689 96.07L90.8089 97.08C90.2489 97.4 89.2589 97.36 88.6089 96.99L86.5789 95.82C85.9289 95.45 85.8589 94.88 86.4189 94.55L88.1789 93.54C88.7389 93.22 89.7289 93.26 90.3689 93.63L92.3989 94.8C93.0589 95.18 93.1289 95.75 92.5689 96.07Z" fill="#EDF3FE"/>
<path d="M97.5686 93.19L95.8086 94.2C95.2486 94.52 94.2586 94.48 93.6186 94.11L91.5886 92.94C90.9386 92.57 90.8686 92 91.4286 91.67L93.1886 90.66C93.7486 90.34 94.7386 90.38 95.3786 90.75L97.4086 91.92C98.0586 92.29 98.1286 92.86 97.5686 93.19Z" fill="#EDF3FE"/>
<path d="M102.559 90.3L100.799 91.31C100.239 91.63 99.2489 91.59 98.6089 91.22L96.5789 90.05C95.9289 89.68 95.8589 89.11 96.4189 88.78L98.1789 87.77C98.7389 87.45 99.7289 87.49 100.369 87.86L102.399 89.03C103.049 89.41 103.119 89.98 102.559 90.3Z" fill="#EDF3FE"/>
<path d="M65.5393 86.2301L63.7793 87.2401C63.2193 87.5601 62.2293 87.5201 61.5893 87.1501L59.5593 85.9801C58.9093 85.6101 58.8393 85.0401 59.3993 84.7101L61.1593 83.7001C61.7193 83.3801 62.7093 83.42 63.3493 83.79L65.3793 84.9601C66.0293 85.3401 66.0993 85.9101 65.5393 86.2301Z" fill="#EDF3FE"/>
<path d="M70.5396 83.35L68.7796 84.36C68.2196 84.68 67.2296 84.64 66.5796 84.27L64.5496 83.1C63.8996 82.73 63.8296 82.16 64.3896 81.83L66.1496 80.82C66.7096 80.5 67.6996 80.54 68.3496 80.91L70.3796 82.08C71.0296 82.45 71.0996 83.02 70.5396 83.35Z" fill="#EDF3FE"/>
<path d="M75.5296 80.46L73.7696 81.47C73.2096 81.79 72.2196 81.75 71.5796 81.38L69.5496 80.21C68.8996 79.84 68.8296 79.27 69.3896 78.94L71.1496 77.93C71.7096 77.61 72.6996 77.65 73.3396 78.02L75.3696 79.19C76.0196 79.57 76.0896 80.14 75.5296 80.46Z" fill="#EDF3FE"/>
<path d="M80.5196 77.58L78.7696 78.59C78.2096 78.91 77.2196 78.87 76.5796 78.5L74.5496 77.33C73.8996 76.96 73.8296 76.39 74.3896 76.06L76.1496 75.05C76.7096 74.73 77.6996 74.77 78.3396 75.14L80.3696 76.31C81.0096 76.69 81.0796 77.26 80.5196 77.58Z" fill="#EDF3FE"/>
<path d="M75.3394 74.1901L72.8894 75.6001C72.5194 75.8101 71.8694 75.7901 71.4394 75.5401L70.6394 75.0801C70.2094 74.8301 70.1694 74.4601 70.5394 74.2401L72.9894 72.8301C73.3594 72.6201 74.0094 72.6401 74.4394 72.8901L75.2394 73.3501C75.6594 73.6001 75.7094 73.9701 75.3394 74.1901Z" fill="#EDF3FE"/>
<path d="M70.3394 77.0701L67.8894 78.4801C67.5194 78.6901 66.8694 78.6701 66.4394 78.4201L65.6394 77.9601C65.2094 77.7101 65.1694 77.3401 65.5394 77.1201L67.9894 75.7101C68.3594 75.5001 69.0094 75.5201 69.4394 75.7701L70.2394 76.2301C70.6694 76.4801 70.7094 76.8601 70.3394 77.0701Z" fill="#EDF3FE"/>
<path d="M65.3492 79.9501L62.8992 81.3601C62.5292 81.5701 61.8792 81.5501 61.4492 81.3001L60.6492 80.8401C60.2192 80.5901 60.1792 80.2201 60.5492 80.0001L62.9992 78.5901C63.3692 78.3801 64.0192 78.4001 64.4492 78.6501L65.2492 79.1101C65.6692 79.3601 65.7192 79.7401 65.3492 79.9501Z" fill="#EDF3FE"/>
<path d="M60.3589 82.8301L57.9089 84.2401C57.5389 84.4501 56.8889 84.4301 56.4589 84.1801L55.6589 83.7201C55.2289 83.4701 55.1889 83.1001 55.5589 82.8801L58.0089 81.4701C58.3789 81.2601 59.0289 81.2801 59.4589 81.5301L60.2589 81.9901C60.6789 82.2501 60.7189 82.6201 60.3589 82.8301Z" fill="#EDF3FE"/>
<path d="M55.3589 85.7201L52.9089 87.1301C52.5389 87.3401 51.8889 87.3201 51.4589 87.0701L50.6589 86.6101C50.2289 86.3601 50.1889 85.9901 50.5589 85.7701L53.0089 84.3601C53.3789 84.1501 54.0289 84.1701 54.4589 84.4201L55.2589 84.8801C55.6789 85.1301 55.7289 85.5001 55.3589 85.7201Z" fill="#EDF3FE"/>
<path d="M50.3707 88.6001L47.9207 90.0101C47.5507 90.2201 46.9006 90.2001 46.4706 89.9501L45.6707 89.4901C45.2407 89.2401 45.2007 88.8701 45.5707 88.6501L48.0206 87.2401C48.3906 87.0301 49.0406 87.0501 49.4706 87.3001L50.2706 87.7601C50.6906 88.0101 50.7407 88.3901 50.3707 88.6001Z" fill="#EDF3FE"/>
<path d="M45.3804 91.4801L42.9304 92.8901C42.5604 93.1001 41.9104 93.0801 41.4804 92.8301L40.6804 92.3701C40.2504 92.1201 40.2104 91.7501 40.5804 91.5301L43.0304 90.1201C43.4004 89.9101 44.0504 89.9301 44.4804 90.1801L45.2804 90.6401C45.7004 90.8901 45.7404 91.2701 45.3804 91.4801Z" fill="#EDF3FE"/>
<path d="M40.3804 94.3701L37.9304 95.7801C37.5604 95.9901 36.9104 95.9701 36.4804 95.7201L35.6804 95.2601C35.2504 95.0101 35.2104 94.6401 35.5804 94.4201L38.0304 93.0101C38.4004 92.8001 39.0504 92.8201 39.4804 93.0701L40.2804 93.5301C40.7004 93.7801 40.7504 94.1501 40.3804 94.3701Z" fill="#EDF3FE"/>
<path d="M35.3902 97.2501L32.9402 98.6601C32.5702 98.8701 31.9202 98.8501 31.4902 98.6001L30.6902 98.1401C30.2602 97.8901 30.2202 97.5201 30.5902 97.3001L33.0402 95.8901C33.4102 95.6801 34.0602 95.7001 34.4902 95.9501L35.2902 96.4101C35.7102 96.6601 35.7602 97.0401 35.3902 97.2501Z" fill="#EDF3FE"/>
<path d="M30.4 100.13L27.95 101.54C27.58 101.75 26.9299 101.73 26.4999 101.48L25.7 101.02C25.27 100.77 25.2299 100.4 25.5999 100.18L28.0499 98.77C28.4199 98.56 29.0699 98.58 29.4999 98.83L30.2999 99.29C30.7199 99.54 30.76 99.92 30.4 100.13Z" fill="#EDF3FE"/>
<path d="M25.4 103.02L22.95 104.43C22.58 104.64 21.9299 104.62 21.4999 104.37L20.7 103.91C20.27 103.66 20.2299 103.29 20.5999 103.07L23.0499 101.66C23.4199 101.45 24.0699 101.47 24.4999 101.72L25.2999 102.18C25.7199 102.43 25.77 102.8 25.4 103.02Z" fill="#EDF3FE"/>
<path d="M20.4097 105.9L17.9597 107.31C17.5897 107.52 16.9397 107.5 16.5097 107.25L15.7097 106.79C15.2797 106.54 15.2397 106.17 15.6097 105.95L18.0597 104.54C18.4297 104.33 19.0797 104.35 19.5097 104.6L20.3097 105.06C20.7297 105.31 20.7797 105.69 20.4097 105.9Z" fill="#EDF3FE"/>
<path d="M94.2088 110.66L78.7288 119.6C77.8288 120.12 76.2288 120.06 75.1888 119.45L67.2788 114.88C66.2388 114.28 66.1188 113.36 67.0288 112.83L82.5088 103.89C83.4088 103.37 85.0088 103.43 86.0488 104.04L93.9588 108.61C94.9988 109.21 95.1188 110.13 94.2088 110.66Z" fill="#EDF3FE"/>
<path d="M18.2392 114.47L13.8592 111.94C13.6292 111.81 13.4492 111.45 13.4492 111.15C13.4492 110.85 13.6392 110.71 13.8592 110.84L18.2392 113.37C18.4692 113.5 18.6492 113.86 18.6492 114.16C18.6492 114.46 18.4592 114.6 18.2392 114.47Z" fill="white"/>
<path d="M24.7197 118.28L20.3397 115.75C20.1097 115.62 19.9297 115.26 19.9297 114.96C19.9297 114.66 20.1197 114.52 20.3397 114.65L24.7197 117.18C24.9497 117.31 25.1297 117.67 25.1297 117.97C25.1297 118.27 24.9497 118.41 24.7197 118.28Z" fill="white"/>
<path d="M44.3701 129.63L39.9901 127.1C39.7601 126.97 39.5801 126.61 39.5801 126.31C39.5801 126.01 39.7701 125.87 39.9901 126L44.3701 128.53C44.6001 128.66 44.7801 129.02 44.7801 129.32C44.7801 129.62 44.6001 129.76 44.3701 129.63Z" fill="white"/>
<path d="M70.9695 12.69L68.9395 11.53C68.5595 11.26 68.0495 11.26 67.4895 11.58L7.29945 46.33C6.13945 47 5.18945 48.81 5.18945 50.36V100.92C5.18945 101.74 5.45946 102.31 5.87946 102.58V102.59L8.04945 103.84L9.13945 101.46L67.4995 67.77C68.6595 67.1 69.6095 65.29 69.6095 63.74V14.19C70.0294 14.46 70.3595 14.67 70.3795 14.67C70.4295 14.67 70.9695 12.69 70.9695 12.69Z" fill="#45474C"/>
<path d="M9.46938 103.77L69.6594 69.0201C70.8194 68.3501 71.7694 66.5401 71.7694 64.9901V14.4401C71.7694 12.8901 70.8194 12.1801 69.6594 12.8501L9.46938 47.5901C8.30938 48.2601 7.35938 50.0701 7.35938 51.6201V102.18C7.35938 103.73 8.30938 104.44 9.46938 103.77Z" fill="#EDF3FE"/>
<path d="M9.95891 102.73L69.1789 68.54C70.3189 67.88 71.2589 66.1 71.2589 64.58V15.2C71.2589 13.68 70.3289 12.97 69.1789 13.63L9.95891 47.82C8.81891 48.48 7.87891 50.26 7.87891 51.78V101.16C7.88891 102.69 8.81891 103.39 9.95891 102.73Z" fill="url(#paint3_linear_254_2477)"/>
<path d="M69.3491 17.92L9.78906 52.31V98.45L69.3491 64.06V17.92Z" fill="white"/>
<path d="M38.7188 33.31C38.7188 33.86 39.0488 34.11 39.4588 33.87C39.8688 33.63 40.1988 33 40.1988 32.45C40.1988 31.9 39.8688 31.65 39.4588 31.89C39.0588 32.13 38.7188 32.77 38.7188 33.31Z" fill="white"/>
<path d="M42.3301 31.1101C42.3301 31.5501 42.6001 31.7601 42.9301 31.5601C43.2601 31.3701 43.5301 30.8501 43.5301 30.4101C43.5301 29.9701 43.2601 29.7601 42.9301 29.9601C42.6001 30.1601 42.3301 30.6701 42.3301 31.1101Z" fill="white"/>
<path d="M7.25851 54.31C7.26851 54.19 7.44851 54.18 7.45851 54.31C7.56851 56.52 7.4685 58.75 7.4985 60.96C7.5285 63.17 7.50851 65.41 7.37851 67.61C7.36851 67.75 7.14851 67.84 7.14851 67.55C7.14851 63.5 6.80851 58.55 7.25851 54.31Z" fill="white"/>
<path d="M11.5181 46.74C13.1181 45.55 20.3181 41.38 23.0281 39.95C23.4481 39.73 23.6381 39.82 23.2281 40.15C21.1681 41.75 13.5181 46.25 11.6781 47.02C11.5281 47.09 11.2681 46.93 11.5181 46.74Z" fill="white"/>
<path d="M26.0786 38.36C27.6786 37.17 34.8787 33 37.5887 31.57C38.0087 31.35 38.1987 31.44 37.7887 31.77C35.7287 33.37 28.0787 37.87 26.2387 38.64C26.0887 38.7 25.8286 38.54 26.0786 38.36Z" fill="white"/>
<path d="M69.8992 127.99C66.1392 129.81 62.2392 133.02 57.7592 133.52C55.1492 133.81 53.0192 132.46 50.8092 131.27C48.9092 130.25 47.0691 129.09 45.1391 128.12C45.0891 128.09 45.0492 128.16 45.0992 128.2C47.2192 129.75 49.4692 131.07 51.7592 132.35C53.6792 133.42 55.6991 134.29 57.9391 134.09C61.7591 133.74 66.7992 130.71 70.0092 128.12C70.0692 128.05 69.9692 127.95 69.8992 127.99Z" fill="white"/>
<path d="M110.35 60.4999L75.4004 80.6799V21.1199L110.35 0.939941V60.4999Z" fill="white"/>
<path d="M103.231 11.23C103.231 10.55 102.821 10.24 102.311 10.53C101.801 10.82 101.391 11.61 101.391 12.29C101.391 12.97 101.801 13.28 102.311 12.99C102.811 12.7 103.231 11.91 103.231 11.23Z" fill="#E07E7E"/>
<path d="M97.4708 21.18C97.0108 21.12 96.5608 21.21 96.1308 21.46C95.7308 21.69 95.3508 22.05 94.9908 22.54C93.9508 23.98 93.3008 26.27 93.3008 28.53V53.63C93.3008 54.57 93.6308 55.05 94.3108 55.08C96.0808 55.16 99.8008 52.01 101.681 48.83C104.181 44.6 105.311 39.51 104.571 35.86C103.801 32.13 102.831 32.19 101.491 32.28L101.181 32.3L101.251 31.83C101.591 30.16 101.471 28.66 100.921 27.81C100.451 27.08 99.7008 26.89 98.7508 27.24L98.3208 27.4L98.4808 26.77C99.1508 24.03 99.4908 21.46 97.4708 21.18Z" fill="#E07E7E"/>
<path d="M103.941 27.91C103.941 28.59 104.351 28.9 104.861 28.61C105.371 28.32 105.781 27.53 105.781 26.85C105.781 26.17 105.371 25.86 104.861 26.15C104.361 26.44 103.941 27.23 103.941 27.91Z" fill="#E07E7E"/>
<path d="M89.7099 35.96L92.5999 34.29V28.93C92.5999 26.67 91.9499 25.13 90.9099 24.9C90.5599 24.82 90.1699 24.9 89.7799 25.13C89.3499 25.38 88.8999 25.81 88.4299 26.4C86.4099 29.01 86.7599 31.18 87.4299 33.14L87.5899 33.59L87.1599 33.93C86.2099 34.67 85.4599 35.73 84.9899 37C84.4399 38.48 84.3199 40.13 84.6599 41.41L84.7598 41.77L84.4499 42.1C83.0799 43.59 82.1099 44.65 81.3399 49.26C80.5899 53.77 81.7199 57.55 84.2299 58.9C86.1099 59.91 89.8299 58.77 91.5999 56.64C92.2799 55.82 92.6099 54.97 92.6099 54.02V53.34L88.6399 55.63V52.32C87.9099 52.53 87.3699 51.98 87.3699 50.94C87.3699 49.75 88.0999 48.35 88.9999 47.84C89.8999 47.32 90.6199 47.87 90.6199 49.07C90.6199 50.1 90.0699 51.28 89.3499 51.92V54.29L92.6099 52.41V41.75L84.0499 46.69V49.69C84.7799 49.48 85.3198 50.03 85.3198 51.07C85.3198 52.26 84.5899 53.66 83.6999 54.17C82.7999 54.69 82.0699 54.14 82.0699 52.94C82.0699 51.91 82.6199 50.73 83.3399 50.09V46.15L92.6099 40.8V35.22L89.7199 36.89C89.5599 37.95 88.9099 39.06 88.1399 39.5C87.2399 40.02 86.5098 39.47 86.5098 38.27C86.5098 37.08 87.2399 35.68 88.1399 35.17C88.8999 34.73 89.5499 35.08 89.7099 35.96Z" fill="#AAC4F4"/>
<path d="M88.4512 16.8301C87.9412 17.1201 87.5312 17.9101 87.5312 18.5901C87.5312 19.2701 87.9412 19.5801 88.4512 19.2901C88.9612 19.0001 89.3712 18.2101 89.3712 17.5301C89.3712 16.8501 88.9612 16.5401 88.4512 16.8301Z" fill="#E07E7E"/>
<path d="M93.5215 63.1199C93.0115 63.4099 92.6016 64.1999 92.6016 64.8799C92.6016 65.5599 93.0115 65.8699 93.5215 65.5799C94.0315 65.2899 94.4416 64.4899 94.4416 63.8199C94.4516 63.1399 94.0315 62.8199 93.5215 63.1199Z" fill="#E07E7E"/>
<path d="M84.041 69.83C84.041 70.51 84.451 70.82 84.961 70.53C85.471 70.24 85.881 69.44 85.881 68.77C85.881 68.09 85.471 67.78 84.961 68.07C84.451 68.36 84.041 69.15 84.041 69.83Z" fill="#E07E7E"/>
<path d="M88.131 36.11C87.621 36.4 87.2109 37.2 87.2109 37.87C87.2109 38.55 87.621 38.86 88.131 38.57C88.641 38.28 89.0509 37.49 89.0509 36.81C89.0509 36.13 88.641 35.82 88.131 36.11Z" fill="#E07E7E"/>
<path d="M82.7617 52.54C82.7617 53.22 83.1717 53.53 83.6817 53.24C84.1917 52.95 84.6017 52.15 84.6017 51.48C84.6017 50.8 84.1917 50.49 83.6817 50.78C83.1717 51.07 82.7617 51.86 82.7617 52.54Z" fill="#E07E7E"/>
<path d="M107.061 46.7899C107.061 46.1099 106.651 45.7999 106.141 46.0899C105.631 46.3799 105.221 47.1799 105.221 47.8499C105.221 48.5299 105.631 48.8399 106.141 48.5499C106.651 48.2599 107.061 47.4699 107.061 46.7899Z" fill="#E07E7E"/>
<path d="M89.9103 49.49C89.9103 48.81 89.5003 48.5 88.9903 48.79C88.4803 49.08 88.0703 49.87 88.0703 50.55C88.0703 51.23 88.4803 51.54 88.9903 51.25C89.5003 50.96 89.9103 50.17 89.9103 49.49Z" fill="#E07E7E"/>
<path d="M75.0508 81.71L110.851 61.04V0L75.0508 20.67V81.71ZM109.911 39.95L104.791 42.91C105.461 40.37 105.661 37.88 105.331 35.77L109.911 33.13V39.95ZM109.911 20.6L104.511 23.72V25.47C103.781 26.11 103.241 27.28 103.241 28.32C103.241 29.51 103.971 30.07 104.861 29.55C105.761 29.03 106.481 27.64 106.481 26.45C106.481 25.42 105.931 24.87 105.211 25.07V24.26L109.911 21.55V32.19L105.171 34.92C104.381 31.37 103.281 31.17 102.001 31.24C102.291 29.47 102.111 27.89 101.511 26.96C101.001 26.17 100.231 25.88 99.2808 26.12C99.4408 25.42 99.6208 24.53 99.6808 23.66L109.911 17.75V20.6ZM104.871 26.14C105.381 25.85 105.791 26.16 105.791 26.84C105.791 27.52 105.381 28.31 104.871 28.6C104.361 28.89 103.951 28.58 103.951 27.9C103.951 27.22 104.361 26.44 104.871 26.14ZM98.7508 27.24C99.7008 26.89 100.451 27.08 100.921 27.81C101.471 28.66 101.591 30.16 101.251 31.83L101.181 32.3L101.491 32.28C102.831 32.19 103.801 32.13 104.571 35.86C105.321 39.51 104.191 44.6 101.681 48.83C99.8008 52.01 96.0808 55.16 94.3108 55.08C93.6308 55.05 93.3008 54.57 93.3008 53.63V28.53C93.3008 26.27 93.9508 23.98 94.9908 22.54C95.3408 22.05 95.7308 21.69 96.1308 21.46C96.5608 21.21 97.0108 21.11 97.4708 21.18C99.4908 21.46 99.1408 24.03 98.4708 26.76L98.3108 27.39L98.7508 27.24ZM75.9908 21.38L109.911 1.79V12.49L102.651 16.68V13.67C103.381 13.04 103.921 11.86 103.921 10.82C103.921 9.63 103.191 9.07 102.301 9.59C101.401 10.11 100.681 11.5 100.681 12.69C100.681 13.72 101.231 14.27 101.951 14.07V18.01L109.911 13.42V16.81L99.6908 22.71C99.6208 21.43 99.1608 20.34 97.8008 20.16C96.8808 20.03 95.9508 20.46 95.1208 21.36V13.75L90.0408 16.69C89.8808 15.81 89.2308 15.46 88.4608 15.91C87.5608 16.43 86.8408 17.82 86.8408 19.01C86.8408 20.2 87.5708 20.76 88.4608 20.24C89.2408 19.79 89.8808 18.69 90.0408 17.63L94.4208 15.1V22.29C93.7708 23.29 93.2608 24.55 92.9508 25.91C92.6108 24.8 92.0208 24.08 91.2708 23.91C90.3208 23.7 89.2008 24.37 88.1008 25.79C85.5408 29.11 86.1508 31.95 86.6308 33.44C85.6708 34.32 84.9008 35.49 84.4008 36.87C83.8008 38.5 83.6208 40.28 83.9108 41.72C82.6008 43.16 81.4708 44.65 80.6708 49.46C79.8608 54.35 81.0808 58.45 83.7908 59.9C85.2708 60.69 87.7208 60.29 89.7408 59.12C90.5708 58.64 91.3208 58.04 91.9108 57.33C92.3808 56.77 92.7408 56.16 92.9708 55.53C93.2108 55.89 93.5608 56.08 94.0308 56.1C94.6208 56.13 95.3708 55.86 96.2008 55.38C98.2208 54.21 100.671 51.79 102.151 49.29C103.141 47.62 103.921 45.83 104.491 44.04L109.941 40.9V49.87L106.521 51.85V49.24C107.251 48.61 107.791 47.43 107.791 46.39C107.791 45.2 107.061 44.64 106.171 45.16C105.271 45.68 104.551 47.07 104.551 48.26C104.551 49.29 105.101 49.84 105.821 49.64V52.25L84.6108 64.47V67.38C83.8808 68.01 83.3408 69.19 83.3408 70.23C83.3408 71.42 84.0708 71.98 84.9608 71.46C85.8608 70.94 86.5808 69.55 86.5808 68.36C86.5808 67.33 86.0308 66.78 85.3108 66.98V65L109.911 50.79V54.41L95.1108 62.96C94.9508 62.08 94.3008 61.73 93.5308 62.18C92.6308 62.7 91.9108 64.09 91.9108 65.28C91.9108 66.47 92.6408 67.03 93.5308 66.51C94.3108 66.06 94.9508 64.96 95.1108 63.9L109.911 55.35V60.33L75.9808 79.92V21.38H75.9908ZM102.311 13C101.801 13.29 101.391 12.98 101.391 12.3C101.391 11.62 101.801 10.83 102.311 10.54C102.821 10.25 103.231 10.56 103.231 11.24C103.231 11.92 102.811 12.7 102.311 13ZM89.3808 17.53C89.3808 18.21 88.9708 19 88.4608 19.29C87.9508 19.58 87.5408 19.27 87.5408 18.59C87.5408 17.91 87.9508 17.12 88.4608 16.83C88.9608 16.54 89.3808 16.85 89.3808 17.53ZM88.1308 35.18C87.2308 35.7 86.5008 37.09 86.5008 38.28C86.5008 39.47 87.2308 40.03 88.1308 39.51C88.9108 39.06 89.5508 37.96 89.7108 36.9L92.6008 35.23V40.81L83.3308 46.16V50.1C82.6008 50.73 82.0608 51.91 82.0608 52.95C82.0608 54.14 82.7908 54.7 83.6908 54.18C84.5908 53.66 85.3108 52.27 85.3108 51.08C85.3108 50.05 84.7608 49.5 84.0408 49.7V46.7L92.6008 41.76V52.43L89.3408 54.31V51.94C90.0708 51.31 90.6108 50.13 90.6108 49.09C90.6108 47.9 89.8808 47.34 88.9908 47.86C88.0908 48.38 87.3608 49.77 87.3608 50.96C87.3608 51.99 87.9108 52.54 88.6308 52.34V55.65L92.6008 53.36V54.04C92.6008 54.98 92.2708 55.84 91.5908 56.66C89.8208 58.79 86.1008 59.93 84.2208 58.92C81.7208 57.58 80.5908 53.79 81.3308 49.28C82.1008 44.67 83.0708 43.61 84.4408 42.12L84.7508 41.79L84.6508 41.43C84.3108 40.15 84.4308 38.51 84.9808 37.02C85.4508 35.75 86.2008 34.69 87.1508 33.95L87.5808 33.61L87.4208 33.16C86.7508 31.2 86.4008 29.03 88.4208 26.42C88.8808 25.82 89.3308 25.4 89.7708 25.15C90.1708 24.92 90.5508 24.84 90.9008 24.92C91.9408 25.15 92.5908 26.69 92.5908 28.95V34.31L89.7008 35.98C89.5508 35.08 88.9008 34.73 88.1308 35.18ZM89.0508 36.81C89.0508 37.49 88.6408 38.28 88.1308 38.57C87.6208 38.86 87.2108 38.55 87.2108 37.87C87.2108 37.19 87.6208 36.4 88.1308 36.11C88.6408 35.82 89.0508 36.13 89.0508 36.81ZM83.6808 50.78C84.1908 50.49 84.6008 50.8 84.6008 51.48C84.6008 52.16 84.1908 52.95 83.6808 53.24C83.1708 53.53 82.7608 53.22 82.7608 52.54C82.7608 51.86 83.1808 51.07 83.6808 50.78ZM88.9908 51.25C88.4808 51.54 88.0708 51.23 88.0708 50.55C88.0708 49.87 88.4808 49.08 88.9908 48.79C89.5008 48.5 89.9108 48.81 89.9108 49.49C89.9108 50.17 89.4908 50.96 88.9908 51.25ZM106.141 48.55C105.631 48.84 105.221 48.53 105.221 47.85C105.221 47.17 105.631 46.38 106.141 46.09C106.651 45.8 107.061 46.11 107.061 46.79C107.061 47.47 106.651 48.26 106.141 48.55ZM84.9608 68.06C85.4708 67.77 85.8808 68.08 85.8808 68.76C85.8808 69.44 85.4708 70.23 84.9608 70.52C84.4508 70.81 84.0408 70.5 84.0408 69.82C84.0408 69.15 84.4508 68.36 84.9608 68.06ZM94.4508 63.81C94.4508 64.49 94.0408 65.28 93.5308 65.57C93.0208 65.86 92.6108 65.55 92.6108 64.87C92.6108 64.19 93.0208 63.4 93.5308 63.11C94.0308 62.82 94.4508 63.14 94.4508 63.81Z" fill="#45474C"/>
<path d="M19.8301 90L61.3801 66.01V24.84L19.8301 48.83V90Z" fill="white"/>
<path d="M61.7797 66.3099L19.4297 90.7599V48.5199L61.7797 24.0699V66.3099ZM20.2297 89.2299L60.9697 65.7099V25.6099L20.2297 49.1299V89.2299Z" fill="#45474C"/>
<path d="M57.1701 34.1099C57.6001 33.5599 58.0201 33.1599 58.4201 32.9299C58.7901 32.7199 59.1501 32.6399 59.4701 32.7099C60.4401 32.9199 61.0401 34.3599 61.0401 36.4499V59.7599C61.0401 60.6399 60.7301 61.4299 60.1001 62.1899C58.4501 64.1699 55.0001 65.2299 53.2601 64.2899C50.9401 63.0399 49.8801 59.5299 50.5801 55.3399C51.2901 51.0599 52.1901 50.0699 53.4401 48.7099L53.7201 48.3999L53.6501 48.0399C53.3301 46.8499 53.4501 45.3199 53.9601 43.9499C54.4001 42.7699 55.0901 41.7899 55.9701 41.0999L56.3701 40.7899L56.2301 40.3699C55.6201 38.5599 55.3001 36.5399 57.1701 34.1099Z" fill="#AAC4F4"/>
<path d="M48.7991 73.2699V69.8299C48.1191 70.0199 47.6191 69.5099 47.6191 68.5499C47.6191 67.4399 48.2991 66.1499 49.1291 65.6699C49.9591 65.1899 50.6391 65.6999 50.6391 66.8099C50.6391 67.7699 50.1291 68.8699 49.4591 69.4499V72.8899L48.7991 73.2699ZM49.9791 67.1799C49.9791 66.5499 49.5991 66.2599 49.1191 66.5299C48.6491 66.7999 48.2591 67.5399 48.2591 68.1699C48.2591 68.7999 48.6391 69.0899 49.1191 68.8199C49.5991 68.5499 49.9791 67.8099 49.9791 67.1799Z" fill="#45474C"/>
<path d="M50.1193 54.6099C50.8493 50.8699 51.8293 49.5699 52.9693 48.3099C52.6993 46.9699 52.8693 45.3199 53.4293 43.7999C53.8993 42.5199 54.6193 41.4299 55.5093 40.6199C55.3793 40.2099 55.2293 39.6999 55.1693 39.0799C55.0693 38.1999 55.1493 37.5599 55.1793 37.3799C55.3293 36.2299 55.7993 34.9199 56.8793 33.5099C57.5993 32.5799 58.3393 31.9999 59.0093 31.8099C59.1293 31.7799 59.7693 31.6199 60.2793 31.9699C60.7093 32.2599 61.0693 32.7499 61.3093 33.4399V61.2899C61.0893 61.8199 60.7893 62.3399 60.3893 62.8099C59.8493 63.4599 59.1493 64.0199 58.3793 64.4699C56.5093 65.5499 54.2293 65.9299 52.8593 65.1899C52.0693 64.7699 51.3593 64.1899 50.9193 63.2499C50.5993 62.5599 50.2693 61.7999 50.2093 61.6299C49.7693 60.2099 49.6193 58.4999 49.8093 56.6299C49.8293 56.4599 50.0893 54.7799 50.1193 54.6099ZM53.2693 64.2999C55.0093 65.2399 58.4693 64.1799 60.1093 62.1999C60.7393 61.4399 61.0493 60.6499 61.0493 59.7699V36.4599C61.0493 34.3599 60.4493 32.9299 59.4793 32.7199C59.1493 32.6499 58.7993 32.7199 58.4293 32.9399C58.0293 33.1699 57.6093 33.5699 57.1793 34.1199C55.3093 36.5499 55.6193 38.5599 56.2493 40.3799L56.3893 40.7999L55.9893 41.1099C55.1093 41.7999 54.4093 42.7799 53.9793 43.9599C53.4693 45.3399 53.3593 46.8699 53.6693 48.0499L53.7393 48.4099L53.4593 48.7199C52.2093 50.0799 51.3093 51.0599 50.5993 55.3499C49.8893 59.5399 50.9493 63.0499 53.2693 64.2999Z" fill="#45474C"/>
<path d="M42.8803 76.6899L42.0703 77.1499V64.9999L46.7803 62.2799V63.3499L42.8803 65.6099V76.6899Z" fill="#45474C"/>
<path d="M45.2988 63.6699C45.2988 64.7599 45.9688 65.2699 46.7888 64.7899C47.6088 64.3199 48.2788 63.0399 48.2788 61.9499C48.2788 60.8599 47.6088 60.3499 46.7888 60.8299C45.9588 61.3099 45.2988 62.5799 45.2988 63.6699Z" fill="#45474C"/>
<path d="M45.8691 63.3399C45.8691 64.0099 46.2791 64.3199 46.7791 64.0299C47.2791 63.7399 47.6891 62.9599 47.6891 62.2899C47.6891 61.6199 47.2791 61.3099 46.7791 61.5999C46.2791 61.8899 45.8691 62.6699 45.8691 63.3399Z" fill="white"/>
<path d="M37.8398 74.35C37.8398 75.44 38.5098 75.95 39.3298 75.47C40.1498 75 40.8198 73.72 40.8198 72.63C40.8198 71.54 40.1498 71.03 39.3298 71.51C38.5098 71.99 37.8398 73.26 37.8398 74.35Z" fill="#45474C"/>
<path d="M38.4199 74.0199C38.4199 74.6899 38.8299 74.9999 39.3299 74.7099C39.8299 74.4199 40.2399 73.6399 40.2399 72.9699C40.2399 72.2999 39.8299 71.9899 39.3299 72.2799C38.8299 72.5699 38.4199 73.3499 38.4199 74.0199Z" fill="#E07E7E"/>
<path d="M32.5703 73C32.5703 74.09 33.2403 74.6 34.0603 74.12C34.8803 73.65 35.5503 72.37 35.5503 71.28C35.5503 70.19 34.8803 69.68 34.0603 70.16C33.2403 70.63 32.5703 71.91 32.5703 73Z" fill="#45474C"/>
<path d="M33.1504 72.67C33.1504 73.34 33.5604 73.65 34.0604 73.36C34.5604 73.07 34.9704 72.29 34.9704 71.62C34.9704 70.95 34.5604 70.64 34.0604 70.93C33.5604 71.22 33.1504 72 33.1504 72.67Z" fill="#E07E7E"/>
<path d="M45.5098 54.58C45.5098 55.67 46.1798 56.18 46.9998 55.7C47.8198 55.23 48.4898 53.95 48.4898 52.86C48.4898 51.77 47.8198 51.26 46.9998 51.74C46.1798 52.22 45.5098 53.49 45.5098 54.58Z" fill="#45474C"/>
<path d="M46.0898 54.2499C46.0898 54.9199 46.4998 55.2299 46.9998 54.9399C47.4998 54.6499 47.9098 53.8699 47.9098 53.1999C47.9098 52.5299 47.4998 52.2199 46.9998 52.5099C46.4998 52.7999 46.0898 53.5799 46.0898 54.2499Z" fill="#E07E7E"/>
<path d="M38.6406 54.5199C38.6406 55.6099 39.3106 56.1199 40.1306 55.6399C40.9506 55.1699 41.6206 53.8899 41.6206 52.7999C41.6206 51.7099 40.9506 51.1999 40.1306 51.6799C39.3106 52.1499 38.6406 53.4199 38.6406 54.5199Z" fill="#45474C"/>
<path d="M39.2109 54.1898C39.2109 54.8598 39.6209 55.1698 40.1209 54.8798C40.6209 54.5898 41.0309 53.8099 41.0309 53.1399C41.0309 52.4699 40.6209 52.1598 40.1209 52.4498C39.6209 52.7398 39.2109 53.5198 39.2109 54.1898Z" fill="white"/>
<path d="M45.8696 54.91L19.8496 69.94V68.86L45.8696 53.84V54.91Z" fill="#45474C"/>
<path d="M32.8596 73.3699L19.8496 80.8799V79.8099L32.8596 72.2999V73.3699Z" fill="#45474C"/>
<path d="M39.7296 71.9599L38.9296 72.4199V63.6799L19.8496 74.6999V73.6299L39.7296 62.1499V71.9599Z" fill="#45474C"/>
<path d="M50.6402 45.94L49.8402 46.4V41.78L19.7402 59.16V58.08L50.6402 40.24V45.94Z" fill="#45474C"/>
<path d="M39.0402 54.83L19.7402 65.97V64.89L39.0402 53.75V54.83Z" fill="#45474C"/>
<path d="M48.75 47.0299C48.75 48.1199 49.42 48.6299 50.24 48.1499C51.06 47.6799 51.73 46.3999 51.73 45.3099C51.73 44.2199 51.06 43.7099 50.24 44.1899C49.42 44.6599 48.75 45.9299 48.75 47.0299Z" fill="#45474C"/>
<path d="M49.3301 46.6999C49.3301 47.3699 49.7401 47.6799 50.2401 47.3899C50.7401 47.0999 51.1501 46.3199 51.1501 45.6499C51.1501 44.9799 50.7401 44.6699 50.2401 44.9599C49.7301 45.2399 49.3301 46.0199 49.3301 46.6999Z" fill="#E07E7E"/>
<path d="M45.1301 40.28L19.8301 54.89V53.82L45.1301 39.21V40.28Z" fill="#45474C"/>
<path d="M54.2805 56.4999L53.4805 56.9699V51.4299L61.5105 46.7899V47.8599L54.2805 52.0399V56.4999Z" fill="#45474C"/>
<path d="M61.4406 58.09L57.6406 60.28V55.33L58.4506 54.86V58.74L61.4406 57.02V58.09Z" fill="#45474C"/>
<path d="M61.3796 41.93L57.5996 44.11V43.04L61.3796 40.86V41.93Z" fill="#45474C"/>
<path d="M44.3789 40.1799C44.3789 41.2699 45.0489 41.7799 45.8689 41.2999C46.6889 40.8299 47.3589 39.5499 47.3589 38.4599C47.3589 37.3699 46.6889 36.8599 45.8689 37.3399C45.0489 37.8099 44.3789 39.0799 44.3789 40.1799Z" fill="#45474C"/>
<path d="M44.959 39.8499C44.959 40.5199 45.369 40.8299 45.869 40.5399C46.369 40.2499 46.779 39.4699 46.779 38.7999C46.779 38.1299 46.369 37.8199 45.869 38.1099C45.369 38.3899 44.959 39.1699 44.959 39.8499Z" fill="#E07E7E"/>
<path d="M52.3906 57.59C52.3906 58.68 53.0606 59.19 53.8806 58.71C54.7006 58.24 55.3706 56.96 55.3706 55.87C55.3706 54.78 54.7006 54.27 53.8806 54.75C53.0606 55.23 52.3906 56.5 52.3906 57.59Z" fill="#45474C"/>
<path d="M52.9707 57.2599C52.9707 57.9299 53.3807 58.2399 53.8807 57.9499C54.3807 57.6599 54.7907 56.8799 54.7907 56.2099C54.7907 55.5399 54.3807 55.2299 53.8807 55.5199C53.3807 55.8099 52.9707 56.5899 52.9707 57.2599Z" fill="#E07E7E"/>
<path d="M56.1191 44.4299C56.1191 45.5199 56.7891 46.0299 57.6091 45.5499C58.4291 45.0799 59.0991 43.7999 59.0991 42.7099C59.0991 41.6199 58.4291 41.1099 57.6091 41.5899C56.7791 42.0599 56.1191 43.3399 56.1191 44.4299Z" fill="#45474C"/>
<path d="M56.6895 44.0999C56.6895 44.7699 57.0995 45.0799 57.5995 44.7899C58.0995 44.4999 58.5095 43.7199 58.5095 43.0499C58.5095 42.3799 58.0995 42.0699 57.5995 42.3599C57.0995 42.6499 56.6895 43.4299 56.6895 44.0999Z" fill="#E07E7E"/>
<path d="M56.5605 55.95C56.5605 57.04 57.2305 57.55 58.0505 57.07C58.8705 56.6 59.5405 55.32 59.5405 54.23C59.5405 53.14 58.8705 52.63 58.0505 53.11C57.2205 53.59 56.5605 54.86 56.5605 55.95Z" fill="#45474C"/>
<path d="M57.1309 55.6199C57.1309 56.2899 57.5409 56.5999 58.0409 56.3099C58.5409 56.0199 58.9509 55.2399 58.9509 54.5699C58.9509 53.8999 58.5409 53.5899 58.0409 53.8799C57.5409 54.1699 57.1309 54.9499 57.1309 55.6199Z" fill="#E07E7E"/>
<path d="M84.0697 114.13L39.3297 139.97L0.929688 117.8L45.6697 91.97L84.0697 114.13Z" fill="white"/>
<path d="M85 114.17L39.39 140.5L0 117.76L45.61 91.4299L85 114.17ZM39.26 139.43L83.13 114.1L45.74 92.5099L1.87001 117.84L39.26 139.43Z" fill="#45474C"/>
<path d="M11.8406 118.87C11.0906 118.97 10.5006 119.15 10.0706 119.4C9.67063 119.63 9.41063 119.92 9.30063 120.27C8.98063 121.29 9.99063 122.62 11.9406 123.75L33.6706 136.3C34.4906 136.77 35.3906 136.91 36.4406 136.73C39.1706 136.26 42.0206 133.61 42.0806 131.48C42.1706 128.64 39.4606 125.77 35.1806 124.16C30.8006 122.52 29.4006 122.83 27.4606 123.26L27.0206 123.36L26.7206 123.1C25.7806 122.17 24.2906 121.45 22.7406 121.18C21.4106 120.95 20.1106 121.07 19.0006 121.52L18.4906 121.72L18.1806 121.36C16.8206 119.82 15.1106 118.43 11.8406 118.87Z" fill="#E07E7E"/>
<path d="M52.8695 132.15L49.6595 130.3C50.1995 129.77 49.9995 129.03 49.0995 128.51C48.0695 127.91 46.4895 127.85 45.5995 128.36C44.6995 128.88 44.8195 129.78 45.8495 130.38C46.7495 130.9 48.0395 131.01 48.9495 130.7L52.1595 132.55L52.8695 132.15ZM46.5495 129.97C45.9595 129.63 45.8995 129.12 46.4095 128.82C46.9195 128.53 47.8095 128.56 48.3995 128.9C48.9895 129.24 49.0495 129.75 48.5395 130.05C48.0295 130.35 47.1395 130.31 46.5495 129.97Z" fill="#45474C"/>
<path d="M34.7599 123.33C30.8799 121.99 29.1499 122.21 27.3599 122.59C26.2499 121.62 24.6199 120.88 22.9099 120.59C21.4599 120.34 20.0599 120.42 18.8299 120.81C18.5199 120.47 18.1199 120.05 17.5799 119.66C16.8199 119.1 16.1699 118.82 15.9899 118.75C14.8399 118.27 13.3599 118 11.4699 118.26C10.2099 118.43 9.27987 118.8 8.72987 119.33C8.62987 119.43 8.14986 119.94 8.18986 120.6C8.22986 121.16 8.48986 121.75 8.99986 122.35L34.9699 137.34C35.5799 137.42 36.2199 137.42 36.8799 137.31C37.7799 137.15 38.6799 136.8 39.5099 136.33C41.5299 135.16 43.1099 133.25 43.1599 131.57C43.1899 130.61 43.0399 129.63 42.3899 128.72C41.9199 128.05 41.3899 127.33 41.2599 127.19C40.1699 126.01 38.6499 124.96 36.8099 124.12C36.6399 124.06 34.9399 123.39 34.7599 123.33ZM42.0899 131.48C42.0199 133.61 39.1799 136.26 36.4499 136.73C35.3999 136.91 34.4999 136.77 33.6799 136.3L11.9499 123.75C9.98987 122.62 8.97987 121.29 9.30987 120.27C9.41987 119.92 9.67986 119.63 10.0799 119.4C10.5099 119.15 11.1099 118.97 11.8499 118.87C15.1199 118.43 16.8299 119.81 18.1899 121.37L18.4999 121.73L19.0099 121.53C20.1299 121.08 21.4199 120.96 22.7499 121.19C24.3099 121.46 25.7999 122.17 26.7299 123.11L27.0299 123.37L27.4699 123.27C29.4099 122.84 30.8099 122.53 35.1899 124.17C39.4699 125.77 42.1799 128.64 42.0899 131.48Z" fill="#45474C"/>
<path d="M60.1092 127.96L59.2492 128.46L48.9092 122.5L44.6992 124.93L43.6992 124.35L48.7792 121.42L60.1092 127.96Z" fill="#45474C"/>
<path d="M45.7997 123.71C46.8197 124.3 46.9297 125.19 46.0497 125.7C45.1697 126.21 43.6197 126.15 42.5997 125.56C41.5797 124.97 41.4697 124.08 42.3497 123.57C43.2397 123.06 44.7797 123.12 45.7997 123.71Z" fill="#45474C"/>
<path d="M45.1904 124.07C45.8204 124.43 45.8804 124.98 45.3404 125.29C44.8004 125.6 43.8504 125.56 43.2204 125.2C42.5904 124.84 42.5304 124.29 43.0704 123.98C43.6104 123.67 44.5604 123.71 45.1904 124.07Z" fill="white"/>
<path d="M59.7802 122.51C60.8002 123.1 60.9102 123.99 60.0302 124.5C59.1502 125.01 57.6002 124.95 56.5802 124.36C55.5602 123.77 55.4502 122.88 56.3302 122.37C57.2102 121.86 58.7602 121.92 59.7802 122.51Z" fill="#45474C"/>
<path d="M59.1611 122.87C59.7911 123.23 59.8511 123.78 59.3111 124.09C58.7711 124.4 57.8211 124.36 57.1911 124C56.5611 123.64 56.5011 123.09 57.0411 122.78C57.5811 122.47 58.5311 122.51 59.1611 122.87Z" fill="#AAC4F4"/>
<path d="M61.3505 116.87C62.3705 117.46 62.4805 118.35 61.6005 118.86C60.7205 119.37 59.1705 119.31 58.1505 118.72C57.1305 118.13 57.0205 117.24 57.9005 116.73C58.7905 116.22 60.3305 116.28 61.3505 116.87Z" fill="#45474C"/>
<path d="M60.7412 117.23C61.3712 117.59 61.4312 118.14 60.8912 118.45C60.3512 118.76 59.4012 118.72 58.7712 118.36C58.1412 118 58.0812 117.45 58.6212 117.14C59.1612 116.83 60.1112 116.87 60.7412 117.23Z" fill="white"/>
<path d="M37.2099 119.02C38.2299 119.61 38.3399 120.5 37.4599 121.01C36.5799 121.52 35.0299 121.46 34.0099 120.87C32.9899 120.28 32.8799 119.39 33.7599 118.88C34.6499 118.37 36.1899 118.43 37.2099 119.02Z" fill="#45474C"/>
<path d="M36.5908 119.38C37.2208 119.74 37.2808 120.29 36.7408 120.6C36.2008 120.91 35.2508 120.87 34.6208 120.51C33.9908 120.15 33.9308 119.6 34.4708 119.29C35.0208 118.98 35.9708 119.02 36.5908 119.38Z" fill="#AAC4F4"/>
<path d="M40.8505 112.58C41.8705 113.17 41.9805 114.06 41.1005 114.57C40.2205 115.08 38.6705 115.02 37.6505 114.43C36.6305 113.84 36.5205 112.95 37.4005 112.44C38.2905 111.92 39.8305 111.99 40.8505 112.58Z" fill="#45474C"/>
<path d="M40.2314 112.93C40.8614 113.29 40.9214 113.84 40.3814 114.15C39.8414 114.46 38.8914 114.42 38.2614 114.06C37.6314 113.7 37.5714 113.15 38.1114 112.84C38.6614 112.53 39.6114 112.57 40.2314 112.93Z" fill="#AAC4F4"/>
<path d="M65.3501 103.35L37.3301 119.53L36.3301 118.95L64.3501 102.78L65.3501 103.35Z" fill="#45474C"/>
<path d="M75.5608 109.25L61.5508 117.34L60.5508 116.76L74.5608 108.67L75.5608 109.25Z" fill="#45474C"/>
<path d="M57.3909 122.49L56.5309 122.99L47.3809 117.7L68.7909 105.34L69.7909 105.92L49.2409 117.78L57.3909 122.49Z" fill="#45474C"/>
<path d="M27.2501 118.65L26.3901 119.15L21.0801 116.08L54.3501 96.8699L55.3501 97.4499L22.9401 116.16L27.2501 118.65Z" fill="#45474C"/>
<path d="M61.6999 101.12L40.9199 113.11L39.9199 112.54L60.6999 100.54L61.6999 101.12Z" fill="#45474C"/>
<path d="M28.4209 117.97C29.4409 118.56 29.5509 119.45 28.6709 119.96C27.7909 120.47 26.2408 120.41 25.2208 119.82C24.2008 119.23 24.0908 118.34 24.9708 117.83C25.8608 117.32 27.4009 117.38 28.4209 117.97Z" fill="#45474C"/>
<path d="M27.8017 118.33C28.4317 118.69 28.4917 119.24 27.9517 119.55C27.4117 119.86 26.4617 119.82 25.8317 119.46C25.2017 119.1 25.1417 118.55 25.6817 118.24C26.2317 117.93 27.1817 117.97 27.8017 118.33Z" fill="#AAC4F4"/>
<path d="M51.3301 95.2299L24.0801 110.97L23.0801 110.39L50.3301 94.6599L51.3301 95.2299Z" fill="#45474C"/>
<path d="M24.3798 110.21C25.3998 110.8 25.5098 111.69 24.6298 112.2C23.7498 112.71 22.1998 112.65 21.1798 112.06C20.1598 111.47 20.0498 110.58 20.9298 110.07C21.8198 109.56 23.3598 109.62 24.3798 110.21Z" fill="#45474C"/>
<path d="M23.7705 110.57C24.4005 110.93 24.4605 111.48 23.9205 111.79C23.3805 112.1 22.4305 112.06 21.8005 111.7C21.1705 111.34 21.1105 110.79 21.6505 110.48C22.1905 110.17 23.1405 110.21 23.7705 110.57Z" fill="#AAC4F4"/>
<path d="M121.751 101.21C121.691 101.24 121.741 101.95 121.381 102.38C120.551 102.29 120.261 103.38 120.131 103.76C119.881 104.52 120.951 105.48 121.751 105.82C122.551 106.16 124.091 105.29 124.331 103.82C124.581 102.36 124.211 101.88 124.211 101.88L121.751 101.21Z" fill="#F8E7DB"/>
<path d="M120.34 83.35C122.7 85.42 124.27 90.46 125.06 92.23C125.85 94 125.22 96.37 125.14 99.45C125.06 102.53 124.62 102.89 124.62 102.89C124.62 102.89 123.63 103.87 122.41 103.2C121.28 102.58 121.08 101.52 121.08 101.52L120.91 93.93C120.91 93.93 118.44 91.86 116.71 88.32C114.98 84.78 114.73 82.5 114.73 82.5C114.73 82.5 117.98 81.28 120.34 83.35Z" fill="#FDE5A8"/>
<path d="M109.13 134.05C109.3 134.53 109.74 134.52 109.93 135.49C110.17 136.71 110.29 137.89 109.53 138.36C108.82 138.8 107.36 138.9 106.82 137.74C104.64 138.03 102.42 135.75 102.12 135.08C101.55 133.79 102.39 132.63 104.23 133.2C106.07 133.77 107.44 134.31 107.44 134.31L109.13 134.05Z" fill="#45474C"/>
<path d="M121.911 127.21C122.081 127.69 122.521 127.68 122.711 128.65C122.951 129.87 123.071 131.05 122.311 131.52C121.601 131.96 120.141 132.06 119.601 130.9C117.421 131.19 115.201 128.91 114.901 128.24C114.331 126.95 115.171 125.79 117.011 126.36C118.851 126.93 120.221 127.47 120.221 127.47L121.911 127.21Z" fill="#45474C"/>
<path d="M111.051 74.9C112.281 74.41 113.591 74.79 114.571 75.73C115.501 76.62 115.761 77.53 115.621 78.42C115.571 78.71 115.231 79.95 115.011 80.27C114.371 81.25 112.981 82.19 112.311 82.73C111.461 83.42 110.331 83.59 109.301 82.89C107.911 81.94 108.481 79.9 108.681 78.48C108.911 76.84 109.431 75.55 111.051 74.9Z" fill="#F8E7DB"/>
<path d="M122.74 119.39C122.37 117.41 121.36 116.72 120.8 116.34C121.02 115.85 121.6 112.55 120.15 108.29C121.18 106.05 120.68 103.55 119.45 101.52C118.96 101.58 118.47 101.62 117.98 101.65C117.38 102.11 116.8 102.62 116.19 103.05C115.41 103.6 114.54 104.04 113.78 104.61C112.67 105.45 112.15 106.66 112.39 107.98C113.38 111.72 113.96 111.61 116.08 115.59C116.24 115.89 116.11 116.63 116.27 116.96C116.51 117.45 116.5 117.65 117.13 118.27C117.52 119.63 118.77 124.88 118.69 127.96C119.92 129.04 121.91 129.58 122.45 128.18C122.81 123.97 123.07 121.16 122.74 119.39Z" fill="#AAC4F4"/>
<path d="M116.76 103.03C116.72 102.93 116.56 102.86 116.46 102.9C113.39 104.01 107.33 103.92 107.36 103.92C106.19 108.44 105.1 113.61 104.52 118.24C104.39 119.27 103.87 121.11 104.61 122.11C104.64 123.47 104.8 124.82 105.07 126.18C105.38 127.79 106.34 133.95 106.48 135.06C107.13 136.28 109.78 136.35 109.93 135.5C110.24 133.8 110.2 131.38 110.38 129.99C110.63 128.1 111.01 127.25 110.83 125.34C110.67 123.57 109.75 121.55 108.21 120.62C108.27 120.55 108.32 120.49 108.38 120.43C109.78 118.95 111.04 117.29 111.89 115.44C112.3 114.55 112.61 113.63 112.79 112.66C112.86 112.3 112.91 111.94 112.94 111.57C113.01 110.72 112.98 110.68 113.69 110.28C115.05 109.49 116.19 108.93 116.85 107.39C117.46 105.97 117.35 104.43 116.76 103.03Z" fill="url(#paint4_linear_254_2477)"/>
<path d="M111.899 84.4501C115.259 83.2401 116.239 82.5901 118.399 84.5201C119.739 85.7201 120.059 89.5701 119.859 91.5801C119.669 93.5901 120.029 97.8801 119.539 98.7601C119.139 99.4901 118.149 99.5501 119.229 100.62C120.079 101.47 119.229 101.8 118.789 102.57C117.949 104.02 115.179 105.93 112.349 105.9C109.519 105.87 107.389 105.26 106.929 104.51C106.469 103.75 106.499 103.13 107.369 102.25C107.949 101.66 106.929 98.9501 106.919 97.1401C106.919 96.1301 105.819 94.2701 105.669 91.1501C105.509 88.0301 108.069 85.8301 111.899 84.4501Z" fill="#FDE5A8"/>
<path d="M113.361 78.92C113.361 78.92 113.451 80.71 113.681 81.55C114.001 82.75 114.921 83.6 114.921 83.6C114.921 83.6 115.901 85.24 114.111 85.91C112.321 86.58 110.311 84.94 110.311 84.94C110.311 84.94 111.331 82.17 110.741 80.49C110.311 79.26 113.361 78.92 113.361 78.92Z" fill="#F8E7DB"/>
<path d="M110.34 74.2501C110.86 72.8901 112.7 73.08 113.06 74.2C114.18 72.93 116.5 73.69 117.42 74.84C117.8 75.31 117.89 76.0901 117.65 76.6001C118.28 76.7201 118.85 77.54 118.64 78.23C118.5 78.69 118.02 79.09 117.62 79.27C117.77 79.58 117.98 80.03 117.59 80.61C116.57 82.17 114.95 83.3401 114.16 84.5001C113.53 84.1301 111.99 82.7 111.25 82.02C110.38 81.22 109.38 79.2801 109.54 78.2501C108.75 78.0001 108.7 77.27 108.98 76.7C108.02 75.97 108.67 74.1401 110.34 74.2501Z" fill="#45474C"/>
<path d="M111.491 80.1C111.591 81.53 110.111 81.62 110.111 81.62L109.641 79.98C109.651 79.98 111.381 78.48 111.491 80.1Z" fill="#F8E7DB"/>
<path d="M98.26 87.11C98.26 87.11 97.24 82.68 96.15 80.54C95.06 78.4 94.47 78.14 94.06 78.41C93.66 78.68 94.43 79.49 94.77 80.15C95.11 80.81 95.32 81.21 95.32 81.21C95.32 81.21 94.61 81.23 93.85 82.45C93.09 83.67 94.02 84.71 94.63 85.62C95.24 86.53 95.7 87.73 95.7 87.73L98.26 87.11Z" fill="#F8E7DB"/>
<path d="M102.86 94.81C101.94 92.74 101.27 91.28 100.52 89.73C99.68 87.98 98.62 86.23 98.01 84.98C96.74 84.89 95.74 85.42 95 86.93C95.37 88.17 96.6 92.06 97.27 93.53C97.71 94.51 98.63 96.6 99.49 97.5C100.78 96.2 101.29 95.7 102.86 94.81Z" fill="#FDE5A8"/>
<path d="M100.779 91.5801C101.089 91.3501 104.839 88.4801 106.559 87.7001C108.279 86.9301 108.689 87.4101 109.289 90.2901C109.889 93.1601 109.629 96.0701 107.819 97.0101C106.019 97.9501 101.539 98.4801 99.9093 97.8001C98.2693 97.1101 98.5693 93.2601 100.779 91.5801Z" fill="#FDE5A8"/>
<defs>
<linearGradient id="paint0_linear_254_2477" x1="9.80943" y1="101.606" x2="9.80943" y2="106.564" gradientUnits="userSpaceOnUse">
<stop stop-color="#97B2E3"/>
<stop offset="1" stop-color="#E2F1FF"/>
</linearGradient>
<linearGradient id="paint1_linear_254_2477" x1="41.2801" y1="83.5264" x2="41.2801" y2="88.4837" gradientUnits="userSpaceOnUse">
<stop stop-color="#97B2E3"/>
<stop offset="1" stop-color="#E2F1FF"/>
</linearGradient>
<linearGradient id="paint2_linear_254_2477" x1="65.2901" y1="70.503" x2="65.2901" y2="133.258" gradientUnits="userSpaceOnUse">
<stop stop-color="#97B2E3"/>
<stop offset="1" stop-color="#E2F1FF"/>
</linearGradient>
<linearGradient id="paint3_linear_254_2477" x1="39.5698" y1="13.3816" x2="39.5698" y2="102.981" gradientUnits="userSpaceOnUse">
<stop stop-color="#97B2E3"/>
<stop offset="1" stop-color="#E2F1FF"/>
</linearGradient>
<linearGradient id="paint4_linear_254_2477" x1="110.739" y1="102.888" x2="110.739" y2="136.069" gradientUnits="userSpaceOnUse">
<stop stop-color="#97B2E3"/>
<stop offset="1" stop-color="#E2F1FF"/>
</linearGradient>
</defs>
</svg>
