<svg width="129" height="86" viewBox="0 0 129 86" fill="none" xmlns="http://www.w3.org/2000/svg">
<path d="M71.7009 47.1963H14.4609V48.1963H71.7009V47.1963Z" fill="#AAC4F4"/>
<path d="M78.9247 50.7861L41.3145 72.6088L41.8164 73.4738L79.4266 51.6511L78.9247 50.7861Z" fill="#AAC4F4"/>
<path d="M82.4041 52.541L81.9023 53.406L119.513 75.2243L120.014 74.3593L82.4041 52.541Z" fill="#AAC4F4"/>
<path d="M41.3163 28.6891L40.8145 29.5541L78.4247 51.3723L78.9265 50.5073L41.3163 28.6891Z" fill="#AAC4F4"/>
<path d="M79.9609 54.5862H78.9609V77.2862H79.9609V54.5862Z" fill="#AAC4F4"/>
<path d="M66.9309 48.5063L67.3009 48.9263C67.4409 48.7963 67.6108 48.6663 67.8108 48.5463L73.3408 45.3563C74.5908 44.6363 76.5009 44.5563 77.5809 45.1763L86.4009 50.2663C86.4709 50.3063 86.5108 50.3463 86.5708 50.3863L86.9708 49.9263C86.9708 49.9263 87.4208 50.7763 87.0608 51.6763C87.0508 51.6863 87.0508 51.6963 87.0408 51.7163C86.9008 52.0763 86.5908 52.4163 86.0908 52.7063L80.5608 55.8963C79.3108 56.6163 77.4008 56.6963 76.3208 56.0763L67.5008 50.9863C67.1808 50.8063 66.9909 50.5762 66.8709 50.3362C66.8509 50.3062 66.8308 50.2763 66.8208 50.2363C66.4708 49.3463 66.9309 48.5063 66.9309 48.5063Z" fill="#AAC4F4"/>
<path d="M76.3207 55.2263L67.5007 50.1363C66.4207 49.5063 66.5507 48.4063 67.8007 47.6863L73.3307 44.4963C74.5807 43.7763 76.4907 43.6963 77.5707 44.3163L86.3907 49.4063C87.4707 50.0363 87.3407 51.1363 86.0907 51.8563L80.5607 55.0463C79.3207 55.7663 77.4107 55.8463 76.3207 55.2263Z" fill="url(#paint0_linear_254_3105)"/>
<path d="M76.4505 44.8462L75.7405 44.4362C75.6705 44.3962 75.5505 44.3962 75.4705 44.4462L75.0805 44.6762C75.0005 44.7262 74.9905 44.7962 75.0605 44.8362L75.7705 45.2462C75.8405 45.2862 75.9605 45.2862 76.0405 45.2362L76.4305 45.0062C76.5105 44.9562 76.5205 44.8862 76.4505 44.8462Z" fill="url(#paint1_linear_254_3105)"/>
<path d="M79.2496 46.4562L77.1096 45.2262C77.0396 45.1862 76.9196 45.1862 76.8396 45.2362L76.4496 45.4662C76.3696 45.5162 76.3596 45.5862 76.4296 45.6262L78.5696 46.8562C78.6396 46.8962 78.7596 46.8962 78.8396 46.8462L79.2296 46.6162C79.3096 46.5762 79.3196 46.4962 79.2496 46.4562Z" fill="url(#paint2_linear_254_3105)"/>
<path d="M80.6302 47.2562L79.9202 46.8462C79.8502 46.8062 79.7302 46.8062 79.6502 46.8562L79.2602 47.0862C79.1802 47.1362 79.1702 47.2062 79.2402 47.2462L79.9502 47.6562C80.0202 47.6962 80.1402 47.6962 80.2202 47.6462L80.6102 47.4162C80.6902 47.3662 80.7002 47.2962 80.6302 47.2562Z" fill="url(#paint3_linear_254_3105)"/>
<path d="M74.3411 46.0562L73.6311 45.6462C73.5611 45.6062 73.4411 45.6062 73.3611 45.6562L72.9711 45.8862C72.8911 45.9362 72.8811 46.0062 72.9511 46.0462L73.6611 46.4562C73.7311 46.4962 73.8511 46.4962 73.9311 46.4462L74.3211 46.2162C74.4111 46.1662 74.4111 46.0962 74.3411 46.0562Z" fill="url(#paint4_linear_254_3105)"/>
<path d="M75.72 46.8562L75.01 46.4462C74.94 46.4062 74.82 46.4062 74.74 46.4562L74.35 46.6862C74.27 46.7362 74.26 46.8062 74.33 46.8462L75.04 47.2562C75.11 47.2962 75.23 47.2962 75.31 47.2462L75.7 47.0162C75.78 46.9662 75.79 46.8962 75.72 46.8562Z" fill="url(#paint5_linear_254_3105)"/>
<path d="M77.1399 47.6762L76.43 47.2662C76.36 47.2262 76.2399 47.2262 76.1599 47.2762L75.7699 47.5062C75.6899 47.5562 75.6799 47.6262 75.7499 47.6662L76.4599 48.0762C76.5299 48.1162 76.6499 48.1162 76.7299 48.0662L77.12 47.8362C77.21 47.7862 77.2099 47.7162 77.1399 47.6762Z" fill="url(#paint6_linear_254_3105)"/>
<path d="M78.5208 48.4662L77.8108 48.0562C77.7408 48.0162 77.6208 48.0162 77.5408 48.0662L77.1508 48.2962C77.0708 48.3462 77.0608 48.4162 77.1308 48.4562L77.8408 48.8662C77.9108 48.9062 78.0308 48.9062 78.1108 48.8562L78.5008 48.6262C78.5808 48.5862 78.5908 48.5062 78.5208 48.4662Z" fill="url(#paint7_linear_254_3105)"/>
<path d="M73.2903 46.6661L72.5803 46.2562C72.5103 46.2162 72.3903 46.2161 72.3103 46.2661L71.9203 46.4961C71.8403 46.5461 71.8303 46.6161 71.9003 46.6561L72.6103 47.0661C72.6803 47.1061 72.8003 47.1061 72.8803 47.0561L73.2703 46.8261C73.3503 46.7761 73.3603 46.7061 73.2903 46.6661Z" fill="url(#paint8_linear_254_3105)"/>
<path d="M74.6712 47.4662L73.9612 47.0562C73.8912 47.0162 73.7712 47.0162 73.6912 47.0662L73.3012 47.2962C73.2212 47.3462 73.2112 47.4162 73.2812 47.4562L73.9912 47.8662C74.0612 47.9062 74.1812 47.9062 74.2612 47.8562L74.6512 47.6262C74.7312 47.5762 74.7412 47.5062 74.6712 47.4662Z" fill="url(#paint9_linear_254_3105)"/>
<path d="M76.0911 48.2863L75.3811 47.8763C75.3111 47.8363 75.1911 47.8363 75.1111 47.8863L74.7211 48.1163C74.6411 48.1663 74.6311 48.2363 74.7011 48.2763L75.4111 48.6863C75.4811 48.7263 75.6011 48.7263 75.6811 48.6763L76.0711 48.4463C76.1511 48.3963 76.1611 48.3263 76.0911 48.2863Z" fill="url(#paint10_linear_254_3105)"/>
<path d="M77.47 49.0762L76.76 48.6662C76.69 48.6262 76.57 48.6262 76.49 48.6762L76.1 48.9062C76.02 48.9562 76.01 49.0262 76.08 49.0662L76.79 49.4762C76.86 49.5162 76.98 49.5162 77.06 49.4662L77.45 49.2362C77.53 49.1862 77.54 49.1162 77.47 49.0762Z" fill="url(#paint11_linear_254_3105)"/>
<path d="M71.9603 47.4362L71.2502 47.0262C71.1802 46.9862 71.0603 46.9862 70.9803 47.0362L70.5902 47.2662C70.5102 47.3162 70.5003 47.3862 70.5703 47.4262L71.2802 47.8362C71.3502 47.8762 71.4703 47.8762 71.5503 47.8262L71.9402 47.5962C72.0202 47.5462 72.0303 47.4762 71.9603 47.4362Z" fill="url(#paint12_linear_254_3105)"/>
<path d="M73.3294 48.2362L72.6194 47.8262C72.5494 47.7862 72.4294 47.7862 72.3494 47.8362L71.9594 48.0662C71.8794 48.1162 71.8694 48.1862 71.9394 48.2262L72.6494 48.6362C72.7194 48.6762 72.8394 48.6762 72.9194 48.6262L73.3094 48.3962C73.3894 48.3462 73.3994 48.2762 73.3294 48.2362Z" fill="url(#paint13_linear_254_3105)"/>
<path d="M74.761 49.0562L74.051 48.6462C73.981 48.6062 73.861 48.6062 73.781 48.6562L73.391 48.8862C73.311 48.9362 73.301 49.0062 73.371 49.0462L74.081 49.4562C74.151 49.4962 74.271 49.4962 74.351 49.4462L74.741 49.2162C74.821 49.1662 74.831 49.0962 74.761 49.0562Z" fill="url(#paint14_linear_254_3105)"/>
<path d="M76.1302 49.8462L75.4202 49.4362C75.3502 49.3962 75.2302 49.3962 75.1502 49.4462L74.7602 49.6762C74.6802 49.7262 74.6702 49.7962 74.7402 49.8362L75.4502 50.2462C75.5202 50.2862 75.6402 50.2862 75.7202 50.2362L76.1102 50.0062C76.1902 49.9562 76.2002 49.8862 76.1302 49.8462Z" fill="url(#paint15_linear_254_3105)"/>
<path d="M75.3997 45.4462L74.6897 45.0362C74.6197 44.9962 74.4997 44.9962 74.4197 45.0462L74.0297 45.2762C73.9497 45.3262 73.9397 45.3962 74.0097 45.4362L74.7197 45.8462C74.7897 45.8862 74.9097 45.8862 74.9897 45.8362L75.3797 45.6062C75.4597 45.5662 75.4697 45.4962 75.3997 45.4462Z" fill="url(#paint16_linear_254_3105)"/>
<path d="M76.7708 46.2462L76.0608 45.8362C75.9908 45.7962 75.8708 45.7962 75.7908 45.8462L75.4008 46.0762C75.3208 46.1262 75.3108 46.1962 75.3808 46.2362L76.0908 46.6462C76.1608 46.6862 76.2808 46.6862 76.3608 46.6362L76.7508 46.4062C76.8308 46.3562 76.8408 46.2862 76.7708 46.2462Z" fill="url(#paint17_linear_254_3105)"/>
<path d="M78.2005 47.0662L77.4905 46.6562C77.4205 46.6162 77.3005 46.6162 77.2205 46.6662L76.8305 46.8962C76.7505 46.9462 76.7405 47.0162 76.8105 47.0562L77.5205 47.4662C77.5905 47.5062 77.7105 47.5062 77.7905 47.4562L78.1805 47.2262C78.2605 47.1762 78.2705 47.1062 78.2005 47.0662Z" fill="url(#paint18_linear_254_3105)"/>
<path d="M79.5696 47.8662L78.8596 47.4562C78.7896 47.4162 78.6696 47.4162 78.5896 47.4662L78.1996 47.6962C78.1196 47.7462 78.1096 47.8162 78.1796 47.8562L78.8896 48.2662C78.9596 48.3062 79.0796 48.3062 79.1596 48.2562L79.5496 48.0262C79.6296 47.9762 79.6396 47.9062 79.5696 47.8662Z" fill="url(#paint19_linear_254_3105)"/>
<path d="M82.0208 48.0562L81.3108 47.6462C81.2408 47.6062 81.1208 47.6062 81.0408 47.6562L80.6508 47.8862C80.5708 47.9362 80.5608 48.0062 80.6308 48.0462L81.3408 48.4562C81.4108 48.4962 81.5308 48.4962 81.6108 48.4462L82.0008 48.2162C82.0808 48.1762 82.0908 48.1062 82.0208 48.0562Z" fill="url(#paint20_linear_254_3105)"/>
<path d="M79.9206 49.2763L79.2107 48.8663C79.1407 48.8263 79.0206 48.8263 78.9406 48.8763L77.4907 49.7163C77.4107 49.7663 77.4006 49.8363 77.4706 49.8763L78.1807 50.2863C78.2507 50.3263 78.3706 50.3263 78.4506 50.2763L79.9007 49.4363C79.9807 49.3863 79.9906 49.3163 79.9206 49.2763Z" fill="url(#paint21_linear_254_3105)"/>
<path d="M77.5306 50.6561L76.8206 50.2461C76.7506 50.2061 76.6306 50.2061 76.5506 50.2561L76.1606 50.4861C76.0806 50.5361 76.0706 50.6061 76.1406 50.6461L76.8506 51.0561C76.9206 51.0961 77.0406 51.0961 77.1206 51.0461L77.5106 50.8161C77.5906 50.7661 77.6006 50.6961 77.5306 50.6561Z" fill="url(#paint22_linear_254_3105)"/>
<path d="M80.97 48.6661L80.26 48.2562C80.19 48.2162 80.07 48.2161 79.99 48.2661L79.6 48.4961C79.52 48.5461 79.51 48.6161 79.58 48.6561L80.29 49.0661C80.36 49.1061 80.48 49.1061 80.56 49.0561L80.95 48.8261C81.03 48.7761 81.04 48.7061 80.97 48.6661Z" fill="url(#paint23_linear_254_3105)"/>
<path d="M83.3997 48.8562L82.6897 48.4462C82.6197 48.4062 82.4997 48.4062 82.4197 48.4562L82.0297 48.6862C81.9497 48.7362 81.9397 48.8062 82.0097 48.8462L82.7197 49.2562C82.7897 49.2962 82.9097 49.2962 82.9897 49.2462L83.3797 49.0162C83.4597 48.9662 83.4697 48.8962 83.3997 48.8562Z" fill="url(#paint24_linear_254_3105)"/>
<path d="M86.2008 50.4763L84.0608 49.2463C83.9908 49.2063 83.8708 49.2063 83.7908 49.2563L83.4008 49.4863C83.3208 49.5363 83.3108 49.6063 83.3808 49.6463L85.5208 50.8763C85.5908 50.9163 85.7108 50.9163 85.7908 50.8663L86.1808 50.6363C86.2608 50.5863 86.2708 50.5163 86.2008 50.4763Z" fill="url(#paint25_linear_254_3105)"/>
<path d="M81.2903 50.0762L80.5803 49.6662C80.5103 49.6262 80.3903 49.6262 80.3103 49.6762L79.9203 49.9062C79.8403 49.9562 79.8303 50.0262 79.9003 50.0662L80.6103 50.4762C80.6803 50.5162 80.8003 50.5162 80.8803 50.4662L81.2703 50.2362C81.3503 50.1862 81.3603 50.1162 81.2903 50.0762Z" fill="url(#paint26_linear_254_3105)"/>
<path d="M82.6692 50.8662L81.9592 50.4562C81.8892 50.4162 81.7692 50.4162 81.6892 50.4662L81.2992 50.6962C81.2192 50.7462 81.2092 50.8162 81.2792 50.8562L81.9892 51.2662C82.0592 51.3062 82.1792 51.3062 82.2592 51.2562L82.6493 51.0262C82.7293 50.9762 82.7392 50.9062 82.6692 50.8662Z" fill="url(#paint27_linear_254_3105)"/>
<path d="M84.0911 51.6862L83.3811 51.2762C83.3111 51.2362 83.1911 51.2362 83.1111 51.2862L82.7211 51.5162C82.6411 51.5662 82.6311 51.6362 82.7011 51.6762L83.4111 52.0862C83.4811 52.1262 83.6011 52.1262 83.6811 52.0762L84.0711 51.8462C84.1511 51.7962 84.1611 51.7262 84.0911 51.6862Z" fill="url(#paint28_linear_254_3105)"/>
<path d="M80.2396 50.6762L79.5295 50.2662C79.4595 50.2262 79.3395 50.2262 79.2595 50.2762L78.8696 50.5062C78.7896 50.5562 78.7795 50.6262 78.8495 50.6662L79.5595 51.0762C79.6295 51.1162 79.7495 51.1162 79.8295 51.0662L80.2195 50.8362C80.2995 50.7862 80.3096 50.7162 80.2396 50.6762Z" fill="url(#paint29_linear_254_3105)"/>
<path d="M81.6204 51.4762L80.9104 51.0662C80.8404 51.0262 80.7204 51.0262 80.6404 51.0762L80.2504 51.3062C80.1704 51.3562 80.1604 51.4262 80.2304 51.4662L80.9404 51.8762C81.0104 51.9162 81.1304 51.9162 81.2104 51.8662L81.6004 51.6362C81.6804 51.5862 81.6904 51.5162 81.6204 51.4762Z" fill="url(#paint30_linear_254_3105)"/>
<path d="M83.0403 52.2963L82.3303 51.8863C82.2603 51.8463 82.1403 51.8463 82.0603 51.8963L81.6703 52.1263C81.5903 52.1763 81.5803 52.2463 81.6503 52.2863L82.3603 52.6963C82.4303 52.7363 82.5503 52.7363 82.6303 52.6863L83.0203 52.4563C83.1003 52.4063 83.1103 52.3363 83.0403 52.2963Z" fill="url(#paint31_linear_254_3105)"/>
<path d="M78.9095 51.4462L78.1995 51.0362C78.1295 50.9962 78.0095 50.9962 77.9295 51.0462L77.5395 51.2762C77.4595 51.3262 77.4495 51.3962 77.5195 51.4362L78.2295 51.8462C78.2995 51.8862 78.4195 51.8862 78.4995 51.8362L78.8895 51.6062C78.9695 51.5662 78.9795 51.4862 78.9095 51.4462Z" fill="url(#paint32_linear_254_3105)"/>
<path d="M80.2806 52.2462L79.5706 51.8362C79.5006 51.7962 79.3806 51.7962 79.3006 51.8462L78.9106 52.0762C78.8306 52.1262 78.8206 52.1962 78.8906 52.2362L79.6006 52.6462C79.6706 52.6862 79.7906 52.6862 79.8706 52.6362L80.2606 52.4062C80.3406 52.3562 80.3506 52.2862 80.2806 52.2462Z" fill="url(#paint33_linear_254_3105)"/>
<path d="M81.7103 53.0662L81.0002 52.6562C80.9302 52.6162 80.8103 52.6162 80.7303 52.6662L80.3402 52.8962C80.2602 52.9462 80.2503 53.0162 80.3203 53.0562L81.0302 53.4662C81.1002 53.5062 81.2203 53.5062 81.3003 53.4562L81.6902 53.2262C81.7702 53.1762 81.7803 53.1062 81.7103 53.0662Z" fill="url(#paint34_linear_254_3105)"/>
<path d="M76.3802 51.2963L75.6702 50.8863C75.6002 50.8463 75.4802 50.8463 75.4002 50.8963L75.0102 51.1263C74.9302 51.1763 74.9202 51.2463 74.9902 51.2863L75.7002 51.6963C75.7702 51.7363 75.8902 51.7363 75.9702 51.6863L76.3602 51.4563C76.4402 51.4063 76.4502 51.3363 76.3802 51.2963Z" fill="url(#paint35_linear_254_3105)"/>
<path d="M77.761 52.0962L77.051 51.6862C76.981 51.6462 76.861 51.6462 76.781 51.6962L76.391 51.9262C76.311 51.9762 76.301 52.0462 76.371 52.0862L77.081 52.4962C77.151 52.5362 77.271 52.5362 77.351 52.4862L77.741 52.2562C77.821 52.2062 77.831 52.1362 77.761 52.0962Z" fill="url(#paint36_linear_254_3105)"/>
<path d="M79.1302 52.8862L78.4202 52.4762C78.3502 52.4362 78.2302 52.4362 78.1502 52.4862L77.7602 52.7162C77.6802 52.7662 77.6702 52.8362 77.7402 52.8762L78.4502 53.2863C78.5202 53.3263 78.6402 53.3262 78.7202 53.2762L79.1102 53.0462C79.1902 52.9962 79.2002 52.9262 79.1302 52.8862Z" fill="url(#paint37_linear_254_3105)"/>
<path d="M80.5598 53.7062L79.8499 53.2962C79.7799 53.2562 79.6599 53.2562 79.5799 53.3062L79.1899 53.5362C79.1099 53.5862 79.0999 53.6562 79.1699 53.6962L79.8799 54.1062C79.9499 54.1462 80.0699 54.1462 80.1499 54.0962L80.5399 53.8662C80.6199 53.8162 80.6298 53.7462 80.5598 53.7062Z" fill="url(#paint38_linear_254_3105)"/>
<path d="M82.3509 49.4662L81.6409 49.0562C81.5709 49.0162 81.4509 49.0162 81.3709 49.0662L80.9809 49.2962C80.9009 49.3462 80.8909 49.4162 80.9609 49.4562L81.6709 49.8662C81.7409 49.9062 81.8609 49.9062 81.9409 49.8562L82.3309 49.6262C82.4109 49.5762 82.4209 49.5062 82.3509 49.4662Z" fill="url(#paint39_linear_254_3105)"/>
<path d="M83.72 50.2562L83.01 49.8462C82.94 49.8062 82.82 49.8062 82.74 49.8562L82.35 50.0862C82.27 50.1362 82.26 50.2062 82.33 50.2462L83.04 50.6562C83.11 50.6962 83.23 50.6962 83.31 50.6462L83.7 50.4162C83.78 50.3662 83.79 50.2962 83.72 50.2562Z" fill="url(#paint40_linear_254_3105)"/>
<path d="M85.1497 51.0762L84.4397 50.6662C84.3697 50.6262 84.2497 50.6262 84.1697 50.6762L83.7797 50.9062C83.6997 50.9562 83.6897 51.0262 83.7597 51.0662L84.4697 51.4762C84.5397 51.5162 84.6597 51.5162 84.7397 51.4662L85.1297 51.2362C85.2097 51.1962 85.2197 51.1162 85.1497 51.0762Z" fill="url(#paint41_linear_254_3105)"/>
<path d="M61.6108 38.7563C61.9308 38.1463 62.6508 38.0862 62.7408 38.0762H62.7508H62.7608C63.0008 38.0662 63.3008 38.1662 63.5808 38.3262L74.0008 44.2863C74.6408 44.6563 75.2008 45.4562 75.5008 46.3262C75.6208 46.6762 77.6108 51.3662 78.2008 52.9162C78.4408 53.5562 78.5108 53.9963 78.4708 54.2863C78.4608 54.3363 78.4508 54.3762 78.4408 54.4062C78.2908 55.1063 77.4008 55.1463 77.4008 55.1463L77.3108 54.5063C77.2908 54.4963 77.2608 54.4862 77.2408 54.4662L67.8408 49.0363C66.8908 48.4863 66.1408 47.2262 65.5508 45.9662C65.5508 45.9662 63.3408 41.2462 62.6508 39.7762L62.4508 39.9662C62.4408 39.9662 61.3808 39.1863 61.6108 38.7563Z" fill="#AAC4F4"/>
<path d="M67.1309 49.4763L76.5309 54.9063C77.4809 55.4563 78.191 55.2063 77.4909 53.3463C76.9009 51.7963 74.9109 47.0963 74.7909 46.7563C74.4909 45.8863 73.9309 45.0863 73.2909 44.7163L62.871 38.7563C62.301 38.4263 61.6609 38.3663 61.5409 38.9463C61.4909 39.1863 61.6109 39.5163 61.7309 39.7763C61.8209 39.9663 64.8409 46.4063 64.8409 46.4063C65.4309 47.6663 66.1809 48.9263 67.1309 49.4763Z" fill="url(#paint42_linear_254_3105)"/>
<path d="M74.1418 54.4163L75.6318 55.2663L75.0818 53.9063L73.5918 53.0463L74.1418 54.4163Z" fill="#EDF3FE"/>
<path d="M73.5918 53.0462L73.8318 52.9062L75.3218 53.7663L75.0818 53.9062L73.5918 53.0462Z" fill="#EDF3FE"/>
<path d="M75.632 55.2662L75.862 55.1262L75.322 53.7662L75.082 53.9062L75.632 55.2662Z" fill="#AAC4F4"/>
<path d="M67.7609 50.7063L69.2509 51.5663L68.7009 50.2063L67.2109 49.3463L67.7609 50.7063Z" fill="#EDF3FE"/>
<path d="M67.2109 49.3463L67.4509 49.2063L68.9409 50.0663L68.7009 50.2063L67.2109 49.3463Z" fill="#EDF3FE"/>
<path d="M69.2512 51.5663L69.4912 51.4263L68.9412 50.0663L68.7012 50.2063L69.2512 51.5663Z" fill="#AAC4F4"/>
<path d="M80.5809 18.5763C79.4909 21.0963 78.5409 24.6863 78.5409 24.6863C78.5409 24.6863 75.0308 28.1963 73.0608 29.3863C71.0808 30.5763 69.9609 31.9863 69.4509 33.1763C68.9409 34.3663 71.0609 34.4263 72.2309 33.8163C73.3909 33.2063 74.0809 31.4763 74.3509 31.6463C74.6209 31.8163 74.5909 32.5663 74.9809 33.1763C75.3709 33.7863 75.4209 31.5063 75.6809 30.4663C75.9409 29.4163 79.2809 28.7663 80.5409 27.8963C81.8009 27.0263 83.7808 22.1963 83.7808 20.6963C83.7708 19.1963 80.5809 18.5763 80.5809 18.5763Z" fill="#F8E7DB"/>
<path d="M102.41 37.4363C102.58 37.3763 103.79 36.4063 104.3 35.1963C104.82 33.9863 106.48 33.0863 107.29 34.2863C108.09 35.4863 108.57 36.0063 109.07 36.7463C110.05 38.2163 110.6 38.9963 109.47 40.4163C108.34 41.8363 107.75 41.8263 107.17 41.4263C106.6 41.0263 106.77 39.6663 106.56 39.5563C106.35 39.4463 105.74 38.6963 105.28 38.9263C104.82 39.1563 102.41 37.4363 102.41 37.4363Z" fill="#F8E7DB"/>
<path d="M103.04 36.5162C102.71 36.3562 99.2605 38.6962 97.1905 40.2462C95.1205 41.7962 92.5505 45.8462 93.0905 47.0362C93.6305 48.2262 96.6805 49.9062 99.6305 46.8862C102.58 43.8662 105.74 39.5662 105.74 39.5662C105.74 39.5662 105.22 37.5462 103.04 36.5162Z" fill="url(#paint43_linear_254_3105)"/>
<path d="M93.9199 32.7863C94.0899 32.7263 95.2999 31.7562 95.8099 30.5462C96.3299 29.3362 97.9899 28.4362 98.7999 29.6362C99.5999 30.8362 100.08 31.3562 100.58 32.0962C101.56 33.5662 102.11 34.3462 100.98 35.7662C99.8499 37.1862 99.2599 37.1762 98.6799 36.7762C98.1099 36.3762 98.2799 35.0162 98.0699 34.9062C97.8599 34.7962 97.2499 34.0462 96.7899 34.2762C96.3299 34.5162 93.9199 32.7863 93.9199 32.7863Z" fill="#F8E7DB"/>
<path d="M95.3204 32.9963C95.0504 32.7563 91.0704 33.9963 88.6404 34.8763C86.2104 35.7663 82.5804 38.8963 82.7504 40.1863C82.8504 40.9863 80.4404 42.1963 81.9404 42.8863C84.2804 43.9663 87.6604 42.6963 89.0604 41.9263C92.7604 39.8863 97.0204 36.6863 97.0204 36.6863C97.0204 36.6863 97.1104 34.6163 95.3204 32.9963Z" fill="url(#paint44_linear_254_3105)"/>
<path d="M100.071 17.2163C97.6309 16.1163 96.4209 12.3863 96.1309 9.98626C95.8409 7.55626 96.2409 4.93625 95.3009 2.61625C94.5709 0.796251 93.1609 -0.083734 91.2009 0.00626598C90.2409 0.046266 89.2409 0.326259 88.5909 0.936259C88.0809 1.30626 87.801 1.91626 87.901 2.56626C87.901 2.59626 87.901 2.61626 87.901 2.63626C87.901 2.64626 87.911 2.65626 87.931 2.65626C87.941 2.71626 87.9509 2.77626 87.9709 2.84626C88.0409 3.04626 88.1809 3.25626 88.3609 3.43626C88.3809 3.45626 88.411 3.48627 88.431 3.50627C88.771 3.82627 89.2209 4.03625 89.6409 3.94625C90.3709 4.07625 91.1509 4.12625 91.5209 4.47625C92.4109 5.31625 92.1309 7.26626 92.2809 8.38626C92.4309 9.48626 92.5309 11.4063 92.7709 12.4963C93.4209 15.3163 96.3009 18.2963 100.071 17.2163Z" fill="#45474C"/>
<path d="M86.3516 2.4863C86.3516 2.4863 87.4116 1.03629 88.8316 1.99629C90.7116 3.26629 90.1616 4.5563 89.6816 4.8963C89.1916 5.2363 86.3516 2.4863 86.3516 2.4863Z" fill="url(#paint45_linear_254_3105)"/>
<path d="M81.9412 42.8963C83.2912 43.5163 84.7512 43.4063 86.3512 42.5463C87.3712 41.9963 87.5313 41.1863 88.3013 40.2563C88.3613 39.0063 89.7312 36.0563 89.7312 36.0563C89.7312 36.0563 89.3112 30.6963 90.3512 29.0263C89.3812 28.3963 87.9912 27.7463 87.6612 27.4563C83.4212 31.0363 81.1513 35.4263 80.6813 39.9563C80.5713 41.0563 80.7612 42.3563 81.9412 42.8963Z" fill="url(#paint46_linear_254_3105)"/>
<path d="M97.1621 46.2363C97.2921 46.1463 97.4021 46.0463 97.5221 45.9463C99.4221 42.1863 99.3921 38.3863 98.5421 34.1663C98.2921 32.9263 97.7721 30.0163 96.4921 29.3363C95.9721 29.0663 89.9321 29.2863 89.3221 29.0963C89.3121 29.0963 89.3021 29.0863 89.2821 29.0863C88.7421 30.9863 88.0821 33.4463 88.0221 34.4863C87.8621 37.1763 90.0221 37.8263 90.0221 37.8263C90.0221 37.8263 90.1121 39.2363 90.3921 40.4563C90.8021 42.4163 91.7121 46.0563 93.5521 47.6663C95.1421 48.2563 95.5821 47.3563 97.1621 46.2363Z" fill="url(#paint47_linear_254_3105)"/>
<path d="M83.9106 12.0763C85.5206 10.0263 86.4606 10.2863 88.4206 11.4063C90.8106 12.7763 93.4306 14.3363 94.4806 15.2063C96.2606 16.6863 96.6006 19.0362 96.9006 22.8662C96.9506 23.4462 97.3006 25.4263 97.5006 26.0163C98.2406 28.1063 97.8806 28.4563 97.3506 28.9463C97.6406 29.2263 97.9206 30.4563 97.3206 30.8063C94.5506 32.4363 88.3906 32.7163 86.2506 28.7863C86.1206 28.5463 86.4606 27.6863 86.6306 27.4663C86.1806 27.2163 85.8706 26.5963 85.8706 26.0163C85.0506 25.5763 84.3506 24.9063 84.1606 23.7363C82.5106 23.3663 80.7406 22.4363 81.2806 20.4563C81.5406 19.4863 82.3506 17.2863 82.6606 16.1663C83.2806 13.9663 83.4506 12.6663 83.9106 12.0763Z" fill="#EDF3FE"/>
<path d="M85.1607 13.1462C85.6107 13.0762 86.7907 12.4762 86.4407 10.2862C86.3407 9.67624 89.0907 8.03623 89.0907 8.11623C89.0607 10.0962 89.3707 12.3562 90.2807 13.3862C88.9707 14.7562 87.4807 18.2162 85.2407 17.7362C84.0107 17.4862 84.2707 15.6662 85.1607 13.1462Z" fill="#EDF3FE"/>
<path d="M84.1119 12.4663C84.1119 12.4663 83.7219 14.5163 83.4619 15.2563C83.2019 15.9963 82.6719 17.6963 82.6719 17.6963C82.6719 17.6963 83.4019 17.3163 83.8019 17.5163C84.2019 17.7163 84.5219 18.2463 84.8619 18.3363C85.2019 18.4263 85.6519 18.3363 85.6519 18.3363L85.8919 17.3963C85.8919 17.3963 85.1719 17.1963 85.1419 15.9963C85.1119 14.7963 85.2519 13.1663 85.2519 13.1663L84.1119 12.4663Z" fill="#EDF3FE"/>
<path d="M89.3912 11.6263C89.3712 11.6663 88.7812 13.0563 88.2012 14.1063C87.5912 15.2263 86.3512 16.3363 85.6812 16.8963C84.7112 17.7263 85.0712 19.0463 85.0712 19.0463C85.0712 19.0463 85.4212 18.1963 85.8812 18.3263C86.3412 18.4563 86.8112 18.8763 87.3612 19.3463C87.7612 18.6963 88.7212 18.0463 89.3812 16.9263C90.0212 15.8363 91.0412 13.9463 90.6612 12.6363C90.3012 11.3263 89.3912 11.6263 89.3912 11.6263Z" fill="#EDF3FE"/>
<path d="M82.8408 5.68627C84.5908 5.29627 85.5108 5.21627 87.0708 5.84627C87.9508 6.08627 88.7708 6.47627 89.5608 6.98627C89.6208 7.02627 89.6708 7.11627 89.6608 7.18627C89.2608 9.49627 88.4808 11.9463 85.8908 12.9663C83.7608 13.8063 82.5608 11.4663 82.1908 9.90627C81.7608 8.08627 81.6308 5.95627 82.8408 5.68627Z" fill="#F8E7DB"/>
<path d="M88.4714 3.34626C86.8014 1.99626 84.6814 2.15626 83.5314 3.09626C82.3114 4.08626 81.3314 5.55626 81.8814 7.13626C82.4514 7.24626 83.2714 6.73626 83.6514 6.40626C84.3514 7.18626 85.5914 8.11626 87.1114 7.90626C87.4114 8.86626 88.0514 10.9863 88.9314 10.9263C90.7014 7.30627 91.1614 5.52626 88.4714 3.34626Z" fill="#45474C"/>
<path d="M86.791 8.97627C86.791 8.97627 87.211 7.55628 88.131 8.28628C89.051 9.01628 87.751 10.4463 87.751 10.4463L86.791 8.97627Z" fill="#F8E7DB"/>
<path d="M91.1913 24.3363C91.1513 24.8663 91.2613 29.2763 91.2613 29.2763C91.2613 29.2763 89.0713 31.3263 88.1813 32.6563C87.7613 33.2763 86.8813 34.1663 86.4013 34.5063C85.8613 34.8863 85.1013 34.9863 84.7813 35.2263C84.1713 35.6763 83.2813 36.1463 83.0413 36.2763C82.8013 36.4063 82.9613 36.9363 83.5513 36.8363C84.1413 36.7363 84.5213 36.4863 84.7113 36.4863C84.9013 36.4863 83.9913 38.0963 83.5013 38.5763C83.0113 39.0663 82.4413 39.5863 82.2313 40.0763C82.0213 40.5663 83.1113 41.0663 84.1713 40.7563C85.2313 40.4463 86.5113 39.1163 86.8913 38.0663C87.2713 37.0163 87.4413 36.8663 87.9013 36.4063C88.0713 36.2363 90.5813 34.3663 91.7713 33.5263C92.9613 32.6863 94.4013 31.3163 94.5613 30.5463C94.6913 29.9163 95.0513 28.4863 95.3713 27.4263C95.6913 26.3663 95.8913 24.8163 95.8913 24.8163L91.1913 24.3363Z" fill="#F8E7DB"/>
<path d="M91.7809 15.6263C90.9909 17.2463 91.1009 23.5663 91.1009 23.5663C91.1009 23.5663 93.7109 24.0063 95.7609 24.4763C97.1109 22.0063 97.5309 18.7363 96.5809 16.7663C95.1409 13.7663 92.5609 14.0263 91.7809 15.6263Z" fill="#EDF3FE"/>
<path d="M91.1016 23.5664C91.1016 23.5664 92.1616 23.2664 93.5116 23.4864C94.8616 23.6964 95.9816 24.0664 95.9816 24.0664L95.8216 25.3464C95.8216 25.3464 93.8916 24.8664 93.0916 24.7864C92.2916 24.7064 91.2616 24.9064 91.2616 24.9064L91.1016 23.5664Z" fill="white"/>
<path d="M82.6717 11.2662C82.6717 11.2662 81.9417 12.1962 81.5317 13.1562C81.1317 14.1162 80.8717 15.4762 80.7517 16.3462C80.6317 17.2162 80.7117 17.7862 80.7117 17.7862C80.7117 17.7862 81.7717 18.3362 81.9517 18.4362C82.1717 18.0162 82.4317 16.9462 82.7217 16.0262C83.1417 14.6762 83.6617 12.6162 83.6617 12.6162C83.6617 12.6162 83.0517 11.8962 82.6717 11.2662Z" fill="#EDF3FE"/>
<path d="M80.7113 17.7863L80.2812 19.1263L81.5213 19.6962L82.0213 18.2663C82.0213 18.2663 81.5013 17.8263 80.7113 17.7863Z" fill="white"/>
<path d="M53.3898 29.0963C53.3898 32.8963 48.1498 35.9863 41.6998 35.9863C35.2398 35.9863 30.0098 32.9063 30.0098 29.0963C30.0098 25.2963 35.2498 22.2063 41.6998 22.2063C48.1598 22.2063 53.3898 25.2863 53.3898 29.0963Z" fill="#262E8A"/>
<path d="M53.39 16.6562H30V29.0963H53.39V16.6562Z" fill="#262E8A"/>
<path d="M41.6998 23.5462C48.156 23.5462 53.3898 20.4615 53.3898 16.6562C53.3898 12.851 48.156 9.76624 41.6998 9.76624C35.2436 9.76624 30.0098 12.851 30.0098 16.6562C30.0098 20.4615 35.2436 23.5462 41.6998 23.5462Z" fill="#0038FF"/>
<path d="M23.3898 49.5262C23.3898 53.3262 18.1498 56.4162 11.6998 56.4162C5.24977 56.4162 0.00976562 53.3362 0.00976562 49.5262C0.00976562 45.7262 5.24977 42.6362 11.6998 42.6362C18.1498 42.6362 23.3898 45.7162 23.3898 49.5262Z" fill="#FDE5A8"/>
<path d="M23.39 37.0863H0V49.5263H23.39V37.0863Z" fill="#FDE5A8"/>
<path d="M11.69 43.9763C18.1462 43.9763 23.38 40.8915 23.38 37.0863C23.38 33.281 18.1462 30.1963 11.69 30.1963C5.23379 30.1963 0 33.281 0 37.0863C0 40.8915 5.23379 43.9763 11.69 43.9763Z" fill="#FDE5A8"/>
<path d="M39.5904 82.9963C46.0466 82.9963 51.2804 79.9115 51.2804 76.1063C51.2804 72.3011 46.0466 69.2163 39.5904 69.2163C33.1342 69.2163 27.9004 72.3011 27.9004 76.1063C27.9004 79.9115 33.1342 82.9963 39.5904 82.9963Z" fill="#262E8A"/>
<path d="M51.2904 68.5963H27.9004V76.1063H51.2904V68.5963Z" fill="#262E8A"/>
<path d="M39.5904 75.4863C46.0466 75.4863 51.2804 72.4015 51.2804 68.5963C51.2804 64.7911 46.0466 61.7063 39.5904 61.7063C33.1342 61.7063 27.9004 64.7911 27.9004 68.5963C27.9004 72.4015 33.1342 75.4863 39.5904 75.4863Z" fill="#0038FF"/>
<path d="M78.2193 85.9563C84.6755 85.9563 89.9093 82.8715 89.9093 79.0663C89.9093 75.261 84.6755 72.1763 78.2193 72.1763C71.7631 72.1763 66.5293 75.261 66.5293 79.0663C66.5293 82.8715 71.7631 85.9563 78.2193 85.9563Z" fill="#E07E7E"/>
<path d="M89.9193 71.5563H66.5293V79.0663H89.9193V71.5563Z" fill="#E07E7E"/>
<path d="M78.2193 78.4463C84.6755 78.4463 89.9093 75.3615 89.9093 71.5563C89.9093 67.751 84.6755 64.6663 78.2193 64.6663C71.7631 64.6663 66.5293 67.751 66.5293 71.5563C66.5293 75.3615 71.7631 78.4463 78.2193 78.4463Z" fill="#E07E7E"/>
<path d="M116.569 85.1862C123.025 85.1862 128.259 82.1015 128.259 78.2962C128.259 74.491 123.025 71.4062 116.569 71.4062C110.113 71.4062 104.879 74.491 104.879 78.2962C104.879 82.1015 110.113 85.1862 116.569 85.1862Z" fill="#E07E7E"/>
<path d="M128.259 61.2063H104.869V78.2963H128.259V61.2063Z" fill="#E07E7E"/>
<path d="M116.569 67.1963C123.025 67.1963 128.259 64.1115 128.259 60.3063C128.259 56.501 123.025 53.4163 116.569 53.4163C110.113 53.4163 104.879 56.501 104.879 60.3063C104.879 64.1115 110.113 67.1963 116.569 67.1963Z" fill="#E07E7E"/>
<defs>
<linearGradient id="paint0_linear_254_3105" x1="76.946" y1="43.8989" x2="76.946" y2="55.6439" gradientUnits="userSpaceOnUse">
<stop stop-color="#97B2E3"/>
<stop offset="1" stop-color="#E2F1FF"/>
</linearGradient>
<linearGradient id="paint1_linear_254_3105" x1="75.7555" y1="44.4073" x2="75.7555" y2="45.2751" gradientUnits="userSpaceOnUse">
<stop stop-color="#97B2E3"/>
<stop offset="1" stop-color="#E2F1FF"/>
</linearGradient>
<linearGradient id="paint2_linear_254_3105" x1="77.8397" y1="45.1974" x2="77.8397" y2="46.8852" gradientUnits="userSpaceOnUse">
<stop stop-color="#97B2E3"/>
<stop offset="1" stop-color="#E2F1FF"/>
</linearGradient>
<linearGradient id="paint3_linear_254_3105" x1="79.9352" y1="46.8174" x2="79.9352" y2="47.6851" gradientUnits="userSpaceOnUse">
<stop stop-color="#97B2E3"/>
<stop offset="1" stop-color="#E2F1FF"/>
</linearGradient>
<linearGradient id="paint4_linear_254_3105" x1="73.6478" y1="45.6173" x2="73.6478" y2="46.485" gradientUnits="userSpaceOnUse">
<stop stop-color="#97B2E3"/>
<stop offset="1" stop-color="#E2F1FF"/>
</linearGradient>
<linearGradient id="paint5_linear_254_3105" x1="75.025" y1="46.4173" x2="75.025" y2="47.2851" gradientUnits="userSpaceOnUse">
<stop stop-color="#97B2E3"/>
<stop offset="1" stop-color="#E2F1FF"/>
</linearGradient>
<linearGradient id="paint6_linear_254_3105" x1="76.4467" y1="47.2373" x2="76.4467" y2="48.105" gradientUnits="userSpaceOnUse">
<stop stop-color="#97B2E3"/>
<stop offset="1" stop-color="#E2F1FF"/>
</linearGradient>
<linearGradient id="paint7_linear_254_3105" x1="77.8258" y1="48.0273" x2="77.8258" y2="48.8951" gradientUnits="userSpaceOnUse">
<stop stop-color="#97B2E3"/>
<stop offset="1" stop-color="#E2F1FF"/>
</linearGradient>
<linearGradient id="paint8_linear_254_3105" x1="72.5953" y1="46.2273" x2="72.5953" y2="47.095" gradientUnits="userSpaceOnUse">
<stop stop-color="#97B2E3"/>
<stop offset="1" stop-color="#E2F1FF"/>
</linearGradient>
<linearGradient id="paint9_linear_254_3105" x1="73.9762" y1="47.0273" x2="73.9762" y2="47.8951" gradientUnits="userSpaceOnUse">
<stop stop-color="#97B2E3"/>
<stop offset="1" stop-color="#E2F1FF"/>
</linearGradient>
<linearGradient id="paint10_linear_254_3105" x1="75.3961" y1="47.8474" x2="75.3961" y2="48.7152" gradientUnits="userSpaceOnUse">
<stop stop-color="#97B2E3"/>
<stop offset="1" stop-color="#E2F1FF"/>
</linearGradient>
<linearGradient id="paint11_linear_254_3105" x1="76.775" y1="48.6373" x2="76.775" y2="49.5051" gradientUnits="userSpaceOnUse">
<stop stop-color="#97B2E3"/>
<stop offset="1" stop-color="#E2F1FF"/>
</linearGradient>
<linearGradient id="paint12_linear_254_3105" x1="71.2653" y1="46.9973" x2="71.2653" y2="47.865" gradientUnits="userSpaceOnUse">
<stop stop-color="#97B2E3"/>
<stop offset="1" stop-color="#E2F1FF"/>
</linearGradient>
<linearGradient id="paint13_linear_254_3105" x1="72.6344" y1="47.7973" x2="72.6344" y2="48.6651" gradientUnits="userSpaceOnUse">
<stop stop-color="#97B2E3"/>
<stop offset="1" stop-color="#E2F1FF"/>
</linearGradient>
<linearGradient id="paint14_linear_254_3105" x1="74.066" y1="48.6173" x2="74.066" y2="49.485" gradientUnits="userSpaceOnUse">
<stop stop-color="#97B2E3"/>
<stop offset="1" stop-color="#E2F1FF"/>
</linearGradient>
<linearGradient id="paint15_linear_254_3105" x1="75.4352" y1="49.4073" x2="75.4352" y2="50.2751" gradientUnits="userSpaceOnUse">
<stop stop-color="#97B2E3"/>
<stop offset="1" stop-color="#E2F1FF"/>
</linearGradient>
<linearGradient id="paint16_linear_254_3105" x1="74.7047" y1="45.0073" x2="74.7047" y2="45.8751" gradientUnits="userSpaceOnUse">
<stop stop-color="#97B2E3"/>
<stop offset="1" stop-color="#E2F1FF"/>
</linearGradient>
<linearGradient id="paint17_linear_254_3105" x1="76.0758" y1="45.8074" x2="76.0758" y2="46.6751" gradientUnits="userSpaceOnUse">
<stop stop-color="#97B2E3"/>
<stop offset="1" stop-color="#E2F1FF"/>
</linearGradient>
<linearGradient id="paint18_linear_254_3105" x1="77.5055" y1="46.6273" x2="77.5055" y2="47.4951" gradientUnits="userSpaceOnUse">
<stop stop-color="#97B2E3"/>
<stop offset="1" stop-color="#E2F1FF"/>
</linearGradient>
<linearGradient id="paint19_linear_254_3105" x1="78.8746" y1="47.4274" x2="78.8746" y2="48.2951" gradientUnits="userSpaceOnUse">
<stop stop-color="#97B2E3"/>
<stop offset="1" stop-color="#E2F1FF"/>
</linearGradient>
<linearGradient id="paint20_linear_254_3105" x1="81.3258" y1="47.6173" x2="81.3258" y2="48.485" gradientUnits="userSpaceOnUse">
<stop stop-color="#97B2E3"/>
<stop offset="1" stop-color="#E2F1FF"/>
</linearGradient>
<linearGradient id="paint21_linear_254_3105" x1="78.6957" y1="48.8374" x2="78.6957" y2="50.3152" gradientUnits="userSpaceOnUse">
<stop stop-color="#97B2E3"/>
<stop offset="1" stop-color="#E2F1FF"/>
</linearGradient>
<linearGradient id="paint22_linear_254_3105" x1="76.8356" y1="50.2173" x2="76.8356" y2="51.085" gradientUnits="userSpaceOnUse">
<stop stop-color="#97B2E3"/>
<stop offset="1" stop-color="#E2F1FF"/>
</linearGradient>
<linearGradient id="paint23_linear_254_3105" x1="80.275" y1="48.2273" x2="80.275" y2="49.095" gradientUnits="userSpaceOnUse">
<stop stop-color="#97B2E3"/>
<stop offset="1" stop-color="#E2F1FF"/>
</linearGradient>
<linearGradient id="paint24_linear_254_3105" x1="82.7047" y1="48.4173" x2="82.7047" y2="49.2851" gradientUnits="userSpaceOnUse">
<stop stop-color="#97B2E3"/>
<stop offset="1" stop-color="#E2F1FF"/>
</linearGradient>
<linearGradient id="paint25_linear_254_3105" x1="84.7908" y1="49.2174" x2="84.7908" y2="50.9052" gradientUnits="userSpaceOnUse">
<stop stop-color="#97B2E3"/>
<stop offset="1" stop-color="#E2F1FF"/>
</linearGradient>
<linearGradient id="paint26_linear_254_3105" x1="80.5953" y1="49.6373" x2="80.5953" y2="50.5051" gradientUnits="userSpaceOnUse">
<stop stop-color="#97B2E3"/>
<stop offset="1" stop-color="#E2F1FF"/>
</linearGradient>
<linearGradient id="paint27_linear_254_3105" x1="81.9743" y1="50.4274" x2="81.9743" y2="51.2951" gradientUnits="userSpaceOnUse">
<stop stop-color="#97B2E3"/>
<stop offset="1" stop-color="#E2F1FF"/>
</linearGradient>
<linearGradient id="paint28_linear_254_3105" x1="83.3961" y1="51.2473" x2="83.3961" y2="52.115" gradientUnits="userSpaceOnUse">
<stop stop-color="#97B2E3"/>
<stop offset="1" stop-color="#E2F1FF"/>
</linearGradient>
<linearGradient id="paint29_linear_254_3105" x1="79.5446" y1="50.2373" x2="79.5446" y2="51.105" gradientUnits="userSpaceOnUse">
<stop stop-color="#97B2E3"/>
<stop offset="1" stop-color="#E2F1FF"/>
</linearGradient>
<linearGradient id="paint30_linear_254_3105" x1="80.9254" y1="51.0373" x2="80.9254" y2="51.9051" gradientUnits="userSpaceOnUse">
<stop stop-color="#97B2E3"/>
<stop offset="1" stop-color="#E2F1FF"/>
</linearGradient>
<linearGradient id="paint31_linear_254_3105" x1="82.3453" y1="51.8574" x2="82.3453" y2="52.7252" gradientUnits="userSpaceOnUse">
<stop stop-color="#97B2E3"/>
<stop offset="1" stop-color="#E2F1FF"/>
</linearGradient>
<linearGradient id="paint32_linear_254_3105" x1="78.2145" y1="51.0073" x2="78.2145" y2="51.8751" gradientUnits="userSpaceOnUse">
<stop stop-color="#97B2E3"/>
<stop offset="1" stop-color="#E2F1FF"/>
</linearGradient>
<linearGradient id="paint33_linear_254_3105" x1="79.5856" y1="51.8074" x2="79.5856" y2="52.6751" gradientUnits="userSpaceOnUse">
<stop stop-color="#97B2E3"/>
<stop offset="1" stop-color="#E2F1FF"/>
</linearGradient>
<linearGradient id="paint34_linear_254_3105" x1="81.0153" y1="52.6273" x2="81.0153" y2="53.4951" gradientUnits="userSpaceOnUse">
<stop stop-color="#97B2E3"/>
<stop offset="1" stop-color="#E2F1FF"/>
</linearGradient>
<linearGradient id="paint35_linear_254_3105" x1="75.6852" y1="50.8574" x2="75.6852" y2="51.7252" gradientUnits="userSpaceOnUse">
<stop stop-color="#97B2E3"/>
<stop offset="1" stop-color="#E2F1FF"/>
</linearGradient>
<linearGradient id="paint36_linear_254_3105" x1="77.066" y1="51.6573" x2="77.066" y2="52.5251" gradientUnits="userSpaceOnUse">
<stop stop-color="#97B2E3"/>
<stop offset="1" stop-color="#E2F1FF"/>
</linearGradient>
<linearGradient id="paint37_linear_254_3105" x1="78.4352" y1="52.4474" x2="78.4352" y2="53.3151" gradientUnits="userSpaceOnUse">
<stop stop-color="#97B2E3"/>
<stop offset="1" stop-color="#E2F1FF"/>
</linearGradient>
<linearGradient id="paint38_linear_254_3105" x1="79.8649" y1="53.2673" x2="79.8649" y2="54.1351" gradientUnits="userSpaceOnUse">
<stop stop-color="#97B2E3"/>
<stop offset="1" stop-color="#E2F1FF"/>
</linearGradient>
<linearGradient id="paint39_linear_254_3105" x1="81.6559" y1="49.0273" x2="81.6559" y2="49.8951" gradientUnits="userSpaceOnUse">
<stop stop-color="#97B2E3"/>
<stop offset="1" stop-color="#E2F1FF"/>
</linearGradient>
<linearGradient id="paint40_linear_254_3105" x1="83.025" y1="49.8174" x2="83.025" y2="50.6851" gradientUnits="userSpaceOnUse">
<stop stop-color="#97B2E3"/>
<stop offset="1" stop-color="#E2F1FF"/>
</linearGradient>
<linearGradient id="paint41_linear_254_3105" x1="84.4547" y1="50.6373" x2="84.4547" y2="51.5051" gradientUnits="userSpaceOnUse">
<stop stop-color="#97B2E3"/>
<stop offset="1" stop-color="#E2F1FF"/>
</linearGradient>
<linearGradient id="paint42_linear_254_3105" x1="69.6514" y1="38.508" x2="69.6514" y2="55.164" gradientUnits="userSpaceOnUse">
<stop stop-color="#97B2E3"/>
<stop offset="1" stop-color="#E2F1FF"/>
</linearGradient>
<linearGradient id="paint43_linear_254_3105" x1="99.3792" y1="36.5082" x2="99.3792" y2="48.5891" gradientUnits="userSpaceOnUse">
<stop stop-color="#97B2E3"/>
<stop offset="1" stop-color="#E2F1FF"/>
</linearGradient>
<linearGradient id="paint44_linear_254_3105" x1="89.2344" y1="32.9659" x2="89.2344" y2="43.3038" gradientUnits="userSpaceOnUse">
<stop stop-color="#97B2E3"/>
<stop offset="1" stop-color="#E2F1FF"/>
</linearGradient>
<linearGradient id="paint45_linear_254_3105" x1="88.2485" y1="1.66779" x2="88.2485" y2="4.92552" gradientUnits="userSpaceOnUse">
<stop stop-color="#97B2E3"/>
<stop offset="1" stop-color="#E2F1FF"/>
</linearGradient>
<linearGradient id="paint46_linear_254_3105" x1="85.5029" y1="27.456" x2="85.5029" y2="43.2902" gradientUnits="userSpaceOnUse">
<stop stop-color="#97B2E3"/>
<stop offset="1" stop-color="#E2F1FF"/>
</linearGradient>
<linearGradient id="paint47_linear_254_3105" x1="93.5558" y1="29.086" x2="93.5558" y2="47.8535" gradientUnits="userSpaceOnUse">
<stop stop-color="#97B2E3"/>
<stop offset="1" stop-color="#E2F1FF"/>
</linearGradient>
</defs>
</svg>
